<svg xmlns="http://www.w3.org/2000/svg" viewBox="0 0 345.12 196.22"><defs><style>.cls-1{fill:#1a1c14;}</style></defs><g id="Layer_2" data-name="Layer 2"><g id="Layer_2-2" data-name="Layer 2"><path class="cls-1" d="M19.76,96.14a20.64,20.64,0,0,0,2.84,1.33c2.35,2.76,11.69,3.49,12.18-1,0-.36-.41-.84-.77-.54a7.94,7.94,0,0,1-1.22.79c2-1.76,3.12-4.45,2.28-6.88a4.89,4.89,0,0,0-1.93-4.11,5.4,5.4,0,0,0-1.07-.59,2.34,2.34,0,0,0-2.75-1.21A4.19,4.19,0,0,0,25,85.5c-.23.09-.45.18-.67.29a6.08,6.08,0,0,0-3.44,5.57c-.5,1.35-1,2.71-1.46,4.07A.61.61,0,0,0,19.76,96.14Zm13.38-7.37a6.13,6.13,0,0,1,.46.78c0,.14,0,.27,0,.4a4,4,0,0,1-1.3,3.21A16.77,16.77,0,0,0,33.14,88.77Zm-.32,5.85a4.75,4.75,0,0,0,1-1c-1.07,3-4.8,3.86-7.66,3.7-.28-.07-.56-.13-.84-.22a2.76,2.76,0,0,1-1.51-1.15C26.63,97.32,30.46,96.34,32.82,94.62ZM29.17,91.8a4.21,4.21,0,0,0,1.7-1.26,2.61,2.61,0,0,0,.19-.27,3.43,3.43,0,0,0,.53-.48c-.05,1.26-.35,2.63-1.43,2.65a3.17,3.17,0,0,1-1.46-.29A3.82,3.82,0,0,0,29.17,91.8Zm-4.72.77a5.84,5.84,0,0,0,1.3.28h.05a4.67,4.67,0,0,0,1.68-.15,5.78,5.78,0,0,0,4.22,1,9.19,9.19,0,0,1-5.78,1.39,4.48,4.48,0,0,1-2.81-1.16,7.89,7.89,0,0,1-.06-1.28A5.4,5.4,0,0,0,24.45,92.57Zm-3.36,1a6.82,6.82,0,0,0,.6,2.46L21,95.63C20.54,95.43,20.78,94.43,21.09,93.52ZM37.8,129.45c.08-.76,0-1.55,0-2.32a10.66,10.66,0,0,1,.45-2.62c10.45-4.61,14.88-19.9,8.36-29.71a11.19,11.19,0,0,0,.22-2.39.78.78,0,0,0-1.24-.6,4.07,4.07,0,0,0-1,1.15.41.41,0,0,0,.39.54l.26,0A3.46,3.46,0,0,1,44,96a1.39,1.39,0,0,1-1.33.24A1.73,1.73,0,0,0,43.21,94a.66.66,0,0,0-.61-.35,1.78,1.78,0,0,0-1.73,1.94h0c-.39-.31-.8.28-.49.6a1.57,1.57,0,0,0,.76.44,2,2,0,0,0,1.17,1.06,3.45,3.45,0,0,0,4-2c2.51,5.72,3.22,11.37,1,17.4a19.2,19.2,0,0,1-12.9,11.53,6.79,6.79,0,0,1,1.36-4.65c.23-.35-.28-.88-.54-.49a9.33,9.33,0,0,0-1.64,5.32,14.52,14.52,0,0,1-2.07.29,103.47,103.47,0,0,0-12.89-5.46c-2.63-1-5.26-2-7.84-3.16-1-.46-2-1-3-1.48l-1.46-.81a5.22,5.22,0,0,1-4.27-4.21,5.83,5.83,0,0,0,4.15-.84,7.17,7.17,0,0,0,.59,2.9c.86,2,3.49,3.76,5.58,2.64.26-.14.12-.59-.16-.6-4-.06-5.07-2.7-4.93-5.67a11.55,11.55,0,0,0,1.17-1c.36-.35-.16-1-.57-.66a5,5,0,0,1-.46.34c.08-.5.18-1,.3-1.48.06.08.11.16.18.24A15.71,15.71,0,0,0,11,108.6c2,1.52,2.75,3.86,4.58,5.46s3.85,2.52,6,1.07a.47.47,0,0,0-.33-.84c-4,.56-5.56-3.41-7.71-5.88-1.85-2.14-7.09-4.46-2.56-7.66,2.07-1.47,4.19-2.83,6.22-4.35,1.72-1.28,1.28-1.26,1.81-3.32.13-.47-.6-.84-.75-.3-1,3.68-13.12,6.61-11,11.76a15.24,15.24,0,0,0-.86,3.12,7.29,7.29,0,0,1-5.15.42.85.85,0,0,0-1.15.67c-.78,5.8,9.22,9.06,13.15,10.76,5,2.15,10.22,3.8,15.14,6.18s8.6,5.62,12.37,9.31a.56.56,0,0,0,.9-.67A18.86,18.86,0,0,0,37.8,129.45Zm-.7-.63a29.64,29.64,0,0,0-4.14-3c.29,0,.57-.06.85-.09a3.18,3.18,0,0,0,.25.67.22.22,0,0,0,.42-.06,5.63,5.63,0,0,0,0-.71,16.43,16.43,0,0,0,2.93-.81A9.48,9.48,0,0,0,37.1,128.82ZM22.62,113.61a15.9,15.9,0,0,0,3.86,1.2,12,12,0,0,0,8,.58,9.4,9.4,0,0,0,1-.31,5.09,5.09,0,0,0,5.8-3.86A7.51,7.51,0,0,0,38,103.37c-.88-2.28-2.56-4.13-5.31-3.65a.33.33,0,0,0-.12,0c-.05-.12-.15-.21-.29-.15a9,9,0,0,0-1.74.85,2.26,2.26,0,0,0-.26,0,.25.25,0,0,0-.25.34c-2.89,2-5.26,5.63-4,9a.35.35,0,0,0,.19.19,2.49,2.49,0,0,0,3.7,2c.68-.42-.08-1.4-.72-1.17-1.05-.93-1.22-1.76-.5-2.48a3.93,3.93,0,0,1,.5-.58,2.76,2.76,0,0,0,.1.63,6.25,6.25,0,0,0,0,1.21c.06.82,1.95,1.69,2.57,2a4.7,4.7,0,0,0,1.15.42,17.32,17.32,0,0,1-4,1.5,9.19,9.19,0,0,1-1.51.16,5.16,5.16,0,0,1-3-3.27c-.81-2.73,1.55-5.23,2.41-7.59,0-.09-.07-.24-.17-.16-2.62,2-5,6.71-2.84,9.8a7.34,7.34,0,0,0,.88,1,15.68,15.68,0,0,1-1.91-.46C22.43,113,22.33,113.48,22.62,113.61Zm17.64-2.71a4,4,0,0,1-2.45,2.85,5.86,5.86,0,0,0,2.28-6.32c0-.14-.1-.28-.15-.42A6,6,0,0,1,40.26,110.9Zm-7.88-10.69a.41.41,0,0,0,.44.33,3.63,3.63,0,0,1,3.88,2.06,10.39,10.39,0,0,0-4.86-2Zm-1.32,9a7,7,0,0,0,3.19.56c-.33.08-.67.14-1,.2A2.41,2.41,0,0,1,31.06,109.21Zm.65-1.28a2,2,0,0,1,1.14-1.45l.64,0a3.84,3.84,0,0,1,.48,0l.08,0Q33.42,109.05,31.71,107.93Zm4.15-1.1.2.09a1.7,1.7,0,0,1-.82,2.5A1.82,1.82,0,0,0,36,108,3.56,3.56,0,0,0,35.86,106.83Zm.79,3.66a3,3,0,0,1-2.53.76A8.2,8.2,0,0,0,36.65,110.49Zm-2.73,2a.37.37,0,0,0,0-.27,4.41,4.41,0,0,0,3.62-1.93,2.42,2.42,0,0,0-.21-3.46c-.28-1.21-.69-1.65-1.84-1.83-.3,0-.6-.07-.9-.08a3,3,0,0,0-2.34-.7,6.85,6.85,0,0,0-1.84.52c-.16-.11-.37-.11-.43.14l0,.1a8,8,0,0,0-3.19,2.93,10.37,10.37,0,0,1,1-3.14,11.34,11.34,0,0,1,3-3.39l1.75.7a.29.29,0,0,0,.19.15l.46.12a10.26,10.26,0,0,1,4.72,3.36c.16.55.3,1.09.44,1.58.07.23.35.13.35-.08,0,0,0-.08,0-.12,1.59,3.71-1.44,6-4.51,6.91a5,5,0,0,1-.5-.18.2.2,0,0,0-.19.35h0c-.33.08-.66.14-1,.19s-.61.07-.92.09A5.08,5.08,0,0,0,33.92,112.47Zm62.31-4.08c1.64-1.69,3.14-3.54,4.69-5.32.15-.18-.1-.47-.27-.27-1.53,1.8-3.14,3.55-4.58,5.43C96,108.33,96.13,108.5,96.23,108.39Zm-.2,3.22c1.38-1.5,2.43-3.35,3.71-5a49.12,49.12,0,0,1,4.2-4.58c.27-.26-.16-.76-.46-.47-2.81,2.75-6.19,6.1-7.7,9.79C95.71,111.57,95.88,111.77,96,111.61Zm8.43-9.74c-3.27,3.53-7.44,8.19-8.66,12.95-.07.26.23.5.42.25,1.37-1.78,2.28-4,3.5-5.89a48.84,48.84,0,0,1,5.24-6.67C105.27,102.17,104.79,101.51,104.46,101.87Zm5.93-3.23c-3.8,5.29-8.34,11-10.75,17.11-.09.24.22.47.39.25,4.07-5.24,7.12-11.43,11-16.86C111.3,98.75,110.69,98.22,110.39,98.64Zm4.32-.43c-3.55,4.92-8,9.85-10.79,15.25-.12.23.15.61.38.37,4.26-4.34,7.52-10.18,11.07-15.12C115.65,98.32,115,97.79,114.71,98.21Zm-8.44,17c3.94-4.84,7.5-10,11.21-15.05.28-.39-.34-.92-.66-.5-3.73,5-7.66,9.85-11.17,15C105.41,115,106,115.54,106.27,115.18Zm-18.8-7.46c1.37-.93,2.76-1.8,4.15-2.64-.18.42-.36.83-.58,1.23-.7,1.34-1.91,2.39-2.53,3.74-.1.22.09.57.36.43A6.29,6.29,0,0,0,91,108.15a8,8,0,0,0-.38,1.49.25.25,0,0,0,.46.18c1-1.33,1.5-3,2.4-4.38a20.64,20.64,0,0,1,2-2.51c.84-.44,1.69-.86,2.54-1.27a32.82,32.82,0,0,0-5.32,8.55c-.07.19.16.43.31.23,2.31-3.14,4.22-6.48,6.65-9.53a60.2,60.2,0,0,1,10.65-3.64c2.93-.7,5.93-.68,8.45-2.47,4-2.87,4.08.69,3.47,2.17a45.92,45.92,0,0,1-3.28,5.9c-.23.39-.48.77-.71,1.15a.63.63,0,0,0-.18.12c-2,2.24-4.17,4.45-6.16,6.77a.24.24,0,0,0-.14-.09c2.27-3.16,4.44-6.35,7-9.32.35-.41-.27-1.1-.64-.68-3.25,3.66-6.7,7.6-9,11.93-.18.34.24.87.62.71l.2-.1c-.3.39-.6.79-.87,1.2a.3.3,0,0,0,.43.39,50.4,50.4,0,0,0,4.52-4.6c-.7,1-1.41,1.93-2.14,2.89-2.19,2.87-6.2,2.46-9.41,3.23-7.64,1.81-11.11-4.63-16.9-7.9-1-.57-2,.87-.91,1.45,3.9,2.17,6.75,5.7,10.77,7.68,4.72,2.33,10-1.26,14.91-.55,2.1.3,7.75-10.15,8.83-11.9,2.25-3.62,5-7.73,5-12.12a.61.61,0,0,0-.51-.61,7.17,7.17,0,0,0-5.5,1.23c-3.15,2.14-7.91,2.18-11.56,3.14a53.09,53.09,0,0,0-13.22,5.53v0c0-.2-.15-.47-.37-.44a1.06,1.06,0,0,0-1,1.28,48.52,48.52,0,0,0-5.07,3.63C86.43,107.25,87,108.06,87.47,107.72Zm5.32-3.34.68-.38a17,17,0,0,0-1.08,1.45C92.53,105.1,92.67,104.74,92.79,104.38ZM34.51,84.53C36.05,79,38.1,73.64,40.06,68.28c-.59,1.61-.79,5-1.21,7.3-.53,2.89-1.42,5.67-2.23,8.49-.13.46.65.88.84.37s.37-1,.55-1.51c.1-.31.21-.61.31-.92a38.14,38.14,0,0,0,1.81-8.14,52.15,52.15,0,0,0,.46-6.93.31.31,0,0,0-.61-.08A145.38,145.38,0,0,1,34.71,82c.24-3.2.43-6.39.64-9.59a.41.41,0,1,0-.81-.08c-.27,4-.59,8-.77,12C33.76,84.73,34.38,85,34.51,84.53Zm82.07-65.75a183.09,183.09,0,0,1-14,21.32c-.24.33.1,1,.52.73l.09-.06h0a20,20,0,0,0,4.45-4.31c.14-.18-.11-.52-.29-.33-.63.65-1.28,1.26-1.95,1.84a135.69,135.69,0,0,0,11.78-18.7C117.43,18.86,116.83,18.32,116.58,18.78Zm12.67-6C124,20.06,118,27.82,114.42,36.1c-.09.22.2.45.36.24,5.47-7.31,9.76-15.61,15.13-23.06C130.19,12.89,129.56,12.36,129.25,12.79Zm5.51.68c-4.75,4.71-9.48,11.29-10.35,18.11a.24.24,0,0,0,.46.13c1.21-2.82,2-5.71,3.44-8.47a37.52,37.52,0,0,1,6.87-9.15C135.48,13.79,135.08,13.16,134.76,13.47Zm4.63-3.33c-4.55,6-8.92,13.25-10.27,20.72-.05.3.32.53.46.19,3-7.48,5.24-13.76,10.2-20.53C140,10.29,139.58,9.89,139.39,10.14Zm10.69.76c-3.88,5.38-8.34,11.5-10.36,17.88-.07.21.2.48.36.24,3.68-5.83,6.37-12.12,10.41-17.8C150.67,11,150.28,10.62,150.08,10.9Zm-1,10.24a53.61,53.61,0,0,1,5.14-8.08c.14-.18-.12-.48-.28-.27a40.46,40.46,0,0,0-5.07,8.2C148.82,21.13,149,21.3,149.1,21.14Zm9.44-10.94c-2.34,6.65-5.44,13.19-7.41,20,0,.18.19.47.33.23,3.45-6.07,5.49-13.32,7.51-20C159.05,10.11,158.65,9.88,158.54,10.2Zm0,18.33c3.92-6.42,7-13.41,10.37-20.13.17-.34-.33-.71-.52-.33-3.44,6.69-7.24,13.33-10.13,20.29C158.19,28.55,158.42,28.73,158.55,28.53Zm20.12-19c-3.51,5.94-7.63,11.84-10.49,18.13-.13.27.19.6.41.31,4.09-5.53,7.22-12,10.7-17.95C179.52,9.59,178.93,9.05,178.67,9.49Zm-4.25,16.34a64.46,64.46,0,0,1,8.87-13c.32-.36-.2-1-.55-.66A46.38,46.38,0,0,0,174,25.58C173.9,25.83,174.27,26.1,174.42,25.83ZM157.2,174.39a.22.22,0,1,0-.43-.07,25.44,25.44,0,0,0,1.42,13.38c.06.15.23,0,.19-.12A30.52,30.52,0,0,1,157.2,174.39Zm46.52-12.11c.13,4.88.72,10.49,3.2,14.79.13.22.43,0,.39-.19-1.11-4.94-2.68-9.32-2.86-14.48C204.44,161.93,203.7,161.75,203.72,162.28Zm3.73-5.92c.88,4.61,1.29,9.71,2.94,14.11.08.23.36.14.35-.08-.17-4.68-1.82-9.56-2.81-14.13A.25.25,0,1,0,207.45,156.36Zm30-19.9c.07-.59-.89-.88-1-.23-.33,3.43-.05,7.47,1.86,10.44.15.23.46,0,.41-.21C237.87,143,237,140.08,237.43,136.46Zm90.71-9.12c-9.69-2.4-18.46-5.43-27.15-10.42-9.5-5.46-17.63-7.6-28.37-5.23a13.19,13.19,0,0,0,2.68-2.9,21.25,21.25,0,0,1,3.38-.1c.47.7,1.6,1,2,.18a34.7,34.7,0,0,1,10,3.21c.41.2.66-.4.39-.67A16.4,16.4,0,0,0,280,106.73l.57-.43c.46-.33-.05-1.16-.5-.83a5.73,5.73,0,0,0-1.28,1.23,23.09,23.09,0,0,0-2.49.14.44.44,0,0,0-.12-.19c.18-.34.35-.69.5-1.05.08-.19-.17-.44-.31-.24-.36.55-.72,1.08-1.09,1.61l-.19,0c.6-.91,1.19-1.83,1.79-2.75.24-.38-.27-.85-.63-.65-1.85,1-3.61,2-5.32,3.1,0-.08,0-.16.05-.24.1-.41-.52-.8-.64-.32s-.18.74-.25,1.11a56.58,56.58,0,0,0-6.21,4.87l-.09,0a9.27,9.27,0,0,1,3.53-4.48c.54-.4-.17-1.14-.69-1-3.08,1.08-4.66,3.76-6.42,6.32l-.27.07c.5-1.09,1-2.18,1.44-3.29.18-.45-.5-1-.88-.65q-2.61,2.63-5.19,5.27l-1.76.58.36-1.08c.34-.47-.4-1.19-.83-.77a34.81,34.81,0,0,0-2.76,2.95c-4.67,1.67-9.26,3.56-13.75,5.58-.4.17-.13.87.26.7,4-1.77,8.14-3.31,12.27-4.73q-.49.64-1,1.32a19.3,19.3,0,0,0-1.56,2.77c-.2.2-.39.41-.59.62.44-1.12.92-2.29.92-2.3.49-.7-.83-1.57-1.31-.9a10.94,10.94,0,0,0-2.21,5.8l-.71.71c.12-.43.23-.87.31-1.31a.22.22,0,0,0-.42-.14c-.43,1-.88,2-1.38,2.88l-.25.23c.35-1.2.68-2.4,1-3.61.08-.34-.33-.78-.6-.41-2.41,3.33-4.74,6.49-6.88,9.84l-.27.23v-.08a9.47,9.47,0,0,1,1.23-1.78c.49-.57-.41-1.43-.93-.88a10.67,10.67,0,0,0-2.75,4.72c-1.42,1.13-2.85,2.24-4.31,3.32a.17.17,0,0,0-.12.06l-.05.06-2.13,1.55a15.67,15.67,0,0,0,.82-2.51c.16-.65-.85-1.11-1.07-.41a13.74,13.74,0,0,1-1.73,3.6,7.21,7.21,0,0,0-.75,1.22q-2.13,1.44-4.29,2.82a9.48,9.48,0,0,1,2.06-4.1c.35-.4-.25-1.08-.65-.67a12.13,12.13,0,0,0-3.31,6c-.2.12-.39.25-.59.36,0-.31,0-.62,0-.93s-.35-.42-.43-.13c-.14.51-.27,1-.42,1.54-.49.3-1,.59-1.49.88.07-.23.12-.45.21-.67a.82.82,0,0,0-.23-.92c-.42-.41-.83-.83-1.24-1.25a.73.73,0,1,0-1,1c.28.29.55.59.82.88a8.79,8.79,0,0,0-.55,2.07l-2,1.12a13.1,13.1,0,0,1,1.26-2.51c.57-.88-.81-1.85-1.38-1a15.27,15.27,0,0,0-2.13,4.71c-1,.53-2,1.05-3.05,1.56a4.78,4.78,0,0,1,.89-1.45c.35-.41-.22-.89-.6-.89-.7,0-1.39-.07-2.09-.12s-.48.85,0,.91l1,.13a5.66,5.66,0,0,0-1,2.25c-.54.26-1.08.53-1.63.78a1,1,0,0,0-1.55-.56,6.16,6.16,0,0,0-1.34,1.85q-3.08,1.35-6.23,2.55a.3.3,0,0,0-.32.12c-1.83.69-3.68,1.35-5.53,2-.17-1.22-.36-2.42-.55-3.64-.08-.56-1.06-.68-1,0,0,1.38.07,2.76.14,4.13-.81.26-1.63.53-2.45.78.29-.39.58-.77.83-1.18.15-.24-.17-.65-.42-.45a21.19,21.19,0,0,0-2.35,2.2l-1.35.38a8.19,8.19,0,0,0-1.67-3l0-.1c.06-.19-.18-.5-.35-.3l0,0-.33-.34a.77.77,0,1,0-1,1.15c.14.14.27.29.4.43-.73,1.07-1.38,2.21-2.1,3.26-.44.64-.19-1.66-.13-1.94a10.57,10.57,0,0,1,1-2.54c.42-.83-.91-1.59-1.36-.77-.64,1.17-2.06,4.1-1.45,5.85-.68.15-1.35.32-2,.46a33.56,33.56,0,0,0,1.56-3.26c.08-.23-.25-.54-.43-.32a42.07,42.07,0,0,0-2.59,3.87c-1.07.21-2.16.4-3.24.59,0-.06,0-.13,0-.19a7.26,7.26,0,0,1,.92-3.35c.21-.49-.46-1-.77-.5a8.11,8.11,0,0,0-1.6,3.95l-.45.43c-1.27.2-2.55.36-3.83.53a7.55,7.55,0,0,1,.11-1.48.84.84,0,0,0-.66-.91,2.47,2.47,0,0,1-.68-.25l.18-.55c0-.17-.21-.35-.31-.18s-.17.31-.25.46a2.29,2.29,0,0,1-.42-.49c-.52-.8-1.84-.16-1.3.71a3.86,3.86,0,0,0,1,1.08c-.34.66-.67,1.33-1,2l-1.25.12a7.91,7.91,0,0,1,.56-3.19c.36-.92-1.12-1.62-1.5-.7a10.83,10.83,0,0,0-.83,4c-.89.07-1.79.13-2.69.18l.09-.11c.14-.19-.1-.56-.33-.41a9.19,9.19,0,0,0-.81.58l-1.28,0c-.06-.67-.14-1.33-.19-2s-1-.69-1-.07,0,1.4-.05,2.1l-1.32,0a7.12,7.12,0,0,0,.64-2.06.26.26,0,0,0-.46-.19,24.52,24.52,0,0,1-1.42,2.27c-.65,0-1.3,0-2,0a29.45,29.45,0,0,1-.45-6c0-.48-.79-.7-.86-.17a31.2,31.2,0,0,0-.24,6.18c-1,0-2,0-3-.06a35.7,35.7,0,0,0,2.44-3.21c.16-.23-.13-.55-.36-.36a44.5,44.5,0,0,0-3.79,3.49l-1,0a7,7,0,0,1,.33-4.91c.23-.51-.66-1.08-.95-.55a8.62,8.62,0,0,0-1,5.36c-.92-.07-1.85-.13-2.77-.22h0a15.11,15.11,0,0,1,2.31-4c.16-.22-.13-.54-.35-.36a8,8,0,0,0-1.54,1.53c-.87,1.15-1.16,1.82-2.32,2-.12-1.79-.24-3.57-.47-5.36a.23.23,0,0,0-.42-.11c-.73,1-1.58,1.93-2.37,2.87-.07.09-2.36,3.12-2.73,1.36a33.59,33.59,0,0,1-.24-6c0-.55-.84-.66-.85-.06,0,2-.47,4.18-.21,6.16a3.39,3.39,0,0,0,.27,1c-1.17-.18-2.35-.35-3.52-.56,1.49-.3,2.38-2.46,2.55-3.84a.22.22,0,0,0-.41-.14c-.21.49-.4,1-.63,1.45-.32.66-1.35,1.67-2.2,1.29a.33.33,0,0,0-.43-.35,2.46,2.46,0,0,1-.38-.69c-.28-.78-.55-1.57-.81-2.36.27-.53.52-1.06.76-1.59.09-.19-.16-.42-.31-.23s-.5.65-.73,1c-.29-.88-.58-1.77-.87-2.64a.5.5,0,1,0-.93.34c.35,1.12.69,2.25,1,3.37l-.1.14c-.61.88-1.39,3.05-2.83,2.28-3-1.59-.62-5.59.69-7.47.29-.42-.39-.94-.71-.5-1.8,2.52-3.52,5.45-1.33,8.25a1.07,1.07,0,0,0,.14.16,147.12,147.12,0,0,1-17.66-5.34,4.53,4.53,0,0,0,1.77-2.19l-.06,1.71a.78.78,0,0,0,.44.71,3.21,3.21,0,0,0,5-1.85.28.28,0,0,0-.49-.26l-3.66-.15c-.07-1.66-.12-3.32-.16-5,0-.5-.9-.69-.92-.13-.09,2.41-4.87,7.71-3.64,2.48a4.53,4.53,0,0,0-.18-3.12c-.18-.65-1.32-.57-1.21.17a5.83,5.83,0,0,1,0,.59c0,.38-.08.85-.16,1.36a3.86,3.86,0,0,1-1.62,2.25,8.83,8.83,0,0,1-1.33,1L85,155.69a9,9,0,0,1,.23-1.7,23.06,23.06,0,0,0,0-5.63c0-.55-.85-.67-.86-.05a16.46,16.46,0,0,1-1.15,5.7,5.7,5.7,0,0,1-.78.53l-1.09-.5a3.92,3.92,0,0,1,.08-.76c-.11-1.46-.27-2.91-.41-4.36a.33.33,0,0,0-.66-.06A32.49,32.49,0,0,1,79.05,153l-1.34-.68a19,19,0,0,1,.5-4.35c.1-.46-.59-.84-.74-.31a21.94,21.94,0,0,0-.75,4.16c-.71-.37-1.43-.71-2.14-1.09a9.81,9.81,0,0,1,1-3.52c.23-.43-.42-1-.67-.5a10.85,10.85,0,0,0-1.14,3.61c-1.27-.68-2.53-1.38-3.79-2.1-.59-1.52-1.21-3-1.69-4.48-.17-.5-1-.41-.78.13.37,1.12.69,2.3,1,3.5-2-1.18-3.93-2.39-5.85-3.66a8.43,8.43,0,0,1-1-1.2.9.9,0,0,0-1.2-.28q-1.83-1.26-3.61-2.56c-.4-.3-.77.3-.41.57,1.16.87,2.32,1.72,3.5,2.56a.87.87,0,0,0,.13.76c1.41,2.11,4.45,3.59,5.95,5.74a27.53,27.53,0,0,0-.36,6.51c-.35-2-.64-4-.86-6.13a.22.22,0,0,0-.44,0,29.65,29.65,0,0,0,2.2,12.83.23.23,0,0,0,.44-.15c-.13-.53-.24-1.05-.35-1.58a14,14,0,0,0,.59,1.44,13.39,13.39,0,0,0,2.29,5.52c.17.23.45,0,.36-.23-1.42-3.75-2.28-7.2-1.86-10.84.23.89.47,1.78.74,2.69,1.1,3.61,1.94,6.79,1.34,10.65s-4-2.27-5.31-5c-.42-1.25-.82-2.49-1.19-3.74,0-.23-.11-.46-.15-.69a13.75,13.75,0,0,0,1.57,2.8.23.23,0,0,0,.4-.2c-1.17-5.54-2.71-10.24-2.05-16,.06-.45-.7-.69-.8-.19-.13.68-.24,1.39-.33,2.1l0-.25c-.36-2.13-1.06-4.17-3.45-4.1-.5,0-.31.79.14.8,2.4,0,2.47,4.57,2.46,7.31a.24.24,0,0,0-.13.25c.05.67.11,1.34.19,2a46.48,46.48,0,0,0,1.28,7.77,19,19,0,0,0,6.53,10.54.51.51,0,0,0,.79-.22c2.4-6,.55-11.52-.89-17.48a15,15,0,0,1-.3-2.57l.21-.61a.41.41,0,0,0-.29-.54,7.42,7.42,0,0,0-.9-3.43,8.76,8.76,0,0,0-.74-.94l1.74,1a28,28,0,0,0,2.56,6.73c.14.23.52.2.5-.11a22.14,22.14,0,0,0-1.41-5.63c1,.61,2.09,1.2,3.15,1.79l0,.29c-.07,1.13-.4,3.35.37,4.33,1.22,1.56,2-.66.87-.87a.19.19,0,0,0-.16.06c-.13-1-.24-2.95-.25-3.38.71.39,1.44.75,2.16,1.12a17.66,17.66,0,0,0,.57,4.74c.12.48.9.71,1.07.12.32-1.17.65-2.33,1-3.49l.95.45a2.59,2.59,0,0,0,1,2.09,1.43,1.43,0,0,0,2-.32.75.75,0,0,0,.53.74,6.59,6.59,0,0,0,2.11.09,143.38,143.38,0,0,0,30.06,9.38A17.65,17.65,0,0,0,117.8,177c-4.32,2-3.84-5.71-3.8-8.62,0-.42-.63-.64-.66-.16-.09,1.47-.45,3.32-.53,5.09,0-.06,0-.12-.07-.19a30,30,0,0,0-2.68-5.74c-.13-.21-.36,0-.31.17a58.51,58.51,0,0,0,2,6l.06.18a29.28,29.28,0,0,1-5.35-6.28c-.16-.27-.48.05-.33.29a21.8,21.8,0,0,0,5.87,6.52,18.27,18.27,0,0,0,1.57,3.66.28.28,0,0,0,.44.06,3.5,3.5,0,0,0,.67.59c.8.54,1.93-.12,2.61-.41.07,0,.39-.37.77-.63a12.56,12.56,0,0,0,1.23,1.69.21.21,0,0,0,.29.05c.24,1.22.55,2.45.77,3.66a.7.7,0,0,0,.64.62,5.73,5.73,0,0,0,.81.06.16.16,0,0,0,.26,0,4.92,4.92,0,0,0,2.68-.81c.13.35.26.7.41,1,.06.13.18.09.24,0a2.53,2.53,0,0,0,1.54,2.36c1.3.67,4.07-1.11,6.09-2.51a13,13,0,0,0,.39,2.05.19.19,0,0,0,.27.12,11,11,0,0,0,.4,2,.82.82,0,0,0,.74.57h2a.7.7,0,0,0,.63-.33l.24-.19c.12.28.5.12.45-.17,0-.06,0-.11,0-.17l1.39-1.15c-.26.81-.53,1.61-.8,2.41a.85.85,0,0,0,1.25,1c1.69-.86,3.37-1.75,5-2.65.06.1.12.21.19.31a6,6,0,0,0,.33,4.33,1,1,0,0,0,1.25.36c1.48-1,2.94-1.94,4.41-2.93.29.31.61.6.93.89-.08.64-.16,1.29-.25,1.93a.92.92,0,0,0,.7,1.07,7.44,7.44,0,0,0,6.91-2.3c.17,1.23.38,2.46.65,3.66.07.34.48.25.46-.08-.08-1.11-.15-2.22-.23-3.32l.21,1.41a.82.82,0,0,0,1,.74l1-.23a22.75,22.75,0,0,0,1.62,3.14c.17.28.5,0,.39-.29-.43-1-.82-2-1.16-3,.75-.18,1.51-.37,2.27-.58.54-.15.27-1-.24-1a12,12,0,0,1-2.49.13,26.65,26.65,0,0,1,.51-18.09c.18-.47-.55-.82-.75-.31a28.41,28.41,0,0,0-1.66,14.79.66.66,0,0,0-.89.05v0a114.15,114.15,0,0,1-.18-16.65c.82-1.18,1.69-2.32,2.53-3.48.38-.05.76-.13,1.14-.19a3.31,3.31,0,0,0,2.25,1.69c1.68.39,2-1.31,2.61-2.55,1.43-.28,2.86-.58,4.28-.9a1.27,1.27,0,0,0,1.13-.27c1-.23,2-.49,3-.75,0,.24,0,.48,0,.73a.75.75,0,0,0,.42.59.34.34,0,0,0-.13.19c-2.18,7.66-2.22,16.35,1.49,23.56l-.78.54a23.15,23.15,0,0,1-2.4,1.31c-3.7-5.11-2.5-13.47-1.91-19.29a.4.4,0,1,0-.8-.09c-.4,3.86-1.4,10.56-.1,15.68a.24.24,0,0,0-.24.1s-2.62,3.55-3.89,3.49A26.57,26.57,0,0,1,170,171.9c.18-.38-.41-.75-.61-.33a27.49,27.49,0,0,0-2,18.94,3.1,3.1,0,0,0,1,2.92h0a20.09,20.09,0,0,0,1.29,2.53c.18.3.55.08.42-.23-.31-.79-.6-1.58-.87-2.36.79-.39.56-.43,1.56-1.8,2.42-3.31,1.53-.15,1.6,1.91a.72.72,0,0,0,.9.58c.79-.34,1.54-.71,2.27-1.11a6.74,6.74,0,0,0,1.81,1.21c.29.13.41-.32.21-.47a10.2,10.2,0,0,1-1.27-1.18,35.46,35.46,0,0,0,5-3.53,4.87,4.87,0,0,0,.67,3.09.58.58,0,0,0,.89.2c2-1.86,4-3.7,6.12-5.43h0a11.23,11.23,0,0,1-.71,3.45c-.16.49.46.91.88.71,1.42-.66,2.88-1.27,4.33-1.87a.23.23,0,0,0,.36-.15c2.72-1.12,5.45-2.2,8.06-3.5,3.13-1.55,5.51-4.49,7.78-7l-.05.11c-.29.7.7,1.22,1.18.71l.39-.42a.61.61,0,0,0,.07-.6,43.11,43.11,0,0,1,5.6-9.7c.07.18.12.37.19.55s.36.11.32-.12-.1-.59-.16-.88c.22-.27.42-.56.64-.83a8.79,8.79,0,0,0,.12,2.37c.1.58.88,1.06,1.36.53,1.65-1.79,3.31-3.58,5-5.38a2,2,0,0,0,.36.29s.08,0,.12,0l-.06.33a.85.85,0,0,0,1.24.83,17,17,0,0,0,8.38-7.82c2.56-1.3,4.61-5.8,6.05-9.18l0,.32c.08.58,1,1.08,1.44.48,6.59-9.73,12.85-19.72,19.47-29.45a2.69,2.69,0,0,0,3.43-.45c.17-.19,0-.64-.29-.46a2.79,2.79,0,0,1-2.66.19q3.15-4.62,6.44-9.12.75-.36,1.5-.66c0,.4,0,.8,0,1.2-.08.1-.15.22-.22.31a.77.77,0,0,0,.33,1.14c0,.15,0,.29.05.43a.43.43,0,0,0,.69.26c.38-.32.75-.66,1.11-1a.3.3,0,0,0,.32.11c12.26-2.41,20.59,1.28,30.83,7.3,7.64,4.49,16.23,7.89,25.17,8.23C328.65,128.18,328.59,127.45,328.14,127.34ZM67.59,154.57a19.84,19.84,0,0,0-.49,3,23.85,23.85,0,0,1-.36-7,4.18,4.18,0,0,1,.15.61C67.1,152.3,67.33,153.44,67.59,154.57Zm10.37,1c-.11-.72-.18-1.43-.22-2.14.3.16.6.32.91.47Zm2.34-3.89c0,.42-.08,1.08-.1,1.79l-.62-.29C79.83,152.11,80.39,148.46,80.3,151.71Zm7.32,5.07a5.47,5.47,0,0,0,1.31-.93,4.83,4.83,0,0,0,.17,1.55Zm28.51,8.52-2.81-.57a11.26,11.26,0,0,0,1.26-2.35l.06-.11.06.19c.29,1,.48,2.22,1.44,2.79Zm2.92,10.94-.46.33a19.51,19.51,0,0,1-2-9.74c.86.16,1.73.29,2.6.44A27.51,27.51,0,0,0,119.05,176.24Zm38.19-10.77.12.06a9.13,9.13,0,0,0-.08,1.38l-.3,0-.28,0Zm-30.06-3.56c-.16,1.66-.26,3.32-.35,5-1-.11-2-.24-2.93-.37C125.27,165.57,126.31,163.37,127.18,161.91ZM159.27,189a5.47,5.47,0,0,1-5.31,1.45c.12-1.07.25-2.13.38-3.19.07.2.13.4.21.6s.29,0,.24-.11a21.71,21.71,0,0,1-.2-12.57c.1-.33-.4-.56-.51-.19a19.74,19.74,0,0,0-.18,11,1.22,1.22,0,0,0-1,.08l-2,1.31A17.28,17.28,0,0,1,148,171.88c.12-.42-.5-.8-.64-.33a18.92,18.92,0,0,0,2.72,16.31c-1.1.72-2.19,1.43-3.28,2.16a4.08,4.08,0,0,1-.13-.83h0c.24.25.52-.07.35-.34s-.23-.37-.34-.56a10.59,10.59,0,0,1,.79-2.68c.23-.57-.54-1.12-1-.88l-1.31.66a17.92,17.92,0,0,1-1.25-12.9c.11-.4-.5-.79-.63-.32a19.25,19.25,0,0,0,1.06,13.64c-1.18.58-2.35,1.16-3.52,1.77.25-1,.51-1.94.79-2.91a.74.74,0,0,0-.94-.89l-.36.09a32.92,32.92,0,0,1,.28-11.39c.1-.46-.6-.83-.72-.32a30.26,30.26,0,0,0-.61,12,3.17,3.17,0,0,0-1.3.78l-.15.16a27.9,27.9,0,0,1,.81-13.93c.14-.39-.45-.77-.61-.33-1.65,4.7-2.3,10.14-.91,15l-.2.21c-2,3.68-1.69-3.76-1.59-4.07.17-.54-.55-.9-1-.7l-.49.24a24.74,24.74,0,0,1,1.19-7.78c.13-.39-.46-.77-.61-.33a25,25,0,0,0-1.46,8.55c-1.49.74-3,1.44-4.2,1.21,0-4.06-.37-8.12-.17-12.19a.3.3,0,1,0-.6,0,73.76,73.76,0,0,0,0,11.8,3.67,3.67,0,0,1-1-2.53.74.74,0,0,0-1.29-.32,10.91,10.91,0,0,1-.8,1,22.79,22.79,0,0,1-.27-8.53c0-.25-.32-.35-.36-.08a21.29,21.29,0,0,0,.18,9.06c-1.22,1.1-2.11,1-2.78.23-1.59-4.74-2.53-9.07-1.7-14.23q6.65,1.08,13.38,1.53a7.33,7.33,0,0,0,.6,1.27.86.86,0,0,0,1.31.08c.3-.41.62-.8.94-1.19,1.45.07,2.9.1,4.36.13,0,.24.08.48.14.72a.81.81,0,0,0,.8.55,3.76,3.76,0,0,0,2.6-1.26c.79,0,1.57,0,2.36-.06,0,.24,0,.47.05.71,0,.48.79.88,1.13.42s.68-.82,1-1.21c1.39-.06,2.77-.14,4.15-.25a7.64,7.64,0,0,0,.91,2.62c.3.51,1.37.81,1.58,0a30.44,30.44,0,0,1,.94-2.94l1.28-.15a7.24,7.24,0,0,0,1.17,2.87,1,1,0,0,0,.7.36A93.1,93.1,0,0,0,159.27,189Zm.24-19.52a12.07,12.07,0,0,1-.38-1.26c.63-.08,1.25-.18,1.88-.27Zm6.07-2a1.05,1.05,0,0,1-.24-.23c.51-.08,1-.16,1.52-.26C166.59,167.45,166.29,168,165.58,167.45Zm9.46-3.81c.35-.73.71-1.45,1.05-2.19a6.44,6.44,0,0,1,.66,1.74C176.18,163.34,175.62,163.5,175,163.64Zm-1.9,25.53a10.1,10.1,0,0,0,1.52,2.83C173.24,192.27,173.19,190.51,173.14,189.17Zm67.07-63.59c-.63,1.33-1.21,2.69-1.74,4.06-.8.73-1.63,1.44-2.45,2.15A33.63,33.63,0,0,1,240.21,125.58Zm-41,31.45,2.91-1.32a12.39,12.39,0,0,1-2.79,4.86A4.77,4.77,0,0,1,199.17,157Zm-9.6,3.82c-.23.26-.46.51-.67.77-.61.7-1.68,2.23-2.9,2.09-.05-.53-.1-1.06-.16-1.59C187.09,161.71,188.33,161.29,189.57,160.85Zm37,3.4c.13-.8.26-1.59.38-2.38s-.81-1.3-1.33-.73-1,1.11-1.55,1.67a68.45,68.45,0,0,1-.85-7.7c-.42-3.33-.65-6.69-.82-10,0-.47-.75-.65-.73-.12q.25,6.5,1.07,13c.19,1.49.09,3.84.73,5.56-1.34,1.45-2.67,2.9-4,4.35a6.48,6.48,0,0,1,1.94-4.22c.63-.65-.4-1.71-1-1.09q-.42.42-.78.84c-.93,1-1.8,2-2.64,3.06a35.3,35.3,0,0,1-.41-10.68.24.24,0,1,0-.47-.06,29.93,29.93,0,0,0,.35,11.39c-.85,1.11-1.67,2.24-2.43,3.4-.44-6-1.6-12.14-2.41-18.14,0-.36-.53-.25-.48.1.77,6.22,1.22,12.61,2.42,18.77a49.25,49.25,0,0,0-3.19,5.9,1.46,1.46,0,0,0-1.9.56,25.61,25.61,0,0,1-6.44,5.79.41.41,0,0,0-.12-.14l-.27-.19c-.25-.18-.44.15-.3.36-4-6.36-5.78-14.39-6.32-21.81a.36.36,0,1,0-.71.07A57.64,57.64,0,0,0,197,176c.61,1.89,1.82,6.85,3.89,8.15a69,69,0,0,1-7.61,3.75c-3.62-5.57-6.51-10.76-7.69-17.51-.07-.4-.68-.44-.61,0,.92,6.29,3.3,13,7.64,17.8l-2.74,1.19a8.68,8.68,0,0,0,.26-3.71c-.05-.43-.58-.88-1-.49l-.28.27a40.48,40.48,0,0,1-7.12-17.72c.17-1,.35-1.83.54-2.62.12-.51-.68-.86-.81-.29s-.27,1.19-.41,1.87a.3.3,0,0,0-.1.29.77.77,0,0,0,0,.15c-1.17,6.15-1.89,16.07,3.65,19,.35.18.53-.3.26-.51-4-3.25-4.2-10-3.49-15.65.94,5.72,2.75,12,6.78,16.09-.59.56-1.16,1.14-1.78,1.68l-1.37,1.16q-2.48,3.11-1.83-1.61c.31-.52-.36-1.16-.81-.68a22.7,22.7,0,0,1-3.17,2.82c-2.42-7.82-3.41-14.9-1.18-22.92a.41.41,0,0,0-.06-.36.56.56,0,0,0,.43-.25,21.73,21.73,0,0,1,1.56-2c1.44-.4,2.87-.83,4.29-1.28.05.57.09,1.13.15,1.7a.84.84,0,0,0,.48.64c2.27.9,3.59-.83,4.76-2.69a9.15,9.15,0,0,0-.11,1.74.24.24,0,0,0-.28.32c1.36,7.33,3.28,15.12,7,21.61.17.3.53.09.42-.22-2.39-6.62-4.92-12.81-6.45-19.67a.68.68,0,0,0,.88-.31c1-1.62,2.35-2.93,3.33-4.53.15-.23-.17-.65-.42-.45-1,.86-1.92,1.88-2.87,2.84a17.07,17.07,0,0,1,.5-3.53q2.76-1,5.48-2.18a6.16,6.16,0,0,0,1.28,4.52.84.84,0,0,0,.37.26c-1.12,1.64.13,4.6.44,6.35.74,4.2,1.92,8.8,4.28,12.4.16.23.51,0,.43-.23-.91-2.88-2.2-5.61-3.08-8.51-.31-1-2.67-9.07-1.69-9.59-.22.12-.1.54.15.42l.22-.1a.23.23,0,0,0,.13-.24c-.07-.32-.09-.43-.21-.52a1,1,0,0,0,.31-.21,11,11,0,0,0,2.76-5.44,4.06,4.06,0,0,0,1,1.35.67.67,0,0,0,1-.25c.21-.77.5-1.51.66-2.29.06-.31-.34-.6-.56-.33a10.22,10.22,0,0,0-.66.92,5.72,5.72,0,0,1-.33-1.48c1-.48,2-1,2.94-1.47,0,.22,0,.44-.06.67a.94.94,0,0,0,1.55.66c1-1.15,2.12-2.22,3.05-3.44a.33.33,0,0,0,0-.33l0,0a6.87,6.87,0,0,0,.18,1,1,1,0,0,0,1.26.62,5.8,5.8,0,0,0,2.61-4l.75-.48a1.71,1.71,0,0,0,0,.32c.06.65,1.07,1.12,1.43.41.45-.89,1.05-1.68,1.49-2.57,1.26-.82,2.52-1.66,3.76-2.52a1.31,1.31,0,0,0,2.23-.09c.5-.88,1-1.75,1.56-2.63,1.64-1.22,3.25-2.49,4.84-3.79,0,.27,0,.55,0,.82a.21.21,0,0,0-.29.19c-.5,6.51-1.37,13-2.19,19.47-.12-1.14-.25-2.28-.37-3.42-.39-3.55-.81-7.1-1.22-10.65,0-.43-.67-.44-.62,0,.55,5.89,1,11.79,1.73,17.66.06.51.78.67.82.07.48-6.51,1.12-13,1.85-19.51,0,0,0,0,0,0,.07,1.23.18,2.46.25,3.68.22,3.64.37,7.28.72,10.9a.54.54,0,0,0,.15.29,1.77,1.77,0,0,0-.15.31.76.76,0,0,0,.14.79l.63.61,0,0A22.8,22.8,0,0,1,226.58,164.25ZM240.07,146a76.48,76.48,0,0,1-5.46,10.11l-.08-.06a2.08,2.08,0,0,0-1.3-.17,11.66,11.66,0,0,0,.36-6.25.16.16,0,0,0-.31.06q-.24,8.28-.49,3.12c-.14-1.81-.27-3.61-.41-5.41-.21-2.79-.38-5.57-.74-8.34.43.43,1.27.5,1.48-.22.15-.53.33-1.06.52-1.6,0,.92,0,1.83.05,2.75.08,4.1.06,8.23.34,12.33,0,.47.66.68.83.17l.69-2.06c.07-.19-.19-.46-.32-.24s-.24.39-.35.59c0-5.11-.1-10.33-.53-15.43.12-.29.23-.58.36-.87,1-.88,2-1.79,3-2.72l0,.1c-.26.77.86,1.63,1.39.87.27-.38.52-.76.78-1.14a48.17,48.17,0,0,0,1.2,14.05A.75.75,0,0,0,240.07,146Zm1.72,1.43c0-.38-.11-.75-.16-1.13a1.06,1.06,0,0,0-.06-.19.36.36,0,0,0,.34-.41l.42-1.92c.09-.17-.08-.52-.28-.33a6.6,6.6,0,0,0-.46.5,74.34,74.34,0,0,1-1-13.5,22.91,22.91,0,0,0,1.51-3c.36-.36.72-.71,1.07-1.08a85.63,85.63,0,0,0,.94,15.35c.07.39.71.51.8.06.22-1.17.44-2.34.63-3.52,0-.23-.3-.39-.38-.14-.15.44-.28.89-.42,1.33-.34-4.15-.73-8.28-.84-12.47a.71.71,0,0,0,.42.09,2.29,2.29,0,0,0,1.57-.69c-.07,2.78-.17,5.57-.06,8.33,0,1.1,1,1.64,1.72.79a.3.3,0,0,0,0-.35l-.16-.34c-.1-.21-.34,0-.33.13l-.56-1.47c0-.6,0-1.19,0-1.78,0-.88,0-1.77,0-2.66,0-1.29,0-2.57,0-3.86a1,1,0,0,0,.07-.18,44.42,44.42,0,0,1,2.45-5.19l.12-.12a46.08,46.08,0,0,0,.88,13.8.46.46,0,0,0,.85.12A19.24,19.24,0,0,0,252.82,123c0-.22-.3-.22-.3,0a20,20,0,0,1-1.86,9,46.27,46.27,0,0,1-.6-13.6.32.32,0,0,0,0-.14l.31-.45a11.84,11.84,0,0,0-.43,2.5c-.06.88,1.19,1.15,1.66.52.89-1.19,1.8-2.33,2.74-3.45,0,.79.09,1.59.13,2.39.13,2.21.2,4.43.47,6.62,0,.36.6.52.72.12.34-1.14.69-2.27,1-3.42a.21.21,0,0,0-.4-.14c-.23.5-.43,1-.62,1.53-.15-2.57-.44-5.15-.75-7.7l1.27-1.44.93-.29c-.52,1-1,1.89-1.56,2.84s.68,1.68,1.41,1.17A9.25,9.25,0,0,0,259,117a4.4,4.4,0,0,0,1,2.61,5.25,5.25,0,0,0,.78.7C254.58,129.44,248,138.36,241.79,147.44Zm19.47-27.83a3.52,3.52,0,0,1-1-1.09,4.83,4.83,0,0,1-.58-2.48c.47-.71.91-1.45,1.35-2.19l.51-.15c-.07.38-.13.78-.17,1.19-.09.93,1.25,1.11,1.7.49a36.63,36.63,0,0,1,2.36-2.84l.59-.17C264.46,114.8,262.88,117.22,261.26,119.61Zm9.44-11.37.06-.43a39.39,39.39,0,0,1,4.45-2.72,9.28,9.28,0,0,0-2.69,2.53C271.9,107.8,271.29,108,270.7,108.24Zm58.09,14.88a3.75,3.75,0,0,0,3.5-.8,4.55,4.55,0,0,0,1.17-1.41,4.48,4.48,0,0,0,.34-1.78c.06-.46-.67-.67-.8-.19a5.29,5.29,0,0,1-1.94,2.35,9.19,9.19,0,0,1-2.29,1A.46.46,0,0,0,328.79,123.12Zm-20.14-38c-8.66,3.61-17.18,6.68-26.52,8-.47.07-.33.82.11.77,9.29-1,18.57-3.33,26.65-8.17C309.16,85.54,309,85,308.65,85.11ZM42,124.91c-.8,1.84-1.34,4.41-.39,6.29.1.19.4.2.41,0,0-1-.15-1.89-.11-2.84a8.65,8.65,0,0,1,.79-3.08C42.87,124.8,42.19,124.43,42,124.91ZM68.45,138.5c7.32,2.09,14.7,3.41,21.53,6.89a.16.16,0,0,0,.15-.27c-6.62-4-14.12-5.39-21.46-7.4-3.93-1.07-7.81-2.34-11.62-3.77a42,42,0,0,0,10.84-8.39c11.84,2.81,23.36,6.43,34.9,10.4.22.08.26-.29.07-.36A192.43,192.43,0,0,0,68.39,125a33.21,33.21,0,0,0,8.47-17.33c0-.31-.42-.63-.56-.25a52.7,52.7,0,0,1-9.79,17.18c-1.66-.35-3.33-.68-5-1-.29-.06-.32.44,0,.49,1.52.32,3.05.66,4.56,1a39.45,39.45,0,0,1-10.52,8.24c-3.69-1.42-7.32-3-10.9-4.68a.3.3,0,0,0-.26,0L44,127c-.09-.43-.75-.44-.65,0,.48,2.41.66,5.3,1.71,7.53a.17.17,0,0,0,.32-.07,13.94,13.94,0,0,0-.54-3.5c-.11-.51-.21-1-.32-1.53q5,2.39,10.12,4.4a42,42,0,0,1-6.2,2.57,3,3,0,0,1,.72-1.81c.28-.34-.27-.86-.58-.49a4.48,4.48,0,0,0-.89,2.54c-.28.09-.55.19-.83.27-.48.13-.31.92.16.82l.78-.19a1.92,1.92,0,0,0,.76,1.15.23.23,0,0,0,.35-.24c-.09-.39-.23-.74-.34-1.1a38.2,38.2,0,0,0,7.59-2.92C60.19,136,64.29,137.32,68.45,138.5ZM106,162.35c1.35.74,3.67-.33,2.59-2-.14-.22-.44-.05-.44.17l-1.87.49a2.56,2.56,0,0,1-.31-1.18,16.72,16.72,0,0,1,.44-2.95,3,3,0,0,0-.72-2.49,1.83,1.83,0,0,0-2.5-.48c-.28.19,0,.73.27.53,1.61-.29,2.28.44,2,2.2-.06.31-.15.62-.24.93a2.82,2.82,0,0,1-2.67.5c-1.68-.53-1.81-2.83-1.1-4.12.25-.46-.46-1-.75-.5-1,1.81-.63,4.45,1.37,5.41a3.15,3.15,0,0,0,2.88-.15,5.72,5.72,0,0,0-.13,1.44A2.81,2.81,0,0,0,106,162.35Zm49.48-93.09a4.86,4.86,0,0,0-.56,3.17.74.74,0,0,0,.76.61,5.83,5.83,0,0,0,5.11-4.39.59.59,0,0,0-.43-.74c-.78-.19-2.42.14-1.7,1.26.11.18.33.1.4-.07s.29-.25.53-.26a5.17,5.17,0,0,1-3.47,2.79,4.56,4.56,0,0,1,.23-1.89C156.53,69.19,155.79,68.7,155.47,69.26Zm32,3.87a2.63,2.63,0,0,0,.76-.35,2.72,2.72,0,0,0,2.14-.19,1.88,1.88,0,0,0,.76-2.55.46.46,0,0,0-.63-.18c-.59.42-1.16.86-1.73,1.29h-2c-.6,0-.45.81-.07,1,.18.1.37.19.56.28a1.59,1.59,0,0,0-.15.21A.34.34,0,0,0,187.48,73.13Zm4.86,33.71c.62,0,1.27.12,1.75-.33a2.6,2.6,0,0,0,.5-2.67,2.38,2.38,0,0,0-2.33-1.56c-.91,0-2.17.63-2.26,1.65a.42.42,0,0,0-.24.39c0,.64,0,1.29-.08,1.93a.6.6,0,0,0,.49.62C190.9,106.89,191.62,106.86,192.34,106.84Zm-1.25-2.3c.41-.5.7-.94,1.39-1.08s1.24.56,1.24,1.25a1.49,1.49,0,0,1-.16.65c-.17.35-.32.38-.68.38l-2.18,0c0-.35,0-.7,0-1A.46.46,0,0,0,191.09,104.54Zm-52,11c-.16-.25-.45,0-.32.27,1.51,2.73,4.31,2.9,7.19,3.23a156.07,156.07,0,0,0,15.73,1,4.45,4.45,0,0,0,1,2.4A3.91,3.91,0,0,0,168,123a2.58,2.58,0,0,0,1-2.94,172.15,172.15,0,0,0,38.6-5.42c.09,0,.08-.19,0-.17a193.21,193.21,0,0,1-33.43,4.7c-1.85.09-3.7.14-5.56.17a2.37,2.37,0,0,0-.43-.4c-.84-.61-2.9-.81-3.16.43h-2.24a1.79,1.79,0,0,1,.44-.65c.4-.36-.22-1-.64-.67a2.37,2.37,0,0,0-.79,1.3l-2.69-.06c-2.47-.07-5-.23-7.42-.39C147.85,118.6,141.5,119.44,139.13,115.58Zm26.06,4.5a.23.23,0,0,0,.32,0h1.23l1.33,0c.68.9-.6,2-1.43,2.38a2.84,2.84,0,0,1-3.14-.72,2.68,2.68,0,0,1-.81-1.64Zm6.73-29a.44.44,0,0,0-.32-.44c-.82-.25-2.27,0-1.84,1.15a.53.53,0,0,0,.5.36,7.44,7.44,0,0,0,2.11,0c.42-.14.76-.87.95-1.23a7.65,7.65,0,0,0,.73-3.89.61.61,0,0,0-.8-.58c-1.39.43-2.41,2.29-1.24,3.48.2.2.6.22.67-.12a6.76,6.76,0,0,1,.38-1.58,6,6,0,0,1-.41,1.7C172.55,90.16,172.26,90.92,171.92,91.1Zm-35.31,1.27a2.12,2.12,0,0,0,1.17.57A3.37,3.37,0,0,0,142,90.73a3,3,0,0,0-2-3.68,2.78,2.78,0,0,0-2.49.85.33.33,0,0,0-.35.18,6,6,0,0,0-.78,2.92A2.65,2.65,0,0,0,136.61,92.37Zm.74-2.31a.31.31,0,0,0,.42-.1c.47-.91.81-1.68,2-1.74,1.37-.07,1.53,1.73,1.14,2.63A2.57,2.57,0,0,1,138.14,92a2.92,2.92,0,0,1-.76-.24c-.08,0-.09-.68-.1-.77A3.82,3.82,0,0,1,137.35,90.06ZM111.47,72.77c-1.35.35-.41,2.42.86,2.08,1.48-.39,2.53-2.47,2.46-3.92a3,3,0,0,0-2.68-2.87,2,2,0,0,0-1.83.74c-.25.4-.06,1.1,0,1.54a5.22,5.22,0,0,0,.51,2.2c.13.24.55.39.7.07a6,6,0,0,0,.22-3c.78-.48,1.67.29,1.81,1.14a3,3,0,0,1-.5,1.79,4.28,4.28,0,0,1-1.07,1.27A.54.54,0,0,0,111.47,72.77Zm28.05-.88-2,0a.41.41,0,0,0-.41.35c-.06,1.33-.13,2.66-.13,4a.64.64,0,0,0,.87.57c1.44-.51,3.08-1.1,4-2.39a3.6,3.6,0,0,0,.5-3.83,2.61,2.61,0,0,0-2.7-1.33c-.84.12-2.08,1-1.53,1.92a.41.41,0,0,0,.52.22c.46-.23.61-.66,1.13-.84,1-.34,1.72.5,1.75,1.45.06,1.84-1.84,2.82-3.42,3.43,0-.86-.05-1.73-.08-2.6l1.54,0C140.12,72.78,140.05,71.9,139.52,71.89Zm39.14-17.5a2.65,2.65,0,0,0-.8,2.72c.07.22.44.38.54.09a6.51,6.51,0,0,1,.3-.75,3.19,3.19,0,0,0,3.88-2.76.45.45,0,0,0-.38-.46A4.49,4.49,0,0,0,178.66,54.39Zm.54,1.23a4.11,4.11,0,0,1,.57-.63,3.86,3.86,0,0,1,1.91-.87A2.38,2.38,0,0,1,179.2,55.62ZM166.58,45a4.39,4.39,0,0,0-.21-.79.41.41,0,0,0-.44-.24,2.71,2.71,0,0,0-1.09.5,69,69,0,0,0-16.59-2.87c-.34,0-.34.55,0,.56a69,69,0,0,1,16,2.93,2.24,2.24,0,0,0-.1,2.78.27.27,0,0,0,.48-.21,3.19,3.19,0,0,1,.61-2.27l.7.22a3.5,3.5,0,0,1-1.21,2.71,3.37,3.37,0,0,1-1.88.68,1.54,1.54,0,0,0-1.2.57c-.89,1.59,2,1.46,1.3.36.54-.11,1.19-.26,1.32-.31a4.24,4.24,0,0,0,1.58-1.33,3.86,3.86,0,0,0,.83-2.44c4.32,1.4,8.57,3.06,12.79,4.8,10.5,4.31,21.12,8.58,30.36,15.29,11.82,8.57,21.95,21.9,36.25,25.94a.24.24,0,0,0,.34.16l.09-.05.44.12a.32.32,0,0,0-.14,0A2.19,2.19,0,0,0,245,94.32c0,1.33,1.63,1.16,2.52,1a4.52,4.52,0,0,0,3-2.51,30.34,30.34,0,0,0,3.61.27c.16,0,.17-.27,0-.28-1.17-.08-2.31-.22-3.43-.4a4.93,4.93,0,0,0,.27-2.79.22.22,0,0,0-.17-.2,6,6,0,0,0-4.6,2c-16.54-4.93-27.64-20.81-42.18-29.79-8.19-5.07-17.24-8.68-26.11-12.36C174.23,47.62,170.44,46.18,166.58,45ZM249,90.4a6,6,0,0,1,1.54-.52c.4-.08.18,1.3.13,1.47a4.12,4.12,0,0,1-.41.94c-1.07-.19-2.11-.43-3.14-.71C247.78,91.19,248.38,90.76,249,90.4Zm1,2.3A4.35,4.35,0,0,1,246,94.42,1.29,1.29,0,0,1,247,93c.46-.1.34-.73,0-.86C248,92.34,249,92.54,250,92.7Zm34.79,1.89c-2.75.37-5.47.68-8.19.91.57-1,1.25-3,.24-3.71-1.93-1.43-6-.27-5.79,2.49a.34.34,0,0,0,.07.19,5.84,5.84,0,0,0,0,1.39,101.07,101.07,0,0,1-17-.62c-.37,0-.34.57,0,.62a92.09,92.09,0,0,0,17.63.9h3.33a1.15,1.15,0,0,0,.92-.34,66.79,66.79,0,0,0,8.85-1.51C285,94.89,285,94.56,284.82,94.59Zm-8.56-.6a4.75,4.75,0,0,1-.74,1.6c-1.2.09-2.41.17-3.61.23a4.87,4.87,0,0,1,.18-1.9c1.16-1.22,2.7-2.19,4.34-1.31A5.86,5.86,0,0,1,276.26,94Zm-33.18,16.74a92.16,92.16,0,0,1,23.08-7.61,3.75,3.75,0,0,0,2,1.19.44.44,0,0,0,.51-.27l.63-1.5c3.78-.66,7.64-1.17,11.58-1.59.26,0,.24-.5,0-.51a64.81,64.81,0,0,0-11,.8c.09-.23.18-.46.28-.69a.52.52,0,0,0-.44-.71l-2,.12a3.41,3.41,0,0,0-1.74.32,3.34,3.34,0,0,1,.05-.43c.1-.49-.65-.85-.79-.29a3.77,3.77,0,0,0,.23,2.48,97.45,97.45,0,0,0-22.72,8.14C242.45,110.34,242.74,110.9,243.08,110.73Zm23-9.82a3.88,3.88,0,0,0,1.73,0l1.13-.1c-.08.19-.16.37-.25.56-.78.13-1.56.28-2.34.44a2.8,2.8,0,0,1-.37-1S266.08,100.9,266.12,100.91Zm-33.37,18a4,4,0,0,0,3.66-.22,3,3,0,0,0,1.26-3c-.07-.42-.33-1.26-.89-1.25a11.16,11.16,0,0,0-3.32.23.32.32,0,0,0,0,.6,10.5,10.5,0,0,0,3,.33,1.69,1.69,0,0,1-.59,1.69,2.61,2.61,0,0,1-2.47.3,2.81,2.81,0,0,1-.6-1.88c.05-.57-.93-.91-1.08-.27C231.46,116.56,231.45,118.43,232.75,118.92ZM218.26,93.31c-.83-.25-2.26,0-1.94,1.12a.64.64,0,0,0,.56.48l1.94,0a.51.51,0,0,0,.55-.38c.27-1.47.34-3-1.08-3.91a1.83,1.83,0,0,0-1.7-.09c-.32.13-.65,1-.86,1.18a5.86,5.86,0,0,1-1.7,1.06c-.31.16-.06.6.2.63a3,3,0,0,0,2.49-1,4.51,4.51,0,0,0,.44-.54c.32-.43.77-.31,1.06.12a2,2,0,0,1,.18,1.43ZM117.58,62.37c-.14.1,0,.38.13.27,12.07-9.14,30.27-6.78,44.4-5.36,16.22,1.64,32.07,6.23,45.68,15.3a1.69,1.69,0,0,0-.15.37c-23.5-9.35-51.28-8.46-75.62-3.45-.24,0-.21.48,0,.44,25.47-4.33,52.23-5.42,75.64,3.88a.38.38,0,0,0,.35.15q1,.41,2,.84c-.54.39-1.07.78-1.62,1.15a.54.54,0,0,0,.26.93,2.52,2.52,0,0,0,2.65-1.52,82.2,82.2,0,0,1,22,14.54c.11.09.24-.11.15-.21a75.29,75.29,0,0,0-21.78-15l.08-.06a.37.37,0,0,0,0-.56,12.18,12.18,0,0,0,.31-2.89.72.72,0,0,0-.9-.74,6.09,6.09,0,0,0-3.37,2C194.79,63.51,179.44,59.11,163.8,57,149.37,55.13,129.86,52.83,117.58,62.37Zm92.06,10.47a5.64,5.64,0,0,1,1.29-.82,6.34,6.34,0,0,1-.28,2.2l-.79-.34-.77-.55Zm-6,63.84c-.45-.37-.81.4-.4.74a3.47,3.47,0,0,0,1.57.72,2.17,2.17,0,0,0,1.55-.22,4.13,4.13,0,0,0,.75-1.82,7.5,7.5,0,0,0,.11-2.5c0-.25-.31-.59-.6-.47a24.46,24.46,0,0,0-2.6,1.33,5.28,5.28,0,0,0-2.16,1.7.46.46,0,0,0,.45.67,6,6,0,0,0,2.49-1.19c.56-.38,1.11-.77,1.65-1.18a5.12,5.12,0,0,1-.45,2.36C205.63,137.77,204.27,137.18,203.68,136.68ZM170,145.41a4.26,4.26,0,0,0,1.39-2.91,2.34,2.34,0,0,0-1.66-2.15.56.56,0,0,0-.65.25c-.58.83-1.62,1.86-1.53,2.94a.42.42,0,0,0,.56.33,2.43,2.43,0,0,0,1-.88,11.27,11.27,0,0,1-.21,1.83A.67.67,0,0,0,170,145.41Zm-.07-3.82c.42.23.41.84.29,1.29a2,2,0,0,1-.25.53c0-.13,0-.25,0-.38a.46.46,0,0,0-.58-.44C169.58,142.26,169.76,141.91,169.94,141.59Zm-39.92.28a.37.37,0,0,0,.35-.18,1.47,1.47,0,0,0,.13-.8c.24.19.49.37.73.57a.6.6,0,0,0,1-.11,4.89,4.89,0,0,0,.6-3.82.72.72,0,0,0-.9-.58,4.46,4.46,0,0,0-2.71,2.17,2.64,2.64,0,0,0-.28,1.46A1.45,1.45,0,0,0,130,141.87Zm1.59-3.33a4.29,4.29,0,0,1-.3,1.61c-.24-.14-.48-.29-.71-.45A2.62,2.62,0,0,1,131.61,138.54Zm-18-10.74a1.87,1.87,0,0,0-2.21.63,1.82,1.82,0,0,0-.3,2.09c.07.11.73.4.75.12,0-.08.22-.3.26-.42a2.83,2.83,0,0,1,.21-.62c.19.56.39,1.12.61,1.66a.55.55,0,0,0,1-.17,16.65,16.65,0,0,1,.07-2.55A.66.66,0,0,0,113.66,127.8ZM98,141.27a1.17,1.17,0,0,1-.86-.53c-.33-.45-.86.09-.56.51.44.59,1.77,1.34,2.46.68a4.28,4.28,0,0,0,.78-1.8A7.34,7.34,0,0,0,100,138c-.06-1.13-1.44-1.24-2.19-.63a2.42,2.42,0,0,0-.45,3.26.4.4,0,0,0,.7-.16c.17-.52.27-2.35,1.13-2.31.21,0-.27,2.18-.34,2.4C98.67,141,98.53,141.31,98,141.27ZM83.42,74.19c-4.57,3.64-9.23,7.09-14.06,10.32,0-.08,0-.17,0-.25a.57.57,0,0,0-.57-.49c-1.42.16-4.27,1.36-3.85,3.24a.72.72,0,0,0,.15.27c-1.63,1-3.26,2-4.93,3-.19.11,0,.46.2.34,1.73-1,3.44-2,5.14-3.09a.44.44,0,0,0,.28-.09,2.16,2.16,0,0,0,.27-.25c.81-.51,1.62-1,2.42-1.56a4.83,4.83,0,0,1-2,3.53l-1.09-.78c-.52-.37-.82.45-.39.79l1.22,1c-1.2,1-2.11,2.43-1.78,3.59a8,8,0,0,1-.94.09c-.62,0-.48.88.06.94a6.14,6.14,0,0,0,4.68-1.23c.93-.71,2.17-2,1.71-3.31a1.49,1.49,0,0,0-1.91-1A5.83,5.83,0,0,0,69.4,85,141.87,141.87,0,0,0,83.54,74.35C83.63,74.27,83.53,74.1,83.42,74.19ZM66.62,86.3c0-.07.09-.14.14-.21a3.7,3.7,0,0,1,1.69-1.16v.18Zm1.45,4.06c.77.17,1,.49.62,1a1.82,1.82,0,0,1-.27.35,5.43,5.43,0,0,1-1.28,1,6.56,6.56,0,0,1-1.83.78c.28-.47.46-1,.77-1.46A4.8,4.8,0,0,1,68.07,90.36ZM85,66.76c-1.29-.54-1.75,2.32.4,2.1a6.91,6.91,0,0,0,3.05-1.7A4.23,4.23,0,0,0,90,64.5a.49.49,0,0,0-.4-.59c-.91,0-1.82-.09-2.74-.14a.51.51,0,0,0-.54.38,13.58,13.58,0,0,0-.54,2.77c0,.25.3.42.44.19a12.59,12.59,0,0,0,1.07-2.22l1.77-.08a4.05,4.05,0,0,1-1.73,1.94c-.65.43-1.75,1.23-2.55.93C85.39,67.9,85.46,67,85,66.76ZM55.09,90a3.19,3.19,0,0,0-3,2.57c-.34-.25-.92-.09-.8.42a2.56,2.56,0,0,0,.56,1.09A3.94,3.94,0,0,0,52,95.24c.07.25.48.56.67.2a4.15,4.15,0,0,0,.23-.61,6.28,6.28,0,0,0,3.57,0,.6.6,0,0,0,.37-.69c-.06-.44.79-1,.87-1.52a1.85,1.85,0,0,0-.21-1.22A3,3,0,0,0,55.09,90Zm1.14,2.67a3.66,3.66,0,0,0-.66,1,5.53,5.53,0,0,1-2.36-.08c.34-1.23.83-2.47,2.09-2.31C56,91.36,56.78,92,56.23,92.68Zm22.39-.24h0l0,.1Zm-1.06,1.13a.44.44,0,1,0-.39.79,5.78,5.78,0,0,0,1.72.51c.39,0,1.37.12,1.66-.22a4.76,4.76,0,0,0,.75-3.6.56.56,0,0,0-.41-.47,3.62,3.62,0,0,0-2.49.17,1.29,1.29,0,0,0-.7,1.61.5.5,0,0,0,.92.08l.07-.16a1,1,0,0,1,.7-.56,3.16,3.16,0,0,1,1-.17,3.91,3.91,0,0,1-.51,2.32A3.84,3.84,0,0,1,77.56,93.57Zm27-13a.57.57,0,0,0-.8,0,1.46,1.46,0,0,1-.21.16,7.49,7.49,0,0,0-1,.32,2.53,2.53,0,0,1-.36-.07.58.58,0,0,0-.72.6,4.36,4.36,0,0,0-.73.55c-.19.18,0,.63.28.53l.66-.26a2.35,2.35,0,0,0,2.68,1.27c1.22-.24,1.68-1.72,1.63-2.78a.41.41,0,0,0-.42-.36C105.2,80.55,104.88,80.57,104.56,80.6ZM103,82.29a2.55,2.55,0,0,0,1.69-.81l.57-.08A1.39,1.39,0,0,1,103,82.29Zm-17-3.69a5,5,0,0,0-1.7,3c-.21,1,0,2.27,1.32,2.2s2-1.28,2.53-2.18a6.76,6.76,0,0,0,1.07-4,.51.51,0,0,0-1-.06,12.89,12.89,0,0,1-.6,2.45c-.24.6-1.14,2.37-2,2.44a3.38,3.38,0,0,1,1.09-3.07C87,79,86.34,78.26,85.94,78.6ZM107.75,56c.78.08.65-1.09,0-1.24-1.88-.44-2.69,2-1.79,3.31,1.17,1.77,4,.82,4.6-.93a.4.4,0,0,0-.59-.48,4,4,0,0,1-1.56.82c-.39.06-1,.16-1.23-.23S107.2,56,107.75,56ZM345.11,85.47a1,1,0,0,0-1.23-1,17.58,17.58,0,0,1-6.69.57,12.5,12.5,0,0,0,2.13-4.36,1,1,0,0,0-1-1.29h-.13a5.18,5.18,0,0,0,1.17-4.48,1,1,0,0,0-1.08-.83l-2.48.28c-.11-1.19-.23-2.39-.34-3.58-.27-2.94-.13-6.09-2.08-8.47-.59-.72-5.92-2-5.86-2.06.68-.6-.26-1.55-1-1.08q-4.79,3.21-9.76,6.16c.14-.22.28-.44.41-.66s-.26-.85-.49-.48c-.4.64-.81,1.27-1.23,1.91-3.08,1.8-6.2,3.55-9.37,5.2.26-.53.51-1.06.74-1.6s-.5-.79-.71-.32c-.4.89-.84,1.74-1.31,2.58-3.51,1.8-7.07,3.53-10.68,5.14,0-.26-.29-.53-.54-.37a24.77,24.77,0,0,1-14.95,4.35,60.15,60.15,0,0,1-7.77-.86c0-.85,0-1.71,0-2.59a.77.77,0,0,0-.65-.76c-7.47-1.55-5.82-7.9-9.59-12.42a.88.88,0,0,0-1.13-.24,6.84,6.84,0,0,1-1.82-6.46A.79.79,0,0,0,257,57c-1.89,0-3.78-.1-5.67-.17a9.09,9.09,0,0,0-.18-3.6c-.32-1.45-3.91-5-1.47-6.31.8-.44.26-1.61-.5-1.68a16.69,16.69,0,0,0-6,.5c.48-1.52.92-3.18.35-4.49a.9.9,0,0,0-.82-.55c-2.89-.25-6.15.74-9.1,1.46.42-1.23.84-2.46,1.24-3.7a.61.61,0,0,0-.78-.72c-2.1.67-4.26,1.15-6.41,1.65l2.21-3.61a.47.47,0,0,0-.46-.68l-3.32.8c-2,.49-2.3,1-.91-.52.34-.38-.21-1.06-.58-.67-.67.71-1.35,1.41-2,2.11-.34.33.11.91.52.8l4.9-1.24c.15,0-2.2,3.21-2.6,3.76s.32,1.26.87,1.1c1.68-.5,3.35-1,5-1.56,3.31-1.06,1,1.54.23,3.32-.27.58.42,1.22,1,1.11,2.58-.53,5.14-1.09,7.71-1.64s.69,3.77.48,4.45a1,1,0,0,0,1.41,1.22A13.33,13.33,0,0,1,246.68,47a5.83,5.83,0,0,0-.43,1.56,4.35,4.35,0,0,0,.43,1.52c1,2.82,3.33,3.77,2.51,7.36a1,1,0,0,0,1,1.09c.71,0,6-.76,5.81.64-.24,1.89-.67,3.12-.06,4.9A3.44,3.44,0,0,0,259.5,66c.28-.09,3.46,7.67,4.55,9a10.35,10.35,0,0,0,4.67,2.84c.67.24.93,1.09,1,2.14-2.2-.37-4.4-.76-6.6-1a9.11,9.11,0,0,0-.44-4.77.46.46,0,0,0-.62-.32l-2.8,1.34c-.11.06-4.24,1.93-3.6.07,1-2.76,2.3-5.46,3.5-8.12a.38.38,0,0,0-.68-.32c-1.21,2.53-2.6,5-3.77,7.54-1.14-.6-2.27-1.23-3.39-1.87,1.86-1.82,3.81-3.55,5.67-5.36.13-.12,0-.4-.2-.28-1.32,1-2.6,2-3.9,3a15.8,15.8,0,0,0,1.44-8.18c0-.51-.84-.66-.8-.09,0,.29,0,.57,0,.85a75.55,75.55,0,0,1-5.46,6.36c1.26-2.52,2.49-5.05,3.67-7.59.21-.45-.43-1-.71-.5-1.67,2.86-3.29,5.77-4.88,8.69-1.09-.69-2.18-1.39-3.26-2.11.77-.85,1.53-1.72,2.26-2.61.2-.24-.06-.64-.34-.43-.75.59-1.48,1.18-2.21,1.79.81-2.26,1.5-4.59,2.26-6.85.29-.87-1.2-1.31-1.5-.41-.12.36-.25.73-.38,1.09a14.13,14.13,0,0,1-1,1.28l-.25-.12c1.64-2.57,3.27-5.15,4.94-7.71.29-.45-.44-1-.77-.49-1.77,2.57-3.57,5.11-5.36,7.66L235,58c1.5-2.87,2.86-5.83,4.21-8.76.2-.44-.47-1-.7-.49-1.4,3-3,5.87-4.67,8.72-1.2-.55-2.41-1.11-3.6-1.7.71-.88,1.4-1.76,2.14-2.54.19-.21-.06-.68-.32-.49a31.12,31.12,0,0,0-2.86,2.51l-1.56-.82c.13-.4.25-.81.36-1.22a1.94,1.94,0,0,1,.51,1.12c.05.38.6.49.66.07a17.34,17.34,0,0,0,.23-2.69.64.64,0,0,0-.56-.62l-.42,0a24,24,0,0,0,.25-3.39c0-.55-.82-.65-.84-.06a21.35,21.35,0,0,1-.45,3.41l-3.78-.16A36.37,36.37,0,0,1,228.54,44c.37-.4-.27-1.09-.67-.68a43.78,43.78,0,0,0-5.73,7.52l-2.78-.06-.28-.18A15.26,15.26,0,0,1,221.65,47c.54-.57-.23-1.39-.86-1.3-1.3.19-2.59.44-3.86.7a64.17,64.17,0,0,1,5.63-7.72c.35-.39-.26-1.08-.62-.67a83.75,83.75,0,0,0-6.69,8.76c-.49.12-1,.26-1.46.39-.56-.35-1.12-.7-1.69-1l.29-.63.11-.09a.23.23,0,0,0,.05-.24,22.4,22.4,0,0,1,1.55-2.56.76.76,0,0,0-.25-1.1c.93-1.42,1.85-2.85,2.82-4.22.26-.38-.41-1-.69-.58-1.15,1.6-2.37,3.17-3.58,4.75q-2.47.54-4.93,1.15c.05-.2.09-.41.14-.61a.85.85,0,0,0-.41-1.22c1.55-2.53,3.05-5.09,4.61-7.61.27-.43-.42-1-.71-.49-1.72,2.75-3.54,5.46-5.26,8.22a4.86,4.86,0,0,1-3.4-.42c.34-.51.67-1,1-1.54a.85.85,0,0,0,1.21.44A4.55,4.55,0,0,0,207,35.8a.81.81,0,0,0-1-.92c1.29-2.12,2.56-4.24,3.89-6.29.27-.43-.41-1-.71-.5-1.57,2.42-3.24,4.81-4.87,7.23-1.31.34-2.62.69-3.92,1,2.1-4,4.31-8,6.74-11.81.24-.39-.35-.92-.62-.5q-2.31,3.59-4.46,7.27a.8.8,0,0,0-.9-.32l-2.91.86c.51-.92,1-1.84,1.52-2.74l4.43-7.69c.24-.42-.41-1-.68-.5-2.17,3.69-4.92,7.48-6.91,11.41-2,.59-4,1.18-6,1.81,3.32-4.79,5.78-10.58,8.56-15.61.24-.44-.44-1-.71-.49-2.17,3.85-4.82,7.79-7,11.83a.61.61,0,0,0-.8-.74q-1.71.77-3.45,1.47a100.52,100.52,0,0,1,9.29-15.35c.26-.35-.27-.87-.56-.49a79.31,79.31,0,0,0-10.36,16.49l-2.48,1c3.14-5.9,5.7-12,9.22-17.77.23-.37-.31-.9-.56-.49-3.63,5.76-7.47,12-9.47,18.58l-2.57,1-.72-.13q1.29-2.28,2.59-4.55c.17-.29-.1-.78-.46-.68-.7.19-1.4.4-2.08.62,2.51-4.67,4.76-9.52,7.06-14.28,1-1.54,2.11-3.09,3.17-4.62.28-.39-.35-.92-.65-.49s-.63.89-.94,1.33a.18.18,0,0,0-.29.06l-.8,1.48c-2.46,3.47-4.93,7-7.15,10.57-.16.26.18.58.39.31,1.05-1.31,2.05-2.66,3-4-1.83,3.35-3.63,6.72-5.27,10.14a45.94,45.94,0,0,0-6.44,2.9l-.64-.07,3.08-5.32c.14-.24-.11-.57-.37-.44A85,85,0,0,0,164,31.59l-.41,0a24.36,24.36,0,0,1,4.14-5.77.47.47,0,0,0-.53-.73l-2.41,1.19c3.11-6.2,5.68-12.62,9.18-18.66a34.6,34.6,0,0,0,9.77-2.91c-.49,1-1,1.89-1.49,2.84-.74.5-.05,1.54.7,1.44,3.44-.46,6.87-1,10.3-1.62a11.34,11.34,0,0,0-1.44,5,.89.89,0,0,0,1,.92q3.66-.27,7.33-.58c3.85-.33,3.31,2.26,3.22,5.55a.89.89,0,0,0,.95.92c2.37,0,10.51-1.53,8.38,3.85a.87.87,0,0,0,.77,1.11,10.69,10.69,0,0,1,10.64,8.33c.24,1,1.9.89,1.66-.17a12.23,12.23,0,0,0-11.07-9.73,6.84,6.84,0,0,0-.36-4.51.87.87,0,0,0-.74-.48c-2.86,0-5.72,0-8.58,0a32.28,32.28,0,0,0-.56-6.1.91.91,0,0,0-1-.7q-4.93.39-9.87.82a9.1,9.1,0,0,1,2-4.76.81.81,0,0,0-.73-1.29c-3.2.46-6.4.9-9.59,1.42a6.89,6.89,0,0,0,1.18-3.89.87.87,0,0,0-1.29-.81,40.37,40.37,0,0,1-9,3.37A24.48,24.48,0,0,0,178.3,3c.41-.57-.32-1.29-.92-1.05-2.39,1-4.78,2-7.15,3,1.15-1.34,2.31-2.67,3.54-3.93a.59.59,0,0,0-.64-.95,63.44,63.44,0,0,0-13.92,5.79c.67-1.1,1.34-2.19,2.06-3.25.36-.54-.43-1.06-.89-.85-4.26,1.94-8.51,3.87-12.71,5.91a16.31,16.31,0,0,0,2-3.82c.22-.6-.61-1.14-1.11-.87l-13.74,7.48.27-.43a.9.9,0,0,0-1-1.29,98.81,98.81,0,0,0-27.36,14c.16-.62.31-1.25.47-1.88s-.86-1-1.37-.77c-7.41,4.2-14.77,8.47-21.45,13.79a52.58,52.58,0,0,0-5.79,5.57.39.39,0,0,0-.62.17c-.11.29-.23.58-.34.88-1.86,2-3.7,4.06-5.71,5.86L73.2,42c.15-.49-.62-.84-.79-.3-.6,1.94-1.23,3.87-1.86,5.8a22.93,22.93,0,0,1-5.09,3.14c.16-1.43.26-2.88.28-4.34,0-.29-.38-.43-.48-.12-.61,1.76-1.27,3.53-1.94,5.29l-.21.07c-.73.23-1.45.47-2.16.73a3.7,3.7,0,0,0-.47-2.64.37.37,0,0,0-.42-.14c-.68.21-.61.16-.8.87a.4.4,0,0,0,.17.49l.32.17c.28.15.46-.1.44-.34a5.84,5.84,0,0,1,0,1.9c-1,.38-1.91.79-2.84,1.23.06-.69.13-1.37.17-2.06,0-.47-.68-.65-.72-.13-.06.86-.14,1.72-.24,2.57a34,34,0,0,0-7.68,5.31c-.11-.16-.34-.22-.4,0s-.07.32-.11.47a29.2,29.2,0,0,0-5,6.32l-.59.57c-.11.1,0,.34.15.25a28.62,28.62,0,0,0-3.2,10.47.39.39,0,1,0,.78.1,30.79,30.79,0,0,1,3.33-10.18c0,.1,0,.21-.05.34-.22,1.47-.41,2.95-.62,4.43a59.46,59.46,0,0,0-.8,6.55,20.21,20.21,0,0,0-3.3,5v-.19a.2.2,0,0,0-.4,0c-.11.48-.18,1-.25,1.44l-1,.32c-.4.11-.16.77.24.67l.6-.17a1.37,1.37,0,0,1,0,.28c-.12.51.74.9.93.35q.16-.49.36-1c.48-.15,1-.33,1.41-.51,0,.22,0,.44-.06.66,0,.52.67.89.94.35s.57-1.16.85-1.73A31.27,31.27,0,0,0,47,81.89c.22.24.56.34.74,0s.32-.56.47-.84c1.21-.86,2.38-1.79,3.53-2.78a.9.9,0,0,0,1.09,0c1-.87,1.94-1.78,2.85-2.72a.82.82,0,0,0,1.28.24,70.05,70.05,0,0,0,7.19-8.37c-.47,1.14-.94,2.28-1.42,3.42a.88.88,0,0,0,.15.94c-.29.35-.59.7-.87,1.07-.1.13.07.38.19.22.29-.38.61-.73.93-1.09a1,1,0,0,0,1.09,0,28.42,28.42,0,0,0,6.2-5.23.68.68,0,0,0,.75-.21c1-1.11,1.94-2.24,2.87-3.38,7.34-4.31,15.82-7.27,23.24-10,2.28-.84,4.58-1.62,6.88-2.37a12,12,0,0,0,2.36.64c2.78.51,7.45.45,9.52-1.95a3,3,0,0,0,.7-2.32q5.44-1.37,10.94-2.42a2.83,2.83,0,0,0-.88,2.31.32.32,0,0,0,.54.23c.68-.69,1.12-1.52,1.87-2.16a4.62,4.62,0,0,1,2.65-1,7.57,7.57,0,0,1-.46,1.56.61.61,0,0,0-.53-.3,3.53,3.53,0,0,0-3.29,1.89.78.78,0,0,0,.84,1.1c.72-.07,1.43-.17,2.14-.21s.61-.06.91-.59a12.51,12.51,0,0,0,1.28-3.7q2.72-.45,5.43-.81s0,0,0,0q-2.72.38-5.42.79v0a.48.48,0,0,0-.4-.58,6.13,6.13,0,0,0-4.61,1.46q-5.55,1-11,2.31a2.58,2.58,0,0,0-1.84-2,3.64,3.64,0,0,0-4.67,3.66c-1.45.4-2.89.8-4.33,1.24-2.1-.57-2.14-1.85-1.21-4,.21-.49-.51-1-.79-.49-.63,1.18-1.47,3.08-.88,4.45a1.63,1.63,0,0,0,.71.69c-2.78.87-5.56,1.79-8.31,2.79-6.6,2.41-14,5.05-20.52,8.75,1.12-1.4,2.2-2.83,3.27-4.27a.85.85,0,0,0,1.4.55c.88-.89,1.72-1.8,2.55-2.72a.88.88,0,0,0,1.38.83A29.88,29.88,0,0,0,91,48.91c.29-.41.59-.81.88-1.21l.17-.09a16.94,16.94,0,0,1-3.22,4.21c-.68.69.54,1.64,1.23,1.15a53.45,53.45,0,0,0,6-5,1,1,0,0,0,1.27.44A69,69,0,0,0,106,43.29c-.29.65.48,1.42,1.3,1.1a23.8,23.8,0,0,0,6.92-4.11.84.84,0,0,0,1.08.58,32.6,32.6,0,0,0,7.51-4.27l1.13-.28c-.09.42-.16.84-.22,1.3-.1.88,1.15,1.14,1.63.55.76-.93,1.54-1.82,2.35-2.66,1-.2,1.94-.38,2.91-.55a18.16,18.16,0,0,0-.74,1.68.86.86,0,0,0,1.27,1q2.42-1.8,4.83-3.57l2.61-.36c-.51.51-1,1-1.55,1.49a.84.84,0,0,0,.9,1.39c2.17-1,4.26-2.15,6.33-3.37l.25-.17c.65-.06,1.3-.09,1.95-.14l-.78.75a.8.8,0,0,0,.58,1.42,20.28,20.28,0,0,0,6.82-2.48h1.46a.72.72,0,0,0,.83.17l.33-.16c2,0,3.91,0,5.87.14-.24.42-.48.83-.7,1.26a.75.75,0,0,0,1.11,1c.93-.66,1.85-1.33,2.77-2l3.39.3L167,34.88c-.57.77.54,1.68,1.26,1.14,1.13-.85,2.29-1.63,3.48-2.37,1.25.17,2.5.35,3.75.56-.09.2-.18.4-.26.61s.18.45.32.23.31-.51.46-.76l.89.17-.38.65a.73.73,0,0,0,.86,1c.9-.35,1.78-.72,2.66-1.1,1.29.28,2.57.57,3.85.88a1.42,1.42,0,0,1-.07.22c-.07.24.27.53.42.25l.18-.33a108.82,108.82,0,0,1,12.91,4.12c-.09.18-.19.35-.27.53a.51.51,0,0,0,.91.47l.26-.47A4.44,4.44,0,0,0,200,42.1c-.12.2-.24.41-.35.62-.24.43.45,1,.77.58l.64-.87a10.64,10.64,0,0,0,2.05.24c.42.2.84.39,1.26.6-.28.46-.56.92-.83,1.39s.46.93.83.57.66-.67,1-1a1.11,1.11,0,0,0,1.17.49l.43-.09c.75.4,1.49.82,2.23,1.25-.38.56-.75,1.13-1.09,1.7a.61.61,0,0,0,.89.77l.27-.23c-.1.31-.22.61-.32.93a1,1,0,0,0,1.39,1.22c1.14-.4,2.29-.77,3.43-1.12-.41.7-.82,1.41-1.2,2.13a.68.68,0,0,0,.63.93,5.9,5.9,0,0,0,3.57-1.39l.05,0-.21.43c-.33.71.31,1.31,1,1.31.4,0,.91,0,1.47-.1l1.59,1.15c-.17.37-.33.73-.48,1.1a.68.68,0,0,0,.77.91,6.16,6.16,0,0,0,1.59-.6l2.57,2-.14.25a.65.65,0,0,0,0,.79,2.09,2.09,0,0,0,2.46.75c1.32,1,2.63,2,4,3a.76.76,0,0,0,.94.71c2.62,1.92,5.26,3.79,8,5.53,0,.08-.05.16-.07.24-.15.67.8,1,1.21.55l.05-.06c1.24.77,2.49,1.49,3.76,2.19l-.71,1.3c-.37.71.67,1.54,1.23.93.4-.44.78-.89,1.17-1.34.79.41,1.59.8,2.4,1.18a.77.77,0,0,0,.88.41q2,.9,4.08,1.65l-.09.2a1.66,1.66,0,0,0,1.16,2.2c1.39.55,3.26-.85,4.34-1.43,2.11-1.14,2.64-1.32,2.47,1.44-.09,1.36-.91,2.56-1.34,3.82-.11.34.29.74.6.48a4.71,4.71,0,0,0,1.42-2.18c2,.33,4.35.87,6.79,1.41-.06,1.58-.39,3.29-.44,4s1,.91,1.11.25a29.26,29.26,0,0,0,.48-4c7.82,1.68,16.7,3,22.07-2.54q5.44-2.26,10.72-4.84c-.14.22-.27.44-.42.66q-3.36,2-6.61,4.11c-.22.15,0,.53.25.38,1.85-1.19,3.72-2.32,5.62-3.41-1,1.36-2,2.68-3,4-.12.16.07.47.25.31a23.31,23.31,0,0,0,4.52-5.29c2.77-1.54,5.59-3,8.44-4.41-1.86,2.63-3.77,5.23-5.66,7.84a64.38,64.38,0,0,1-24.15,6.26c-.21,0-.22.4,0,.42a41.93,41.93,0,0,0,23-5c-.08.12-.16.24-.25.35-.67.36-1.34.72-2,1.07-.48.24,0,1,.45.8l.4-.19c-.57.82-1.14,1.64-1.69,2.48-.12.17.09.51.27.32,1.15-1.18,2.24-2.44,3.29-3.74,2.24-1.13,4.46-2.35,6.63-3.66-.89,1.37-1.76,2.76-2.62,4.15-2,1.19-4.12,2.35-6.24,3.43-.47.24-.05,1,.41.79,1.56-.78,3.13-1.58,4.69-2.39l-.33.53c-.08.13.09.33.2.19.24-.34.48-.69.73-1,2.58-1.36,5.15-2.79,7.64-4.32a71,71,0,0,0-4.95,9c-.09.2.18.44.33.23.81-1.14,1.59-2.31,2.36-3.47-.08.32.28.76.66.58,2.42-1.14,4.89-2.43,7.28-3.84Q322,83,321,85.16a34.81,34.81,0,0,1-10.25,3.38c-.56.09-.27,1,.26.89a41.18,41.18,0,0,0,9.27-2.61c-.34.8-.66,1.61-.95,2.42a46.1,46.1,0,0,1-8.48,1.86l0,0c.27-.16.08-.63-.22-.49l-1.6.7-.88.07a.43.43,0,0,0-.4.5,59.09,59.09,0,0,1-21.58,5c-.36,0-.34.61,0,.61a50.08,50.08,0,0,0,22.54-5.2,55.08,55.08,0,0,0,10.09-1.61c-.33,1-.63,2-.89,3a54.82,54.82,0,0,1-9.83.57c-.66,0-.45,1,.13,1a57,57,0,0,0,14.85-.85c-.35.75-.67,1.51-1,2.28a79.1,79.1,0,0,1-17.92,1c-.59,0-.49.89.05.93,1.49.12,3,.21,4.49.26-7.22,2.13-14.28,3.19-21.82,2.3-.51-.06-.51.73-.05.79,7.73,1.08,15.6.47,22.78-2.77a.24.24,0,0,0,.11-.28,73.09,73.09,0,0,0,11.74-.6c-.32.94-.62,1.88-.87,2.83a107,107,0,0,1-13.11-.64c-.6-.07-.48.88.06.94a112.35,112.35,0,0,0,12.75.93c0,.13-.07.25-.09.38s.28.55.41.25l.29-.63c1.8,0,3.59-.05,5.38-.18-1.08,2-2.1,4.07-3,6.16a43.57,43.57,0,0,1-4.4-.14c-1.7-.14-14.08-1.76-12.33-5,.26-.48-.51-1-.81-.48a3.45,3.45,0,0,0-.79,2.38.6.6,0,0,0,.36.57,41.38,41.38,0,0,0,17.38,4.08c-.3.7-.61,1.39-.89,2.1a64.2,64.2,0,0,1-20.17-6.37.42.42,0,1,0-.39.74,68,68,0,0,0,20,7.21c-.09.26-.19.51-.28.77a149.89,149.89,0,0,1-17.27-3.45c-1.13-.65-2.25-1.34-3.36-2.06,1.1,0,2.2-.06,3.3-.13.26,0,.23-.49,0-.51-1.49-.09-3-.12-4.47-.15-.25-.17-.51-.32-.76-.5s-.67.16-.55.49c-2.08,0-4.16,0-6.23,0a.37.37,0,0,0-.35.23c0-.14,0-.28,0-.42.05-.54-.78-.62-.73,0,0,.21,0,.42.05.63s.56.49.61.09a.37.37,0,0,0,.36.33h4.37a.39.39,0,0,0,.22.51c2.35.86,4.76,1.67,7.19,2.42a83.84,83.84,0,0,0,9.17,5,164.52,164.52,0,0,1-15.69-5c-.41-.16-.46.54-.09.69a125.44,125.44,0,0,0,20.81,6.41,50.71,50.71,0,0,0,7.44,2.08c-.5,1.3-1,2.6-1.41,3.91-.13.39.48.84.76.48a32.35,32.35,0,0,0,2-2.77c.15-.22-.15-.58-.37-.37l-.54.55.67-1.59a.31.31,0,0,0,.22-.51l1.83-4.36c1.13,0,2.25,0,3.37,0a.29.29,0,0,0,0-.57l-3-.37.49-1.15a36.13,36.13,0,0,0,3.9-.24c.29,0,.22-.53-.05-.56l-3.33-.37q.93-2.13,1.9-4.24a29.05,29.05,0,0,0,3-1c.27-.1.1-.57-.17-.52-.78.13-1.54.26-2.31.37.81-1.69,1.64-3.39,2.53-5.07.2-.37-.39-.74-.61-.33-1,1.83-2,3.68-2.94,5.55-2.19.31-4.35.54-6.54.63.67-1.48,1.38-2.94,2.1-4.39.3-.62.62-1.23.94-1.84,1.63-.15,3.25-.34,4.85-.63.32-.06.22-.64-.1-.63l-4.15.15q1.33-2.45,2.8-4.81c1-.32,2-.68,2.95-1.08.4-.16.15-.78-.26-.69l-1.82.39q1.2-1.87,2.48-3.69c-.49,1.15-1,2.11-1,2.07a.94.94,0,0,0,.94,1.31h1.36q0,.62.09,1.2A8,8,0,0,1,333,99.08c-.52.43.2,1.24.75,1a8.68,8.68,0,0,0,2.57-1.75l.13.15a7.55,7.55,0,0,1-1.25,1.59c-.63.75.24,1.56,1,1.51a5.87,5.87,0,0,1,2.25,2.54c-.45.88-.84,1.78-1.2,2.69l-.18.14c-.34.33-.67.67-1,1a7.21,7.21,0,0,0-1.67,3.08,1,1,0,0,0,.91,1.29l.38.09c-.11.6-.21,1.22-.29,1.86-.46,3.58-.28,5.94-3.57,8.49-1.35,1.05-1.21,1.48-3.16,1.69-.72.08-.4,1.09.18,1.15a15.2,15.2,0,0,0,2.7.2.56.56,0,0,0,.4-.14c-.58,1.34-1.16,2.69-1.7,4.08-.11.29.25.71.5.4a29,29,0,0,0,4.29-8,50.53,50.53,0,0,0,9.27-7.29.88.88,0,0,0-.27-1.39,26.26,26.26,0,0,0-6.52-2.64c.24-.7.51-1.39.8-2.07,1.43-1.54,3.05-3.08,2.81-5,0-.12-.05-.23-.08-.35.5-.82,1-1.62,1.55-2.38a.92.92,0,0,0-.22-1.33,16.21,16.21,0,0,1-3.12-2.17,8.07,8.07,0,0,0,.67-4,.73.73,0,0,0-.21-.46l.48-.25C343.11,91.49,344.56,88.4,345.11,85.47Zm-215-38.37-.44,0a2.41,2.41,0,0,1,1.26-.49C130.67,47,130.55,47.11,130.07,47.1Zm-17.89,0a12.29,12.29,0,0,1,1.43.68c-.7.18-1.4.34-2.09.53A10.18,10.18,0,0,1,112.18,47.08Zm-2,1.85a.5.5,0,0,0,0,.12.42.42,0,0,0,.76.16c.14-.2.26-.41.38-.62l2.49-.68c1.1.72.86,1.27-.71,1.64a11.52,11.52,0,0,1-2.14.59,10.86,10.86,0,0,1-4.54-.1C107.71,49.66,109,49.29,110.21,48.93Zm-45.81.69c1.14-3.1.8-.9.35,1.34-.32.13-.66.24-1,.35Zm-4.17,5.64c.1-.48.24-.95.37-1.42l2-.62c-1.33,3.43-2.74,6.84-4.19,10.23Q59.35,59.36,60.23,55.26Zm-3.85.07a79,79,0,0,1-5,18.57.47.47,0,0,0,0,.33c-.33.45-.64.92-1,1.38.11-.69.23-1.38.34-2.07q.53-1.17,1.11-2.34c.19-.38-.39-.74-.61-.34L51.2,71c.8-4.64,1.71-9.24,2.86-13.82a.48.48,0,0,0-.32-.54A21.75,21.75,0,0,1,56.38,55.33ZM41.06,84c-.38.17-.76.34-1.16.5a20.63,20.63,0,0,1,2.18-3.9A17.73,17.73,0,0,0,41.06,84Zm1.25-.93a20.35,20.35,0,0,1,1.49-4.55l.27-.29c.32-.32-.14-1-.5-.67a94.14,94.14,0,0,0,1-11.4,29.91,29.91,0,0,1,3.32-4.49c-1.5,6.26-3.1,12.59-4,18.94a.22.22,0,0,0-.14.1C43.26,81.5,42.77,82.3,42.31,83.1Zm4.81-2.74a33.73,33.73,0,0,1-3.77,2.5c.26-.54.51-1.08.74-1.63a.19.19,0,0,0,.25-.15c1.92-6.57,3.07-13.46,4.34-20.2a32.65,32.65,0,0,1,3-2.81,15.26,15.26,0,0,1,1.58-1.13c-.79,3.06-1.5,6.15-2.14,9.25-.28,1.34-.52,2.68-.76,4L50,72.9c0,.29-.07.51-.1.71l0,.11c0-.19-.26-.32-.34-.1a2.46,2.46,0,0,0-.22,1.32A51.65,51.65,0,0,0,47.12,80.36ZM49.74,76a.49.49,0,0,0,.32.14c-.28.41-.57.82-.84,1.23C49.39,76.94,49.56,76.48,49.74,76Zm5.43-5a17.45,17.45,0,0,1-2.62,4.69c-.89.85-1.8,1.7-2.74,2.5,1.41-2.33,2.91-4.6,4.53-6.81C55.24,70.18,56,68.61,55.17,71Zm-1.73.46v-.09c.13-.29.27-.59.39-.89a.19.19,0,0,0,0-.18c.47-1.25.9-2.53,1.26-3.81A69.77,69.77,0,0,0,57.22,55c.88-.34,1.78-.64,2.69-.93-.82,4.39-2.88,11.43-3.58,14a.3.3,0,0,0-.29.1C55.16,69.25,54.29,70.35,53.44,71.47Zm10.67-6.93-.94.83c.23-.87-1.05-1.6-1.55-.76L60.5,66.48A45.57,45.57,0,0,1,57.28,71c-.53.54-1.06,1.08-1.6,1.61a22.35,22.35,0,0,0,.8-3.1.46.46,0,0,0,.69-.27C59,63.81,61.08,58.46,63.1,53.09l1.29-.4c-.11.53-.21,1-.25,1.16a57.06,57.06,0,0,1-2.7,8.84c-.21.57.6,1,.92.46,2-3.59,4-7.12,6-10.74.09-.17-.13-.34-.25-.16-1.47,2.21-2.87,4.47-4.28,6.73a50.82,50.82,0,0,0,1.46-6.58,26.57,26.57,0,0,0,4.33-1.87c-.88,2.77-1.73,5.54-2.45,8.34a.45.45,0,0,0,.2.49C66.32,61.15,65.26,62.87,64.11,64.54Zm5.8-.42a26.71,26.71,0,0,1-4.19,4.32l1.86-4.74c1-.86,2-1.7,3-2.53A17.9,17.9,0,0,0,69.91,64.12Zm4.64-3.78a29.16,29.16,0,0,0,1.2-3.07c.92-.65,1.86-1.29,2.81-1.92C77.29,57.06,75.94,58.72,74.55,60.34Zm7.33-6.53c.14-.27.27-.55.4-.83l.87-.53C82.74,52.91,82.31,53.37,81.88,53.81Zm3.57-.62,1.81-3.08c1.1-.61,2.21-1.19,3.32-1.77A24.65,24.65,0,0,1,85.45,53.19Zm6.65-7c-1.2.58-2.38,1.17-3.55,1.78l1.22-2.08a.56.56,0,0,0,0-.63c.28-.41.55-.84.8-1.27.12-.2-.11-.57-.32-.35l-.11.13C91.66,40,93,36.25,94.49,32.55c.19-.47-.52-1-.73-.49-1.89,4.63-4,9.23-5.6,14a.36.36,0,0,0,0,.14c-.76,1.12-1.55,2.2-2.38,3.24-.47.25-.94.5-1.4.76l-1,.58c.15-.32.31-.63.46-1,.32-.68-.73-1.29-1.13-.62-.62,1.06-1.28,2.1-2,3.12-1.47.89-2.91,1.82-4.34,2.78a1,1,0,0,0-1.58-.69A19.87,19.87,0,0,0,72,58.16c-1.08.8-2.15,1.62-3.2,2.46l.57-1.46a.8.8,0,0,0-.64-1.07c.44-.69.87-1.38,1.27-2.09.12-.22-.15-.6-.35-.36s-.5.61-.75.92c.75-2.28,1.43-4.59,2.11-6.91A28.42,28.42,0,0,0,76,44.54c-1.53,3.83-3.08,7.65-4.47,11.52-.18.52.53,1,.9.56A14.17,14.17,0,0,0,75,52.38c.1-.27-.28-.53-.45-.26s-.47.77-.72,1.14c1.38-3.57,2.68-7.18,4-10.78q1.89-2.15,3.94-4.1c-1.78,5-3.81,10-5.39,15.09-.18.58.67,1.08.94.46,1-2.28,2.11-4.53,3.09-6.82.09-.19-.19-.45-.32-.23-.23.38-.44.77-.66,1.15,1.07-3.18,2.08-6.37,3.18-9.53a.43.43,0,0,0-.36-.56c1.44-1.33,2.92-2.62,4.47-3.85l.22-.17c-2,5.37-4.19,10.71-6,16.15-.17.47.55,1.08.87.56l2.07-3.41c.1.24.41.42.62.2a34.64,34.64,0,0,0,5.91-8.3c.09-.18-.13-.35-.25-.17a46.16,46.16,0,0,1-4.84,6.36c.15-.42.3-.84.46-1.26.7-1.17,1.4-2.34,2.09-3.53.1-.16-.15-.4-.28-.22l-1,1.38c1-2.77,2-5.55,3.05-8.32.15-.4-.46-.78-.63-.33l-4.2,11.25-1.44,2.09c1.51-4.17,2.9-8.39,4.38-12.58a.41.41,0,0,0-.12-.42,127,127,0,0,1,14.88-9.54,73.76,73.76,0,0,1-9.66,20,.47.47,0,0,0,.17.61l-.07.15c-.24,0-.42.37-.56,1Zm.52,3.06a17.51,17.51,0,0,0,1-2.37c1.18-.57,2.36-1.11,3.55-1.64A37,37,0,0,1,92.62,49.2Zm8.52-4.66a7.19,7.19,0,0,0,.33-1.17q2.18-.88,4.39-1.69Q103.57,43.23,101.14,44.54ZM127.07,34.2l-.73.15a9.35,9.35,0,0,1,1.6-2.32c.55-.57-.44-1.4-1-.87a11.41,11.41,0,0,0-1.26,1.38,25.49,25.49,0,0,1-3.06,2.65c-1.37.33-2.75.68-4.12,1.05.24-.48.46-1,.68-1.52a.87.87,0,0,0-.77-1.11c1-2.81,5-7.14,6-8.45q3.78-5.25,7.58-10.48c.22-.31-.23-.82-.48-.47L120,29.91c-.78,1.07-2.66,2.91-2.64,4.48a25.8,25.8,0,0,1-2.46,2.89l-1.52.46c.06-.1.12-.2.17-.3.33-.66-.52-1.51-1.12-.95s-1.45,1.3-2.19,1.92a3.27,3.27,0,0,0,.16-.6.22.22,0,0,0-.42-.14q-2.14,1.14,0-1.1c.65-1,1.31-2,2-3,1.31-2,2.64-3.92,4-5.88,2.68-3.93,5.4-7.82,8.11-11.72.17-.25-.17-.58-.37-.31-5.67,7.6-11.21,15.35-16.34,23.34a.46.46,0,0,0,.27.64q-3,1.05-5.89,2.23s0-.09,0-.14c0-.59-.84-1.11-1.24-.53S99.58,42.4,99.14,43q-2.53,1.06-5,2.24c.12-.5.23-1,.31-1.52a.48.48,0,0,0-.07-.33c.23-.29.47-.56.69-.86a.26.26,0,0,0,0-.3c.35-.53.71-1.07,1-1.61,1.06-1.71,2-3.5,2.89-5.3a62.21,62.21,0,0,0,4.38-11.9l1.76-1c-.18.69-.35,1.38-.53,2.07a.88.88,0,0,0,1.34,1c1.09-.83,2.19-1.63,3.31-2.41-3.75,6.56-7.85,12.86-12,19.2-.21.32.23.88.58.64a8.28,8.28,0,0,0,3.2-3.78c.1-.22-.22-.48-.37-.24q-.87,1.35-1.8,2.67c.61-.9,1.21-1.81,1.8-2.71,1.16-1.75,2.27-3.53,3.38-5.3,2.32-3.73,4.49-7.54,6.58-11.4a98.23,98.23,0,0,1,21.68-10.93l-.7,1.14a.9.9,0,0,0,1.18,1.23c4.89-2.71,9.76-5.46,14.63-8.2a12.57,12.57,0,0,1-3.79,4.34.53.53,0,0,0-.2.65c-4.3,5.7-8.8,12.39-10.6,19.3a.29.29,0,0,0,.2.32A51.07,51.07,0,0,0,127.07,34.2Zm4.4-.83c-.62.1-1.25.22-1.87.34A27.68,27.68,0,0,1,133,31.08,22.1,22.1,0,0,0,131.47,33.37ZM140,32.16l-1.71.2,1.89-1.4c1.32-1,2.37-2.58.84-.19A15.5,15.5,0,0,1,140,32.16Zm3.86-.37-.54,0-1.75.17a29.68,29.68,0,0,0,1.79-3.36.6.6,0,0,0-.2-.64c3.21-5.77,6-11.8,9-17.67.1-.2-.18-.4-.29-.18-3,5.92-6.33,11.79-9.15,17.84h0c-2.28,1.63-4.62,3.17-7,4.7l-2.18.33A28.43,28.43,0,0,1,136,29.35c.31-.39-.26-1.1-.71-.84-.74.44-1.46.88-2.18,1.33,3.52-6.53,6.26-13,10.59-19.11a.83.83,0,0,0,.79.12c4.85-2.21,9.61-4.58,14.37-7-.85,1.26-1.71,2.5-2.56,3.76-.39.58.43,1.39,1,1l.31-.19c-2.47,7.16-5.86,13.71-9.27,20.46C146.91,30,145.39,30.91,143.84,31.79Zm4.08-.27-1.19.06.4-.26,1.5-1.08C151.05,28.29,150.8,28.72,147.92,31.52Zm9.18-3.66a.23.23,0,0,0-.07.07c3.51-6.78,6-14.3,8.93-21.31.18-.45-.48-1-.69-.5-3.22,7.54-7.15,15.14-9.53,23a19.31,19.31,0,0,1-3.19,2.23l-2.63.08a16.67,16.67,0,0,0,1.55-3.51c.12-.36-.26-1-.67-.66s-.85.59-1.27.89c4.09-6.07,6.87-13.19,9-20.14a83.31,83.31,0,0,1,12.93-6.18c-1.47,1.56-3,3.07-4.5,4.59-.61.62.21,1.47.92,1.19,2.53-1,5-2.1,7.49-3.22a18.23,18.23,0,0,1-2.14,2,.62.62,0,0,0,.06,1c-3.6,6.09-7.44,12.66-9.59,19.46-2.25,1.11-4.49,2.23-6.7,3.4.3-.53.6-1.06.91-1.59S157.53,27.42,157.1,27.86Zm1.13,3.49a48.72,48.72,0,0,0,5.14-2.8.2.2,0,0,0,.31-.08,1.74,1.74,0,0,0,.1-.19,12.43,12.43,0,0,0,2.37-2,39.92,39.92,0,0,0-3.84,5.23Q160.27,31.4,158.23,31.35Zm8.12.42c1.36-1,2.73-2,4.14-3,2-1.38,1.94-1.32.62.44-.69.92-1.36,1.85-2.05,2.77C168.16,31.93,167.25,31.84,166.35,31.77Zm7.16.8c1.05-.59,2.12-1.16,3.23-1.69l.22-.09c-.33.71-.66,1.43-1,2.15C175.16,32.8,174.33,32.69,173.51,32.57Zm3.2.48c.55-.93,1.07-1.88,1.59-2.83.5-.2,1-.39,1.5-.57a34.56,34.56,0,0,0-2.23,3.56Zm7.55,1.57-2.13-.48,2.78-1.24C184.69,33.48,184.46,34.05,184.26,34.62Zm2.71.73c-.64-.18-1.29-.37-1.94-.54.45-.85.89-1.7,1.33-2.55,1.06-.47,2.13-.93,3.2-1.37Zm12.34-1.21a.49.49,0,0,0-.79-.26,4.39,4.39,0,0,0-1.36,4.83c-2.39-.94-4.82-1.79-7.27-2.53,1.94-.58,3.88-1.21,5.81-1.85-.17.4-.35.8-.5,1.2-.09.24.25.54.44.31a16.62,16.62,0,0,0,1.43-2l2.93-1C199.78,33.3,199.54,33.72,199.31,34.14Zm1,3.87,2.72-.73c-.53.81-1,1.63-1.55,2.45A6.65,6.65,0,0,1,200.27,38Zm9.64,6.85-1.18-.64,2-.47Q210.3,44.3,209.91,44.86Zm4.34,6.1.78-1.37,1.08.74A4.42,4.42,0,0,1,214.25,51Zm3.37-1.54a.23.23,0,0,0-.32,0l-1.39-.89q1.38-.37,2.79-.69A17.09,17.09,0,0,0,217.62,49.42Zm4.9,3.52.42-.78c.55,0,1.09,0,1.61,0a12.38,12.38,0,0,1-1.36,1.26Zm4,1.14a.52.52,0,0,0-.27.67c-.09.21-.16.42-.26.63L224,54a11.16,11.16,0,0,0,1.4-1.76,6.41,6.41,0,0,1,1.63.36C226.87,53.08,226.7,53.58,226.51,54.08Zm1.33,2.63c-.26-.2-.54-.39-.8-.58l.27-.67,1.12.61ZM232.42,60l-3.54-2.54c.23-.25.45-.52.68-.79,1.22.64,2.46,1.27,3.72,1.86Zm2.05-.92.73.31q-.64.33-1.26.69ZM238.09,64q-2-1.36-3.92-2.76c.67-.47,1.33-.94,2-1.45,1.28.53,2.58,1,3.89,1.43-.64.92-1.29,1.83-1.92,2.76C238.09,64,238.09,64,238.09,64Zm2.83,1.94c-.53-.36-1.07-.71-1.6-1.08a11.36,11.36,0,0,0,2.7-2.23C241.63,63.73,241.26,64.83,240.92,65.94Zm9.12,5.8c-.65-.38-1.3-.76-1.94-1.15A65.81,65.81,0,0,0,253.56,63,13.78,13.78,0,0,1,250,71.74Zm47,37,1.83,0c.56.39,1.12.78,1.69,1.16C299.37,109.55,298.2,109.17,297,108.76Zm28.22,11.32-1.58-.56a.17.17,0,0,0-.08-.06l-.29-.07A137.44,137.44,0,0,1,307.68,113a99.14,99.14,0,0,0,12.74,2.58c-.05.16-.12.31-.17.46-.16.45.36,1,.76.58s.6-.57.91-.85c1.66.18,3.31.32,5,.39C326.3,117.43,325.76,118.75,325.24,120.08Zm2.12-5c-1.84-.23-3.66-.47-5.48-.73a5.54,5.54,0,0,0,.37-.73,41.71,41.71,0,0,0,5.56.47Zm3-6.13c-.64,1.27-1.28,2.55-1.89,3.83-1.89-.22-3.76-.46-5.6-.74a3.62,3.62,0,0,1,.13-.35c.26-.65.54-1.29.82-1.93A33.52,33.52,0,0,0,330.32,109ZM335,84.44c-.16.19-.34.37-.53.57a1.07,1.07,0,0,0-.29.69l-.77.16c-3.32.8.31-1.1.95-1.65a7.45,7.45,0,0,0,.58-.53Zm-4.73,0c.49-.73,1-1.46,1.53-2.18A18.28,18.28,0,0,1,334,82.1c-.38.39-.77.75-1.18,1.1a.29.29,0,0,0-.27,0Zm4.31-5.18a1,1,0,0,0-.63,1.22c-.27,0-.54,0-.8,0,.45-.56.91-1.12,1.39-1.68C334.52,79,334.54,79.15,334.55,79.29Zm-.13-1.54q-1.25,1.4-2.46,2.88a19.14,19.14,0,0,0-2.59.42,24.37,24.37,0,0,0,1.72-1.8c.18-.21-.07-.7-.34-.49-.48.38-1,.74-1.46,1.1l1-2.48a.79.79,0,0,0-.53-1.06l.78-.69a1,1,0,0,0,1,1l2.81-.3Zm-6.78-1.47h-.78c1.25-2.35,2.61-4.67,4.11-7l.09-.06,1.65,3.39h0C331,73.88,329.31,75.09,327.64,76.28Zm6.07-8.4a2.76,2.76,0,0,0-2.21-.4l.69-3.26a.44.44,0,0,0-.11-.55C333.3,64.56,333.61,66.19,333.71,67.88Zm-7.84-6.59a3,3,0,0,0,.67,1c.81.82,1.66.68,2.7.65a4.61,4.61,0,0,1,2.64.6.3.3,0,0,0-.34.09,6.37,6.37,0,0,0-1.71,5,.82.82,0,0,0,.42.65q-1.08,1.55-2.13,3.15a9.2,9.2,0,0,0,.38-4.17.43.43,0,0,0-.34-.35,14.4,14.4,0,0,0-2.1-.47c.46-.66.93-1.31,1.41-2,.22-.28-.18-.77-.42-.45l-.33.43-2.38,1.84c-.48,0-1,0-1.53.08-.29,0-.23.58.06.57l.67,0c-2.41,1.85-4.82,3.66-7.28,5.39,2.27-3.41,4.51-6.84,6.76-10.25C324,62.5,324.93,61.91,325.87,61.29Zm-21,12.3.24-.41c2.94-1.46,5.83-3,8.7-4.61l-.48.71C310.44,70.58,307.63,72,304.87,73.59Zm3,5.17.42-.56.63-.41a.31.31,0,0,0,0-.47c1.87-2.56,3.61-5.22,5.29-7.89L317,68.09c.19-.09.11-.44-.1-.36-.74.3-1.47.62-2.2.93l.57-.9c2.13-1.22,4.23-2.48,6.33-3.78q-3.53,5.24-7,10.49C312.42,76,310.19,77.42,307.87,78.76Zm3.33,2c1.05-1.48,2.08-3,3.11-4.48a68,68,0,0,0,10.15-7.76c-1.84,2.43-3.68,4.91-5.41,7.46C316.44,77.55,313.84,79.17,311.2,80.72ZM315.31,84l-.08.07c1.55-2.34,3-4.72,4.56-7.09a67.64,67.64,0,0,0,5.94-4.36c.24-.2-.05-.66-.33-.5q-2.06,1.23-4.08,2.47c1.41-2.2,2.85-4.39,4.37-6.54,1.29.2,2.32.89,2.05,3s-2.64,4.35-4,5.47a.7.7,0,0,0,.42,1.21h.72c-.18.3-.35.6-.52.9A70.1,70.1,0,0,1,315.31,84Zm9.79-4.26c1-.63,1.92-1.28,2.83-2h.44q-.89,2-1.74,4c-1.21.83-2.42,1.6-3.65,2.31Q324,81.87,325.1,79.69Zm-3,6.3a29.79,29.79,0,0,0,4.72-2.8,1.15,1.15,0,0,0,.9.1,24.45,24.45,0,0,1,2.74-.77c-.74,1-1.46,1.94-2.16,3a67.18,67.18,0,0,1-7.45,3.24C321.26,87.8,321.68,86.9,322.09,86Zm-3.5,7.58c.52-1.1,1-2.19,1.53-3.29a40.23,40.23,0,0,0,6.67-2.59c-1,1.55-1.92,3.15-2.76,4.77C322.23,92.9,320.42,93.28,318.59,93.57Zm8.35,7.48c-1.83,0-3.64.1-5.46.12.46-1,.92-2,1.38-3a52.05,52.05,0,0,0,6.65-1.52C328.61,98.07,327.76,99.55,326.94,101.05Zm3.55-6c-2.29.48-4.56.94-6.84,1.33.38-.8.77-1.6,1.16-2.39a40.5,40.5,0,0,0,8.4-3C332.27,92.35,331.37,93.71,330.49,95.09ZM335,88.48c-.21.29-.43.56-.63.85-2.88,1-5.72,1.92-8.58,2.68,1-1.86,2-3.68,3.07-5.46l.45-.24a.51.51,0,0,0,.14.26,2.49,2.49,0,0,0,2,1.15,4.81,4.81,0,0,0,2.36-.45C334.9,86.91,335.16,87.53,335,88.48Zm1.1-10.72c-.05-.58-.11-1.16-.16-1.73C337.24,75.86,337.3,76.44,336.13,77.76Zm5.92,36.7c-2,1.85-4,3.56-6.13,5.22.61-2,1.1-3.94,1.51-5.83a.48.48,0,0,0-.63-.55c.05-.21.11-.43.17-.65A24.79,24.79,0,0,1,342.05,114.46Zm-1.65-13.64-.25.41a4.11,4.11,0,0,0-2.21-1.4l.15-.2C338.86,100.07,339.72,100.48,340.4,100.82Zm-2.92-9-.23-2.34a4.23,4.23,0,0,0,.27-2.37,17.7,17.7,0,0,0,5.17-.34A7.69,7.69,0,0,1,337.48,91.78Zm-116.91,27.3c-18.44,17-44,13.82-67.54,15.14a4.88,4.88,0,0,0,.87-4.15c-.41-1.73-2.52-2.49-4.1-2.09-2.08.52-4.23,2.65-4.3,4.89a.44.44,0,0,0,.63.4,15.44,15.44,0,0,0-.78,1.58c-1.79.2-3.57.45-5.32.75-.3.05-.21.57.09.52,1.64-.26,3.3-.46,5-.64a11.9,11.9,0,0,0-.49,1.53c-.14.54.52.93,1,.91a10.84,10.84,0,0,0,6.83-3c23.81-1.14,50.35,2.25,68.29-15.7C220.79,119.16,220.68,119,220.57,119.08Zm-74.06,17.11c.07-.29.15-.57.24-.86,1-.08,2-.16,3-.22A12,12,0,0,1,146.51,136.19Zm6.24-4.89a4.3,4.3,0,0,1-1.78,3c-1.34.09-2.68.2-4,.33a11.42,11.42,0,0,1,1.26-2.55c.25-.38-.09-.79-.47-.87A6.72,6.72,0,0,1,149,129.8C150.42,128.56,152.93,129.09,152.75,131.3ZM143,160.11c-.32.43-.68,1.17-.05,1.54a.9.9,0,0,0,.25.08,1.2,1.2,0,0,0,.64,1.24,3.32,3.32,0,0,0,2.92-.48,3.12,3.12,0,0,0,1.46-2.26,1.76,1.76,0,0,0-1.8-2A4.3,4.3,0,0,0,143,160.11Zm4.12,0c0,.59-.63,1-1.08,1.33a2.6,2.6,0,0,1-.91.32,3,3,0,0,1-.42,0h-.22a.93.93,0,0,0-.16-.51l-.09-.09h0a9.65,9.65,0,0,1,1.75-1.44C146.67,159.35,147.15,159.38,147.14,160.09ZM109.29,144.8a2,2,0,0,0,.59-1.17c0-.3-.3-.8-.65-.54a7.15,7.15,0,0,1-.73.38,6.13,6.13,0,0,0-.51.38l-1,.78a.7.7,0,0,0,0,1A1.35,1.35,0,0,0,109.29,144.8Zm44-45.55a11.42,11.42,0,0,0-3,2.49.62.62,0,0,0,.19,1c1.3.76,2.77-.34,3.31-1.52.1-.23-.13-.59-.37-.49.18-.12.36-.25.56-.36C154.62,99.93,153.9,98.88,153.26,99.25Zm-1,2.3a10,10,0,0,1,1-.79A9.92,9.92,0,0,1,152.24,101.55Zm78.17-32.92c-12.1-10.29-23.28-19.29-39.6-21.08-.28,0-.31.43-.05.47,17.58,2,29.22,12.7,42.15,23.75,5.77,4.93,11.36,10.28,18.14,13.81,5.11,2.67,11.15,3.65,17,4.09a.21.21,0,0,0,.19.23l2.47-.06,1.42.07c.08,0,.12-.06.14-.13a81.54,81.54,0,0,0,20.05-3c.29-.09.22-.58-.09-.53a206.34,206.34,0,0,1-21.5,3c-7.79-1.12-15.24-2.06-22.22-6.13C241.89,79.35,236.2,73.55,230.41,68.63Zm-70.89,86.61c-5.78-.47-11.56-.76-17.34-1.22-5.43-.43-11.59-.19-16.77-2.05-1.85-.67-2.93-2.26-4.62-3.12a18.19,18.19,0,0,0-5.52-1.68c-6.32-1-12.77-1.55-19.13-2.28-.36,0-.34.56,0,.61q8.82,1.17,17.66,2.28a16.28,16.28,0,0,1,7.79,2.55,19.05,19.05,0,0,0,5,2.84c4.14,1.46,9.34,1,13.66,1.18,6.43.3,12.86.77,19.3,1.06C159.59,155.41,159.62,155.25,159.52,155.24Zm16.83-5.56c9.4-2,19.92-3.05,28.87-6.61s16.93-11.17,24.34-17.32c.14-.11,0-.4-.14-.28-7.49,5.38-14.52,12.17-22.9,16.12-4.88,2.3-10.73,3-16,4.2-4.77,1.08-9.51,2.29-14.26,3.44C176.05,149.28,176.09,149.73,176.35,149.68Zm62.52-31.29s.06-.1,0-.1S238.81,118.39,238.87,118.39ZM159,83.61c-.26.07-.2.53.06.46a135.78,135.78,0,0,1,18-4c8-1,15.44.39,23,3,12.47,4.3,24.54,9.83,36.65,15,.14.05.2-.18.07-.24A357,357,0,0,0,198.51,82C185.09,77.4,172.29,80,159,83.61Zm80.54,23.26A54.49,54.49,0,0,1,222.26,104c-4.35-1.54-8.09-4.65-12.59-5.83-10.2-2.68-21.86-.56-32.15.7-.27,0-.21.51.07.48,11-1.26,24.66-3.74,35.12.79,3.75,1.63,7.12,4,11.07,5.21a45.88,45.88,0,0,0,15.76,1.84C239.74,107.22,239.73,106.88,239.53,106.87Zm-4,2.23a100.14,100.14,0,0,1-24,1.79c-.06,0-.08.1,0,.1a88.75,88.75,0,0,0,24.06-1.69C235.7,109.27,235.68,109.07,235.56,109.1ZM77.32,68A99.94,99.94,0,0,1,62.18,78c-4,2.06-9.22,2.83-12.28,6.08-.25.27.21.84.49.55,2-2.07,5-2.72,7.66-3.77a68.09,68.09,0,0,0,7.42-3.66,59.33,59.33,0,0,0,12.06-8.83C77.7,68.23,77.53,67.87,77.32,68Zm46.87,73.87c11.41,1.79,23.1,3.77,34.66,4.11.33,0,.33-.5,0-.54-11.51-1.67-23.12-2.53-34.62-4.33C123.78,141.07,123.75,141.84,124.19,141.91ZM185.5,91.43c-.45,0-.33.78.11.76,9.16-.41,18-.43,26.56,3.15,7.22,3,13.63,7.57,21.29,9.48.11,0,.15-.18,0-.22-8.06-2.47-14.91-7.38-22.63-10.61C202.88,90.64,194,91,185.5,91.43Zm68.71,12.19c-.06,0-.07.1,0,.1S254.26,103.62,254.21,103.62Zm7-19.26c4.54,1.07,9.08,2.22,13.66,3.07.14,0,.18-.24,0-.28-3.51-.94-7.07-1.68-10.61-2.48-3.22-.73-8.17-.88-10.41-3.68-.11-.14-.28.07-.18.2C255.57,83.49,258.54,83.73,261.25,84.36Z"/></g></g></svg>