<svg xmlns="http://www.w3.org/2000/svg" viewBox="0 0 397.66 291.85"><defs><style>.cls-1{fill:#1a1c14;}</style></defs><g id="Layer_2" data-name="Layer 2"><g id="Layer_2-2" data-name="Layer 2"><path class="cls-1" d="M84.15,120.16l-.24,0c.07-.52-.65-1-.9-.47a2.28,2.28,0,0,0-.22.82,2.26,2.26,0,0,0-.91.71,3.27,3.27,0,0,0-.21,1.46q-.09,1-.12,2a1.08,1.08,0,0,0,1.09,1.17,4.63,4.63,0,0,0,4.57-2.78l.85-.24a.72.72,0,0,0,.38-1.12A4.7,4.7,0,0,0,84.15,120.16ZM83.54,124c0-.46,0-.93,0-1.39l.16.18a2.46,2.46,0,0,0,1.18.57A3.48,3.48,0,0,1,83.54,124ZM199.3,185.67c-1.69,1.19-17.38,14.35-20,15.94a.32.32,0,0,0-.05-.28l-.19-.22a.24.24,0,0,0-.3-.09,1.11,1.11,0,1,0,1,1.95c3.21-1.8,6-4.57,8.83-6.91,3.79-3.12,7.65-6.2,11.18-9.61C200.24,186.08,199.78,185.34,199.3,185.67ZM94,124.84a4,4,0,0,0,1.85,0,2.91,2.91,0,0,0,1.66-.79,3.86,3.86,0,0,0,1.33-2,1.76,1.76,0,0,0,0-1.44,4.72,4.72,0,0,0-1.56-1.07,3.13,3.13,0,0,0-3.45.17,3,3,0,0,0-.41,4.21A.85.85,0,0,0,94,124.84Zm2.07-4.06a3.68,3.68,0,0,1,1.22.61,2.65,2.65,0,0,1-.83,1.4,1.64,1.64,0,0,1-1.34.26A7.3,7.3,0,0,1,96.1,120.78ZM141,141.29l1.41.11a.49.49,0,0,0,.33.74c6.18.48,12.78-.06,18.52-2.58.3-.13.14-.71-.19-.63l-1,.24c-6.35.58-12.54,1.56-18.94,1.17C140.51,140.31,140.47,141.25,141,141.29ZM141,156c7.74.86,16.23-.54,22.9-4.76.4-.25,0-1-.41-.81C156,153.08,149,154.85,141,155.12,140.47,155.14,140.52,156,141,156Zm-6.86-54.79-2.1,5.22c-.52,1.32-1.53,3-1.34,4.43,0,.16.2.34.37.24,1-.57,1.36-2.4,1.72-3.39l2.27-6.11C135.25,101.07,134.37,100.63,134.12,101.25Zm17.89.63-.44-.69c-.32-.5-1.08,0-.78.52l1.43,2.33a17.07,17.07,0,0,0-3.51,6.5c-.17.64.85,1.07,1,.36a18.06,18.06,0,0,1,3.46-6.37.54.54,0,0,0,.09-.63l-.61-1c2.35.68,0,4.76-.82,5.73a8.56,8.56,0,0,0-2,3.7c-.08.36.33,1,.75.68a3.39,3.39,0,0,0,1.48-2.26.28.28,0,0,0-.24-.32c1.11-1.69,2.66-3.11,2.72-5.31A3,3,0,0,0,152,101.88Zm-7-.54q-2.67,5.39-5.35,10.75a.65.65,0,0,0,.54.9,1.76,1.76,0,0,0,2-2.2c0-.27-.43-.39-.53-.08l-.08.05,4.26-8.8C146.07,101.42,145.26,100.74,145,101.34Zm10.29,107.39c1.69-4.06,2.32-9,3.16-13.33.1-.5-.59-.75-.73-.22-1.15,4.26-2.73,8.91-3,13.32C154.63,208.81,155.1,209.09,155.25,208.73ZM41.94,97.14c.08-1,.17-2,.25-3,.05-.62-.89-.82-.94-.15-.09,1-.17,2-.25,3a14.41,14.41,0,0,0-.24,3.13c.1.61.81,1.62,1.52,1.15a.41.41,0,0,0,.15-.46,1.55,1.55,0,0,1-.08-.23.3.3,0,0,0-.53,0c.09-.19,0-1.54,0-1.9Zm102.91,14.43a2.48,2.48,0,0,0,1.36-1.43,22.58,22.58,0,0,0,3.56-8.39c.14-.6-.77-1.06-.94-.38a23.22,23.22,0,0,1-1.72,4.63c-.86,1.69-2.19,3.08-3.05,4.75A.61.61,0,0,0,144.85,111.57ZM91.79,97.42c.21-.49-.63-1-.87-.51q-1,2.15-2,4.27c-.68,1.45-1.65,2.94-1.77,4.56a.38.38,0,0,0,.63.3,11.43,11.43,0,0,0,1.87-3.64Q90.71,99.91,91.79,97.42Zm88.79-20.8c1.14-4.36,1.32-9,2.49-13.36.14-.54-.69-1-.86-.4-1.15,4.23-2.58,9.18-2.24,13.6C180,76.8,180.47,77,180.58,76.62ZM92,105.88c.61-1.68.7-3.41,1.46-5.08a13.38,13.38,0,0,1,3.68-4.63c.46-.38-.16-1.21-.64-.81-2.77,2.29-5.84,6.65-5.14,10.47A.33.33,0,0,0,92,105.88ZM142.8,157a.46.46,0,0,0-.1.92c8,1.24,16.75.28,23.67-4.17.37-.24,0-.95-.37-.79C158.28,155.82,151.1,157.62,142.8,157Zm-68.66-48a5.09,5.09,0,0,0-4,1.13,2.56,2.56,0,0,0-.53.6c0-.29-.07-.58-.08-.86,0-.49-.8-.61-.82-.08,0,1.09-.26,2.18-.39,3.26a.89.89,0,0,0,.9,1c1.64.09,3.28.08,4.92.09a.84.84,0,0,0,.92-.82c0-1.11,0-2.23,0-3.35A1,1,0,0,0,74.14,109.06Zm-3.37,3.38a2.93,2.93,0,0,1,.74-.9,3.14,3.14,0,0,1,1.72-.72c0,.53,0,1.06,0,1.59C72.42,112.41,71.59,112.42,70.77,112.44Zm90.5-8.16c.24-.58-.62-1.26-.89-.62q-1.12,2.67-2.24,5.34c-.58,1.38-1.4,2.75-1.44,4.26,0,.23.25.51.47.3,1-1.06,1.41-2.6,2-4C159.84,107.83,160.56,106.06,161.27,104.28Zm-48.22-4.75a32.48,32.48,0,0,0-3.45,4.56,9.83,9.83,0,0,0-2-.24,1.08,1.08,0,0,0-1.12,1.09,1.81,1.81,0,0,1,0,.52.51.51,0,0,0-.13.34l-.11.06c-.73.45-.35,1.4.27,1.71a1.46,1.46,0,0,0,2-.59,7.24,7.24,0,0,0-.18,1.92.27.27,0,0,0,.52.09,29.43,29.43,0,0,1,1.15-2.73,2.22,2.22,0,0,0,.72-1.07.78.78,0,0,0,0-.34,30.86,30.86,0,0,1,3.15-4.7C114.19,99.7,113.45,99.05,113.05,99.53Zm-9,5.28c1-1.56,2-3.1,2.93-4.65.31-.5-.45-1.16-.8-.62-1.15,1.77-2.29,3.55-3.44,5.31-.64,1-2.87,3.29-2.3,4.62s2.07,1.5,2.17-.1a.42.42,0,0,0-.17-.33l-.25-.16c-.28-.18-.4.25-.3.44C101.31,108.15,103.47,105.8,104.08,104.81Zm3.24,17.7a2.2,2.2,0,0,0,.56-.26c1,.19,2.2-.64,1.45-1.74a.53.53,0,0,0-.14-.12,3.21,3.21,0,0,0,.08-1.23.8.8,0,0,0-1.3-.58,3.23,3.23,0,0,0-1.33,2.42,1.79,1.79,0,0,1-2.06-1c-.16-.58-1-.55-.89.09A3,3,0,0,0,107.32,122.51Zm5-12.53c1.59-2.9,2-6.78,2.89-10,.14-.56-.7-1-.88-.41-.94,3.23-2.51,6.78-2.67,10.15A.36.36,0,0,0,112.31,110ZM11,107.42c0,.23.31.34.43.1a5.56,5.56,0,0,0,.34-1.07c2.15-1.06,4.26-2.26,6.35-3.52a21.93,21.93,0,0,0-1.24,3.54c-.06.24.26.44.42.23A25.27,25.27,0,0,0,20,101.78c1-.65,2-1.31,3-2a10.28,10.28,0,0,0-.17,4.33c.06.31.41.34.49,0,.4-1.62.39-3.32.78-5a1,1,0,0,1,.05-.16c1.66-1.13,3.27-2.27,4.85-3.4a7.21,7.21,0,0,0-.13,3.5c.08.29.46.41.57.08.36-1.16.3-2.44.58-3.63.07-.29.15-.57.24-.86l2.59-1.87c.79-.14,1.6-.26,2.4-.36a.57.57,0,0,0,0,.26l-1,2.25a15.53,15.53,0,0,0-1.57,3.92.26.26,0,0,0,.46.23A12.26,12.26,0,0,0,34.76,96L36,93.25l3,.09-1.36,2.44c-.44.78-1.77,2.38-1.48,3.38.43,1.43,2.18.54,1.42-.35a.29.29,0,0,0-.5.25c-.13-.92,1.39-2.88,1.84-3.69l1.11-2,22.1.62L59,98.84c-.79,1.21-1.76,2.36-1.31,3.86.38,1.29,2.84,1.12,2.47-.39-.07-.27-.45-.4-.55-.07l-.8-.78a7.77,7.77,0,0,1,.48-.9c.44-.75.92-1.47,1.37-2.21.81-1.29,1.61-2.59,2.41-3.88a.45.45,0,0,0,0-.46l3.8.1L65.52,97a15.35,15.35,0,0,0-1.75,4.46c0,.31.3.72.59.4a12.09,12.09,0,0,0,1.85-3.63L68,94.14l4.6.13H73a12.5,12.5,0,0,0-2.6,7.48c0,.48.72.88,1,.35.37-.73.69-1.47,1-2.21.12-.25-.21-.53-.4-.29l-.25.29a13.32,13.32,0,0,1,2.49-5.58l1.52.06a11.27,11.27,0,0,1-.08,3.84c-.22,1.17-.85,2.15-.9,3.35,0,.23.19.43.41.28,2-1.39,2-5.09,1.57-7.44l4.06.16c-1.63,2.35-2.71,5.49-1.6,8.06.13.31.49.21.54-.09.25-1.43.13-2.87.48-4.3a9.7,9.7,0,0,1,1.8-3.62q3.3.15,6.61.27a36,36,0,0,0-2.85,4.27c-.88,1.58-2,3.48-2.08,5.33h0a3.57,3.57,0,0,0-2.21,3.85,1,1,0,0,0,.66.8,3,3,0,0,0,3.13-.75,4,4,0,0,0,1.09-3.64.45.45,0,0,0-.77-.14c-.16.24-.3.49-.44.74,0-.08,0-.16,0-.25a.92.92,0,0,0-.45-.53c.91-1.44,1.38-3.28,2.14-4.8a30.06,30.06,0,0,1,3.11-4.85c4.35.15,8.69.23,13,.16a68.74,68.74,0,0,1-3.77,6.2c-1.28,1.86-3,3.52-4,5.56a.48.48,0,0,0,0,.35,3.64,3.64,0,0,0-.26.72c-.19.22-.38.44-.56.67-.42.5.09,1.33.69,1.36h.18a1.12,1.12,0,0,0,1,.24,3.1,3.1,0,0,0,.61-.2h.52a.67.67,0,0,0,.74.15c.09,0,.16-.1.24-.14h.16a.85.85,0,0,0,.86-.62l1-.68a.29.29,0,0,0-.25-.5l-.68.2v-.2c2.2-3.39,4.29-6.87,6.46-10.28.32-.5-.45-1.16-.8-.62-1.86,2.87-3.78,5.7-5.65,8.56v-.14a1,1,0,0,0-1.25-.9c.7-1,1.33-2,2-2.92A66.62,66.62,0,0,0,104,95.28a.41.41,0,0,0,0-.21h.6q4.35.45,8.72.94a.62.62,0,0,0,.15-1.24l-3.92-.54a.45.45,0,0,0-.32-.23c-1.63-.18-3.28-.32-4.92-.45a427.48,427.48,0,0,0-49.54-2.8c-5.74,0-12.34-.45-18.5.29a.28.28,0,0,0-.13,0,37.25,37.25,0,0,0-4.57.81l.07-.13c.26-.45-.39-1.11-.69-.61-.19.33-.38.69-.57,1.07a25,25,0,0,0-2.6.91c-.42.18-.83.36-1.23.56.06-.09.11-.19.16-.28.25-.38-.34-.83-.61-.41s-.54.86-.81,1.33c-1,.54-2,1.12-2.9,1.73a.77.77,0,0,0,.07-.16c.18-.4-.4-.87-.61-.41s-.45.93-.69,1.4c-3.11,2.18-6,4.68-9,7l.48-3.83c0-.43-.58-.73-.66-.24-.24,1.53-.68,3.23-.9,4.88-.62.47-1.24.93-1.88,1.37a55.56,55.56,0,0,1-8.93,3.68c-.54.17-.19,1,.33.88A48.64,48.64,0,0,0,11,106.85C11,107,11,107.24,11,107.42ZM40.74,92.1c3.2-.1,6.39,0,9.36,0,9.57-.1,19.1.23,28.61.81l-3.81-.05-6.7-.11c-.2-.22-.54-.3-.69,0q-13.46-.24-26.89-.39ZM25.62,95.35a22.7,22.7,0,0,1,4.1-1.7,1,1,0,0,0,0,.1q-2.33,1.34-4.62,2.78C25.23,96.13,25.42,95.74,25.62,95.35Zm-4.16,2.94c.58-.48,1.16-1,1.76-1.41.38-.3.78-.55,1.17-.81-.18.4-.36.8-.52,1.2-.89.57-1.79,1.13-2.69,1.69Zm138.1,39c.35-.09.31-.73-.06-.71-6,.31-11.65.79-17.63.13-.62-.06-.64.89-.07,1C147.56,138.51,153.88,138.79,159.56,137.24Zm223.67,15.21a30,30,0,0,0-.94,3.37c-.08.44.54.78.75.32a29.32,29.32,0,0,0,1.13-3.31C384.36,152.24,383.43,151.79,383.23,152.45ZM52,205l-.93,1.56a3.83,3.83,0,0,0-.71,1.39.57.57,0,0,0,.45.58c.5.13.91-.85,1-1.29L52,207c.31-.49.62-1,.92-1.47S52.35,204.36,52,205Zm107.75-89.06a38.19,38.19,0,0,1,6.05-13.1c.36-.5-.44-1.16-.84-.63a35.07,35.07,0,0,0-6.36,13.42C158.45,116.29,159.58,116.67,159.75,115.89ZM364.9,143.53c1.32-.83,1.93-2.31,2.81-3.55a25,25,0,0,1,3.91-4.24c.84-.75-.42-2.08-1.23-1.37a30,30,0,0,0-3.84,4.13c-1.06,1.37-2.29,2.87-2.2,4.67C364.37,143.43,364.64,143.69,364.9,143.53Zm12.36.82a.34.34,0,0,0-.22-.27l-.14-.06a.26.26,0,0,0-.15,0c.33-.81,1.08-2.38,1.19-2.64l1.43-3.51c.32-.78-1-1.37-1.34-.51-.51,1.32-1,2.65-1.54,4-.32.84-1,2-.93,2.94C375.69,145.48,377.4,145.72,377.26,144.35ZM124.2,213.5a.45.45,0,0,0-.35.51c-.28-.23-.73-.26-.87.15a3.08,3.08,0,0,0-.11,1,1,1,0,0,0,.56.81,1.77,1.77,0,0,0,1.6.05,1,1,0,0,0,.61-1C125.57,214.33,125,213.32,124.2,213.5Zm.43-22a54.79,54.79,0,0,0-4.4,10.05c-.31.69.86,1.33,1.08.59a54.86,54.86,0,0,1,4.16-10C125.76,191.58,125,190.91,124.63,191.5ZM96.06,212.33a6.76,6.76,0,0,0-1.59-.41,1.77,1.77,0,0,1,.22-.62c.11-.14.22-.27.32-.42a1.06,1.06,0,0,0-1.67-1.28A4.85,4.85,0,0,1,90,211.78a1.75,1.75,0,0,1,.28-1.49c.35-.48-.39-1.11-.8-.62A3.67,3.67,0,0,0,88.36,213a1,1,0,0,0,1,.7,6.13,6.13,0,0,0,3.17-.64,1.08,1.08,0,0,0,1,.66,7.16,7.16,0,0,0,2.56-.51A.52.52,0,0,0,96.06,212.33Zm266.73-71.27a12.26,12.26,0,0,0,.68-3.19c.19-1.19.37-2.38.56-3.57.09-.58-.78-.8-.88-.17l-.6,3.58a12.72,12.72,0,0,0-.36,3.12C362.21,141.11,362.62,141.44,362.79,141.06Zm-255.3,70.27c0-.54-.54-1.09-1-.67a23.18,23.18,0,0,0-2.44,2.21c-.62.66.2,1.55.87,1.64a6.79,6.79,0,0,0,4.42-1,1.41,1.41,0,0,0,.89-.65l.43-.38a1,1,0,0,0,0-1.5A2.05,2.05,0,0,0,107.49,211.33ZM381.28,152c.56-1,.91-2.15,1.41-3.21a17.47,17.47,0,0,1,2-3.26c.38-.5-.34-1.36-.74-.84-1.52,2-3.15,4.51-3.29,7.08C380.69,152,381.1,152.27,381.28,152ZM220.77,128.74a10.63,10.63,0,0,1,6.4-1.91c.17,0,.23-.3.05-.34a7.85,7.85,0,0,0-6.72,1.81C220.27,128.48,220.51,128.93,220.77,128.74Zm-1.92-24.11c-1.08-.18-2.18-.17-3.26-.39a9.62,9.62,0,0,1-3.59-1.68.44.44,0,1,0-.51.72c2,1.42,5,2.77,7.43,1.91C219.17,105.11,219.09,104.67,218.85,104.63Zm5,19.49c-3.8-.55-8.1.64-11.78,1.57-.5.12-.22,1,.28.83,3.77-.9,7.82-.91,11.51-2C224,124.5,224,124.15,223.84,124.12Zm-51.05,39.63a151.22,151.22,0,0,0,15.86,1.94c.34,0,.39-.51.06-.58a158.47,158.47,0,0,0-15.8-2.24A.45.45,0,0,0,172.79,163.75Zm179.76-25.13,1.57-3.11c.38-.74-.79-1.61-1.14-.84s-.83,1.77-1.24,2.66a6.31,6.31,0,0,0-1,2.78c0,.22.25.53.5.35A4.47,4.47,0,0,0,352.55,138.62Zm-165,9-.45.88a8.56,8.56,0,0,0-2.33,1.93,8,8,0,0,0-.7,1c-4,4.73-2.66,12.22,4.28,12.47a6.82,6.82,0,0,0,3.51-.86c5.7-.37,12.64-7.75,8.27-12.91-2.75-3.25-6.71-3.77-10.29-2.58a7.75,7.75,0,0,0-1.59.41C188.31,147.55,187.76,147.15,187.53,147.63ZM184,157.78a9.83,9.83,0,0,0,3.49,4C185.17,161.59,184.11,159.8,184,157.78Zm9.21,1.39a3.72,3.72,0,0,1-1.33,1.64l-.26,0a5.8,5.8,0,0,1-3.86-1.44h0a5.91,5.91,0,0,0,4.5-5,.82.82,0,0,0,0-.47A4.71,4.71,0,0,1,193.2,159.17Zm6.13-6.69a4.87,4.87,0,0,1-1,4.58,6.79,6.79,0,0,0-.54-5.21,8,8,0,0,0-2.38-2.83A5.71,5.71,0,0,1,199.33,152.48ZM190,149.57a7.08,7.08,0,0,1,4,.26c2.52,1,3.22,4,2.91,6.39a4.68,4.68,0,0,1-1.66,3,5.59,5.59,0,0,0-1.35-6.14,6.25,6.25,0,0,0-7.45-.72c.09-.23.18-.46.28-.69A11.28,11.28,0,0,1,190,149.57Zm204.18,20.54a.71.71,0,0,0-.7-.61l-3.22.06a.53.53,0,0,0,.21-.51,3.26,3.26,0,0,0-.72-1.54c-1.12-2.23-2.16-4.49-3.08-6.83-.25-.63-1.08-.22-.85.41.7,1.9,1.49,3.76,2.32,5.61a1.33,1.33,0,0,0-.74.69c-1.68,3-5.83,3.64-9.52,3.48a.2.2,0,0,1,0-.08c.31-.56-.55-1.23-.89-.62l-.37.62a25.39,25.39,0,0,1-3.41-.57c.57-.95,1.16-1.89,1.79-2.82s-.69-1.89-1.25-1.09c-.78,1.12-1.53,2.26-2.24,3.42-.86-.26-1.7-.53-2.53-.8.78-1.67,1.58-3.33,2.38-5a10,10,0,0,0,.85-1.5,33.43,33.43,0,0,0,3.74.1,6.55,6.55,0,0,0,.08.9c0,.25.41.43.55.15a5,5,0,0,0,.37-1.07,26.54,26.54,0,0,0,4.09-.54,20.08,20.08,0,0,0-.71,3c-.05.42.62.85.85.39a16.88,16.88,0,0,0,1.08-2.83l.12-.07A42.12,42.12,0,0,0,388,158a.4.4,0,0,0-.17-.63,8.9,8.9,0,0,0,1.34-1.69c.12,1.66.25,3,.28,3.57s1.05.89,1.11.18c.14-1.76.2-3.52.25-5.29a.51.51,0,0,0,.68-.36,60.49,60.49,0,0,0,1.7-16.2.59.59,0,0,0-.37-.54,19.47,19.47,0,0,0,.38-3.64c.35-.53.7-1.09,1.09-1.64,1.19-1.69,4.58-4.82,2.85-7.16a18.67,18.67,0,0,0-2-2.23c.05-.4.11-.81.19-1.24a1,1,0,0,0-.48-.92c-1.53-1.26-3.1-2.46-4.69-3.65a9.8,9.8,0,0,1-.45-1.19,5.47,5.47,0,0,0-.47-3.49c-.8-1.72-2.1-3.23-2.25-5.21s1.05-3.42.62-5.38a.93.93,0,0,0-1.19-.71,13.1,13.1,0,0,0-3.12,1.6,8.41,8.41,0,0,0-.76-1.35c.82-.35,1.59-.7,2.26-1.06.87-.48-.06-1.81-.89-1.35a28.16,28.16,0,0,1-2.67,1.26c-.66-.31-1.32-.26-1.43.61a16.54,16.54,0,0,0-5.54,3.37,65,65,0,0,0-6.6,7.83,76.18,76.18,0,0,0-8.42,14.86c-.18.24-.45.63-.73,1.09a1,1,0,0,0-.74-.24l-.2,0a13.62,13.62,0,0,0-1.51-3.06,4.58,4.58,0,0,0,.51-1.14q2.19-1,4.42-1.87c.72-.28.29-1.26-.4-1.17a8.92,8.92,0,0,0-4.34,1.63l-.35.17-.07,0A20.42,20.42,0,0,0,345,124.54l.39-1c.18-.47-.53-.94-.72-.41-.27.71-.54,1.42-.79,2.14a20.1,20.1,0,0,0-2.37,1.81c-.08-.21-.17-.42-.25-.61l0,0c-.18-1.24-.41-2.46-.67-3.63.53-.13.87-.64,1.2-1.33.13-.28-.14-.74-.46-.68l-.63.14c-.12-.24-.39-.42-.62-.21l-.28.27a.3.3,0,0,0-.31.15.25.25,0,0,0,0,.07c-.85.21-1.68.45-2.51.74l-.29.09-.1,0-.05,0a14,14,0,0,0-4.38,3.07c-.41.24-.8.48-1.19.73.38-.77.75-1.54,1.1-2.32.18-.39-.33-.84-.59-.41-.59,1-1.22,1.91-1.87,2.85,0-.07,0-.15,0-.22-.07-.54-1-.61-.93,0,0,.17,0,.34,0,.51-.1-.34-.21-.66-.32-1l.72-1.49c.25-.52-.49-1.2-.8-.63-.12.24-.25.47-.37.7-.27-.77-.54-1.52-.81-2.23a.62.62,0,0,0-.51-.45,13.07,13.07,0,0,0-6.8.85c-.51.2-.21,1,.27,1a6.32,6.32,0,0,0-1.54.33,3.69,3.69,0,0,0-.59-1.61.36.36,0,0,0-.34-.31,1.66,1.66,0,0,0-.73-.23,9.58,9.58,0,0,0-5.21,1.17.3.3,0,0,0-.05.46l-1.11.38c-3,.18-6,.69-8.94,1.09a5.37,5.37,0,0,0-4.69-4.51c-.08-.34-.51-.61-.76-.25l-.12.17a21.78,21.78,0,0,0-6.54,1.25,19.42,19.42,0,0,0-4.1,1.78q-.12-.36-.27-.72c0-.19,0-.38,0-.57a.82.82,0,0,0-.74-.76,5.87,5.87,0,0,0-1.6-1.44c-2-1.23-5.41-1.08-6.32,1.43a.42.42,0,0,0,0,.22l-.33-.08c.07-.31-.16-.7-.48-.55s-.35.19-.53.28l-.1,0a15.25,15.25,0,0,0-4.5-.21c-3.57-5.59-5.51-12-7.26-18.49-1.33-4.91-1.86-9.94-2.89-14.92-.4-1.91-.82-4.27-2.13-5.83-1-1.22-2.84-1.55-1.48-3q5.06-5.22,10.1-10.45c5.71-6,13.41-8.67,18.91-15a.57.57,0,0,0-.48-.94c-5.52.64-11.25,2.87-14.57,7.51a.4.4,0,0,0-.29.09L268,61l1.5-1.6c.34-.36-.21-1-.59-.59-1.91,1.9-3.79,3.83-5.7,5.74a52.8,52.8,0,0,0-8,7.23c-.17.2,0,.6.19.63-.88.89-1.77,1.76-2.64,2.66-1.69,1.72-1.28,2.06-1.14,4.37a19.9,19.9,0,0,0,.23,2s0,.09,0,.13l0,0a30.67,30.67,0,0,0,.73,3.13,2.17,2.17,0,0,0,0,.95.36.36,0,0,0,.35.29c.77,2.53,1.71,5,2.38,7.35.71,2.46,1.47,4.9,2.26,7.33a4.67,4.67,0,0,0-.2,3.61.36.36,0,0,0,.31.19,25.79,25.79,0,0,0-.08,4.58c0,.53.85.89,1,.24l-.14,2.13a.58.58,0,0,0,.09.67c1.27,1.12,5.28,3.83,4.77,5.91a.67.67,0,0,0,.48.74l.62.21c.1.16.19.35.3.5-1.74-.18-3.49-.33-5.24-.45-.57-.34-1.16-.65-1.74-1,1.27-.19,2.54-.36,3.8-.59.46-.08.25-.86-.17-.85l-2.21.05a.43.43,0,0,0-.26-.74c-1.87-.08-3.73-.12-5.6-.13-2.61-1.23-5.26-2.34-7.85-3.36a89.78,89.78,0,0,0-10.38-3.25c-3.55-.91-3-3.4-2.54-6.63.3-2.25.64-4.5,1-6.74a.45.45,0,1,0-.89-.17,88.73,88.73,0,0,0-2.19,12.19,1.72,1.72,0,0,0,.06.57l-1.17-2a.3.3,0,1,0-.53.27c.51,1,1,1.9,1.52,2.85.15.27.29.55.42.81a5.89,5.89,0,0,1-2.84-5.33c.06-1.08.12-2,.22-2.8.79,0,1.57.08,2.35.09a.34.34,0,0,0,0-.68l-2.25-.32a13.66,13.66,0,0,1,2.5-5.57l-.33.82c-.2.48.55,1,.84.51,4.95-8.26,7.32-18.07,8.43-27.55.22-1.84.18-4,.21-6.19.34-.45.69-.89,1.06-1.3s-.24-1.28-.66-.82l-.35.4c.2-4.59,1.12-9,5.83-10.82a24.52,24.52,0,0,0,10.79-8.26.36.36,0,0,0,.07-.17c.77-.57,1.51-1.17,2.23-1.8.11-.1,0-.35-.15-.26a36.4,36.4,0,0,1-17.33,5.86.43.43,0,0,0-.35.31,59.37,59.37,0,0,1-2.61,7.66,23.61,23.61,0,0,0-3.12,7.85,28.85,28.85,0,0,0-1.8,13.32c.19,1.63.33,3.17.39,4.67-1.1,1.87-1.77,4-1.23,5.86.08.3.43.39.56.07a12.5,12.5,0,0,0,.62-2.67,23.18,23.18,0,0,1-.39,2.88,30.92,30.92,0,0,0-4.58,8.54.59.59,0,0,0,.21.58,27.2,27.2,0,0,0-3.52,4.91,3.63,3.63,0,0,0-.23.75,234.17,234.17,0,0,1-29-5.83,3.49,3.49,0,0,0-1.17-1.12c-.47-.27-.71.37-.46.72a.78.78,0,0,0-.91.74,4.33,4.33,0,0,0,.09.89l-.12,0a.32.32,0,0,0-.36.1,3.19,3.19,0,0,1,.67-3.45c.37-.4-.17-1.21-.57-.78a5.29,5.29,0,0,0-1.14,4.34h0l-.49-.12a.31.31,0,0,0-.19,0l0,0a12.81,12.81,0,0,0,.07-2.15c0-.93,0-1.85,0-2.77.61.39,1.16-.33.66-.88A31.69,31.69,0,0,1,186.94,83a26.15,26.15,0,0,1-2-7c-.24-1.43.31-1.26,1-.59-.11.25,0,.61.31.59a1.08,1.08,0,0,0,.19,0,8.47,8.47,0,0,1,1.37,2.16s0,0,0,0a6.14,6.14,0,0,0-.87-2.22c3.22-.76,2.22-5.39,1.73-8-1.52-8-6.59-14.64-5.29-23.13.07-.46-.58-.79-.79-.31-3.8,8.7-4.62,18.36-4.66,27.75a.35.35,0,1,0,.69,0c.07-.75.13-1.5.19-2.25l.06,0c3-3.29,3.47-8.67,2.62-12.86a.37.37,0,0,0-.73.11c.53,4.12-.43,7.21-1.8,10.8.27-3.59.52-7.17,1-10.75.31-2.13.79-4.22,1.3-6.32.31-1.26,1.09-7.23.86-2.75-.24,4.65,9.41,24.22,4.17,26.89a7.64,7.64,0,0,0-1.86-1.41.26.26,0,0,0-.36.22c-.85,5.82,2.29,12.81,6.75,16.68,0,.92,0,1.83,0,2.75,0,.58,0,1.17,0,1.76-.82-1-1.59-2.14-2.35-3.23,0-.25-.07-.49-.11-.71a6.83,6.83,0,0,0-1.8-3.39c-.25-.27-.52-.09-.6.17l-.09-.36c0-.38,0-.76,0-1.12a.38.38,0,0,0-.37-.41c-.5-1.86-1-3.71-1.63-5.54,0-.2.11-.4.17-.59a.55.55,0,0,0-.6-.68c-.07-.23-.15-.46-.23-.68l0,0a.48.48,0,1,0,.7-.66l-1.27-1.4A24.41,24.41,0,0,1,184.92,70c.22-.41-.49-1-.74-.51a28.69,28.69,0,0,0-3.31,9.36l-.13-.14a.58.58,0,0,0-1,.51c.29.94.62,1.88,1,2.8a12.84,12.84,0,0,0,.21,2,.29.29,0,0,0,.58,0,.37.37,0,0,0,0-.11c.23.5.46,1,.7,1.49a6.44,6.44,0,0,0,.46,2.07c.13.31.48.21.56-.06.53,1,1.1,2,1.69,2.92a10.33,10.33,0,0,0,.25,2.11c.07.29.4.18.46,0a5.57,5.57,0,0,0,.14-.71h0c.41,1.59.81,3.18,1.22,4.77.07.29.48.17.44-.11-.1-.94-.24-1.89-.4-2.83q1.81,2.57,3.83,5a1.15,1.15,0,0,0,1.52.2l.31-.23a.94.94,0,0,0,.39-.54,2.7,2.7,0,0,0,1.23.82.29.29,0,0,0,.3-.46,8,8,0,0,1-.8-1.19l.42.12a7.28,7.28,0,0,0,2.46,2.7c0,.13.07.27.11.4.49,1.22,1.68,2.41,3.05,1.84a.32.32,0,0,0,.14-.42c2.64,1.17,5.51,2,7.24,2.59,7.33,2.59,15,4.09,22.26,6.92L235,113.8c.32.17.64.33,1,.51a.38.38,0,0,0,.28,0l1,.44a70.55,70.55,0,0,0-7.83.13,104.35,104.35,0,0,1-13.13-2.67c-.54-.14-.66.77-.19.94a75.35,75.35,0,0,0,7.8,2.31q-3.65.51-7.22,1.33a.52.52,0,0,0-.76-.16l-.77.53c-1.44.35-2.87.74-4.28,1.16a9.15,9.15,0,0,0,0-1.72c0-.37-.45-.57-.68-.22a14.5,14.5,0,0,1-4,4.11q.45-1.4.87-2.82c.15-.53-.68-1.06-1-.49l-.3.62a.42.42,0,0,0-.54.11c-.43.51-.86,1-1.3,1.49-1.31.44-2.62.89-3.92,1.36a51.86,51.86,0,0,0-8-2.12c1.49-1.38,3.83-3.16,3.59-.6-.06.59.79,1.45,1.3.78q4.49-4.38,4-.65c0,.56.87.82.88.17a22.9,22.9,0,0,0,0-2.62.47.47,0,0,0-.46-.44,8.51,8.51,0,0,0-4.32,1.5c0-.31-.06-.63-.07-.94a.66.66,0,0,0-.77-.6,12.5,12.5,0,0,0-4,1.53c.18-.53.36-1.06.55-1.59a.65.65,0,0,0-.53-.89,6.72,6.72,0,0,0-5.29,1.39c.2-1,.42-2,.62-3,1.33.22,2.31.37,2.47.38,6.35.4,12.31.49,18,3.69.43.24.75-.39.42-.68-3.74-3.28-8.38-4-13.17-4.29-2.49-.17-5-.23-7.44-.41l0-.13a.41.41,0,0,0-.57-.47l-.84.48c-.61,0-1.21-.11-1.82-.18a9.31,9.31,0,0,1-1.1-.22.32.32,0,0,0-.41-.15l-.06,0c-2-.59-3.61-1.54-5.61-.75a.48.48,0,0,0-.21.62,26.9,26.9,0,0,0-2.11,1.83,8.79,8.79,0,0,0-1.56-3.17.57.57,0,0,0,0-.13.5.5,0,0,0-.45-.53,16.44,16.44,0,0,1-3-7c-.12-.65-.76-1.14-1.24-1.55-2.28-2-7.9-1.1-10.46-1.13a119.33,119.33,0,0,0-18.2,1.46.73.73,0,0,0-.7.8c0,2.1-.62,1.22-.6.3a.41.41,0,0,0,0-.11,1.25,1.25,0,0,1,.19-.61c.46-.65-.46-1.27-1-1.07-1.75.62-7.3-2.64-9.8-2.78a49.71,49.71,0,0,0-5.45.07,29,29,0,0,1-.51-18c2-6.37,5.08-12.4,7.22-18.73A149,149,0,0,0,134,42.93a134.6,134.6,0,0,0,2-42.7.23.23,0,1,0-.46,0q.44,8.36.17,16.58c-.32-3.84-.91-7.68-1.58-11.4a.18.18,0,0,0-.35,0c.8,7.78,1.75,15.42.83,23.24-.83,7.11-4.49,13.5-7.73,19.74a77.2,77.2,0,0,0-8.69,36.1,60.74,60.74,0,0,0,1.21,12.8c-2.56.24-5.12.54-7.6.7-.5,0-.43.85,0,.84,2.35-.1,5-.41,7.75-.62a35.08,35.08,0,0,0,1.4,4.54c-2.2,2.44-4,5.57-4.06,8.71,0,.59.88,1.18,1.15.44.37-1,.81-1.92,1.17-2.91a.3.3,0,0,0-.21-.39,16.82,16.82,0,0,1,.65-1.75,14.25,14.25,0,0,1,1.78-2.92,28.23,28.23,0,0,0,2.06,3.93,14.37,14.37,0,0,0-.55,4.55.48.48,0,0,0,.84.26c.48-.63,1-1.21,1.52-1.81.17-.19-.08-.57-.31-.39l-.8.62c.12-.58.22-1.16.32-1.75a23.43,23.43,0,0,0,3.47,3.8,46.19,46.19,0,0,0,6.64,4.68l1.67,1.7A194.6,194.6,0,0,1,110,130.85c-2.46.62-4.93,1.17-7.46,1.63-9.46,1.73-20.89,3.58-30.47.85,21.39.86,44-.58,60-13.44.29-.23-.06-.8-.4-.6a87.52,87.52,0,0,1-39.07,12,210.49,210.49,0,0,1-21.76.32A4.91,4.91,0,0,0,70.9,130a14.72,14.72,0,0,0-.5-2.41c0-.16,0-.32-.05-.48l1.23,0a1.34,1.34,0,0,0,.47.36l.09,0c.24.53.49,1,.73,1.58s.76.12.65-.29-.21-.72-.32-1.08a3.09,3.09,0,0,0,1.68-.53c14.91.31,30.11.43,43-7.45,1.27,1,3.88.67,4.17-1.14a.64.64,0,0,0-1.19-.42,1.2,1.2,0,0,1-1.16.84,1.36,1.36,0,0,1-1.41-.9c-.17-.48-1-.67-1.1,0a1.73,1.73,0,0,0,.39,1.34c-13.18,6.69-27.31,6.66-41.56,6.66a3.77,3.77,0,0,0,.39-.64,3.93,3.93,0,0,0,.31-2.22,1.6,1.6,0,0,0-1.65-1.61c-1.64,0-2.37,2-2.56,3.5l-.19-.07h0a55.65,55.65,0,0,0-2.77-6c.42-.28.86-.54,1.27-.84.24-.17,0-.67-.28-.52l-1.36.69c-.69-1.29-1.4-2.56-2.13-3.82a.75.75,0,0,0,.06.13c-.2-.33-.41-.66-.64-1a1.69,1.69,0,0,0,.67-.54,1.59,1.59,0,0,0,.26-.5c.2-.14.39-.29.58-.45a.58.58,0,0,0-.5-.95h0a3,3,0,0,0-.65-1.26,2.15,2.15,0,0,0-3.35.28.49.49,0,0,0-.52.19c-.58.8-1.28,1.46-1.88,2.24a.71.71,0,0,0-.15.36c-1.06-1.67-2.38-3.06-3.12-5-.4-1.06-.18-2.9-1.15-3.74a9.92,9.92,0,0,0-3.81-2.06c1.09-1.9-.34-4.8-1.75-6.1-.48-.45-.93.36-.51.76a5.17,5.17,0,0,1,1.54,2.87,10.76,10.76,0,0,1,0,2.27,18.83,18.83,0,0,0-3.53-.44.27.27,0,0,0-.4-.26l-.31.23c-.18,0-.36,0-.54,0a16.47,16.47,0,0,1,1.49-4.66c.25-.52-.5-1.2-.8-.62a18.47,18.47,0,0,0-1.74,5.29l-1.43,0c-6.22.28-12.54,2.28-18.6,3.61-7.12,1.57-14.22,3.22-21.29,5-.57.15-.41,1.09.16,1,8.8-1.61,17.54-3.43,26.29-5.31a102.25,102.25,0,0,1,14.72-2.53c.14.37.55.68.87.29l.3-.36c2.9-.12,7.23.08,8.44,3.34.45,1.19.25,2.18.92,3.32,2.18,3.78,6.68,8.55.51,11.62-5.33,2.65-12.57,3.29-18.43,3.58a59.33,59.33,0,0,1-15.26-1.49c-3.28-.71-6.24-1.42-9,.72-.44.33-.15,1.29.45,1.07,5.2-2,12.81.77,18.53,1.36l-2.29.16a67.07,67.07,0,0,0-7.5-.43c-1.87-.33-3.73-.65-5.6-1-.38-.06-.44.61-.1.7l.9.23c-.18,0-.35,0-.52.06a1.86,1.86,0,0,1-1.22-1c-.19-.54-1.06-.31-.89.25a3.24,3.24,0,0,0,.64,1.16,2.58,2.58,0,0,0-.73.53.38.38,0,0,0,0,.51l.38.42a.24.24,0,0,0,.32,0l.31-.24c.17-.14.06-.55-.19-.44a3.25,3.25,0,0,1,.6-.2c1.75,1.07,4.62.54,6.7.62l1.75.06c6.4,1.49,12.86,2.75,19.35,3.82a136.78,136.78,0,0,0,18.49,2.67l1.65.21a.5.5,0,0,0,.29.55,3.81,3.81,0,0,0,2.73-.32l1.28.12a.5.5,0,0,0,.3.74c12.88,2.46,25.32.8,38-2.54,1.53-.4,3.07-.84,4.61-1.31a93.39,93.39,0,0,0,21.49-7.73.52.52,0,0,0-.09-.92c.34-.17.68-.34,1-.53a.35.35,0,0,0,.17.22l.51.27a.25.25,0,0,0,.32-.1l.21-.4c.09-.17-.11-.46-.29-.31a6.39,6.39,0,0,1,2.82-.8,78.78,78.78,0,0,0,13.08,9.76c5,3.06,10.39,5.09,14.22,9.3-.79.92-1.55,1.85-2.25,2.84-.34.5.42,1.13.86.73.84-.75,1.62-1.56,2.38-2.38a16.33,16.33,0,0,1,1,1.49,1.84,1.84,0,0,0,.4,1.88l-.22.27a.92.92,0,0,0-.79.93v.05a15.85,15.85,0,0,0-1.31,1.89c-.42.73.63,1.45,1.23.95.4-.34.78-.7,1.14-1.07a1.69,1.69,0,0,1-.89,2.94c-1.24.14-1,2,.15,2l3.09.07c-2.07,2.29-5,3.15-8.17,3.37-.59,0-.4.92,0,1.07a7.79,7.79,0,0,0,2.68.43c-12.07,7.44-18,22.61-19.44,36.5-.07.66-.12,1.32-.16,2-.09.49-.18,1-.24,1.49-2.94-3.59-5.8-8-9.22-11.31l3.06,1c.43.14.59-.53.25-.72a66.07,66.07,0,0,0-9.44-4.41,26.33,26.33,0,0,0-2.82-1,83,83,0,0,0-15.81-3.5.86.86,0,0,0-.81-.66c-1.44,0-2.88.09-4.33.16-17.71-1.3-36.19,1.71-53.43,4.17,5.23-1.08,10.42-2.34,15.49-3.86.41-.13.26-.81-.17-.73-10.51,2-21,4.24-31.49,6.24l-4.44.39a23.41,23.41,0,0,0,3.45-2.12c.34-.26.08-.87-.35-.68-2.51,1.16-5,2.23-7.47,3.18-3,.27-6.06.52-9.09.8-.38,0-.26.68.12.65l6-.41c-.92.3-1.85.59-2.82.84-.45.11-.25.93.19.87a33.29,33.29,0,0,0,6-1.44c3.55-.15,7.1-.32,10.65-.49-2.37.74-4.74,1.39-7.14,1.92-.06-.29-.32-.55-.58-.33l-.72.61a57.22,57.22,0,0,1-8.4,1c-1-.22-2-.47-3-.78-.49-.15-.58.63-.15.78s1.17.4,1.76.59a.83.83,0,0,0,.78,1c.87,0,1.75-.06,2.63-.12a34.56,34.56,0,0,0,9.68.63c7,.71,14.06,1.16,21.13,1.31,1.62,0,3.74-.12,6.08-.27a7.17,7.17,0,0,0,.32,1.12c.15.37.62.18.63-.16s0-.68,0-1c7.92-.48,17.87-.68,19.83,6.18.71,2.52.63,7.84-3,7.14a.69.69,0,0,0-.73-1c-7.55,1.58-14.24-.74-21.66-1.86-3-.46-9.17.35-14.24-.14,0-.46-.74-.85-1-.34,0,.07-.07.14-.1.22-3.62-.51-6.49-1.84-6.88-5,0-.32-.52-.36-.53,0-.13,4.1,3.14,5.69,6.84,6.31-.2.44-.39.89-.6,1.33a6.39,6.39,0,0,0-.54,1.4l-1.06-.34,0,0c.15-.17,0-.57-.28-.44l-.43.28-2.09-.65c-.31-.16-.6-.34-.91-.51q-.1-.34-.18-.66c-.12-.44-.84-.66-.87-.06v.12a31.18,31.18,0,0,1-2.95-1.93c-.52-.38-.94.36-.51.75A29.52,29.52,0,0,0,33.62,205c-.07,1.18-.15,2.37-.14,3.57,0,.48.56,1.05,1,.66s1.22-1,1.81-1.59a2.69,2.69,0,0,0,1.94.42.25.25,0,0,0,.14-.39c6.91,3.29,15,5.14,21.75,7.55l13.53,4.84c-.16.51.47,1.15.9.68l.24-.27,3,1,0,.1,0,.13a.29.29,0,0,0-.5.2c0,.42.1,1.14.68,1.08s.75-.71.89-1.15l1.42.49,0,.21c-.06.54.8,1.15,1,.47a2.47,2.47,0,0,0,.1-.29l2.18.76h0c-.06.36.27.88.69.74a3.55,3.55,0,0,0,.62-.29c4,1.38,7.9,2.75,11.88,4.06a96.09,96.09,0,0,0,17.07,4.2c.65.17,1.3.37,2,.54,3.17.83,7.14,2.11,10.47,1.34a16.08,16.08,0,0,0,5.17-2.3c2.23-.4,4.42-.87,6.46-1.34a.31.31,0,0,0-.08-.6c-1.42.06-2.86.21-4.31.4a37.56,37.56,0,0,0,3.19-3,22.35,22.35,0,0,0,3.74-4.13,48.49,48.49,0,0,1,4.92-4.91,7,7,0,0,0-1.17,2.06c-.08.27.22.62.51.52,1.16-.45,1.89-1.81,2.43-2.88l.06-.13a22.85,22.85,0,0,0,1.53,2.42.69.69,0,0,0,.68.26c2.78,12.44,9.71,22.09,15.81,33,3.26,5.87,1.9,10.28-1.18,14a19.29,19.29,0,0,0-.34-11.37c-.07-.21-.32,0-.26.15a18.07,18.07,0,0,1,0,11.91c-2.47,2.76-5.82,5.16-8.82,7.56-6.27,5-12.7,9.88-18.66,15.25-.34.32,0,1,.45.73,1.92-1.34,3.79-2.75,5.65-4.17a.23.23,0,0,0,.3.13c8-3,16.22-8.69,20.1-16.19a28.15,28.15,0,0,0,4.89-5.41c4.32-6.46-1-14.66-5.56-21.27a.21.21,0,0,0,.16-.25c-1-6.54-4.11-12.23-7.24-18a82.41,82.41,0,0,1-3.68-7.62c2.19-1.22,5.21-1.44,7.52-2.16a53.29,53.29,0,0,0,7.09-3,45.06,45.06,0,0,0,12.71-8.91c.27-.29-.1-.89-.46-.64-5.28,3.69-10.33,7.26-16.27,9.92-3.25,1.46-7.87,2-10.9,4a3.45,3.45,0,0,1-.14-.34c2.27-3.28,9.59-5,12.36-6.69A46.92,46.92,0,0,0,174,201.34a.87.87,0,0,0,.08-.1l.21-.24a.4.4,0,0,0,0-.42,1.5,1.5,0,0,0,0-.56.46.46,0,0,0-.42-.32l-.32,0c.27-2,1.55-7.1,1.67-7.69s-.63-.81-.78-.31c-.53,1.77-1,3.56-1.46,5.35a18,18,0,0,1-4.25,5.75c2.08-4.4,5.92-13,3.17-13-.13,0-.2.15-.22.26a28.36,28.36,0,0,1-6.23,12.49A131.75,131.75,0,0,1,171.15,189a.44.44,0,0,0-.27-.61l1.45-.64c4.33-1.89,3.45.71,3.83,3.4.22,1.52.43,3,.71,4.53-.51.16-1,.31-1.52.48-.1,0-.07.22,0,.2.47-.09.93-.19,1.39-.3a8.08,8.08,0,0,0-.62,4.25.32.32,0,0,0,.62.05,15.64,15.64,0,0,0,.55-2.48c.06.27.12.53.19.8a.33.33,0,0,0,.65-.05q0-1.42-.18-2.85l1.32-.32a1.71,1.71,0,0,1-.81,1.84c-.13.09-.05.35.11.26a2.2,2.2,0,0,0,1.08-2.46.23.23,0,0,0-.27-.16l-1.22.35c.08-.17.18-.34.27-.51a45,45,0,0,0,4.78-2.75,36.18,36.18,0,0,0-1.45,4.82c-.09.41.46,1,.83.6,1-1.2,1.89-2.5,2.81-3.78.12-.16,0-.44-.22-.26-.66.63-1.33,1.25-2,1.89a38.61,38.61,0,0,1,1.43-4.21c1.15-.78,2.29-1.6,3.43-2.41-.47,1.19-1,2.37-1.51,3.54a2.51,2.51,0,0,0-.48.89.49.49,0,0,0,.12.54l.05,0a.62.62,0,0,0,.28.23l.19.15a.27.27,0,0,0,.31,0l.45-.25a.31.31,0,0,0-.14-.57l.07-.09c1-.58,4.39-3.32,4.72-3.54q3.1-2,6.24-4c4.17-2.68,8.49-5.18,12.48-8.14.24-.19,0-.69-.3-.54a131.92,131.92,0,0,0-12.36,7.49c-.06-.35-.25-.62-.51-.55.11-.47.32-1.06.32-1.06.11-.23.22-.45.34-.68,1.21-.66,2.43-1.31,3.65-1.94-.1.2-.2.4-.31.6-.28.52.53,1.25.94.72.78-1,1.7-1.89,2.47-2.89l3.68-1.84a1.06,1.06,0,0,0,1.12.32.38.38,0,0,0,0-.71.78.78,0,0,1-.15-.1c.89-.45,1.79-.89,2.68-1.35.39-.2.06-.9-.35-.77-.88.27-1.75.57-2.62.88a3.35,3.35,0,0,1,1.44-1.08.56.56,0,0,0-.11-1l-.21-.09,1-.51c.18-.1.06-.48-.15-.39-.5.19-1,.4-1.49.61l-1.68-.71c-.64-.28-.84.73-.27,1l.64.28q-1.09.48-2.19,1l.19-.38c.28-.55-.55-1.23-.87-.62l-.93,1.77q-2.38,1.17-4.71,2.47a.39.39,0,0,0-.42,0l-2.81,1.52a.47.47,0,0,0-.22.54c-.63.39-1.26.76-1.87,1.16a.42.42,0,0,0-.65.12c-.1.16-.19.33-.28.5-1.09.73-2.17,1.48-3.22,2.26,0-.31-.43-.59-.69-.35l-2.51,2.28a.49.49,0,0,0-.06.62c-.55.45-1.11.9-1.65,1.36a.33.33,0,0,0-.54.12c-.1.19-.18.38-.27.56l-.05.05a36.18,36.18,0,0,0-5.47,4.69c-.13-.31-.54-.52-.78-.17s-.55.87-.82,1.34c-.35-2.82-.87-5.62-1.3-8.41,0-.3-.35-.74-.73-.59-5.16,2.12-10.34,4.16-15.48,6.33-3.13,1.32-8,2.15-9.81,5.19a.72.72,0,0,0,.62,1.08,15.31,15.31,0,0,1,3.38-.25.33.33,0,0,0,.33-.26v.28c-.24.8-.48,1.59-.71,2.39-.36,1.19-.71,2.38-1,3.57a61,61,0,0,0-2.13,8.36c0,.34.43.76.63.32,1.65-3.71,2.47-8,3.51-11.87.44-1.67,1.67-4,.2-5.29,1.48-.61,3.25-1.2,3.78-1.42l3.62-1.51c-2.14,4.08-3.79,9.77-2.6,14.34.08.3.48.2.51-.07.08-.66.12-1.33.15-2A54.23,54.23,0,0,0,164,196.9c.73-1.72,2.63-4.4,1.83-6.26,0,0,0,0-.05-.07l2.83-1.21,1.76-.77a95.09,95.09,0,0,0-6.92,16.46c-.14.47.56,1,.92.59a41.52,41.52,0,0,0,6.49-11.32c.32-.82.43-1.14.72-2a.76.76,0,0,1,.69-.53l-1,2.34c-1.53,3.48-3.08,6.94-4.55,10.44-.23.55.38,1.13.87.73a20.55,20.55,0,0,0,4.85-5.72,2.05,2.05,0,0,0,.57,1.57c-5.14,4-9.59,8.43-15.59,11.28a39.59,39.59,0,0,0,3.3-2.49c.22-.2,0-.69-.3-.54a41.19,41.19,0,0,0-4.11,2.53c-.94.64-1.92,1.43-2.93,2.15a12.5,12.5,0,0,0-2.75,1.5c.19-.34-.15-.93-.61-.76a.82.82,0,0,0-.29.17,69,69,0,0,1-.4-17.87c1.66-15.16,9.46-27.52,20.62-37.5.21-.19,0-.6-.25-.42-15.91,10.58-22.5,29.94-21.9,48.47-.11-.37-.21-.74-.31-1.1-.23-1.64-.4-3.3-.47-5a.68.68,0,0,0,.28-1.15c-.11-.11-.22-.24-.33-.36q0-1.32,0-2.7c0-.46.07-.92.1-1.39,0-.2.07-.4.12-.61a.52.52,0,0,0-.06-.39c1.39-17.59,10.37-33.26,27.46-39.57.32-.11.14-.72-.2-.64-.73.17-1.44.38-2.14.59a10.24,10.24,0,0,0,1.62-2.1,1.07,1.07,0,0,0-.85-1.63l-2.25-.05a3,3,0,0,0,.24-.67,3.75,3.75,0,0,0-.21-2.51,6.4,6.4,0,0,0-1.11-1.11l1.39-1.62a1,1,0,0,0-.22-1.39.81.81,0,0,0-.05-1.36c-1.61-1.1,1.14-1.93,1.76-2.31,1.18-.73,2.28-1.56,3.39-2.38.79-.59-.05-1.53-.78-1.53H172c0-.12,0-.24,0-.35s.23-.39.33-.59l2.28-.15a.54.54,0,0,0,.49-.71,3,3,0,0,0-2.14-2.54,20.72,20.72,0,0,0,.66-2.37c.08-.38-.39-.7-.62-.32a15.41,15.41,0,0,0-1.09,2,3,3,0,0,0-1.49-.65,9,9,0,0,0,.34-1.76c0-.33-.42-.81-.69-.4a11.43,11.43,0,0,0-1.27,2.66c-.21.58.46,1.07,1,.9a3,3,0,0,1,1.39,1.8l-.11,0a.71.71,0,0,0-.7.62l0,1.31c-.61.83-1.43,1.6-2.09,2.34l-.83.93c-4.76-5.81-14-8.66-19.79-12.58a80.79,80.79,0,0,1-6.73-5.11l.51,0c1,.57,2.05,1.15,3,1.73,6.89,4.11,13.74,8.29,20.77,12.15.65.36,1.07-.54.5-.92-7-4.55-14.14-8.81-21.28-13.1.57,0,1.06-.07,1.41-.12q6.93-1,13.86-2.08c1.59-.24,6-.1,7.77-1.62a.6.6,0,0,0,.92.23,6.28,6.28,0,0,0,1.83.84c.62.21.85-.69.3-.91a10.46,10.46,0,0,0-1.7-.51,30.16,30.16,0,0,0,1.9-3c.14-.27-.15-.71-.44-.45s-.61.61-.9.93c.55-1.93,1.1-3.86,1.68-5.78.18-.58-.71-1-.92-.39-.71,2.24-1.45,4.47-2.18,6.7a.46.46,0,0,0-.64.51,4.93,4.93,0,0,0,.2.82c0,.12-.09.25-.13.38a24,24,0,0,0-4.89-.1,3.65,3.65,0,0,0,2.1-2c.1-.23-.18-.52-.37-.29a2.85,2.85,0,0,1-1.74,1.26,26.38,26.38,0,0,1,4-10c.35-.51-.46-1.17-.85-.63a22.35,22.35,0,0,0-4.4,11.1.79.79,0,0,0,.26.63c-5.57.53-11.62,2.25-16,3-.82.13-1.94.18-3.15.26l-1.41-.85c.86-.57,1.72-1.12,2.54-1.72a.8.8,0,0,0-.86-1.34L139,118.28c-1.62-1-3.25-2-4.86-3a58.9,58.9,0,0,1-8.12-11c.33-.86.69-1.71,1.09-2.55.25-.53-.53-1.21-.82-.62s-.63,1.29-.93,2a41.88,41.88,0,0,1-2.27-5c3.92-.08,7.75.35,10.76,2.3a5.75,5.75,0,0,0,2.7,1.09l-.32.38a.86.86,0,0,0,.39,1.28l.27.13c-.54,1.06-1.1,2.11-1.63,3.17-.61,1.22-1.83,2.78-1.57,4.23a.88.88,0,1,0,1.71-.33.34.34,0,0,0-.29-.28h-.25c.42-1.24,1.9-4.28,2.93-6.33l2.18,1.09c.44.22,1.15-.06,1.13-.61-.13-4.28,12.41-4,18-3.84-3.23,3.37-6.77,8.83-6.16,13.72a.25.25,0,0,0,.48.09c.9-2.3,1.17-4.74,2.19-7a21.8,21.8,0,0,1,4.21-6,.55.55,0,0,0,0-.73l1.1,0c3.66,0,7.22.81,8.26,4.38.56,1.92,2.19,3.62,3.33,5.45-.23,2.12-.46,4.24-.71,6.36-.07.61.77,1.09,1.1.45.11-.2.45-.74.89-1.39.29.21.73.24.89-.16a6.08,6.08,0,0,0,.43-1.73c1.32-1.83,2.49-3.23,1.15-.59a9.27,9.27,0,0,0-.78,2.09l-.18,0c-.55-.07-.63.79-.12.88l.15,0a13.3,13.3,0,0,0,0,2.61c.05.6,1.12.88,1.28.2l.69-2.09c.19.46.8.64,1.89.51l.39.11s0,0,0,0h.09l.28.07a.61.61,0,0,0,1.13.31c1.34.35,2.7.66,4,1a.7.7,0,0,0,.72.16l1.28.3c3.39.8,6.78,1.53,10.11,2.47-3.37,1.26-6.72,2.6-10.06,4a59.63,59.63,0,0,1-18.45,2.38c-.17,0-.19.28,0,.29a44.58,44.58,0,0,0,13.12-.49l-4,1.64c-.46.19-.2,1,.27.82,7-2.66,14.13-5.18,21.08-8,1.07.34,2.14.69,3.2,1.09a.61.61,0,0,0,.85-.57,3.27,3.27,0,0,0,.5-.32.94.94,0,0,0,1.41.69,20.46,20.46,0,0,0,3.74-3.45c3.19-3.77-.7,1.63-1.41,2.5s.73,1.78,1.44,1.18c1.41-1.16,4.07-4.14,5.54-4.28a.43.43,0,0,0,.28.15h.28a1.36,1.36,0,0,1,.45,1c-.81,0-1.62,0-2.42.11-.35,0-.27.63.08.6.8-.07,1.6-.1,2.38-.1a6.87,6.87,0,0,1,0,.76.85.85,0,0,0,.74,1c-3.49,1.13-6.92,1.08-10.68.95-.48,0-.42.75,0,.8,1.15.13,2.35.24,3.57.3-.95.25-1.89.52-2.83.82-.47.14-.21,1,.27.82a64.21,64.21,0,0,1,17.39-2.72c.86,0,1.72.08,2.58.09.51.26,1,.55,1.53.85-.43,1.44-.85,2.9-1.16,4.36-1.84.18-3.67.4-5.5.68-.29-.11-.58-.23-.87-.37s-.45.33-.19.46l.14.06a119.12,119.12,0,0,0-19.77,4.94,9.38,9.38,0,0,0-1.67-3.58,45.9,45.9,0,0,0,5.73-2.67.35.35,0,0,0-.3-.63c-2.11.85-4.2,1.6-6.3,2.26a10.5,10.5,0,0,0-3.16-2.27c-4.64-2.13-9.72,1-11.65,5.24-1.53.14-3.08.26-4.66.31-.54,0-.45,1,0,1,1.38.08,2.76.07,4.14,0a8.17,8.17,0,0,0-.29,1.44,4.76,4.76,0,0,0,3,5.23,7.42,7.42,0,0,0,.78,1c3.33,3.33,7.95,3.07,11.28.37a199.45,199.45,0,0,1,36.11-6.94c.52,1.61,1,3.23,1.38,4.91-1.45.24-2.82.73-4.3.87a14.78,14.78,0,0,1-5.25-.53c-.53-.14-.61.72-.14.85,2.93.81,7.07,1.22,9.86-.38.1.48.21,1,.3,1.44.06.28.43.17.42-.09a29.63,29.63,0,0,0-1.11-7.18q6.45-.6,13.06-.84c0,.13-.1.26-.14.4a.33.33,0,0,0,.58.32c.17-.24.32-.5.48-.75.88,0,1.76-.08,2.66-.1.31,0,.29-.58,0-.6-.72-.05-1.43-.07-2.15-.1.53-.91,1-1.86,1.51-2.8l4.47.08a26.61,26.61,0,0,0-2.64,4.71.23.23,0,0,0,0,.18q-4,.74-7.94,1.6c-.42.09-.25.81.17.72,3.89-.83,7.81-1.55,11.73-2.18-.43.78-.64,1.53-.21,2,1.71,1.76,2.7-.94,1.24-1.42l.54-.77c1.6-.25,3.21-.48,4.82-.69a29.88,29.88,0,0,0-1.86,3.65c-7.72.1-15.45.62-23.15.91-.56,0-.42.94.11.93,9.46-.34,19-.33,28.43-1.18.35,0,.29-.67,0-.67-1.47,0-2.94,0-4.41,0a33.77,33.77,0,0,0,2.59-3.83c1.49-.18,3-.35,4.48-.51,0,.1,0,.2,0,.3-.75,1.15-1.51,2.3-2.25,3.46a.56.56,0,0,0,.66.8,4,4,0,0,0,1.11-.56c-.46.84-.9,1.67-1.33,2.52-.16.32.21.72.47.39.7-.93,1.38-1.87,2-2.83l.24,1.12c-.24.28-.47.56-.72.84s.07.79.41.53c.18-.14.34-.3.51-.45.73,3.34,1.59,6.63,2.07,9.92a.44.44,0,0,0-.7.1c-.59,1-1.19,1.94-1.78,2.92-1.77.12-3.54.26-5.31.4l.61-.75c.38-.45-.25-1.29-.67-.82s-.94,1.12-1.39,1.69q-3.39.28-6.76.62c.12-.32.23-.64.35-1,.2-.53-.61-1-.83-.41l-.55,1.48-3.15.33c.19-.39.39-.78.59-1.17s-.48-1.18-.77-.62l-1,1.92-3.93.44c.34-.66.69-1.32,1-2,.27-.49-.45-1.16-.75-.62-.48.89-1,1.81-1.47,2.75l-3.47.43a39.75,39.75,0,0,1,2.78-3.81c.38-.46-.26-1.3-.66-.82a46,46,0,0,0-3.51,4.82l-3.56.49c.44-1,.89-2,1.37-3,1.12,0,2.24-.06,3.36-.11.32,0,.25-.53-.05-.54-1-.05-2-.07-2.94-.1.35-.72.72-1.44,1.11-2.14.28-.51-.47-1.18-.77-.62L238.11,153l-2.6,0c.37-.59.76-1.18,1.19-1.77.32-.44-.36-1.1-.71-.61-.52.73-1,1.5-1.55,2.28.18-.6.36-1.2.55-1.79a.79.79,0,0,0,.19-.61c0-.05,0-.1,0-.15a.51.51,0,0,0-.58-.65,2.23,2.23,0,0,0-1.71-.17v0c.14-.63-.83-1.07-1-.37-.05.22-.11.44-.16.66a19.34,19.34,0,0,1-4.49.68l.09-.26c.21-.58-.69-1-.92-.39l-.21.61a13.33,13.33,0,0,1-1.48-.19c.22-.43.45-.86.68-1.29s-.46-1.16-.75-.62l-.94,1.71c-.19,0-.27.21-.22.4-2.49,4.55-5,9.1-7.43,13.69l-.29.08c-1.19-.1-2.39-.19-3.59-.27,1.88-4.48,3.44-9,5.72-13.32.27-.51-.5-1.19-.8-.62-2.29,4.36-4.65,9.06-5.79,13.88l-4.16-.25c2.29-4.89,4.2-10,6.19-15,.14-.35-.35-.61-.51-.24-2.25,5-4.67,10-6.6,15.21l-2.73-.14a61.66,61.66,0,0,0,6.87-17.5c.11-.45-.55-.73-.67-.23a69.57,69.57,0,0,1-7.18,17.68l-4.69-.21c-.52,0-.45.91,0,1,2.62.23,5.25.47,7.89.69v0c-.15.42.41.9.65.42l.18-.39c1.77.15,3.54.3,5.32.42l-2,.53a181,181,0,0,1-34.91-.21c0-.14,0-.28,0-.42,0-.6-.93-.82-.92-.16,0,.16,0,.32,0,.49l-1.58-.16c-.65-.06-.61.85-.07,1l1.66.4c0,.7,0,1.39-.09,2.08a.71.71,0,0,0,.51.76,68.26,68.26,0,0,0,18,1.25.65.65,0,0,0,.49.23,78.61,78.61,0,0,0,18-2.18,20.58,20.58,0,0,0,10-.62l-2.26.79c-.56.2-.13,1.14.44,1l2.1-.73a4.21,4.21,0,0,1-.42,2.19c-.23.48.35,1.17.81.72a18.58,18.58,0,0,0,2.48-2.69c.18-.26-.16-.73-.45-.53a11.46,11.46,0,0,0-1.46,1.14,5.37,5.37,0,0,0-.1-1.59.53.53,0,0,0-.65-.42,17.23,17.23,0,0,0,5.19-2.93.18.18,0,0,0,.26,0c.17-.2.32-.43.48-.64s.58-.52.86-.81a.26.26,0,0,0,0-.34,25.58,25.58,0,0,0,2.45-5.31h.24a.31.31,0,0,0-.17.27.58.58,0,0,0,.44.65,26,26,0,0,0-2,7.46,7.84,7.84,0,0,0-1.45.72.29.29,0,0,0-.17.27l-1.16.38s0,.11,0,.09l1.15-.33a.43.43,0,0,0,.6.32c.29-.16.61-.32.91-.5a1.1,1.1,0,0,1,0,.18.34.34,0,0,0,.35.35,4.2,4.2,0,0,0,.85,1.88,150.14,150.14,0,0,0-17.64,8.47.71.71,0,0,0-.23,1,8.1,8.1,0,0,1,1.28,3.52,1,1,0,0,0,0,.16c.48,4.38-2.36,9-4.08,12.75a138.73,138.73,0,0,0-5.74,15,64,64,0,0,0-3,16.23c-.4.72-.8,1.44-1.18,2.15-.29.52.53,1.25.93.72a2.48,2.48,0,0,0,.19-.26,59.62,59.62,0,0,0,.5,8.21.65.65,0,0,0,.42.58,21.06,21.06,0,0,1,2.35.68c.4,2.56.81,5.13,1.23,7.69a12.66,12.66,0,0,0-.28,3.74c0,.23.37.41.49.15a4.24,4.24,0,0,0,.31-.84c.47,2.75,1,5.49,1.58,8.21.16.74,1.33.82,1.21-.05-.57-4.11-1.3-8.22-2.08-12.31l.29-1.78a.49.49,0,0,0-.73-.49c-.25-1.27-.49-2.54-.74-3.81.26.11.53.2.79.32s.45-.33.2-.49c-.44-.29-.83-.56-1.19-.83q-.56-2.83-1.1-5.69a.48.48,0,1,0-.94.14c.24,1.47.47,3,.7,4.42a5.6,5.6,0,0,1-1.28-1.9,19.67,19.67,0,0,1,0-6.76c.22-.94.47-1.85.73-2.75a132.29,132.29,0,0,0,9.07-17.23c3.45-7.56,6.08-15.31,4.86-23.6a42.4,42.4,0,0,1,4.94-5.16c1.16-.59,2.25-1.48,3.32-2.09a44.25,44.25,0,0,1,5.51-2.53c.55-.22.12-1.17-.42-1.06a10,10,0,0,0,2.9-2.19.1.1,0,0,1,0,0l.29,0a33.2,33.2,0,0,0,4.64,1.32,33.91,33.91,0,0,0,4.8.72l-.37.36c-3.13,1.77-6.19,3.69-9.2,5.59-2.58,1.64-5.1,3.38-7.59,5.14-1.36.95-4.5,2.57-5.23,4.29a3.18,3.18,0,0,0-.28,2.18,4.49,4.49,0,0,0,1.3,1.52,8.39,8.39,0,0,1,1.35,2,4,4,0,0,0-.35,1.37,1.85,1.85,0,0,0,1.19,2c0,.3,0,.61,0,.92a8.94,8.94,0,0,0-.3,2.45c-.14.7-.31,1.4-.51,2.11-1.53,5.32-3.37,9.37-2.13,15s4.74,8.67,9.11,10.69a9.15,9.15,0,0,0,.9.72,8.73,8.73,0,0,0,3.72,1.24,50.65,50.65,0,0,1,6.44,1.41.29.29,0,0,0,.34-.13,22.52,22.52,0,0,1,7.29,2.89c.8.51,1.69,1.28,2.75,1.1a1.72,1.72,0,0,0,.88-.41c1.62,1.08,3.24,2.18,4.91,3.33.48.34.68-.45.41-.76a33.2,33.2,0,0,0-5.49-4.87l-.07-.09a.38.38,0,0,0-.21-.12c-4.8-3.39-10.3-5.78-15.55-8.45-3.27-1.67-4.15-5.05-6.89-6.92-1.15-.78-3.29-2-3.36-3.5-.11-2.29,1.28-6.17,1.69-8.46a84.1,84.1,0,0,0,1.22-12.07c0-1.75-.39-4.72.62-6.6,1.49-1,2.95-2,4.4-3.09l4.88-2.79c2.94-1.67,10-3.95,10.86-8l1.58,0a48.72,48.72,0,0,0,10.41-1.24c-3.16,4.35-6.92,8.81-9.59,13.55-.7.71-1.39,1.42-2.07,2.16-2.46,2.69-5.36,5.92-6.54,9.41-.12.36.26.86.61.5a34.33,34.33,0,0,0,3.07-3.87,13.31,13.31,0,0,0-.75,8.07,2.62,2.62,0,0,0,0,.62,1.2,1.2,0,0,0,.53,1,15.57,15.57,0,0,0,2,3.58,8.32,8.32,0,0,0,.87,1,11.08,11.08,0,0,0,0,1.41.63.63,0,0,0,.56.61c.48,0,.94,0,1.39,0a6.71,6.71,0,0,0-.26,2.76.65.65,0,0,0,.58.61,3.71,3.71,0,0,0,1.76-.32,3.35,3.35,0,0,0,1.36,2.22,2.77,2.77,0,0,0,3.18-.15c2.17,2.69,3.4,5.82,4.67,9.72,2.13,6.57,7.86,11.41,13.09,15.54a.55.55,0,0,0,.7.06,58.52,58.52,0,0,0,6.19,4c.44.24.66-.37.34-.64-4.08-3.4-8.34-6.33-11.83-10.4-4.33-5-5.2-12.14-7.64-18.13-3.52-8.63-12.93-17.07-7.42-26.85,3.63-6.42,9-11.93,13-18.12a.33.33,0,0,0,.27.07c1.57-.33,3.15-.77,4.74-1.25a3.32,3.32,0,0,0,1.21,1.84c2.44,1.91,6,1.42,8.73.57a13,13,0,0,0,5.55-3.72,5.45,5.45,0,0,0,6.46,3.2,6.31,6.31,0,0,0,2.63-1.4,5.77,5.77,0,0,0,.47.74c2.71,3.49,7.81,3.09,11.77,3.37.7.05,1.48-.59,1.06-1.34l.06-.66A5.13,5.13,0,0,0,315.4,171c3.17,1.37,7.25.44,10.57-1.3.25-.13.16-.66-.15-.58s-.74.19-1.1.29a14.69,14.69,0,0,0,2.19-4.19s0-.08,0-.12c.27-.38.52-.76.78-1.13,1.74.08,1.86-.89,1.32-2,.07-.1.14-.19.2-.29a11.34,11.34,0,0,0,.95,2.5c-.51.73-1,1.45-1.54,2.19a.75.75,0,0,0,.3,1c-.43.12-.36.91.15,1a25.31,25.31,0,0,0,6.69.52c.27.09.54.18.82.25s.45-.18.46-.44l.18,0,.12.07.08.17a.49.49,0,0,0,.68.24,9.88,9.88,0,0,0,1,.45c.41.15.51-.42.26-.64s-.36-.28-.53-.41l.55-.54c.22.29.7.41.8,0s3.72,2.43,4.07,2.65a8.11,8.11,0,0,0,3.79,1.05c2.87.07,5.64-.85,7.28-3.33,0,0,0,0,0,0h.11a.31.31,0,0,0,.48.19,3.13,3.13,0,0,0,.26-.25q.62-.06,1.2-.15l.87,1.21a12.32,12.32,0,0,0-.08,2.35c0,.3.5.63.65.22s.27-.81.4-1.23c.37.49.75,1,1.14,1.45-.28.61-.53,1.22-.76,1.84a.71.71,0,0,0,1.05.82l1.19-.86c.67.79,1.38,1.55,2.09,2.31l0,.07c-.27.58.44,1,.94.88.66.67,1.32,1.31,2,1.94-.48,1.28-.9,2.57-1.25,3.88a.85.85,0,0,0,1.43.72c.7-.89,1.45-1.75,2.21-2.6.34.25.68.49,1,.72a3.21,3.21,0,0,0,0,2c.84,2.15,2.18,1.3,3.38-.08.44.21.89.38,1.33.56a.78.78,0,0,0,.7.51l.57-.05a23.44,23.44,0,0,0,2.46.65c0,.34,0,.68,0,1a.84.84,0,0,0,1.4.54c.35-.4.72-.79,1.09-1.16.24,0,.49,0,.73,0l0,.09a.75.75,0,0,0,.94.91c1.1-.41,2.21-.8,3.32-1.2.31,0,.63-.09.95-.16-.22.37-.43.74-.62,1.12s.28.84.59.5c.55-.64,1-1.31,1.51-2,.31-.09.63-.16.94-.27a1.1,1.1,0,0,0,.12-2.07l-1.91-.78c-.73-.29-1.1.61-.68,1.12l0,0a16.67,16.67,0,0,1-3.14.43c.07-.28.14-.56.22-.84s.32-.35.47-.54a.45.45,0,0,0-.15-.64l1.23-4.58c.18-.64-.82-1.06-1-.35-.59,2-1.19,3.95-1.78,5.93-.42.33-.83.67-1.24,1-.34,0-.68-.06-1-.11a13.21,13.21,0,0,1,3.57-6.79c.68-.69-.52-1.78-1.2-1.1a14.82,14.82,0,0,0-4.07,7.56l-.41-.09.12-.33c.09-.32-.37-.72-.62-.4a4.76,4.76,0,0,1-.41.47l-.43-.14c1.46-2.65,2.8-5.38,4.2-8,.28-.53-.51-1.21-.84-.62-1.55,2.72-3.17,5.42-4.66,8.18l-.78-.34a6.78,6.78,0,0,1,1-1.27c.29-.18.14-.79-.24-.68a3.35,3.35,0,0,0-1.75,1.19,1.56,1.56,0,0,0-.16.2c-.48-.26-1-.53-1.42-.81.62-1.19,1.44-2.37,2-3.48.77-1.44,1.51-2.9,2.26-4.35a11.84,11.84,0,0,0,1.46,0,26.3,26.3,0,0,0,5.23-.85c.16,0,1.27-.57,2.47-1.14,2.28,0,4.57,0,6.85.08-.12,2.73-.15,5.47-.18,8.21s-.38,5.42.34,8c.12.45.78.67.95.12.72-2.47.37-5.19.34-7.75C394.33,176.24,394.32,173.18,394.17,170.11ZM235.77,82.63a24.4,24.4,0,0,0-.13-3.62,14,14,0,0,1,1.54-1.81C236.79,79.05,236.33,80.86,235.77,82.63Zm1.73-6.89c0,.13-.06.26-.08.39a.33.33,0,0,0-.45,0c-.3.27-.62.58-.93.91a20.86,20.86,0,0,1,2-5.26C237.91,73.1,237.74,74.41,237.5,75.74Zm.77-6.1a18,18,0,0,0-1.74,2.75c.41-1.31.47-2.7.83-4a13.24,13.24,0,0,1,1.21-3C238.49,66.81,238.39,68.22,238.27,69.64ZM234.73,67a17.41,17.41,0,0,1,.35-2,13.29,13.29,0,0,0,.11,1.54c0,.25.37.33.43,0a60.36,60.36,0,0,1,2.12-8.85c.61-1.33,1.24-2.63,1.82-3.92.4-.66.82-1.32,1.32-2a.44.44,0,0,0-.28-.67c.5-1.72,1.17-4,3-4.06a25.42,25.42,0,0,0,6.22-1.24,19.83,19.83,0,0,0,4.43-1.93,37.43,37.43,0,0,1-3.8,3.26c-2.49,1.84-5.57,2.17-8,3.86-2.76,1.89-3.31,4.33-3.5,7.54-.1,1.57-.18,3.12-.25,4.66-1.89,2.69-3.39,6.14-2.76,9.2a.3.3,0,0,0,.56.11,13.87,13.87,0,0,0-1.21,3.39A35.61,35.61,0,0,1,234.73,67ZM182.45,82l-.51-1c.29.13.55-.34.32-.58l-.28-.31c.06-.41.11-.83.18-1.24.2.62.37,1.24.57,1.86C182.62,81.15,182.53,81.56,182.45,82ZM218,101.31q3.63.47,7.28.71c0,.47.07,1,.13,1.48a10.51,10.51,0,0,0-1.68,0,21.74,21.74,0,0,1-3.23.24C219.38,103.69,217.68,102.57,218,101.31Zm-15.42-.59c-1.3-.56-2.58-1.16-3.84-1.83-.54-.29-.94-.52-1.24-.72,1.69.48,3.38.92,5.1,1.26C202.56,99.86,202.55,100.29,202.55,100.72Zm23.22,7.93c-6.67-2.41-13.59-4.12-20.2-6.68,2.19,0,4.38-.14,6.57-.27.12,0,.12-.23,0-.23-2.85-.18-5.7-.31-8.56-.31l-.26-.11c0-.49,0-1,0-1.47l.39.08c.38.06.42-.56.11-.68-1.32-.48-2.67-.88-4-1.25L201,98c3,.78,6,1.41,9.09,2q3.39.66,6.83,1.13c-.19,1.25.79,2.41,1.93,3.12a4.48,4.48,0,0,0,2.73.56,31.28,31.28,0,0,1,3.94-.19A13,13,0,0,1,225.77,108.65ZM119.92,82.8c0-2.3.18-4.57.36-6.72,1.17-14.1,7.91-25.56,13-38.37.29-.72.55-1.45.78-2.18-.67,4.56-1.53,9.11-2.64,13.65a148.07,148.07,0,0,1-8,23.24A51.77,51.77,0,0,0,119.92,82.8ZM75.13,123.31a1.88,1.88,0,0,1,0,.67,5,5,0,0,1-.8.86C74.44,124.18,74.67,123.48,75.13,123.31ZM69,120.79c.19,1.35.28,2.67.35,4a18.83,18.83,0,0,0-2.65-3.91c.6-.34,1.21-.69,1.8-1C68.61,120.12,68.79,120.46,69,120.79Zm-3.17-9.29a1.25,1.25,0,0,1,0,.31l-.84.31C64.87,111.45,65.58,110.71,65.78,111.5ZM52.13,125.06c5.59-1.33,12.78-3.94,9.42-10.8L61.4,114a.73.73,0,0,0,.3.07c.78,0,1.56,0,2.35-.06a.88.88,0,0,0,.15.12,1,1,0,0,0,1,0l.24-.16h0q1.32,2.51,2.56,5c-.72.36-1.43.71-2.15,1.05a23.34,23.34,0,0,0-2.69-2.39.41.41,0,1,0-.5.66,18.53,18.53,0,0,1,2.15,2.22,71.46,71.46,0,0,1-19.13,6.14l-.09,0-2.58,0A77,77,0,0,0,52.13,125.06Zm11.22,8-2.76-.4,5,.32A9.32,9.32,0,0,1,63.35,133.09Zm4.88-1.6c-6.22-.19-12.45-.45-18.66-.56-3.71-.66-7.42-1.42-11.11-2.37,5,0,10-.16,14.87-.6.49,0,.47-.88,0-.92-1-.09-2-.15-3.08-.21a59.89,59.89,0,0,0,15.35-5.4,24.87,24.87,0,0,1,2.91,4.75c-3.17,0-6.34.15-9.5.4-.36,0-.26.63.09.62,3.22-.13,6.5-.13,9.81-.09a11.82,11.82,0,0,1,.41,1.23A6.2,6.2,0,0,1,68.23,131.49Zm3.12-5.62a2.74,2.74,0,0,0,0,.28h-1c-.12-1.21-.25-2.4-.45-3.57C70.33,123.68,70.84,124.78,71.35,125.87Zm1.37,9.63a.68.68,0,0,0-.42-1.06c-.85-.14-1.69-.27-2.54-.39a4.8,4.8,0,0,0,.3-.48,32.09,32.09,0,0,0,10,2.35A73.72,73.72,0,0,1,72.72,135.5Zm-38,71.9c0-.54,0-1.07,0-1.61a6.43,6.43,0,0,0,.76,1.07Zm3.54.21a2.31,2.31,0,0,1-1.56-.32c.11-.1.21-.21.31-.31l1.32.65S38.29,207.6,38.26,207.61Zm105.37,78.72c3.36-2.61,6.68-5.29,10-7.93,2.39-1.9,5-3.72,7.39-5.7C157,278.51,150,282.81,143.63,286.33Zm17.68-42c-1.39-2-2.67-3.86-3.55-5.44a72.5,72.5,0,0,1-6.39-15.79C155,230.09,159.23,236.54,161.31,244.3Zm44.33-68.67c1.25-.72,2.52-1.43,3.81-2.14l.06,0a2.46,2.46,0,0,0-1.22,1.95c-1.09.42-2.17.85-3.24,1.32Zm-5.84,3.57q2-1.27,4-2.5c-.14.28-.29.56-.44.84-1.23.57-2.45,1.17-3.67,1.79Zm-7,6.16q1-.68,2.07-1.29c.62-.37,1.25-.71,1.88-1.07a2,2,0,0,0,.21,2.2l-.64.42c-1.43.93-2.85,1.88-4.27,2.82.09-.17.19-.34.27-.51s-.14-.72-.44-.46l-.05.05C192.16,186.79,192.48,186.07,192.82,185.36Zm-3.24,2.23,1.59-1.11c-.5,1.14-1,2.29-1.39,3.47l-.19.12a.17.17,0,0,0-.29-.09l-.88.83A33.38,33.38,0,0,0,189.58,187.59Zm-35.16,8.9c-2.17,0-1.52-.63-.1-1.29.07.16.26.27.41.09,0,.5,0,1,.05,1.5A.38.38,0,0,0,154.42,196.49Zm8.05,1.84c-.57,1.33-1.19,2.64-1.69,4a25.88,25.88,0,0,1,.21-2.91,28.81,28.81,0,0,1,2.3-7.24.44.44,0,0,0-.14-.51c.54-.23,1.08-.47,1.63-.69a.23.23,0,0,0,0,.21l.18.22c.12.16.33,0,.25-.2C165.87,192.31,163,197.17,162.47,198.33Zm-47.59-16a22.69,22.69,0,0,0-2.7,4c-1.33-.26-2.6-.48-3.81-.68.56-1.13,1.18-2.23,1.83-3.31C111.76,182.3,113.32,182.29,114.88,182.32Zm-11.14.84c-.27.57-.55,1.15-.82,1.73-1.09-.14-2.19-.26-3.29-.37l.86-1.53a.64.64,0,0,0,.06-.18c2.73-.15,5.54-.32,8.37-.43-.61,1-1.21,2-1.76,3.09l-2.39-.35L104,185l.58-1.24C104.84,183.23,104,182.55,103.74,183.16ZM107,179.7c1.12.14,2.24.32,3.36.5l-.3.47c-2.43.09-4.84.19-7.16.23q-6.13.09-12.26.23C96.06,180.76,101.52,180.31,107,179.7Zm-14.27,3.39,3-.08c1.2,0,2.44-.08,3.7-.14l-.89,1.54c-1.88-.17-3.78-.32-5.68-.42l.09-.31A.54.54,0,0,0,92.68,183.09Zm-.58,0a.6.6,0,0,0-.09.18l-.2.65c-4.87-.24-9.77-.27-14.69-.12v-.19Q84.62,183.32,92.1,183.11Zm-2.8-3.9c-7.42.67-14.83,1.45-22.22,2.06C74.48,180.39,81.9,179.58,89.3,179.21Zm-13,4.64c-1,0-2,.07-2.94.12l.11-.19,2.82-.12A1.28,1.28,0,0,1,76.25,183.85Zm-4.25,0-.14.21c-1.4.07-2.79.16-4.18.26.06-.1.12-.2.19-.3Zm-14.51.67c3.14-.15,6.27-.31,9.41-.45a3.53,3.53,0,0,0-.21.32c-3.11.23-6.22.52-9.3.85,0-.24.07-.47.1-.71Zm-9.91,5.4c-2.38-.07-4.75-.19-7.12-.32l-.55,0c.61-.19,1.23-.4,1.83-.64.32-.13.13-.71-.21-.64-2.06.41-4.07.73-6,.94a17.9,17.9,0,0,1-2.12-.36A42.37,42.37,0,0,0,44,185.16l4.57-.22a5.06,5.06,0,0,1-.78,1.47q-2.74.38-5.46.78c-.26,0-.25.5,0,.47l5-.64a4.87,4.87,0,0,1-.9.73c-.36.22-.69.29-.87.69a.39.39,0,0,0,.18.54c1,.34,2.05-.73,2.64-1.38a4.4,4.4,0,0,0,.53-.77q2.73-.33,5.48-.63c-.23.48-.47,1-.71,1.44a3.39,3.39,0,0,0-.64,1.8.32.32,0,0,0,.45.26c.52-.29.7-.92,1-1.44l1-1.91a.52.52,0,0,0,.05-.27l.91-.09a8.58,8.58,0,0,0,.18,4.11Q52,190,47.58,189.91Zm8.85-4.57-1.57.17h0q-2.87.33-5.71.7a5.43,5.43,0,0,0,.33-1.32l7.1-.34C56.53,184.81,56.48,185.07,56.43,185.34Zm5.37.43a13.16,13.16,0,0,0-.87,4.35l-3.61,0a13.52,13.52,0,0,0-.07-2.46,11.38,11.38,0,0,1,.06-1.75c1.65-.17,3.3-.31,5-.45A.47.47,0,0,0,61.8,185.77Zm.2,4.35c0-.1,0-.19,0-.29a11.61,11.61,0,0,1,.8-3.68.55.55,0,0,0-.51-.71c1.32-.11,2.63-.22,4-.31a5.87,5.87,0,0,0-.81,3.44c0,.24.41.42.53.15.43-.92.53-2,.91-2.91a7.36,7.36,0,0,1,.36-.75l4.11-.23a31.94,31.94,0,0,0-2.83,4.91C66.24,189.88,64,190.1,62,190.12ZM40.71,206.28a8,8,0,0,0,.37-.88c.26-.68.5-1.38.74-2.08l.73.07a.54.54,0,0,0,.12.65,5.89,5.89,0,0,1,1.55,3.37Zm27.8,7.64c-.2.31-.77.88-.7,1.33l-1-.42a.27.27,0,0,0-.38.13l-8.74-3.05a3.43,3.43,0,0,0,2.79-1l1.15.31c0,.52.06,1,.09,1.58a.88.88,0,0,0,1.07.75,2.4,2.4,0,0,0,1.79-1.47c.33.09.64.2,1,.3a2.74,2.74,0,0,0-.24,1.09c0,.21.24.53.48.35a3.07,3.07,0,0,0,.86-1.09c.73.24,1.45.49,2.18.75Zm-8.19-4.76a2.24,2.24,0,0,1-.81,1l-.2-.05a14.22,14.22,0,0,0,1.41-3.47,14.31,14.31,0,0,1,.82,4l-.8-.21a2.28,2.28,0,0,0,.19-1C60.92,209.1,60.47,208.78,60.32,209.16Zm11.09,7.53-1.57-.63a1.11,1.11,0,0,0,.37-.71c0-.26-.3-.51-.51-.3a.61.61,0,0,1-.74.19,2.77,2.77,0,0,0,.47-.7l.42-.67c.77.29,1.53.6,2.29.91C71.87,215.41,71.62,216,71.41,216.69Zm3.17,1.14-1.45-.51a3.08,3.08,0,0,0,.38-1.2c0-.29-.39-.53-.56-.24.09-.22.19-.43.28-.64.64.28,1.26.59,1.88.89C75,216.7,74.78,217.27,74.58,217.83Zm3.92.91c0,.14-.07.28-.1.42l-2.48-.86h0l-.28-.09c.19-.52.35-1,.5-1.58.86.45,1.7.93,2.54,1.43C78.6,218.28,78.55,218.51,78.5,218.74Zm-2-2.78-.21-.1c.13-.51.24-1,.35-1.55l2.88.72a16.31,16.31,0,0,0-.71,2.25A25,25,0,0,0,76.53,216Zm4.32,4-1.45-.5c.06-.28.12-.57.19-.86.48.31,1,.63,1.43,1C81,219.75,80.9,219.88,80.85,220Zm.44-1c-.5-.38-1-.74-1.52-1.1a12.86,12.86,0,0,1,.72-2.28.62.62,0,0,0,0-.33l2.54.64A24.05,24.05,0,0,0,81.29,219Zm3.33-2.16c-.23,1.39-.46,2.78-.7,4.17-.21-.16-.42-.29-.63-.46l-.89-.7A16.06,16.06,0,0,1,84,216.68a.62.62,0,0,0,.07-.51l1.17.3A.43.43,0,0,0,84.62,216.82Zm5.73,5.65c-1.79-.29-3.59-.67-5.37-1.14.24-1.38.47-2.77.7-4.16a.65.65,0,0,0-.44-.7l6.88,1.75A21.57,21.57,0,0,0,90.35,222.47Zm3.44,1.91-.94-.31c.09-.1.15-.21.23-.31.29,0,.58.05.86.08C93.9,224,93.83,224.2,93.79,224.38Zm-.12-1.48c0-.24-.15-.54-.4-.39s-.27.2-.41.3h0c.44-1.35.9-2.71,1.35-4.06l1.72.44a17.19,17.19,0,0,0-1.74,3.74Zm6.79,3c-1.49-.37-3-.69-4.49-1a2.07,2.07,0,0,0,.1-.46c0-.31-.44-.57-.6-.23a2.35,2.35,0,0,1-.3.54l-.1,0-.08,0c.07-.28.16-.55.24-.82a39.75,39.75,0,0,0,5.68-.12A16.47,16.47,0,0,0,100.46,225.94Zm-.7-3a35.76,35.76,0,0,1-4.27.06,16,16,0,0,1,1.65-3.54c1.66.41,3.32.83,5,1.23a15,15,0,0,0-.91,2.1C100.73,222.87,100.25,222.94,99.76,223Zm4.79,4.13c-.58-.19-1.16-.36-1.74-.53a3.38,3.38,0,0,0,.8-1.16.28.28,0,0,0-.47-.31,3.66,3.66,0,0,1-1.47,1.15l-.21-.06a15.58,15.58,0,0,1,.58-2.47c.84-.1,1.68-.23,2.51-.37Zm0-4.75c-.71.12-1.43.24-2.16.34a16.81,16.81,0,0,1,.83-1.71l1.34.32C104.56,221.65,104.56,222,104.55,222.35Zm12.23,8.7-.6-.06c-1-.11-2-.26-3-.42a15.53,15.53,0,0,1-1.64-.7,50.25,50.25,0,0,0-5.64-2.32,14.34,14.34,0,0,0,1.16-2.1c.11-.28-.26-.62-.5-.38a12.1,12.1,0,0,0-1,1.07c0-1,0-2,0-3,1.13-.22,2.25-.5,3.36-.8l.6.14-1.16,1.74c-.11-.2-.4-.29-.53,0a16.2,16.2,0,0,0-1,2.39c-.19.51.53,1.3.92.73s.74-1.1,1.1-1.64c.49.09,1,.19,1.46.26-.24.51-.49,1-.78,1.51a.62.62,0,0,0,.21.76,3.62,3.62,0,0,0,4,.6,1.28,1.28,0,0,0,.66.19c1.61,0,1.23-2.3-.31-2.3a1,1,0,0,0-1,1.28,3.24,3.24,0,0,1-2.43-.37c.27-.5.49-1,.72-1.54a34.07,34.07,0,0,0,7.14.07c-.65,1.39-1.33,2.77-2.06,4.14A.66.66,0,0,0,116.78,231.05Zm-5.92-8.28.66.15a21.33,21.33,0,0,1-.73,2.08c-.42-.06-.85-.15-1.28-.22Zm8.25,2.27a30.32,30.32,0,0,1-7.26.07c.25-.64.48-1.3.67-2,1.66.37,3.32.72,5,1.07.61.13,1.22.23,1.83.33C119.26,224.71,119.18,224.88,119.11,225Zm.7,6.23c.49-.5,1-1,1.42-1.57.16-.21-.1-.67-.36-.49-.43.29-.84.61-1.25.94.19-.47.39-.94.59-1.4h0a.26.26,0,0,0,.07-.19,30.13,30.13,0,0,1,1.51-2.87c.52-.1,1-.22,1.54-.35a26.88,26.88,0,0,0-2.16,6Zm3.26-.35a.57.57,0,0,0,0,.36l-.41,0c.3-.62.6-1.23.84-1.88a.35.35,0,0,0-.09-.33c.54-1.38,1.1-2.75,1.74-4.09.38,0,.76,0,1.14,0Zm9.17-3.36a.71.71,0,0,0,.37.86l-.42.39a17.3,17.3,0,0,1-7.16,2.31,15.22,15.22,0,0,0,2.06-1.21c.21-.14.07-.61-.21-.54a17.1,17.1,0,0,0-2.12.73l2.77-5.2c1-.08,1.94-.21,2.89-.38-.58,1.29-1.15,2.59-1.61,3.92-.18.5.57,1,.88.5.66-1.08,1.26-2.18,1.83-3.32a.25.25,0,0,0,0-.25l.51-1.17c.64-.16,1.27-.33,1.89-.53C133.34,225,132.78,226.26,132.24,227.56ZM129,223.44c.85-.38,1.69-.81,2.5-1.27-.15.33-.3.65-.46,1C130.38,223.27,129.69,223.36,129,223.44Zm3.58-.59c.26-.62.53-1.22.8-1.83a28.25,28.25,0,0,0,2.34-1.73l-1.29,3.05C133.83,222.53,133.21,222.7,132.59,222.85Zm2.1,3.33c0-.23-.21-.47-.44-.36.37-.89.73-1.79,1.09-2.68a26.13,26.13,0,0,0,3.7-1.77C137.52,222.89,136.11,224.57,134.69,226.18Zm8.21-9c-.35.44-.68.88-1,1.32a25,25,0,0,1-6,3.29l1.74-4.26a25.77,25.77,0,0,0,3.3-4c.18-.28-.2-.75-.46-.47-.85.92-1.72,1.78-2.6,2.6-.23-.18-.52-.21-.66.13l-.33.77c-1,.88-2,1.71-3.09,2.47a.49.49,0,0,0-.84.1c-.1.23-.22.47-.33.7a34.61,34.61,0,0,1-3.47,2l.67-1.25c.31-.57-.58-1.25-.91-.62-.48.89-1,1.78-1.43,2.68-.5.22-1,.44-1.52.64.17-.32.34-.64.53-1,.4-.67-.64-1.56-1.07-.85s-.81,1.4-1.2,2.12c-.36,0-.71,0-1.07,0,.28-.38.56-.76.87-1.14.45-.53-.39-1.41-.86-.85s-1,1.23-1.45,1.88l-.67-.05c.4-1,.77-2,1.12-3,.21-.62-.77-1.05-1-.37-.39,1.11-.82,2.19-1.27,3.26a69.2,69.2,0,0,1-7.09-1.22c.07-.32.15-.64.21-1a105.31,105.31,0,0,0,10.68-4.4c.13-.06.07-.35-.09-.29-3.47,1.33-6.93,2.65-10.44,3.76,0-.22.08-.44.1-.66a.49.49,0,1,0-1-.13c0,.19-.06.37-.09.55-.21-.29-.59-.44-.83-.09s-.47.72-.71,1.08l-1.29.34-3.68-.89v-.07a.55.55,0,0,0-1.07-.2l-.74-.17c0-.05.05-.1.08-.14.37-.52-.49-1.19-.89-.62-.11.16-.21.32-.31.48l-4.9-1.19c.06-.08.11-.17.18-.26.42-.54-.38-1.41-.83-.85-.21.26-.4.54-.59.81l-2-.49.18-.55a.51.51,0,0,0-.27-.63c.15-.26.3-.52.46-.77.37-.55-.53-1.2-.94-.62s-.9,1.39-1.33,2.11l-15.83-3.85c.07-.43.15-.85.2-1.29.07-.65-1-1.09-1-.35,0,.46-.13.92-.21,1.38l-.25-.06c-.58-.14-.63.8-.1.93l.18,0c-.09.45-.19.9-.3,1.34-.59-.27-1.19-.54-1.78-.79a17.14,17.14,0,0,1,1.92-3.05c.43-.54-.4-1.42-.86-.85a18.22,18.22,0,0,0-2.15,3.45c-.74-.3-1.48-.58-2.22-.85l.48-.78c1-1.52,1.91-3,2.86-4.57.33-.53-.5-1.2-.87-.62l-2.89,4.57-.65,1-2.28-.75c.12-.27.24-.54.37-.81l1.59-3.27c.28-.59-.63-1.26-.94-.62l-1.58,3.27c-.17.36-.37.72-.56,1.09l-1.08-.32a1.85,1.85,0,0,0-.43-1.41.33.33,0,0,0-.58.23,1.93,1.93,0,0,1-.1.86l-.2-.05a15.88,15.88,0,0,0-1.14-5.26.85.85,0,0,0-1.53-.1c-.35-.62-1.4-.85-1.61,0a17.38,17.38,0,0,1-2.26,4.79.93.93,0,0,0,.14,1.11l-2.32-.8a34.87,34.87,0,0,0,3.88-3.71c.16-.18-.06-.6-.31-.46a28.12,28.12,0,0,0-3.4,2.48l.12-3.84a.56.56,0,1,0-1.12,0l-.16,5.13a.29.29,0,0,0,0,.1q-3.7-1.26-7.42-2.47a10.09,10.09,0,0,0,.61-.94c.16-.27-.14-.72-.45-.53a7.78,7.78,0,0,0-.89.61,7.29,7.29,0,0,0-1.73-3.74c1.2.06,2.36.07,3.37.06a76.18,76.18,0,0,1,17.29,1.79,28.69,28.69,0,0,0,11,.76c2.62.86,7.36,2.64,8.37-.08,1.38-3.75.84-10.58-2.36-13.41s-7.48-3.08-11.81-2.9a39.52,39.52,0,0,0,3.2-4.92c1.14-.05,2.27-.08,3.41-.11v.39a2.19,2.19,0,0,0,.17,1.11.28.28,0,0,0,.49.06,1.3,1.3,0,0,0,.18-.83.56.56,0,0,0,.24.31,3.1,3.1,0,0,1,1.3,1.6c.3.74,0,1.49.21,2.2a.31.31,0,0,0,.42.17c.72-.48.5-1.8.27-2.51a4.28,4.28,0,0,0-1.9-2.38.33.33,0,0,0-.53.21v-.35q4.1-.07,8.16,0l-1,2.73A10.51,10.51,0,0,0,83.07,191c0,.27.31.54.54.3A7.69,7.69,0,0,0,85,188.51c.49-1.27,1-2.54,1.48-3.8,1.7.06,3.38.15,5.07.27-.17.55-.34,1.1-.5,1.64a8.26,8.26,0,0,0-.59,2.66c0,.32.34.52.56.24a7.35,7.35,0,0,0,1-2.51c.19-.65.38-1.3.58-2l.78.06,4.6.37-.8,1.41A30.72,30.72,0,0,0,95.31,190a1.31,1.31,0,0,0-.51-.23,3.25,3.25,0,0,0-2.91-.54,3.51,3.51,0,0,0-2.72,3,2.81,2.81,0,0,0-.77-.46c-.57-.22-.77.51-.4.86a1.42,1.42,0,0,1,.39,1.46.92.92,0,0,0,.78,1.16c.4,0,.81,0,1.21.06a3.93,3.93,0,0,0,4.52.32A3.73,3.73,0,0,0,96,190.88a24.36,24.36,0,0,0,2-3.37L99,185.57l3.42.31-.7,1.5a17.48,17.48,0,0,0-1.87,4.42c0,.26.25.68.51.39a14.35,14.35,0,0,0,1.92-3.58l1.23-2.62c1,.11,2.11.23,3.18.37a19.5,19.5,0,0,0-1.68,4.9,1,1,0,0,0-1.54.32l-2.21,4.15c-.38.7.53,1.55,1.22,1.39l3.7-.85c.75-.17,1.87-.4,2.28-1.15a1.48,1.48,0,1,0-2.42-1.72.54.54,0,0,0-.07.13,2.73,2.73,0,0,0-.38-1.58c.95-1.7,1.53-3.65,2.34-5.44,1.27.18,2.55.37,3.83.59a11.18,11.18,0,0,0-1.19,5.67c0,.26.45.42.57.14.76-1.82,1.07-3.75,1.82-5.6,1.43.27,2.86.57,4.27.92a11.75,11.75,0,0,0-1.88,4.91c-.3-.19-.73-.12-.74.36a8.23,8.23,0,0,1-.24,1.89,3.53,3.53,0,0,0-1.22,2.29,1.14,1.14,0,0,0,1.13,1.11c1.1,0,2.19,0,3.29,0,.44,0,1-.25,1.09-.75s.14-.79.22-1.19h0c0,.3.36.52.56.22.9-1.35,1.24-3.16,1.91-4.65a26.9,26.9,0,0,1,1.36-2.54,38.28,38.28,0,0,1,5.16,2.26.5.5,0,0,0-.21.24c-.92,2.21-1.81,4.43-2.66,6.68-.52,1.37-1.66,3.12-1,4.56a.58.58,0,0,0,.46.32c.48,0,.56,0,.82-.42a.45.45,0,0,0,0-.52c0-.07-.1-.15-.16-.22a.25.25,0,0,0-.39-.05,4.8,4.8,0,0,0,.71-1.54c.26-.76.53-1.52.8-2.28.74-2.06,1.53-4.11,2.35-6.14a.46.46,0,0,0,0-.2,25,25,0,0,1,3.76,2.64c-.52,1.07-1,2.13-1.56,3.21a1.2,1.2,0,0,0-.18-.38.93.93,0,0,0-.86-.34l.07-.05c.51-.33.08-1.27-.45-1a3,3,0,0,0-1.29,1.78,6.85,6.85,0,0,0-2.27,1.85c-.19.26,0,.78.36.74a7.67,7.67,0,0,0,2.79-.93,1.25,1.25,0,0,0,1-.05c-.6,1.27-1.19,2.55-1.74,3.85a.71.71,0,0,0,1,.82,15.59,15.59,0,0,0,1.92-1.61c.23-.23,0-.81-.37-.67l-.52.23c1-2.19,2-4.43,2.92-6.66a17.83,17.83,0,0,1,2.76,3.37l-.21.43a8.56,8.56,0,0,0-1,3.75c0,.34.42.56.63.22a14.63,14.63,0,0,0,1.21-3.25,17.4,17.4,0,0,1,1.83,5.6s0,.06,0,.09c-.37,1-.72,2.06-1,3.1-.14.51.53,1,.78.42,1.13-2.51,2-5.15,2.91-7.74.22-.59-.72-1-1-.38-.41,1.11-.83,2.21-1.25,3.32a13,13,0,0,0-1.75-5.81,24.33,24.33,0,0,1,1.6-2.8c.34-.52-.5-1.19-.87-.62a22.86,22.86,0,0,0-1.39,2.39,16.9,16.9,0,0,0-2.9-3.16c.49-1.13,1-2.26,1.48-3.39.24-.53-.54-1.21-.82-.62-.51,1.1-1,2.19-1.56,3.28a35.32,35.32,0,0,0-9.75-5c.26-.41.5-.82.77-1.21s-.47-1.18-.85-.63-.61,1-.91,1.49c-1.11-.37-2.24-.7-3.36-1a16.24,16.24,0,0,1,1.8-2.16c.43-.43-.23-1.27-.69-.82a18.38,18.38,0,0,0-2.22,2.68c-1.49-.38-3-.72-4.39-1a18.49,18.49,0,0,1,2.91-4.21,55.1,55.1,0,0,1,5.94.5c2.93.79,5.85,1.66,8.78,2.58,5.23,3,8.09,9.12,12.28,13.51,0,5.41.58,11,2.6,16.06a28.53,28.53,0,0,1-2.44,2.37C143.29,217.16,143.05,217,142.9,217.21Zm-49.81-25.3a5.07,5.07,0,0,0-.3,1.51h-1.3a1.56,1.56,0,0,1,1.57-2.26Zm25.27-3.4c1.15.3,2.29.64,3.4,1-.53.93-1,1.87-1.47,2.85a20.46,20.46,0,0,0-1.13,2.8l0,0a4.07,4.07,0,0,0,0-.78c0-.34-.55-.63-.82-.33a3.92,3.92,0,0,0-.37.51,3.58,3.58,0,0,0-1.49-.06c.28-1.08.36-2.24.7-3.31A11.72,11.72,0,0,1,118.36,188.51ZM146.05,217c-.06.12-.13.22-.2.34a.47.47,0,0,0-.59-.33c-.36.14-.71.3-1,.47.63-.6,1.23-1.26,1.82-1.94.1.23.19.47.29.7C146.23,216.47,146.16,216.73,146.05,217Zm1.3-3.95a.57.57,0,0,0-.26.34,74.68,74.68,0,0,1-2.6-13.2c.27.24.55.48.84.71a19.29,19.29,0,0,0,.8,6.33A44.92,44.92,0,0,0,147.35,213Zm22.7-74.27.57-.63a1.15,1.15,0,0,0,.71.24h1.2a46,46,0,0,1-4.15,2.39l0,0Zm-44.73-32.51a64.93,64.93,0,0,0,4.5,6.21,22.24,22.24,0,0,1-4.74-5.35C125.16,106.82,125.23,106.53,125.32,106.25Zm-.79-1.25c-.1.24-.18.49-.27.73a27.75,27.75,0,0,1-1.51-3.16c.09-.1.19-.18.28-.27Q123.74,103.67,124.53,105ZM173,114.64c.06-1,.13-1.92.2-2.88a5.37,5.37,0,0,1,.41,2.14C173.44,114.14,173.24,114.39,173,114.64Zm10.14-2.59,1.55.28a17.58,17.58,0,0,0-2.36,1.91Zm-6.5,3.38a16.92,16.92,0,0,1,1.3-3.82.22.22,0,0,0,.27-.08,3.25,3.25,0,0,0,.23-.29.23.23,0,0,0,.05-.15c.5.14,1.41.34,2.5.55A10.85,10.85,0,0,0,176.68,115.43Zm3.47.65c-.82-.16-1.64-.29-2.46-.43a5.76,5.76,0,0,1,4-3.31A9.39,9.39,0,0,0,180.15,116.08Zm6.28-3.27c-.46,1.44-.92,2.86-1.35,4.31l-3.05-.66a25,25,0,0,1,3.75-3.95l.69.12C186.45,112.69,186.45,112.73,186.43,112.81Zm3.47,5.41-3.14-.72C188.93,114,191,115.43,189.9,118.22Zm20.56,2.06a7.62,7.62,0,0,0,.24-.94c.65-.17,1.29-.3,1.93-.45ZM262,113.91c-2.32-2.15-1.37-3-1.93-5.66a.41.41,0,0,0-.29-.29,2.39,2.39,0,0,0-1.14,0,30,30,0,0,1,.17-3.68q1.71,5,3.56,10Zm-2.41-11.64-.3-.92c0-.15.05-.29.09-.44a.58.58,0,0,0-.27-.61,9,9,0,0,1,.48-.86c.38-.58-.61-1.24-1-.61l-.08.12c0-.13-.09-.26-.13-.39A1.12,1.12,0,0,0,259.6,98c.12-.2,0-.54-.3-.38-.57.36-1.08,0-1.43-.48L257.51,96a5.39,5.39,0,0,1,.26-1.2l.07-.22A1.28,1.28,0,0,0,258.9,94a.35.35,0,0,0-.4-.51.84.84,0,0,1-.38.08,4.36,4.36,0,0,0,.06-2.16.54.54,0,1,0-1,.25,3.52,3.52,0,0,1,0,1.55,1.36,1.36,0,0,1-.42-.8c-.12-1,.81-2,1.42-2.74.44-.51-.35-1.38-.81-.84a8.35,8.35,0,0,0-1.37,2c-.17-.57-.35-1.14-.51-1.72a.21.21,0,0,0,.23-.14c.67-2.26.35-5,.37-7.3,0-.54-.83-.8-.84-.19a47.41,47.41,0,0,0-.14,6.31c-.13-.47-.27-1-.41-1.43-.26-.93-.51-1.87-.75-2.8l.43-1.81c.15-.6-.79-1-.94-.38l0,.12c-.14-.53-.28-1.06-.41-1.6a7,7,0,0,1,.34-1.07A8.07,8.07,0,0,1,256,75.45a.44.44,0,0,0,0-.67c.38-.39.76-.76,1.13-1.12,1.66-1.56,3.29-3.15,4.92-4.75.38-.37-.12-1.17-.55-.78l-2.46,2.27L261.33,68c3.21-2.64,6.33-5.44,9.62-7.89a.48.48,0,0,0,0-.75c4.1-2.87,7.55-5.31,12.62-6.36.57-.12-3,3.24-3,3.21a33.79,33.79,0,0,1-6.87,4.38c-7.88,4.11-13.72,11.86-19.85,18.14a.77.77,0,0,0,.35,1.24c5,1.75,4.81,9,5.48,13,.63,3.85,1.56,7.64,2.56,11.4,1.41,5.29,3.12,10.75,6,15.44-.46-.3-1.19-.74-1.88-1.18C262.71,114.42,260.86,106.12,259.54,102.27ZM243,120.6l.24-.42c1.91-.08,3.81-.15,5.73-.17l1.28.57C247.84,120.58,245.42,120.58,243,120.6Zm1.75,1.75a25.79,25.79,0,0,1-1.89,4.82,10.56,10.56,0,0,1-.73,1.19c-1,0-2,0-3-.05.63-1.31,1.24-2.64,1.87-4a.39.39,0,0,0,0-.21l1-1.76Zm4.47-6.56-2.83.06s-.07-.1-.1-.16a.36.36,0,0,0-.36-.2l-.92.1c-.47-.08-.94-.16-1.42-.22,0-.4,0-.8,0-1.2,0-.66-1-.82-1-.1l0,1.17-1.05-.13a3.43,3.43,0,0,0,1-.71c.16-.18,0-.53-.28-.44a7.51,7.51,0,0,1-1.93.61l-.64-.29c-.28-.13-.6-.25-.89-.38-.56-.91-1.11-1.82-1.66-2.73A80.19,80.19,0,0,1,249.21,115.79ZM232,111.05a11.88,11.88,0,0,0-1-1.88c.92.94,2.87,1.16,3.8,1.38.4.09.8.21,1.2.31a1.24,1.24,0,0,0,.22.94.25.25,0,0,0,.37.06h0l.87,1.45,0,.06A45,45,0,0,1,232,111.05Zm4.19,9.56c1.79-.14,3.58-.25,5.37-.34l-.21.37c-1.83,0-3.65,0-5.47.12Zm-2.1,2c.18,0,.35,0,.53,0,1.9-.09,3.81-.15,5.71-.2l-1.69,3c-.55,1-1.17,1.94-1.76,2.94-1.07,0-2.14,0-3.2.09-.4-.46-.81-.91-1.24-1.33C233,125.63,233.54,124.13,234.06,122.66Zm-2.67,6.77h0c.51,1.14,1,2.29,1.4,3.44a13,13,0,0,0-3.37-.14.36.36,0,0,0,.2-.15A25.84,25.84,0,0,0,231.39,129.43Zm-1.33-.79c-.68.05-1.35.13-2,.19.35-1.18.65-2.38.92-3.59.24.16.48.3.71.46,0,0,0,.07,0,.1.29.57.54,1.13.81,1.7C230.34,127.88,230.2,128.26,230.06,128.64Zm1.86-.38.24-.56c.29.24.57.5.85.75l-1,.05C232,128.42,232,128.34,231.92,128.26Zm-.78-2.34a23.42,23.42,0,0,0-2-1.49c.06-.26.11-.52.17-.77l1.22,0c.28,0,.27-.5,0-.54s-.72-.09-1.08-.12V123c1-.08,2.07-.15,3.1-.21C232.09,123.8,231.6,124.85,231.14,125.92Zm-11.2-6.34c-1.8.37-2.67,1.21-3-.13Zm-.48,2.77a.47.47,0,0,0-.37.56l-1.69.18a6.38,6.38,0,0,0,.71-.43c.32-.22.1-.8-.3-.63s-.74.3-1.11.43a8.66,8.66,0,0,1,2.18-1.19A25,25,0,0,1,222,122C221.17,122.08,220.31,122.2,219.46,122.35Zm3.54-1.21a.31.31,0,0,0-.24.32c-.78-.23-1.56-.43-2.36-.59a15.2,15.2,0,0,1,4.21,0Zm-1.1-4q3.4-.47,6.83-.69l1.22.17Zm-23.16,16.67a5.48,5.48,0,0,1,.37,1.37c-.6.21-1.21.44-1.81.67,0-.18,0-.36,0-.54a3.74,3.74,0,0,0-1.37-3.19c.48-.15,1-.32,1.44-.48A9,9,0,0,1,198.74,133.86Zm-12.37-2a10.92,10.92,0,0,1,3.39-2.51,6.3,6.3,0,0,1,6.57,1.27c-.72.21-1.45.41-2.18.59a9,9,0,0,0-1.65-.4c-2.38-.33-4.42.1-6,1.89l-.66.1A9.45,9.45,0,0,1,186.37,131.84Zm8.42,5.88.28-.11a11.82,11.82,0,0,1-.82,1.72,2.74,2.74,0,0,1-2.15,1A4.61,4.61,0,0,0,194.79,137.72Zm-1.56-3.59c.59-.14,1.15-.25,1.62-.34a5.09,5.09,0,0,1-.38,1.68A3.89,3.89,0,0,0,193.23,134.13Zm-3.42,4.56a2.6,2.6,0,0,1-1.08-.21,10.91,10.91,0,0,1-.16-1.5,1.46,1.46,0,0,1,.47-1.1A2.59,2.59,0,0,0,189.81,138.69Zm-3.4.89a8.19,8.19,0,0,1-.82-1.65,6.37,6.37,0,0,1-.24-3.66l.27,0c-.51,1.51-.42,3.47.67,4.5a6,6,0,0,0,1,.78,2.57,2.57,0,0,0,.29.44A8.8,8.8,0,0,1,186.41,139.58Zm8.67,2.54a5.78,5.78,0,0,1-6.52-.25,17.78,17.78,0,0,0,4.58-.08c2.66-.39,3.69-2.51,4.05-4.94l2-.68C199,138.65,197.19,140.86,195.08,142.12Zm3.78-1a5.27,5.27,0,0,0,.43-.51,7,7,0,0,0,1.46-5,140,140,0,0,1,21.73-5.13,9.47,9.47,0,0,0,4,.12c-.06.36-.11.72-.14,1.08s.42.57.57.23c.23-.51.44-1.05.63-1.59a9.45,9.45,0,0,0,1.24-.5.17.17,0,0,0,.07-.18l.88-.09a23.7,23.7,0,0,0-.72,2.65.39.39,0,0,0,.39.48,24.68,24.68,0,0,0-5.67,1.2c-.29.09-.15.65.15.58a31.87,31.87,0,0,1,4.94-.84c1.44-.13,2.87.05,4.29,0l.09.26A140.53,140.53,0,0,0,198.86,141.13Zm35.52-7.26a32.77,32.77,0,0,0-1.89-4.53l1.33-.11c.12.13.25.25.38.38s.34-.09.23-.24l-.14-.17c.7-.06,1.41-.1,2.12-.14a17.5,17.5,0,0,0-1.88,4.29.4.4,0,0,0,.34.49Zm.6,0a.34.34,0,0,0,.18-.09,11.75,11.75,0,0,0,1.22-1.5l-.09.23c-.1.27.28.61.46.31.74-1.25,1.4-2.54,2-3.85,1,0,2-.07,3-.09a16.13,16.13,0,0,0-2.3,3.5c-.12.28.1.71.45.53,1.5-.79,2.5-2.56,3.37-4.06l1.43,0c.2,0,.21-.34,0-.35l-1.2,0v0a24.1,24.1,0,0,0,2.43-6.06l3.18,0-2.43,5.28a29.4,29.4,0,0,0-2.37,5.62.46.46,0,0,0,.1.33Q239.74,133.51,235,133.84Zm13.22-.23c-1.08,0-2.15-.06-3.23-.07a13.6,13.6,0,0,0,1.52-2.75h.5a6,6,0,0,0-.72,1.7c-.05.22.27.46.41.23a14.22,14.22,0,0,1,1.4-1.91l1.33,0A27.85,27.85,0,0,0,248.2,133.61Zm1.6-3.5-1.05,0a7.86,7.86,0,0,1,1.72-1.22C250.25,129.31,250,129.71,249.8,130.11Zm.61-2.23a8.09,8.09,0,0,0-3,2.28l-.67,0,.53-1.2q1.44-3.1,2.87-6.21a.53.53,0,0,0,0-.46l4,0,.48.21c-1.28,1.79-2.58,3.67-3.74,5.62A.38.38,0,0,0,250.41,127.88Zm6.8,7.15c-1.25.2-2.49.43-3.73.65a38.89,38.89,0,0,0,3-4.66l0,0,3.37.05-.64,1-.39.4a.11.11,0,0,0,0,.18l-.39.62C258.34,133.55,257.75,134.25,257.21,135Zm6.4-1c-1.6.22-3.19.46-4.78.72.69-1.06,1.53-2.39,2.36-3.72l4.34,0C264.88,132.07,264.23,133.05,263.61,134.05Zm1.65-.22c.52-.91,1-1.82,1.52-2.73h2.07c0,.75.08,1.51.17,2.26Zm3.89-8a17.16,17.16,0,0,0-.32,3.92h-1.28c.35-.62.7-1.25,1.06-1.84.25-.42-.33-1.07-.62-.6-.5.81-1,1.63-1.58,2.45l-4.46.07c1.4-2.27,2.64-4.31,2.9-4.72s-.45-1.17-.8-.62q-1.68,2.68-3.38,5.37l-3.46.08,2.91-4.7c.34-.55-.55-1.22-.92-.62L255.91,130l-4.66.11c.36-.68.71-1.37,1.1-2,1-1.76,2.16-3.46,3.31-5.13l.57.24c.58.24.77-.51.43-.88l5.6,0,2,1c.46.22.78-.43.41-.72-.12-.11-.25-.2-.38-.3h.06c2,0,4,.09,4.67,1.47-.49.19-1,.38-1.47.59-.32.13-.12.77.22.66s1-.3,1.45-.45A4.49,4.49,0,0,1,269.15,125.81Zm-42.06,60.77c.28-.21.58-.4.86-.6a21.67,21.67,0,0,0-4.46,4.57C224,189,225.62,187.64,227.09,186.58Zm-3.63,5.69a20.48,20.48,0,0,1,2.42-1.93,6.9,6.9,0,0,1-1.69,3.25A3.81,3.81,0,0,1,223.46,192.27Zm5,34.86c-.32-.25-.66-.49-1-.77a7.13,7.13,0,0,1-1.39-2.71c-.15-.56-.89-.28-.75.26,0,0,0,0,0,0a17.47,17.47,0,0,1-1.68-2.91c.21-1.31.25-2.66.47-4a27.14,27.14,0,0,1,1.3-4.83c-.52,1.89-1.14,4.37.36,5.67-1.92,2.41-.26,6.59,2.69,7.11A3.84,3.84,0,0,0,228.49,227.13Zm-2-8.64c3.84,3,6.4,6.72,10.88,9,2.52,1.3,4.9,2.64,7.22,4-1.63-.3-3.29-.49-5-.66a72.14,72.14,0,0,1-7.2-1.67.36.36,0,0,0-.18-.24,11.42,11.42,0,0,0-1.75-.53,10.28,10.28,0,0,1-.91-.53,3.3,3.3,0,0,1,0-2.83s0,0,0-.05h.15a.38.38,0,0,0,.32-.27v1.33a.55.55,0,0,0,.28.53c3,1.2,6.3,3,9.53,3.58.31.05.42-.45.18-.6a30.42,30.42,0,0,0-5.38-2.29L232,226.25c-1.34-.52-1.06-1.22-1.06-2.51,0-.55-.86-.8-.86-.18,0,.28,0,.56,0,.84a.41.41,0,0,0-.45-.32C226.86,224.42,224.71,220.62,226.54,218.49ZM226,210c-.21-.27-.6-.39-.75,0a42.7,42.7,0,0,0-1.78,5.13c.1-.44.19-.88.3-1.32a.27.27,0,0,1,.08-.07.29.29,0,0,0,0-.36,38.61,38.61,0,0,1,2.57-7.19c.25-.53-.49-1.18-.81-.66.28-.88.56-1.76.87-2.63.22-.63-.73-1.31-1-.61l-.3.78V203a2.58,2.58,0,0,0,.08-.26,12.93,12.93,0,0,0,.41-4.72,10.85,10.85,0,0,1,1.89-3.3c.36-.43-.33-1.08-.72-.62a13.21,13.21,0,0,0-1.52,2.14,10.47,10.47,0,0,0-.56-1.72c.59-.91,1.34-1.77,1.69-2.33a3,3,0,0,0,.15-2.81.6.6,0,0,0-.09-.15l.17-.15a.75.75,0,0,0,1,.26l.43-.29A107.74,107.74,0,0,1,226,210Zm92.61-85.7a11.85,11.85,0,0,1,4-.27c.26,0,.26-.4.08-.5A4.55,4.55,0,0,0,320,123a.33.33,0,0,0,.19,0,12.6,12.6,0,0,1,4.66-.88c1.71,0,1.93,1.69,2.26,3.08-1.5,2.78-3,5.55-4.42,8.37-.11.18-.23.37-.34.57-1-.16-1.94-.3-2.91-.44.27-.31.52-.63.77-1s-.09-.63-.36-.53a21.89,21.89,0,0,0,1.45-4.5.56.56,0,0,0,0-.26l.13-.09a24.66,24.66,0,0,0,4.52-3c.19-.19,0-.73-.28-.61a22.77,22.77,0,0,0-4.25,2.5L318,128.36v-.22A8.67,8.67,0,0,0,318.59,124.33Zm6.76,10.3-1-.18c.75-.94,1.48-1.89,2.2-2.85L325.24,134A.52.52,0,0,0,325.35,134.63Zm-6.22-3.37-.93.14-.15.2c0-.42,0-.84,0-1.24v-.85l2.09-1.32A20.68,20.68,0,0,1,319.13,131.26Zm-1.34-6.58a4.27,4.27,0,0,1,0,.72.5.5,0,0,0-.84.4v1.46c-.16-.17-.44-.22-.56.06s-.32.73-.49,1.1a17.26,17.26,0,0,0-.3-2c.12-.14.24-.29.37-.42a.68.68,0,0,0,.46-.41A7.08,7.08,0,0,1,317.79,124.68Zm.13,30.91c-.53.73-1.05,1.5-1.59,2.25.35-2.15.64-4.34.85-6.54l5.46-.84c-.47,2.27-3.42,5.25-4.24,6.32-.14.19-.3.38-.46.57.21-.41.42-.83.61-1.25S318.21,155.2,317.92,155.59Zm-1-22.48-.15.21h-.13c-.11-.56-.23-1.11-.36-1.66l-.43,0a11.4,11.4,0,0,0,.11-1.3h0a3.28,3.28,0,0,0,.86-.59.18.18,0,0,0,.07.05v.44C316.92,131.23,316.85,132.19,316.93,133.11Zm-2.87-9.17.17,0s0,0,.06-.05a24.84,24.84,0,0,0,2.9-1.36,2.4,2.4,0,0,1,.49,1.19,8.76,8.76,0,0,0-1.52.94.82.82,0,0,0-.33-.14c-.38-.08-.76-.13-1.13-.17a1,1,0,0,0-.4-.12c-.33,0-.65,0-1,0Zm-.7,2.25a20,20,0,0,1,.23,5.71l-1.28.07-.45.81-.67-.07c-.05-.24-.1-.49-.14-.73a4.4,4.4,0,0,1-.74-.14c.32-.78.64-1.56,1-2.34.24-.58-.64-1.25-.9-.62-.45,1.15-1.11,2.39-1.49,3.64l-3.05-.22c.24-.5.51-1,.79-1.49l1.25-.36a4.58,4.58,0,0,1-.56-.75c.21-.32.4-.64.62-.95.46-.63-.57-1.52-1-.85s-.7,1.07-1,1.62l-.12,0c-.75.27-1.45.54-2.07.78,0-.17.06-.34.08-.51l-1.31.18c-.06.29-.11.59-.17.88l-.39.15L303,129l.39-.22c1.51-.66,3-1.31,4.58-1.83A20.12,20.12,0,0,1,313.36,126.19Zm-.93,21.29c-.64,1.22-1.31,2.43-2,3.64l-4.48.77a30.52,30.52,0,0,1,4.44-6.27c.4-.43-.21-1.26-.64-.81a42.56,42.56,0,0,0-5.57,7.37l-2.3.37c.18-4.38.38-8.74.74-13.09,0,0,0,0,.06-.05a11.21,11.21,0,0,0,1-3.1.53.53,0,0,0,.65-.22,5.9,5.9,0,0,1,1.56-1.47c.29-.21.16-.74-.23-.68a3.46,3.46,0,0,0-.67.18l.18-.42c1.12.08,2.23.19,3.35.29a.09.09,0,0,1,0,0c0,.2.24.5.44.29s.14-.19.21-.28l1.24.1c0,.29.09.58.13.86,0,.08-.09.16-.13.25-.7,1.22-1.65,2.48-1.68,3.92,0,.23.25.51.48.35a5.28,5.28,0,0,0,1.7-2.18c.5,3.32,1,6.66,1.6,10A.38.38,0,0,0,312.43,147.48Zm.44,1.42c.11.58.25,1.16.37,1.74l-1.31.23C312.24,150.21,312.55,149.55,312.87,148.9Zm-11.15,8.52.15-3.88,1.72-.25A30.59,30.59,0,0,0,301.72,157.42Zm1.07,5.36a6.65,6.65,0,0,1-.73,1.73,5.73,5.73,0,0,0-.14-1.72Zm2.59-9.75,4.39-.64c-.75,1.37-1.51,2.74-2.25,4.11-.11-.19-.32-.29-.48-.09a29.23,29.23,0,0,1-3.17,3.53,6.61,6.61,0,0,0-.59-1.49s0,0,0-.06A42.5,42.5,0,0,1,305.38,153Zm-3.76-27.68c1.25-.09,2.54-.16,3.83-.24-1.09.42-2.17.83-3.23,1.19-.33.11-.31.54-.12.81l-.55.3A12,12,0,0,0,301.62,125.35Zm-.51,4.67.36-.21.3-.17-.48,1a.42.42,0,0,0,.21.55c-.3.18-.21.66.05.88l-.9,0C300.8,131.38,301,130.7,301.11,130Zm-8,28.38a5.23,5.23,0,0,0,.22-.76.39.39,0,0,0-.71-.32h0a7.45,7.45,0,0,0-.43-.71.35.35,0,0,0-.13-.11,80.23,80.23,0,0,1,6-12.27c0,2.55.11,5.1.3,7.64-1,2.55-1.92,5.1-2.79,7.68a.46.46,0,0,0-.34.21l-1.89,2.8A7.87,7.87,0,0,0,293.09,158.4Zm5.62-3c.14,1.1.35,2.12.43,3a12.07,12.07,0,0,1-2.4,2.57C297.43,159.18,298.08,157.31,298.71,155.43Zm.3-29.83a16.54,16.54,0,0,1-.23,2.64,1.31,1.31,0,0,0-.83.58.7.7,0,0,0,0,.7,2.46,2.46,0,0,0,.4.52,3.14,3.14,0,0,0-1.1,1.91l-1.16,0c.29-.43.58-.86.86-1.29l-1,.1c.39-.65.75-1.32,1.13-1.93C297.7,127.73,298.36,126.67,299,125.6Zm-13.32,2.93c0-.37.06-.74.07-1.12l.33-.72,1.41-2.92a23.41,23.41,0,0,1,6.79-1.74l-1.88,2.65a30.23,30.23,0,0,0-3.49,5.24c-.13.33.2.78.52.48a25.17,25.17,0,0,0,3.31-4.46l2.77-4,.29,0a2.85,2.85,0,0,1,2.53,1c-.38.06-.76.35-1.11,1-.21.38.41.92.67.51l.43.42-2.18,3.34a19.76,19.76,0,0,0-2.25,3.74h-.35l.62-1-1.33.09-.57.93c-1,0-2.07,0-3.1.05.1-.28.16-.55.24-.82l-.36,0a6.12,6.12,0,0,1-.76,0c-.12.29-.23.58-.37.87-.74,0-1.48,0-2.21.06,0-.28,0-.59,0-.9h.07c.44-.12.9-.22,1.34-.33a4.82,4.82,0,0,1-1.65-1.1l0-.66A.75.75,0,0,0,285.69,128.53Zm2.49,30.22c.42.06.85.08,1.27.1-.1.28-.18.56-.28.83a.39.39,0,0,0-.34.16l-.47.6-.44-.74,0-.06a.54.54,0,0,0-.63-.79c-.06-.65-.11-1.3-.17-1.95a39.59,39.59,0,0,1,2.36-5.34c1,3.05,1.76,6.32-1.35,6.57C287.84,158.15,287.87,158.72,288.18,158.75Zm-1.37-5.18c-.17-1.58-.34-3.16-.52-4.74l0,0a.58.58,0,0,0-.1-.64c-.11-1-.22-2-.34-3,0,0,0,0,0-.06.11-2.92.08-5.84,0-8.76.63,3.75,1.4,7.46,2.26,11.16a19,19,0,0,0,.69,2.14A39.38,39.38,0,0,0,286.81,153.57Zm-.57-20.33,1,0c-.25.35-.52.69-.77,1ZM284.78,152c.17,1.73.36,3.45.6,5.16-.14.43-.26.87-.39,1.31l-1.68.35c0-1.06,0-2.12-.08-3.18C283.72,154.45,284.24,153.24,284.78,152Zm-1.46-26a4.84,4.84,0,0,1,.24.79c0,.56,0,1.13,0,1.69l-.31.08,0-.16c-.32,0-.62,0-.93-.09a6.58,6.58,0,0,0-.23-1.5C282.49,126.5,282.91,126.24,283.32,126Zm-5.21,35.5,0-.15,1-.27c-.27.7-.55,1.4-.79,2.11-.05-.44-.11-.87-.16-1.3a.24.24,0,0,1,0-.08A.34.34,0,0,0,278.11,161.48Zm-.25-1.52c-.09-.6-.18-1.2-.28-1.79a33.92,33.92,0,0,1,2.45-4.55l1-.12c.08.86.15,1.72.24,2.57-.55,1.16-1.07,2.34-1.56,3.53ZM276,133.75c1.12-.08,2.24-.16,3.37-.22-.82,1.52-1.63,3.05-2.45,4.58-.21.41.19,1,.66.8a2.74,2.74,0,0,0,1.55-2.2.28.28,0,0,0-.15-.29l1.53-2.9c0,5.62-.08,11.45.26,17.15a.72.72,0,0,0-.15.11c-.54.67-1.06,1.37-1.57,2.08l-1.05,0,.75-1.68c.39-.87-1-1.67-1.45-.76-.29.64-.59,1.27-.89,1.9-.68-3.18-1.38-6.35-1.86-9.54-.18-2.08-.37-4.15-.54-6.2A30.07,30.07,0,0,0,276,133.75Zm-1.94-.92c0-.31,0-.62.07-.93s.33-.56.5-.84l1.62,0c-.32.58-.65,1.14-1,1.69Zm6.08-.75-.15.28-3.33.26c.29-.53.56-1.06.83-1.6l2-.06-.06.35C279.37,131.66,279.74,132.16,280.14,132.08Zm-4.68,31.86c.22-.72.45-1.43.7-2.14l.75-.17c.07.21.14.42.2.63a20,20,0,0,1-1.67,2.29C275.45,164.35,275.45,164.14,275.46,163.94Zm1.54-8.77.54-1.22.83-.11c-.43.63-.86,1.26-1.25,1.92Zm3.3-31.79c-.16-.17-.32-.33-.49-.49l.62-.1a6.37,6.37,0,0,1,1.42,1l-.6.92A7.14,7.14,0,0,0,280.3,123.38Zm1.32,7.52,1.79-.08-.06,1.36-1.67.09c0-.43-.08-.86-.11-1.3C281.58,131,281.61,130.93,281.62,130.9Zm.39-10.1c.08,0,.13.12.21.18l-1.27.2a6.72,6.72,0,0,0-1.92-.43.65.65,0,0,0-.69.51c0,.12,0,.22,0,.34l-.27,0a8.73,8.73,0,0,0-1.09-.47A4,4,0,0,1,282,120.8Zm-5.16,5.75c.2-.91.38-1.82.55-2.73a6.39,6.39,0,0,1,2,2.34,4.24,4.24,0,0,1,.38,1.14l-.08.08a.37.37,0,0,0-.07.37c-.06.13-.13.26-.18.38a.33.33,0,0,0,0,.17l-.18.22c-.21.32.11,1,.53.75h0l-.09.52-1.6,0c.32-.71.61-1.43.89-2.15-.3-.1-.59-.22-.88-.35-.35.85-.74,1.68-1.15,2.48h-1.51c.59-1,1.17-2,1.75-2.95C277.07,126.71,277,126.62,276.85,126.55Zm-5.32,11.31h0l-.27-1.43.49-.74v.05A10.14,10.14,0,0,0,271.53,137.86Zm.26,1.3c.13-.12.24-.26.37-.39,0,.87,0,1.75.12,2.64C272.11,140.66,272,139.91,271.79,139.16Zm-.31-9.45c-.2-.89-.39-1.77-.59-2.66.05-.24.1-.48.16-.72a3,3,0,0,0,.17,1.3.27.27,0,0,0,.51,0c.27-.88.29-1.77.53-2.66.61.5,1.48-.16.91-.82l-.21-.26c1.22-.14,2.44-.31,3.65-.49-.13.91-.25,1.82-.37,2.73h0c-.54.82-1.08,1.64-1.61,2.46v0c.11-.55-.79-1.12-1-.48-.09.24-.16.49-.24.74a.37.37,0,0,0-.46.18l-.5.75Zm1,21.51q.12,1,.18,2l-1.41.08C271.68,152.62,272.07,151.91,272.5,151.22Zm-2.1,3.57,2.31-.26c-1.31,2.37-2.63,4.75-3.91,7.14l-2.24.37C267.8,159.61,269.06,157.18,270.4,154.79Zm.48,6.5,1.69-3.35a20.65,20.65,0,0,1-.66,3.16ZM271,164q-.71,1.56-1.38,3.12a.79.79,0,0,0-.35-.56l-.51-.33c.73-.79,1.47-1.58,2.21-2.36A.5.5,0,0,0,271,164Zm-4.84.62c-.47.27-.93.56-1.37.86l.88-1.73c.73-.1,1.45-.22,2.18-.34-.56,1.07-1.12,2.15-1.65,3.23a.56.56,0,0,0-.06.38c-.61.25-1.4.52-2.29.79a35.15,35.15,0,0,0,2.77-2.55C266.9,165,266.54,164.46,266.16,164.66Zm-2.89-9.12L269,155c-1.47,2.43-2.89,4.88-4.23,7.38-2,.32-4,.62-6.06.88A46.74,46.74,0,0,1,263.27,155.54Zm-.85,12.74c-1.66.47-3.49.94-5.07,1.32a3.93,3.93,0,0,0,1-1.86.34.34,0,0,0-.6-.32l-1.27.93c.44-1.23.93-2.44,1.45-3.62q3-.28,5.88-.68c-.56,1.09-1.1,2.2-1.61,3.31A.85.85,0,0,0,262.42,168.28Zm-6.64-12.07c2-.17,4-.35,6-.54a49.47,49.47,0,0,0-4.65,7.74c-1.41.18-2.82.32-4.22.46Zm-4.37.33,3.34-.25q-1.44,3.86-2.87,7.69c-1.43.14-2.87.25-4.3.35C248.79,161.71,250.09,159.12,251.41,156.54Zm-4.94.34,3.81-.25c-1.33,2.59-2.65,5.19-4,7.78-1,.06-2,.12-2.94.16.17-.56.35-1.12.55-1.67A59,59,0,0,1,246.47,156.88Zm-4.64.27,3.47-.2a47.06,47.06,0,0,0-3.16,7.65c-1.31,0-2.6.09-3.92.1A46.3,46.3,0,0,1,241.83,157.15ZM238.59,166a4.87,4.87,0,0,0-.7-.45h0a.38.38,0,0,0,.19.05l3.76,0c0,.11-.07.22-.1.32a.4.4,0,0,0-.45-.15c-1.32.43-2.63.88-3.94,1.34.09-.28.19-.55.29-.83a2.94,2.94,0,0,1,.61.34C238.63,166.86,238.9,166.26,238.59,166Zm-6-15.19a8.2,8.2,0,0,1,.81-.16.39.39,0,0,0,0,.48.75.75,0,0,0,.46.28c-.18.5-.35,1-.52,1.51h-1.26C232.3,152.22,232.48,151.51,232.63,150.83Zm-8.21,0a13.72,13.72,0,0,0,1.53.39l-.6,1.68h-2C223.68,152.25,224.06,151.56,224.42,150.87Zm-1.58,3a.45.45,0,0,0,.23.07H225l-3,8.39-4.43,1.36Q220.25,158.76,222.84,153.83Zm-1.14,9.42-.3.86-1.49.5-1.79-.19C219.32,164,220.51,163.64,221.7,163.25Zm-46.14,3.84a82.78,82.78,0,0,0,21.27,1.6C187.93,170.09,178,170.71,175.56,167.09Zm33,.6c1-.34,2-.7,2.92-1.09a.37.37,0,0,0,.23-.3c1-.28,2-.55,3-.84l.66,0-.3.56C212.91,166.66,210.75,167.22,208.58,167.69Zm18-3.41a21.41,21.41,0,0,1-13.87,4.16,57.83,57.83,0,0,0,7.82-2.8h.71a1.55,1.55,0,0,1,1,.45l1.8-.57a4.43,4.43,0,0,0,1.78-.8.41.41,0,0,0-.24-.66,4.28,4.28,0,0,0-1.72.43l-1.26.46-.2,0,.16-.23c.61-.3,1.22-.6,1.82-.93.31-.17.12-.7-.24-.57l-.66.22c.23-.33.47-.66.69-1a.42.42,0,0,0,.11-.16l1.38-2c.13-.19-.09-.51-.27-.3l-1.57,1.8-.58.17c.39-1.08.77-2.16,1.16-3.25a.45.45,0,0,0,.49.3l3.06-.47c.17,0,.67-.14,1.24-.25A64.56,64.56,0,0,0,226.6,164.28Zm3-7.12c-1.64.23-3.28.53-4.91.8l-.06,0,1.45-4.08h4.6C230.33,155,230,156.08,229.59,157.16Zm-3.18-4.23.54-1.52c.41.05.81.11,1.24.13a12.75,12.75,0,0,0,2.95-.31l.31-.08c-.16.6-.34,1.19-.51,1.78ZM231,157c.33-1,.63-2.1.89-3.14h1.17c-.32.94-.61,1.89-.85,2.85-.11.21-.2.42-.3.63A1.57,1.57,0,0,0,231,157Zm-.76,9a.38.38,0,0,0,0-.24,54.7,54.7,0,0,1,4.77-12c.89,0,1.79,0,2.68,0-2.59,4.82-5.12,10-6.26,15.18a.4.4,0,0,0,0,.28l-.17.07A3.77,3.77,0,0,1,230.24,166.07Zm-27,53.45.33-1.65c0-.11.05-.22.08-.33a.53.53,0,0,0,.46,0C203.8,218.22,203.51,218.87,203.23,219.52Zm1.82.19a1,1,0,0,0-.41-.16c.41-1.05.78-2.12,1.18-3.14a.59.59,0,0,0-.08-.56,27.36,27.36,0,0,0,2.12-2.91.89.89,0,0,0,.53-.85q.68-1.12,1.26-2.31a1,1,0,0,0,.92-.07C208.87,213.12,207,216.45,205.05,219.71Zm6.55-12.16a.55.55,0,0,0-.79-.46c.51-1,1.21-2.21,1.36-2.5l2.38-4.67c.28-.55-.56-1.22-.87-.62l-.78,1.48a.24.24,0,0,0-.13.05,2.08,2.08,0,0,0-.21.21,13.37,13.37,0,0,1,1.74-3.77.53.53,0,0,0-.71-.74c.2-.43.41-.87.62-1.29.74-1.46,1.47-2.94,2.17-4.42A47.61,47.61,0,0,1,211.6,207.55Zm4.77-19.08c-1.07,1.8-2,3.66-3,5.52-.81,1.57-2,3.26-2.14,5,0,.24.23.47.45.29a2.18,2.18,0,0,0,.21-.22,14.16,14.16,0,0,0-1.46,4.26.91.91,0,0,0,.63.93c-.05.11-.11.22-.17.33-.64,1.23-1.78,2.59-1.84,4l-1.7,1.54a2.23,2.23,0,0,0-.89,2.26,1.6,1.6,0,0,0,.11.29,38.44,38.44,0,0,1-2.55,3.2c2.11-8.78,6-17,9.61-25.26a20.44,20.44,0,0,0,1.2-3.67c.22.26.6.4.82.1l.72-.94c.06.74.08,1.47.08,2.2A.27.27,0,0,0,216.37,188.47Zm.27-4.66a.41.41,0,0,0-.47.5.34.34,0,0,1,0,.1c-.39.51-.78,1-1.14,1.55a21.38,21.38,0,0,0,.29-2.29,2.48,2.48,0,0,0-.06-.69.28.28,0,0,0,.32.1,14.2,14.2,0,0,0,3.6-2.18h.07l.13-.07A34.05,34.05,0,0,0,216.64,183.81Zm13.44-10.52c-.84.46-1.64.94-2.43,1.42-1.08.44-2.13.92-3.17,1.43l1.75-2c.33-.37-.25-1-.65-.7-1.38,1.17-2.8,2.25-4.12,3.52l-.48.45-.24.1-1.62.5c-.25.07-.52.14-.77.23-.14-.3-.49-.49-.75-.21l-2.09,2.31-.72.76c-.26-1.08-.35-2.14.55-2.65a150.23,150.23,0,0,1,15.85-7.8,8.56,8.56,0,0,0,.94.63A5.74,5.74,0,0,1,230.08,173.29Zm3.56-4.86c-.51.19-1,.4-1.51.6,1.88-3.82,3.43-7.78,5.14-11.67l3.28-.15a38.77,38.77,0,0,0-3.74,8.12,1.86,1.86,0,0,0-1,.35A6.64,6.64,0,0,0,233.64,168.43Zm2.89-2.21c-.13.43-.24.86-.35,1.29-.36.13-.73.25-1.09.39A3.06,3.06,0,0,1,236.53,166.22Zm-2.38,4.95-.21-.08c.17-.47.35-1.05.55-1.65a5.7,5.7,0,0,0,1.3,1.82Zm4.39,9.93-.93.53a.54.54,0,0,0-.25-.15.48.48,0,0,0-.11-.42l.74-.6c1-.87,2.06-1.78,3.06-2.7,2-1.16,4-2.32,6-3.51.68,0,1.37-.05,2.05-.1C247.53,177.38,241.1,179.65,238.54,181.1ZM249.78,171a83,83,0,0,1-11.59.38,6,6,0,0,1-2.88-2.38l.58-.22c0,.14-.08.28-.1.42-.1.48.68.82.83.3s.23-.76.35-1.14q2.29-.89,4.61-1.71a22.65,22.65,0,0,0-.43,2.64c0,.34.39.49.54.17a28.82,28.82,0,0,0,1.38-3.88l2.69-.07-.89,1.75c-.58,1.12-.36,3.07,1.27,2.27a.42.42,0,0,0,.26-.46c0-.11,0-.22,0-.34,0-.27-.45-.62-.61-.23.41-1,.85-2,1.3-3,1.45-.06,2.91-.13,4.36-.22-.47,1.28-.95,2.55-1.43,3.82-.16.44.42.95.8.61a16.48,16.48,0,0,0,1.69-1.76c.21-.23,0-.81-.37-.58-.19.12-.37.25-.55.38l.93-2.53c1.34-.09,2.68-.19,4-.31a46.83,46.83,0,0,0-1.87,5,.72.72,0,0,0,0,.41l-1.31.27c-.27.05-.55.08-.83.12a.51.51,0,0,0-.68-.51C251.13,170.38,250.46,170.68,249.78,171Zm1.69,1.63-1.49.07a1,1,0,0,0,0-.17h0l.22-.13a72.35,72.35,0,0,0,12.05-2.3,53.6,53.6,0,0,1-10.68,2.54Zm8.33-.77a42,42,0,0,0,5.1-2.22.28.28,0,0,0,.09-.37l.57-.19a18.51,18.51,0,0,1-.87,1.8l-.16,0A45,45,0,0,1,259.8,171.84Zm3.19,1.32a.48.48,0,0,0,0-.55l.76-.17a42.42,42.42,0,0,1-2.74,3.75C261.67,175.16,262.33,174.14,263,173.16ZM252.67,188l.33-.37-2.85,5.56c-.33.66-.79,1.37-1.19,2.1A34.09,34.09,0,0,1,252.67,188Zm-3.08,18a9.72,9.72,0,0,1-1.07-2.2,1.19,1.19,0,0,0,0-.66.37.37,0,0,0-.33-.3c0-.18-.05-.37-.08-.55.54-1.17,1.61-3.11,2.71-5A24.8,24.8,0,0,0,249.59,206Zm4.39,6.74a2.81,2.81,0,0,1-1.16.3,5.86,5.86,0,0,1,.23-1.83l1,.66A6.4,6.4,0,0,0,254,212.72Zm1.71,2.16a2.3,2.3,0,0,1-.62-1.84,1.42,1.42,0,0,0,.12-.4,19.53,19.53,0,0,1,2.78,2.52A2.06,2.06,0,0,1,255.69,214.88Zm3.12-6.21c2.64,4.54,4.3,9.34,6.06,14.12-.15-.26-.3-.52-.44-.78l-1.24-2.31a12.55,12.55,0,0,0-2.15-4l-.64-1.2a.49.49,0,0,0-.7-.24,30.56,30.56,0,0,0-4.26-3.3c0-.16.09-.31.13-.44a.6.6,0,0,0-1.15-.31s0,0,0,0l-.67-.45a5.76,5.76,0,0,1,.6-.8c.45-.49-.33-1.36-.81-.84a7,7,0,0,0-.75,1l-.23-.16a11.57,11.57,0,0,1-1.34-1.1,10.32,10.32,0,0,1,.35-1.67l.93-.46c.2-.09.18-.52-.08-.48l-.58.08a10.85,10.85,0,0,1,2.44-3.88c.42-.44-.23-1.29-.69-.82a12.55,12.55,0,0,0-2.76,4.21,30.06,30.06,0,0,1,2.25-10.37.66.66,0,0,0-.17-.69l1-1.65C252.18,198.31,255.54,203,258.81,208.67Zm-4.33-18.34c-.13.32-.23.63-.34.93-.14-.34-.58-.56-.81-.17l-3.84,6.51-.14.2h0l0,0c.57-1.94,4.8-10.08,5.24-11a.6.6,0,0,0-.17-.69c1.63-1.59,3.33-3.11,5.11-4.53.5-.4-.21-1.23-.74-.83s-1,.79-1.49,1.2c.08-.13.17-.25.25-.37.71-.83,1.39-1.58,2-2.23a37.62,37.62,0,0,0,5.82-7.26c.95-.18,2-.4,3-.68C263.4,177,257.26,183.73,254.48,190.33Zm11.61-19.78a15.18,15.18,0,0,0,.62-1.87c.85-.3,1.71-.6,2.56-.93a.53.53,0,0,0,.23-.18.83.83,0,0,0,.06.35c-.77.41-1.61.68-2.45,1.09-.3.15-.17.69.12.75a4.65,4.65,0,0,0,3.94-1.4l-.06.2c-.08.24.15.53.39.35C270.4,169.72,268,170.17,266.09,170.55Zm9.23-2.77a2.41,2.41,0,0,0-.58,1.07c-1,.34-2,.66-3,.93a2.79,2.79,0,0,0,.7-.95.56.56,0,0,0-.29-.66l-.5-.2h-.06c.13-.13.25-.27.36-.4a6.52,6.52,0,0,0,1.18-2.14l.18-.23A17.84,17.84,0,0,0,273,167c-.07.65.74,1.35,1.3.77a17.06,17.06,0,0,0,3.2-4.26.41.41,0,0,0,.61.25c-.33,1-.62,2-.89,3-.22.36-.44.72-.67,1.08a1.46,1.46,0,0,0-.5.29A.43.43,0,0,0,275.32,167.78Zm7.34,2,.22-.29a4.18,4.18,0,0,0-.09.71.65.65,0,0,0,.1.34c-.22.06-.45.13-.68.17.12,0-5.14.56-6.38-.71a.36.36,0,0,0,.53-.09l.39-.65.48-.16c0-.18,0-.36-.06-.54q1.51-2.49,3-5l0,0,0-.13c.55-.93,1.09-1.86,1.63-2.79,0,.22.07.45.11.67a.22.22,0,0,0-.28.16,18.75,18.75,0,0,1-1,1.9l.2-.07,1-.2c.09-.27.19-.54.26-.83l.15.75.35-.08-2.16,4.5c-.26.53.4,1.15.82.62l1.62-2.09c-.52,1-1,2.06-1.46,3.13C281.21,169.78,282.22,170.41,282.66,169.81Zm-.05-23.1c-.25-4.43-.5-8.87-.84-13.3h.16a.08.08,0,0,0,0,0l.66,2.3a9.92,9.92,0,0,0,.55,1.7c0,1.71,0,3.41.14,5.1,0,.41.64.62.81.21.13,2.29.27,4.59.46,6.89-.51.93-1,1.86-1.54,2.82C282.88,150.53,282.71,148.61,282.61,146.71Zm.56,15.47c.07-.77.13-1.54.14-2.32.47-.14.94-.3,1.42-.46-.27,1-.5,2-.68,3a.79.79,0,0,0,0,.34l.16,0-.86,1.11c.12-.27.25-.54.38-.8C284,162.58,283.51,162.08,283.17,162.18Zm6.61,2.61a10,10,0,0,1-5.22,5.2c-.17.08-.35.14-.53.21l4.65-7.94c.36,0,.71-.06,1.07-.07.3-.25.58-.52.87-.78A14.8,14.8,0,0,1,289.78,164.79Zm.2-14.08.61-1c.41-.68-.57-1.42-1.14-1q-.4-1.59-.78-3.18c-.57-2.47-1.05-5-1.53-7.45-.07-.36-.3-1.16-.54-1.94a.29.29,0,0,0,.16-.34v0a7.43,7.43,0,0,0,1.91-2.58l1.26,0h1.58l-.61,1a17.79,17.79,0,0,0-2.24,4.07c-.09.33.29.65.56.4a17.21,17.21,0,0,0,2.59-3.85l1-1.6H294a9.53,9.53,0,0,0-1.57,2.78c-.07.24.22.66.48.45a12.37,12.37,0,0,0,2.29-3.06l.11-.16c.91,0,1.82.06,2.73.1-.68,2.18-1.59,4.29-2.18,6.5-.1.37.4.73.67.4a14.17,14.17,0,0,0,1.82-2.9c-.09,1.65-.17,3.31-.21,5a.52.52,0,0,0-.11.1A85.44,85.44,0,0,0,291,154.85C290.7,153.47,290.35,152.09,290,150.71Zm2.5,18.54a3.52,3.52,0,0,1-1.38-1.71l.07-.09a17.65,17.65,0,0,0,2.07-2.86l1.57-2.3,1,.09q-1.05,2-2.09,4a.27.27,0,0,0-.15.11,14.32,14.32,0,0,0-1.11,2.34A.61.61,0,0,0,292.48,169.25Zm5.7-.49a3.51,3.51,0,0,1-.79.65,1.41,1.41,0,0,1,.34-.6c.11-.2.23-.39.35-.59a.31.31,0,0,0,.2.11h.22C298.4,168.47,298.3,168.62,298.18,168.76Zm1.86-5.62-2.72,4.43a6.36,6.36,0,0,0-1,2.3,4.94,4.94,0,0,1-3.08-.22.57.57,0,0,0,.16-.18c1.21-2.19,2.36-4.42,3.54-6.63a.48.48,0,0,0,0-.37l1.3.1c.62.07,1.21.11,1.8.14C300.05,162.85,300.05,163,300,163.14Zm0-15.78c0,.12-.09.25-.14.37-.16-4.1-.13-8.2,0-12.31,0,0,0-.06,0-.1a19.7,19.7,0,0,1,.35-1.95l1.48.07A124.52,124.52,0,0,0,300.09,147.36Zm.36,21.76a11.79,11.79,0,0,0,.63-1c.13-.25.25-.53.37-.82a8,8,0,0,0,1.88-2.34,6.67,6.67,0,0,0,.7-2.16c.12,0,.24,0,.37,0a.89.89,0,0,0-.33-.31,6.86,6.86,0,0,0,0-1.11,18.16,18.16,0,0,0,2-2.07c-.51,1-1,2-1.49,2.95a.71.71,0,0,0,0,.53c.83,0,1.65-.09,2.47-.17a8,8,0,0,0,3.68-5.72c0-.37-.51-.79-.69-.32a9.22,9.22,0,0,1-2.65,4c1.39-2.78,2.68-5.6,4-8.42l2.18-.32c.11.49.2,1,.32,1.48a56.49,56.49,0,0,0-3.69,6.53c-1.21,1.54-2.45,3.06-3.7,4.57l-3,3.59c-1.08,1.31,1-2.3,1.13-2.7.21-.6-.75-1-1-.38l-1.69,5a.5.5,0,0,0,.85.51c2-2.56,4.29-5.41,6.17-8.1l.24,0c-1.82,3.14-3.64,6.28-5.43,9.43A7.26,7.26,0,0,1,300.45,169.12Zm8.71-7.09v0h0Zm-1.94,10.25-.63-.06a10.6,10.6,0,0,0,1.47-1.38Zm3.81-1.11a.75.75,0,0,0-.07.83,1.69,1.69,0,0,0-.23.49l-1.42-.08c.68-.64,1.36-1.29,2-1.94a.48.48,0,0,0,.1.17Zm.42-2.46-.45.21c.28-.46.54-.92.82-1.38.1.19.21.36.32.53Zm2.21,1.69h0S313.64,170.43,313.66,170.4Zm.58-5.51a.78.78,0,0,0,0,.22v1c-.31.31-.61.63-.93.93l-1-.17c.7-1.17,1.39-2.35,2.07-3.53C314.28,163.84,314.25,164.37,314.24,164.89Zm.59-9c-.1.84-.26,2.68-.64,4.45a8.8,8.8,0,0,1-1.9,1.42c.47-.09,1-.2,1.44-.31-2.24,3.45-5.14,7.9-8.12,9.79q2.52-4.59,5-9.2l.62-.1a69,69,0,0,1,3.14-6.69c.21.15.54.08.51-.25l-.06-.57.2-.36C315,154.72,314.9,155.33,314.83,155.93Zm.53-5.66-1,.17c-.68-4.9-1.66-9.8-2.59-14.67.24-.47.49-.94.74-1.41l.85.1c0,.38-.08.76-.11,1.15a.49.49,0,0,0,.87.38,8.66,8.66,0,0,0,.84-1.35l.3,0,.12,1a7.76,7.76,0,0,0-1,4.26c0,.26.36.6.6.3a5.66,5.66,0,0,0,.55-.88c0,1.17,0,2.22,0,3A74.05,74.05,0,0,1,315.36,150.27Zm.18,10.86v0l.19,0,0-.07v.07l1.13-.26c.82-.18,1.66-.32,2.49-.42-1.19,1.43-2.42,2.83-3.7,4.18C315.64,163.42,315.59,162.28,315.54,161.13Zm.39,6.33.5-.65c1.44-1.92,2.84-3.86,4.24-5.81-1.46,2.22-3,4.37-4.64,6.48Zm6.13-5a16.42,16.42,0,0,0,2.06-2.3l1.23,0c-.28.3-.55.6-.82.91l-3,3.27C317.78,168.5,321.48,163,322.06,162.45Zm-1.38,4.87a5.16,5.16,0,0,0,2.15,1.14,4.51,4.51,0,0,1-1.09,0l-1.77-.3Zm-2.32.54-.44-.07.3-.47C318.26,167.49,318.31,167.68,318.36,167.86Zm-2.25,2.38c.43-.49.84-1,1.24-1.6l6.1,1.11C321.05,170.41,318.76,170.94,316.11,170.24Zm7.32-2.87c-.66.44-1.58-.31-2.12-.77l3.65-4.15c-.59.91-1.17,1.83-1.73,2.76a.68.68,0,0,0,0,.69l-.1,0c-.16.11-.08.41.13.36C323.82,166.17,323.76,167.15,323.43,167.37Zm.78.64a2,2,0,0,0,.24-.36,1.64,1.64,0,0,0-.25-1.45l0,0c.6-.48,1.16-1,1.72-1.48a.66.66,0,0,0,.06.2A4.7,4.7,0,0,1,324.21,168Zm1.67-14.85c-.54.68-1.06,1.4-1.55,2.13a.46.46,0,0,0-.26.22c-.47.81-1,1.61-1.44,2.4l-.69.09a2.73,2.73,0,0,1,.82-.67c.38-.2.08-.84-.32-.75a2.9,2.9,0,0,0-2,1.66,6.55,6.55,0,0,0-1.17.29c.77-1.14,1.55-2.27,2.33-3.41a11.2,11.2,0,0,0,2.15-4.83l2.34-.39C326,151,325.92,152.07,325.88,153.16Zm.28-4.77-2.64.45a3.09,3.09,0,0,0-1.86-1.74c-.65-.26-.85.76-.27,1a2,2,0,0,1,1.09.91l-4.77.83c.84-1.19,1.72-2.37,2.66-3.49.39-.46-.26-1.31-.68-.82-.78.9-1.52,1.82-2.25,2.74a61.56,61.56,0,0,0-.38-12.54c.13-.27.28-.53.43-.79,1.41.18,2.81.36,4.22.56a6,6,0,0,0-.52,2.9c0,.24.39.43.56.21a10.62,10.62,0,0,0,1.19-2.44c.13-.15.24-.3.36-.45.91.13,1.81.25,2.71.39A28.51,28.51,0,0,0,324.6,139c-.1.26.25.63.48.38.56-.62,1.09-1.28,1.61-2,0,1.69,0,3.37.07,5Q326.39,145.42,326.16,148.39Zm1.3,8.5c-.12.08-.23.17-.35.24.12-.95.24-1.9.35-2.86.11-.14.24-.29.35-.44C327.68,154.85,327.56,155.87,327.46,156.89Zm-.58-27.24-.76.18c.48-1,.95-2,1.42-2.94.1.5.2,1,.28,1.5Zm43.83,33.22-2.95,5.67a28.76,28.76,0,0,0-3.19-.84l.46-.89c.46-.38.9-.77,1.34-1.18a.58.58,0,0,0-.23-.92c.18-.35.39-.69.58-1,0,.21,0,.42,0,.62a.3.3,0,0,0,.59.07,17.14,17.14,0,0,0,.69-2.55c.94.2,1.89.37,2.86.49C370.82,162.49,370.77,162.68,370.71,162.87Zm18.62-21.67c-.07-.14-.16-.27-.23-.42a6.25,6.25,0,0,1,2.11-4.42,5.32,5.32,0,0,0-.07,1C390.25,138,389.67,139.37,389.33,141.2Zm-1-5.31a3.89,3.89,0,0,0,1.51.22,7.79,7.79,0,0,0-1.56,2.51c0-.12-.05-.25-.08-.38a.53.53,0,0,0-.8-.36c-.09-.13-.17-.26-.24-.38A5.18,5.18,0,0,0,388.34,135.89Zm-1.85.55c-.11-.17-.22-.33-.34-.49.08-.3.17-.59.26-.88l1,.46A5.76,5.76,0,0,1,386.49,136.44Zm5.71,5.72a46.88,46.88,0,0,1-.75,6.78c-.37,2.33-.37,2.78-.54,1.94,0-1.16,0-2.32,0-3.48.55-.25.63-.44.92-1.29a.79.79,0,0,0-.23-.73c-.17-.16-.33-.33-.49-.5a.43.43,0,0,0-.16-.09c0-.47.14-1.19.26-1.94a.35.35,0,0,0,.08-.47C391.7,140.14,392.25,138.09,392.2,142.16Zm-5-26.38a3,3,0,0,1-.17.44.94.94,0,0,0,1.38,1.2s0,0,0,0a12.81,12.81,0,0,0,2,3.31,22.29,22.29,0,0,0,2.34,2.42,12.83,12.83,0,0,0,.78,6c-.33.43-.69.89-1.06,1.4-1.4,1.93-2.74,4-5.36,2.34a21.85,21.85,0,0,1,2.09-3.93c.42-.63-.54-1.51-1-.86a27.08,27.08,0,0,0-2.39,4,4.3,4.3,0,0,0-1.29-.47,7,7,0,0,0-2.1,0,13.07,13.07,0,0,0-1-8.24,6,6,0,0,0,1-4.36c.6-.88,1.18-1.76,1.7-2.65a.52.52,0,0,0,0-.42c.31-.34.64-.67.94-1,.38,0,.75,0,1.13,0Zm-6.73,8.86c.12-.12.23-.25.34-.38a11.1,11.1,0,0,1,.31,7.19c-.25-.15-.49-.31-.75-.44a9,9,0,0,0-2.61-.85A22.08,22.08,0,0,1,380.5,124.64ZM376.31,130c-1.08-.08-2.18-.07-3.24-.07.78-.74,1.55-1.51,2.31-2.3a12,12,0,0,0,2.57-1.06A22.5,22.5,0,0,0,376.31,130Zm9.49-27.36a31.93,31.93,0,0,0-1,3.59c-.29-.81-.58-1.72-.91-2.61A11.69,11.69,0,0,1,385.8,102.62Zm-1.3,8.69.55,1.45a6.53,6.53,0,0,0-.75.17.38.38,0,0,0,0,.71l.3.18c-.06.05-.12.11-.18.15l-.18,0a.4.4,0,0,0-.35.4c-1.35,1.08-2.66,2.2-3.95,3.36a51.09,51.09,0,0,0,2.88-6.63A1.52,1.52,0,0,0,384.5,111.31Zm-19,9.47,1.47-1.85c2.93-3.66,6-7.28,8.67-11.13a.35.35,0,0,0-.33-.52,17.83,17.83,0,0,0,1.45-2.77.52.52,0,0,0-.25-.63,19.6,19.6,0,0,1,3.91-2.1c.3.76.63,1.5,1,2.25a.77.77,0,0,0,.31.68c.26.55.54,1.11.81,1.66.08.15.34.71.62,1.36a81.84,81.84,0,0,1-6.1,12.72L375.32,122a.44.44,0,0,0-.63.1c-.3.44-.6.88-.88,1.33q-1.5,1.44-3,2.85a80.16,80.16,0,0,0,2.53-7.73A49,49,0,0,0,380,105.17c.12-.37-.46-.73-.62-.33a54.74,54.74,0,0,1-5.14,9.75c-.21-.31-.71-.42-.84,0-.21.73-.44,1.45-.68,2.17-1.59,2.24-3.31,4.43-5.16,6.69,1.79-3.26,3.46-6.59,5.08-9.72.19-.37-.38-.91-.65-.5a174.24,174.24,0,0,0-9.44,15.27A31.91,31.91,0,0,1,365.48,120.78Zm5,6.37a1.14,1.14,0,0,0,1,.83h.13c-.24.64-.46,1.28-.64,1.93l-1.75,0C369.63,129.05,370.06,128.11,370.46,127.15Zm-2.53,2.8c-1.41,0-2.83.05-4.24.09,1-1.54,2-3.16,2.92-4.8a.27.27,0,0,0,.38,0,27.94,27.94,0,0,0,4.06-3.8C370,124.27,368.81,127.08,367.93,130Zm-2.38,2.43a.78.78,0,0,0,.4,1.44c1.49-.14,2.9-.22,4.29-.25a.54.54,0,0,0,.61.41c.54-.11,1-.25,1.56-.4.64,0,1.27,0,1.9.1a.76.76,0,0,0-.08.11c-1.37,3.32-3,6.62-4.08,10-.2.6.66,1.34,1.09.71a12.28,12.28,0,0,0,1-1.59.46.46,0,0,0,0-.41c1.14-2.57,2.12-5.24,3.17-7.84a.6.6,0,0,0,1,.31c.18-.19.35-.39.52-.59a5.74,5.74,0,0,0,2.51,0l.42.11c-.12.63.77,1.32,1.26.76l.29-.34c.6.18,1.21.37,1.83.59a13.73,13.73,0,0,1,1.05,1.22l-.12.58a.87.87,0,0,0,.5.89l-2,3.8c-.87,1.62-2.09,3.29-2.43,5.12-.06.3.27.67.55.39,1.33-1.3,2-3.27,2.86-4.9l2-3.89a24.3,24.3,0,0,1,1.2,2.2c-.1,6.08,4.58,12.08-1.86,16.72a9.43,9.43,0,0,1-2.08,1.05c-.3-.2-.69-.21-.82.22,0,0,0,0,0,.07a18.82,18.82,0,0,1-4.37.72,25.68,25.68,0,0,1,1.35-3.51c.29-.61-.66-1.28-1-.62a28.66,28.66,0,0,0-1.63,4.18c-1,0-2,0-3-.07l.1-.24,2.79-6.67c.23-.55-.59-1.24-.87-.62l-2.62,5.85c-.23.53-.49,1-.74,1.58-1-.09-2-.19-2.92-.31a.63.63,0,0,0-.41-.43,25.86,25.86,0,0,1,2.71-6c.31-.52-.49-1.19-.85-.62a29.93,29.93,0,0,0-3.23,6.78q-1.33-.19-2.61-.42c.59-.7,1.19-1.38,1.83-2,.42-.43-.21-1.27-.67-.82l-.31.34a26.67,26.67,0,0,1,4.05-5.66c.41-.45-.25-1.3-.69-.83a30.05,30.05,0,0,0-5.75,8.72l-3-.55c.41-1.13.83-2.24,1.27-3.3a.5.5,0,0,0-.54-.67c.14-.34.29-.68.45-1a.46.46,0,0,0-.62-.59,57,57,0,0,0-.51-7.86q-.37-4.56-.78-9.1c.12-.29.24-.6.37-.89a.47.47,0,0,0,.28-.58.14.14,0,0,1,0-.06c0-.09.07-.17.1-.25a.71.71,0,0,0-.43-.87c-.05-.13-.09-.26-.13-.39l1.16,0c-.22.51-.45,1-.65,1.52-.1.26.28.65.5.38.49-.6,1-1.22,1.43-1.86C363.25,132.35,364.4,132.38,365.55,132.38Zm-5.66-4.22c.4-.63.87-1.3,1.3-1.9a10.67,10.67,0,0,0,.21,3,.61.61,0,0,0,.62.44c-.07.15-.14.3-.22.45-.91,0-1.83.09-2.74.15a2.11,2.11,0,0,1,0-.25C359.31,129.39,359.61,128.78,359.89,128.16Zm-1.39,17.71.25,3.1a11.54,11.54,0,0,1,0,2,.94.94,0,0,0-.93.18C358.1,149.38,358.32,147.62,358.5,145.87Zm-2.39-16.05a2.21,2.21,0,0,1,.79.62l-1.55.14C355.6,130.32,355.85,130.07,356.11,129.82Zm-2.92-5.06a.49.49,0,0,0,.05.16.76.76,0,0,0,.76.43,3.2,3.2,0,0,0,1-.23,10.57,10.57,0,0,0,.62,2.46l-1.23.2c.23-.81-1.14-1.42-1.61-.56-.16.3-.33.6-.5.9l-1.06.17c-.38.17-.77.3-1.16.43,1.05-1.31,2.1-2.62,3.12-4Zm1.54,4.74a38.91,38.91,0,0,0-2.69,2.92q.72-1.44,1.44-2.85A8.11,8.11,0,0,1,354.73,129.5Zm-7.55,5.23c-.41,1-.81,1.93-1.22,2.89a6.79,6.79,0,0,0-.68,2c-.11-1.52-.24-3-.36-4.54,1.16-1.26,2.19-2.67,3.24-4l.71-.9,2.41-.34c-1.11,1.9-2.28,3.83-3.37,5.79l.14-.32C348.29,134.79,347.44,134.11,347.18,134.73Zm-1.84-4,1.54-.21c-.69.83-1.42,1.65-2.12,2.51,0-.32-.05-.65-.08-1Zm-1-.72a70.36,70.36,0,0,1,6.35-3.92c-.94,1.1-1.89,2.21-2.81,3.32A32.29,32.29,0,0,1,344.29,130Zm-1-2.32a.23.23,0,0,0,.43,0c.09-.17.15-.34.23-.51a18.67,18.67,0,0,1,8.31-3.56,57.84,57.84,0,0,0-9.1,5.91c-.07-.39-.14-.78-.2-1.15a.78.78,0,0,0-.14-.29ZM341.51,132c.17-.14.35-.26.52-.39l.06.23c.08.92.13,1.85.15,2.77l-.32.64c-.12-1-.26-2-.42-3C341.5,132.22,341.5,132.12,341.51,132Zm-2-6.58.47.46a.07.07,0,0,0,.06,0c.25,3.3.07,6.55.13,10,0,.34.46.55.59.15.07-.23.12-.47.18-.71.05.51.11,1,.15,1.53l-1.79,3.54c-.29.58.53,1.22.91.62s.7-1.07,1-1.6c.08,1.85.11,3.71.13,5.59,0,.42.55.52.61.07a37.54,37.54,0,0,0,.12-7.86l.15-.31c0,2.71-.06,5.43.16,8.18a.24.24,0,0,0,.47.1,15.34,15.34,0,0,0,.71-2.62l.15,2q.24,3.72.49,7.45a3.83,3.83,0,0,1-.83,2.61,18.23,18.23,0,0,0,0-2.56c.16-.21.31-.42.48-.63a.61.61,0,0,0,0-.66l.11-.16c.35-.49-.45-1.15-.84-.63-.16-1.08-.37-2.16-.61-3.19l0-.07.95-.21c.42-.1.25-.78-.17-.72-1.56.2-3.11.41-4.67.63l0,0a.29.29,0,0,0-.24-.06,2.16,2.16,0,0,0-.44.18c-2.07.3-4.13.62-6.2,1,0-.34,0-.67,0-1,.11-2.94.19-5.88.29-8.82l.6-.5,1.54.24a6.23,6.23,0,0,0-.44,3.54.31.31,0,0,0,.56.14,15.8,15.8,0,0,0,1.31-3.45l1.64.26c.35,0,.38-.5.07-.58-.48-.13-1-.23-1.44-.35a5,5,0,0,1,.24-.58,13.94,13.94,0,0,1,3.48-4.23c.52-.45-.31-1.32-.86-.85a17.92,17.92,0,0,0-4.22,5.32l-1-.25C336.42,133.46,338.29,129.22,339.53,125.44Zm-.2,22,2.35-.51a32.41,32.41,0,0,1,.7,4.15c-1.54,2.07-3.15,4.11-4.74,6.14a.43.43,0,0,0-.38.31c-.05.1-.07.21-.11.31L337,158c.49-1.41.93-2.83,1.34-4.23C338.84,152,340,149.28,339.33,147.41Zm1,9.51a36.54,36.54,0,0,1,2.12-3.55,18,18,0,0,1-.18,2.19.42.42,0,0,0-.61.1L340.55,157l-.21.14C340.35,157.06,340.35,157,340.36,156.92Zm-2.08-32.63c.33-.11.65-.25,1-.38a.37.37,0,0,0-.08.14,44.2,44.2,0,0,1-3.37,7,44.31,44.31,0,0,1-2.91,4,17,17,0,0,1,.93-1.86,20.87,20.87,0,0,1,2.13-2.91,5.69,5.69,0,0,1-1.12-.32,24.42,24.42,0,0,0-2.6,3.6l.09-2.5q.53-.54,1.05-1.11l.69-.37-.21-.14C335.39,127.76,336.86,126,338.28,124.29ZM331.81,127c.81-.45,1.61-.87,2.45-1.26.35-.16.7-.29,1.06-.42-.77.77-1.53,1.53-2.28,2.33l-.62.65a.43.43,0,0,1,0-.07l0,0c-.6.18-1.21.34-1.82.51A15.31,15.31,0,0,1,331.81,127ZM330,133.26c.21-.19.42-.36.62-.55l-.12,2.94-.54-.11C330,134.78,330,134,330,133.26Zm-1.81,27.41,0-.32h.25Zm.3-12.67c0-.68,0-1.35-.07-2l.18-1.58a36.39,36.39,0,0,0,1.31-7.68l.55.08-.12,2.93a.46.46,0,0,0-.07.14q-.88,4-1.58,8.1Zm.23,7.65c.14-1.17.31-2.32.48-3.48a.8.8,0,0,0,.05-.43q.18-1.23.39-2.46l.56-.1C330.14,151.56,329.84,154,328.72,155.65ZM330,161a.43.43,0,0,0-.21-.15l2.09-3.14c.33-.51-.56-1.27-.92-.73l-.1.15c-.3.46-.61.9-.92,1.33.22-.63.45-1.26.68-1.89l.77-1.2a.68.68,0,0,0,0-.76c.5-1.36,1-2.72,1.54-4.06.2-.51-.69-1.06-.92-.5-.09.22-.19.43-.28.65,0-.6,0-1.21.05-1.82,2.21-.4,4.42-.82,6.62-1.28-.1,1.7-2.44,7.53-2.68,8.22-.16.48-.34.95-.52,1.42l-3.66,5.07A5.92,5.92,0,0,1,330,161Zm-.46,6.46a.45.45,0,0,0,.14-.1l.12-.14h0c.45-.51.88-1,1.32-1.53a9.38,9.38,0,0,0,2.51,2.27A29.5,29.5,0,0,1,329.55,167.48Zm6.84-2.43-.78,1.52-.33-.2a.49.49,0,1,0-.5.85l.38.24a.41.41,0,0,0-.05.09,9.26,9.26,0,0,1-3.3-2.63l.84-1a7.37,7.37,0,0,0,3.76.14.33.33,0,0,0-.11.27Zm1.52-2.76a7.09,7.09,0,0,1-4.53.76l.94-1.13c.14-.16-.05-.51-.24-.34l-.49.42.87-1.23c.75,0,1.5.06,2.25.08,0,.29,0,.58.08.89s.54.65.8.34.71-.83,1.05-1.25h.09C338.45,161.31,338.18,161.8,337.91,162.29Zm1,3c-.27-.14-.55-.29-.81-.45l1-1.88a1.37,1.37,0,0,0,.2-.13,9.59,9.59,0,0,0,2.34-2.43c0,.11,0,.21,0,.32l.59-.08a12.67,12.67,0,0,1-.49,1.73c-.08.14-.15.29-.22.44A17.66,17.66,0,0,1,338.9,165.25Zm7.06,2.24a2,2,0,0,0-.63,1.32c-.36,0-.73,0-1.1,0h-.06a8,8,0,0,1-1.23-1.11,5,5,0,0,0-.4-.4,5.11,5.11,0,0,0,2.74,0l.76.16Zm2.45,2.57h0a6.91,6.91,0,0,1-1.87-.19c.12,0,.25,0,.38,0l.24,0c.52-.06,1-.14,1.54-.25C348.6,169.73,348.5,169.89,348.41,170.06ZM347,168.6c.27-.28.52-.56.76-.86l.09,0C347.6,168,347.31,168.31,347,168.6Zm1.56-2a13.81,13.81,0,0,0,2-6.35c.05-.71-1.06-1.12-1.15-.31a13.06,13.06,0,0,1-.61,2.83,3.11,3.11,0,0,1-1.39,1c.47-.87.92-1.75,1.37-2.63.25-.48-.53-1-.79-.41-.53,1.11-1.11,2.22-1.56,3.37-.1.24,0,.65.37.57a3.76,3.76,0,0,0,1.59-.84,12.16,12.16,0,0,1-1.51,2.54l-1.07-.19a5.67,5.67,0,0,0,.24-3.66.24.24,0,0,0-.48.05c-.09,3.6-1.06,4.09-3.93,3.58a7.14,7.14,0,0,0,2.1-4.71c.27-.42.53-.85.77-1.3a19.78,19.78,0,0,0,3.29-1l.19-.07c.28-.58.49-1.07.63-1.37a.45.45,0,0,0-.71-.51,20.72,20.72,0,0,0-1.8,2.19c-.42,0-.83,0-1.24.05.13-.26.27-.52.39-.79a.63.63,0,0,0-.32-.81l.76-1.22a53.26,53.26,0,0,1,5.64-7.79c.43-.48-.29-1.34-.76-.83-1.44,1.56-2.85,3.12-4.19,4.75.28-2.62-.61-6-.77-8.11,0-.33-.05-.67-.07-1,.2-.27.4-.56.6-.85a7.28,7.28,0,0,0-.15,1.6.27.27,0,0,0,.48.15c1.75-2.08,2.48-5.21,3.87-7.58a32,32,0,0,1,4.42-5.8l2.43.16a.6.6,0,0,0,0,.61c-.13.37-.25.73-.36,1.1s.52,1,.74.42c0-.09.07-.17.1-.25.05.81.05,1.7.07,2.61-1.3,2.43-2.74,4.77-4.29,7.09-.33.51.28,1.15.78,1.15,1,0,2.38-.33,2-1.58a.32.32,0,0,0-.44-.24c.66-1,1.29-2.06,1.86-3.13-.34,4.58-.86,9.13-1.43,13.71a44.12,44.12,0,0,0-3.36,4.52l-.69,1c-.54.17-1.1.3-1.67.42a4.24,4.24,0,0,1,2.92,2.3c.23-.45.44-.9.64-1.35.12,0,.25,0,.37-.09.12.32.26.73.41,1.18-1.9,2-3.91,3.92-5.89,5.83Zm.86,1.62-.13,0,.06-.06.16-.18h0Zm.92,1.53c.49-.48,1-.95,1.51-1.41l.12-.06c.4,0,.79.07,1.19.09A9.24,9.24,0,0,1,350.37,169.76Zm5-2.89h-1.57a18,18,0,0,1,1.93-1.17C355.6,166.09,355.46,166.48,355.36,166.87Zm.62-2c-1.22.66-2.4,1.3-3.52,2l-.72,0c1.08-1.73,2.22-3.43,3.46-5.08.28.89.58,1.87.87,2.79C356,164.63,356,164.73,356,164.83Zm1.17-3.07c-.32-.82-.65-1.64-1-2.47,0-.07-.06-.12-.08-.18a10.43,10.43,0,0,0,2.06-1,.56.56,0,0,0,.22.28c-.1.43-.18.85-.25,1.27C357.79,160.34,357.46,161.05,357.15,161.76Zm1.89,4.38c-.39-.8-.76-1.62-1.11-2.45.71-1.61,1.33-3.29,1.94-4.95l.86.2a.62.62,0,0,0,.28.34c.43.24.89.47,1.36.69A25.09,25.09,0,0,0,359,166.14Zm2.62,3h.19l-.46.85A22.69,22.69,0,0,1,360,168a26.77,26.77,0,0,1,1.11-3.46,19.79,19.79,0,0,1,1-2.07,10.89,10.89,0,0,0-.05,1.8c0,.38.47.54.63.15a36,36,0,0,0,1.16-3.79,28.31,28.31,0,0,0,2.74.88c-.95,1.44-1.9,2.89-2.82,4.37-.89.52-1.76,1.07-2.65,1.63A.93.93,0,0,0,361.66,169.18Zm.91,2.34q.58-1.08,1.14-2.16a22.83,22.83,0,0,1,3.25.75c-.69,1.33-1.35,2.68-2,4C364.14,173.29,363.34,172.41,362.57,171.52Zm5.22,5.35-1.05-1c.13-.1.27-.19.4-.31.28-.26-.06-.81-.41-.7l-.66.22c.74-1.53,1.48-3.06,2.2-4.6l2.35.78A53.1,53.1,0,0,0,367.79,176.87Zm4.55,1.1c-.3.51-.67,1.07-1,1.67l-.42-.29c.63-.69,1.26-1.38,1.88-2.08Zm1.31-2.17a.2.2,0,0,0-.31,0c-1.11,1-2.18,2-3.25,3l-.81-.65a67.56,67.56,0,0,1,3-6.3,23.27,23.27,0,0,0,3.29.72C375,173.63,374.31,174.72,373.65,175.8ZM224.76,139.61l3.78-1.29a13.9,13.9,0,0,0,3.74-1.45c.26-.18.17-.66-.19-.63a12.41,12.41,0,0,0-3.27,1.07L224.54,139C224.21,139.07,224.42,139.72,224.76,139.61Zm-8.41,30.49q-1.54,2.34-3.08,4.68c-.3.45.33,1.11.76.72a21.66,21.66,0,0,0,2.48-2.59c.18-.23,0-.8-.34-.57l-.21.15,1.14-1.78C217.4,170.24,216.69,169.58,216.35,170.1Zm86.13-46.59c4.34-3.4,8.82-3.7,14.07-3,.34,0,.41-.5.12-.62-4.85-2-10.66-.23-14.59,2.9C301.72,123.09,302.1,123.81,302.48,123.51Zm-5.43,40.57-.8,2.6c-.13.42.48.69.64.24.29-.81.58-1.62.88-2.42C297.94,164,297.21,163.55,297.05,164.08Zm-9.6-34.55a4.7,4.7,0,0,0,2.31-2,8.58,8.58,0,0,0,1.44-3.2c.15-.62-.83-1.07-1-.37a8.66,8.66,0,0,1-1.13,2.7c-.55.87-1.47,1.43-2,2.3C287,129.21,287.15,129.6,287.45,129.53Zm6.07-.9,1.76-2.49c.34-.47-.43-1.15-.77-.62L292.93,128C292.68,128.44,293.21,129.08,293.52,128.63Zm30.14-.48a10.62,10.62,0,0,1-1,2.88,3.56,3.56,0,0,0-1.45,2.16c-.07.37.39,1,.77.6a11,11,0,0,0,2.66-5.27C324.75,127.91,323.79,127.46,323.66,128.15Z"/></g></g></svg>