<svg xmlns="http://www.w3.org/2000/svg" viewBox="0 0 485.87 143.41"><defs><style>.cls-1{fill:#1a1c14;}</style></defs><g id="Layer_2" data-name="Layer 2"><g id="Layer_2-2" data-name="Layer 2"><path class="cls-1" d="M357.2,101.29c-.33.34-.68.67-1,1,0,0,0,.11.06.07.36-.29.68-.64,1-1C357.38,101.36,357.28,101.2,357.2,101.29Zm9.19-5.58h0a.51.51,0,0,0-.28,0,18.49,18.49,0,0,0-4.2,1.39l-.48-.2c-.46-.17-.62.39-.39.69l.11.12a.74.74,0,0,0,.84.88c1,.91,2.31,1.66,3.36,2.44a.65.65,0,0,0,1.06-.59,6,6,0,0,1-.08-.83,1,1,0,0,0,0-.52,4.4,4.4,0,0,1,.88-2.3C367.64,96.21,367,95.52,366.39,95.71Zm42.53-9.95a9.63,9.63,0,0,0-6.76.93.72.72,0,0,0-.25.24c-.34-.15-.52.24-.43.52a3.32,3.32,0,0,0,.56,1,.79.79,0,0,0,.62.68A13,13,0,0,0,405.8,91a.66.66,0,0,0,.88-.41,6.67,6.67,0,0,1,1-2,5.23,5.23,0,0,0,.93-1,7.74,7.74,0,0,1,.69-.57C409.77,86.65,409.39,85.86,408.92,85.76ZM182.75,34.51c-.14.21-.3.4-.42.61-.31.52.39,1.17.86.78l.27-.24a.31.31,0,0,0,.33-.3A77.4,77.4,0,0,0,190,28.13c.85-1,2.63-3.1.85-4.12-.39-.22-.64.41-.33.65.77.59-3.27,4.6-3.8,5.2-.85,1-1.78,1.94-2.64,2.94a12.69,12.69,0,0,1,2-4.73c1.26-2,2.42-3.84,2.62-6.23,0-.33-.49-.46-.55-.11C187.43,25.57,181.31,30.27,182.75,34.51Zm-101,77.4s.06-.1,0-.1S81.69,111.91,81.75,111.91Zm60,9.45v.5a0,0,0,0,0,.06,0v-.5A0,0,0,0,0,141.72,121.36ZM67.21,72.85q-1.3,4.74-2.62,9.47a0,0,0,1,0,0,0l2.64-9.46C67.29,72.82,67.22,72.8,67.21,72.85ZM78.69,63.3a95.15,95.15,0,0,0-4.69,16,.09.09,0,0,0,.18,0A129,129,0,0,1,79,63.48C79,63.28,78.77,63.09,78.69,63.3ZM485.41,29.24C480,36.06,474.85,43.05,469.63,50q0-.32.06-.63c0-.44-.64-.65-.67-.15a7,7,0,0,1-.79,2.65L465.15,56c-1.73,1.8-3.67,3.42-5,4.76a121.69,121.69,0,0,1-10,8.55h0a113,113,0,0,1-9.8,6.77,40.19,40.19,0,0,0-4.71,1.71,94.39,94.39,0,0,0,13.73-9.53c7.83-6.37,15.52-13.73,21.45-21.91a.28.28,0,0,0-.08-.38,12.5,12.5,0,0,0,1-1.95c.1-.26-.26-.5-.42-.26s-.34.5-.52.74a.35.35,0,0,0-.54-.23C462.62,50.1,455.11,56,447.5,61.82c-6.4,4.88-12.74,10.22-20,13.88,0-.17-.06-.34-.08-.5q.15-.93.36-1.83c16.77-9.62,33.72-21.39,47.24-35.16.17-.17,0-.54-.23-.36-7.9,6.31-15.42,13-23.56,19-7.5,5.56-15.33,10.62-23.22,15.59.16-.6.35-1.19.56-1.77.76-.79,1.53-1.55,2.3-2.33C447.51,58,462.15,44.5,479.35,34.9a.42.42,0,0,0-.12-.75c.32-.28.64-.55.95-.84.14-.14,0-.51-.18-.39-4.66,2.73-9.15,5.52-13.93,8,0-.23-.23-.46-.48-.31-1.7,1-3.37,2-5,3l-1.73.84.52-.4c.29-.21,0-.75-.31-.55-2.18,1.28-4.32,2.66-6.41,4.1-1.45.78-2.88,1.57-4.29,2.42-5.64,3.38-10.27,7.93-15.16,12.26-2.13,1.89-4.33,3.71-6.53,5.52A182.88,182.88,0,0,1,443.39,53c1.42-1.12,2.88-2.19,4.34-3.24l2.15-1.21a.37.37,0,0,0,.56.08l1.29-1.11c7.91-4.39,15.93-8.65,23.64-13.37a.28.28,0,0,0,.11-.34c3.3-1.48,6.61-2.94,9.88-4.53.45-.22.11-.88-.34-.76-13.13,3.79-25.8,11.71-36.94,19.44a157.76,157.76,0,0,0-15.82,12.66c-2.48,2.23-4.85,4.56-7.17,7-2.64,2.73-5.9,7.6-10.1,6.83a.83.83,0,0,0-.59-.81,2.72,2.72,0,0,1-2-3.42c.2-.74-.79-1.19-1.31-.74-.72.61-1.47,1.2-2.21,1.82a.17.17,0,0,0-.12,0c-.85.44-1.68.93-2.5,1.45-1.73-.47-3.46-.93-5.21-1.37a.68.68,0,0,0-.09-.37,5.5,5.5,0,0,1-.8-3.71.83.83,0,0,0-1.21-.83,56.9,56.9,0,0,0-5,3,.35.35,0,0,0-.1.11l-1.67-.39.23-.2c.22-.19-.06-.66-.32-.48l-.71.5-2.5-.58-1-.26.63-.44c.26-.17.05-.67-.22-.5l-.78.53a5.27,5.27,0,0,0-1-2c-.83-1.11-2.42-2.2-2.07-3.76a.67.67,0,0,0-1.11-.59,17.64,17.64,0,0,1-5.55,3.93.34.34,0,0,0-.19.31l-6.75-1.66a4.72,4.72,0,0,1-1.49-1.69,2.39,2.39,0,0,0-.53-1.59,5.35,5.35,0,0,1,0-1.74c.09-.55-.75-1-1.16-.64l-1.61,1.59-.92.92-.38.39c-.49.84-1.07.91-1.75.21.17-.34-.41-.78-.62-.4a1.52,1.52,0,0,0-.17.91c-2.5-.59-5-1.19-7.52-1.77a1.31,1.31,0,0,0,.44-1.27c.1-1.55.21-3.1.43-4.64.07-.55-.8-1.06-1.2-.62a10.65,10.65,0,0,1-6.54,3.47c-.45,0-.33.76.09.74a16.38,16.38,0,0,0,2.2-.26,4.7,4.7,0,0,0-1,1.29c-1.19-.28-2.39-.54-3.59-.81,1.37-2.41,3.36-4.63,1.18-6.87-1.71-1.75-4.68-3-6.76-4.34-1-.62-2.23-1.29-3.56-2a6,6,0,0,0,.4-2.44c0-.29-.42-.46-.5-.12a9.15,9.15,0,0,1-.82,2.05,20.25,20.25,0,0,1-5-3.65c.17-.22.33-.44.48-.67s-.09-.47-.28-.27-.37.34-.55.52a5.92,5.92,0,0,1-.68-1.11.75.75,0,0,0-.86-.42A9.45,9.45,0,0,1,321.73,37c.15-.32.29-.64.42-1s-.24-.52-.43-.31-.48.53-.71.8c-3.54-2.47-6.66-6.41-8.84-9.07a.41.41,0,0,0-.6,0l-.21.22a6.06,6.06,0,0,0-.34-.89.39.39,0,0,0-.73,0c-.64,1.9-3.23,3.5-4.65,4.78-1.72,1.56-3.49,3.08-5.26,4.58-1,.86-2.31,2.14-3.76,3.44.13-.33-.29-.74-.56-.41-.66.83-1.32,1.66-2,2.5-2.58,1.93-5.38,3.31-7.87,2.4a.24.24,0,0,0-.27.07l-.15-.33c-.05-.09-.15,0-.11.1l.19.38a.42.42,0,0,0,.23.44h0l.08.15c0,.06.1,0,.08-.06l0,0a7.35,7.35,0,0,0,4.48.22c-.6.4-1.19.8-1.8,1.19a.3.3,0,0,0-.09.41c-9.71-1.7-19.44-3.25-29.19-4.59a2.77,2.77,0,0,0-2.94-.4c-2-.27-4-.52-6-.77l.25-.32c.18-.22-.16-.55-.36-.3l-.43.55q-11.81-1.47-23.62-2.51a9.35,9.35,0,0,1-1.67-.9.45.45,0,0,0-.62.57.78.78,0,0,0,0,.14Q211.06,37,197.82,36.5a9.47,9.47,0,0,0,.63-1.93c.19-.65.36-1.3.54-2a8.54,8.54,0,0,0,2.8,1.33c2.47.6,2.46,3.06,5.61,2.41.69-.14.42-1.14-.2-1.17-7.2-.31-1.8-1.46-3.66-2.35-3.61-1.72-5.58-2.44-7.25-6.55-1.46-3.59-2.79-6-6-8.27-3.61-2.45-4.69-6.76-6.71-10.53-1.16-2.16-4.19-4.68-4.5-7a.55.55,0,0,0-.82-.4A39.26,39.26,0,0,0,172.34,5a31.35,31.35,0,0,0-2.88,3.52c.54-.74.64-2.67.78-3.73a.56.56,0,0,0-1-.41c-3,3.43-6.08,6.78-9.17,10.13a36.63,36.63,0,0,0,.55-4.47c0-.3-.37-.58-.57-.37a1.52,1.52,0,0,0,0-.21.42.42,0,0,0-.31-.35c-.54,0-.52-.05-.83.36a.36.36,0,0,0,0,.47l.14.15a.23.23,0,0,0,.32,0c-.58,1.34-4,5.76-4.49,6.5-1.32,2.12-2.57,4.29-3.81,6.46-1.05,1.85-2.05,3.73-3,5.62-.11-.15-.28-.25-.44-.11a3.46,3.46,0,0,0-1.09,1.67c-.06.2.19.41.3.18l.28-.3c-.08.31-.17.62-.25.93-.87,1.77-1.73,3.55-2.55,5.34-.37.67.83,1.33,1.17.6l.19-.38c-.05.3-.1.6-.14.89a363.1,363.1,0,0,0-90,18.21C52,57,48.41,58.26,44.84,59.62a.17.17,0,0,0-.24.1A240.43,240.43,0,0,0,8,77.18L6.41,78a.2.2,0,0,0,0-.22l-.17-.13a.19.19,0,0,0-.3.08l-.14.48a.28.28,0,0,0,.07.29c-.55.34-1.12.66-1.67,1-.18.12,0,.51.2.4L6.4,78.77h0q2.46-1.3,4.93-2.58c2.92-1.27,6-2.28,8.91-3.43q5-2,10.09-3.88c-.46,1.79-.91,3.59-1.33,5.4a5.08,5.08,0,0,0-1,4.66c-.38,1.91-.72,3.83-1,5.76-1.3-.43-2.6-.83-3.92-1.18A52.22,52.22,0,0,1,25.91,72c.08-.2-.2-.4-.29-.17a55.49,55.49,0,0,0-3.15,11.59c-.74-.19-1.48-.38-2.22-.55a62.17,62.17,0,0,1,2.67-9.88c.11-.3-.32-.52-.44-.2a69.59,69.59,0,0,0-3,9.92c-.78-.17-1.57-.33-2.34-.48.51-2.58,1-5.17,1.49-7.73a.19.19,0,1,0-.38-.08c-.59,2.55-1.22,5.11-1.81,7.68l-2.7-.46a33.51,33.51,0,0,1,1-5.67c.07-.24-.27-.46-.35-.19a39.42,39.42,0,0,0-1.23,5.77l-2-.28c-.29,0-.3.42,0,.48l1.92.47a22,22,0,0,0,0,4.73h0a.88.88,0,0,0-.31-.08c-3.8-2.42-7.11-5-6.35-6.42.11-.19-.07-.52-.29-.34-3,2.5,2.47,5,4.17,6.13l2,1.3a.31.31,0,0,0,.09.11c-.63-.08-2.1-.26-2.29-.26l-3,0c-2.3,0-4.63.07-6.93.19-.34,0-.35.56,0,.58h0a.25.25,0,0,0,0,.07c15.1,15.4,37.58,19.81,58.06,23.18,5.05.83,10.11,1.68,15.16,2.5h.09l3,.47c0,.22.13.48.38.4l.66-.23,3.45.52c-.13.2.08.53.31.35s.24-.16.35-.25c19,2.83,38.07,4.68,57.37,2.58l2.67.49a.23.23,0,0,0,.18.15,3.34,3.34,0,0,1,.78.12.29.29,0,0,0-.21.19,7.36,7.36,0,0,1-.92,2.09c-.09.17.14.35.25.16.76-1,1-.65.83,1a16.22,16.22,0,0,0,1.12,3.25,35.89,35.89,0,0,0,4.18,7.09,39.36,39.36,0,0,0,11.82,11.06c.35.21.94,0,.86-.48a18.9,18.9,0,0,1-.12-4.91l.18.06c.33.1.45-.37.2-.54l-.3-.2a41.46,41.46,0,0,1,2.16-8.15.59.59,0,0,0-.34-.71c-3.3-1.16-5-4-8-5.35a16,16,0,0,0-3.25-.67l0,0a.22.22,0,0,0-.34,0l-.25,0a20.94,20.94,0,0,1-2.21-.54l-1.21-.84a.25.25,0,0,0-.14,0,25.28,25.28,0,0,0-2.17-2.11,230.76,230.76,0,0,0,33,2.84l.07,0h.18c10.09.19,20.2-.09,30.23-.59,24.35-1.21,48.76-3.4,73-6.23A348.62,348.62,0,0,0,317,108.89l1-.24a.05.05,0,0,0,0,0c-.48,1.11-1,2.22-1.51,3.35-.21-.43-.41-.86-.59-1.29a.25.25,0,0,0-.47.18,14.75,14.75,0,0,0,.69,1.91c-.49,1-1,2.1-1.42,3.16a17.79,17.79,0,0,1-1-2.23l1.54-2.9a.06.06,0,1,0-.11-.06l-1.48,2.84a19.08,19.08,0,0,1-.82-2.92c-.08-.42-.69-.46-.64,0a20.18,20.18,0,0,0,.87,4l-.31.6c0,.05.05.09.07,0l.28-.53a19,19,0,0,0,1,2.47c-.25.64-.49,1.28-.71,1.92l-.13-.14a8.41,8.41,0,0,1-1.81-5.26c0-.29-.45-.44-.5-.11a7.75,7.75,0,0,0,.21,3.93,5,5,0,0,1-.85-2.52c-.06-1.29-.62-2.89-2.18-2.6-.3,0-.24.6.06.58,1.52-.08.76,2.91.84,3.74a1.19,1.19,0,0,0,.11.41,18.41,18.41,0,0,1-2.78-5c-.11-.33-.65-.31-.59.08,1,5.92,7.11,11.08,11.63,14.62a.44.44,0,0,0,.63,0,84.23,84.23,0,0,1,15.18-10.92c1.63-.94,3.33-1.74,5-2.53a4.84,4.84,0,0,0,1.33.35c.38,0,.48-.4.25-.64s-.22-.19-.33-.29a59.9,59.9,0,0,0,6.29-3.2,7.43,7.43,0,0,0,3.89-6.7.51.51,0,0,0,0-.13,11.79,11.79,0,0,1,3.46,2.78c.33.4,1.09.42,1.16-.21a25.89,25.89,0,0,1,1.09-5.36.61.61,0,0,0-.64-.76,9.9,9.9,0,0,0-1.36.18,7.56,7.56,0,0,0,.6-1v0q9-2.61,18.13-5a.39.39,0,0,0,.1.31l.27.28a.77.77,0,0,0-.08.47,1.16,1.16,0,0,0,.54.84,3.75,3.75,0,0,0,1.1.06,10.32,10.32,0,0,0,1,.68.69.69,0,0,0,.47.81,1.55,1.55,0,0,0,1.11,0A18.26,18.26,0,0,0,380.05,98h0l.18,0c.82.18,1-1.11.22-1.32-1.93-.55-1.94-2.73-.21-3.58.61-.3.06-1.26-.51-1.19l-2.81.34q5.16-1.32,10.33-2.56a.57.57,0,0,0,.13.33.3.3,0,0,0-.19.39,1.09,1.09,0,0,1,.05.17h-.16c-.62,0-.47,1,0,1.12.2,0,.39.07.59.1a7.19,7.19,0,0,0,.76,1.25c-.21.44.27,1,.72,1l.22,0a9.17,9.17,0,0,0,1,.74c.39.26,1.09.12,1.08-.46a6.36,6.36,0,0,1,.05-.77,6.93,6.93,0,0,0,.76-.41h0c1,0,1.64-1,2.06-1.84,0-.09.07-.19.1-.28h0s0,0,0,0a4.44,4.44,0,0,0,.15-2.2.42.42,0,0,0-.43-.35q-.72,0-1.44.06c-.4,0-.35.63,0,.66l1.11,0a3.62,3.62,0,0,1-.54,1.71l-.82.51c.07-.07.12-.15.19-.22.46-.43-.08-1.07-.59-1l-.32,0c.13-.56.2-1.11.26-1.36a.66.66,0,0,0,0-.28q15.76-3.72,31.65-6.86a5.34,5.34,0,0,0,.28.76.3.3,0,0,0,.53,0s0,0,0,0a13.64,13.64,0,0,0,.5,1.31.32.32,0,0,0-.11.49l.6.56c1.64,3.11,4.26,5.55,6.78,8.18a136.1,136.1,0,0,0,14.49,13.4c7.83,6.13,18.4,11.46,28.64,12.23a24.62,24.62,0,0,0,5.27,1.85,2,2,0,0,0,1.1.75.52.52,0,0,0,.63-.22c.1-.17.2-.34.29-.52a.53.53,0,0,0-.16-.6l-.38-.32c-.36-.29-.8.23-.56.58-.41-.6-.79-1.23-1.16-1.88a6.18,6.18,0,0,0,3.57-.51c.29-.14.07-.64-.23-.58a8,8,0,0,1-4.1-.3c-.6-1.17-1.17-2.4-1.73-3.63.22.09.43.18.67.26.55.18.64-.58.34-.87-1-1-1.83-1.93-2.66-2.91-.42-.88-.86-1.74-1.33-2.55a113,113,0,0,0-8.9-13.31,59.51,59.51,0,0,0-6-6.65c-1.09-1.2-2.21-2.35-3.4-3.46l1,.15c.34,0,.33-.49.07-.59-.82-.31-1.66-.57-2.51-.82-.93-.81-1.88-1.6-2.87-2.35-.36-.27-.73.2-.52.52a3.37,3.37,0,0,1-.31-.21.43.43,0,0,0-.32-.29l-.19,0L450,79.46a2.24,2.24,0,0,1-.83-1.67,8.47,8.47,0,0,1,.1-1,198.4,198.4,0,0,0,25.46-29.5c.2-.29-.18-.85-.48-.55-.6.58-1.19,1.18-1.78,1.77,4.61-6.18,9-12.57,13.37-18.79C486,29.41,485.66,28.93,485.41,29.24Zm-23.48,14.9,1.61-.73c-10,6.91-19.36,14.86-29.37,21.79.79-.76,1.61-1.5,2.42-2.25C444.89,56.48,453.45,50.39,461.93,44.14Zm-30.3,21.17c.84-.7,1.69-1.41,2.53-2.13l.27-.25c-.38.39-.75.8-1.13,1.19-.58.49-1.17,1-1.74,1.47A.37.37,0,0,0,431.63,65.31Zm16.82,6.21A5.62,5.62,0,0,0,447,74.8a38.38,38.38,0,0,0-4.38.7C444.57,74.23,446.53,72.91,448.45,71.52Zm-8.15,5.4a50.07,50.07,0,0,1,6.79-1.24c0,.07,0,.15.05.22s.42.38.53.09c.05-.13.09-.26.13-.38l.79-.08c-.07.3-.14.61-.19.91-.22.32-.46.63-.69.94s.13.74.43.46a.57.57,0,0,1,.11-.11q-.06.78-.06,1.56a.55.55,0,0,0,.3.42l.09.06a44,44,0,0,0-14.34.62c.68-.36,1.34-.74,2-1.11a19,19,0,0,0,7.11-1.66c.21-.1.12-.54-.14-.48-1.68.39-3.32.74-5,1C438.94,77.73,439.63,77.33,440.3,76.92Zm-2.74.8-1.14.66-.95.07C436.16,78.2,436.86,78,437.56,77.72Zm-10-1.37c6.32-2.94,11.8-7.36,17.36-11.58,8.5-6.43,17-12.89,25.31-19.57-5,6.81-12.61,12.29-19.06,17.61A128,128,0,0,1,427.3,78.7,7.62,7.62,0,0,0,427.59,76.35Zm1.82-9.22c-.13.19-.23.4-.35.6l-2.37,2a.35.35,0,0,0-.11.35c-1.33.8-2.66,1.58-4,2.32C424.89,70.73,427.17,69,429.41,67.13Zm-17.76,6.3.19.24a10.51,10.51,0,0,1-1.86-.23A3.48,3.48,0,0,1,411.65,73.43Zm-3.83,1.42.91.14c.16,0,.22-.13.19-.25l.21,0a.48.48,0,0,0,.12,0,11.13,11.13,0,0,0,1.72.34c-.82.65-1.63,1.3-2.43,2-.2.18,0,.64.29.47.88-.63,1.72-1.29,2.56-2a.37.37,0,0,0,.06-.47c.43,0,.87,0,1.3,0l1.21.3c.31.07.41-.21.35-.46l.18,0,.08,0a5.42,5.42,0,0,0,3.69-.1l-.24.2a.25.25,0,0,0-.06.18,7.89,7.89,0,0,0-3.23,2.12q-2.26,1.4-4.62,2.61c.62-.8,1.23-1.62,1.82-2.47.18-.26-.13-.8-.43-.53-1.43,1.27-2.75,2.59-4.05,4-2.55,0-5.11,0-7.66,0,2.38-1.19,4.78-2.36,7.1-3.67a.51.51,0,0,0,.17-.8c-.21-.22-.33-.35-.44-.45C407,75.6,407.42,75.23,407.82,74.85Zm10.07,2c-.09.51-.22,1-.32,1.51a17.15,17.15,0,0,1-3,1.64,6.11,6.11,0,0,1,.84-1.45C416.26,78,417.07,77.41,417.89,76.83Zm-4.67,3.1a7.76,7.76,0,0,0-.25.82l-1.33.08C412.17,80.53,412.7,80.24,413.22,79.93Zm-6.87-5.31a1.06,1.06,0,0,0,.25.09A52.34,52.34,0,0,1,402,78.26l.12-.3a13.64,13.64,0,0,0,1.48-2.61c.39-.34.79-.66,1.19-1ZM403,74.08l1,.16-.53.42a.31.31,0,0,0-.48,0l-.06.09h0c-.18.24-.35.49-.51.74Zm-8.61-1.48c-1,.77-2.11,1.59-3.12,2.47a.19.19,0,0,0-.28,0l-.13.11a14,14,0,0,0,0-1.72c0-.46-.65-.69-.81-.19-.24.74-.47,1.48-.7,2.21l-.18-1.67c.72-.55,1.41-1.14,2.1-1.73Zm.18,2.06a17,17,0,0,1-4.17,3.22q1.08-1,2.1-2C393.16,75.45,393.84,75,394.55,74.66Zm-5.31-3,.79.14c-.34.27-.68.53-1,.81,0-.23,0-.46-.08-.69Zm-5-1.93-.11.12-2.39-.37.26-.26ZM379,75.44c-.37.4-.74.79-1.1,1.19a3.13,3.13,0,0,0-.31.41,3.52,3.52,0,0,0,.12-.63c0-.12,0-.24,0-.36a8.42,8.42,0,0,0,.26-1.29q.26-.57.54-1.11c.18-.11.35-.24.52-.34a.46.46,0,0,0,.07-.07l.12.28c-.21.2-.43.39-.63.6s.07.91.48.64l.51-.37a1.17,1.17,0,0,0,.05.11c-.22.14-.42.29-.64.42A.33.33,0,0,0,379,75.44Zm-.4-3.34c-.13.18-.24.38-.36.57l-.23.15a10,10,0,0,0-.85-3A17.16,17.16,0,0,1,378.56,72.1Zm-.64-2.49,2.32.42a16,16,0,0,0-1.15,1.32A14.69,14.69,0,0,0,377.92,69.61Zm1.57,2.46a16.75,16.75,0,0,1,1.59-1.89l1.4.26a6.36,6.36,0,0,0-1.89,1.87c-.24.19-.48.37-.71.57C379.75,72.61,379.63,72.33,379.49,72.07Zm3.63-8.87a3,3,0,0,0,.36.79,1.41,1.41,0,0,0-.53.24.61.61,0,0,0-.16.83,1.13,1.13,0,0,0,.12.18,8.93,8.93,0,0,0-2.76,1l-1.53-.37A15.22,15.22,0,0,0,383.12,63.2Zm-1.88,5.86-.31.3-3.65-.54c-.25-.29-.5-.58-.77-.85Zm-4.7.3a7.69,7.69,0,0,1,.82,2.8,11.53,11.53,0,0,0-1.25-2.88Zm-1.31-1.69.57.55c.11.14.19.28.29.42l-.42-.06a10.16,10.16,0,0,0-.75-1Zm-1.54-.36a0,0,0,0,1,0,0,11.53,11.53,0,0,1,.66,1l-6.22-.9c-.32-.74-.59-1.33-.73-1.65ZM369,75.1a13.07,13.07,0,0,0,.16-3.42c.14.38.27.76.4,1.14,0,.15,0,.29,0,.44a.19.19,0,0,0,0,.08h0a10.89,10.89,0,0,1-.2,2.48,3.25,3.25,0,0,1-.53,1.13.85.85,0,0,1-.38.31c.11-.32.21-.64.3-1a.29.29,0,0,0,.45-.17A1,1,0,0,0,369,75.1Zm.12-5.31a9.24,9.24,0,0,1,1.56,2.11,4.86,4.86,0,0,1,.16,4A21.24,21.24,0,0,0,369.1,69.79Zm-.47,8.27a2.44,2.44,0,0,0,.94-1,.24.24,0,0,0,.11.06,1.17,1.17,0,0,0,.36,0A3.48,3.48,0,0,1,368,78.37c0-.07.05-.14.08-.22A1,1,0,0,0,368.63,78.06Zm-1.11-.84-.41-.13c0-.2,0-.4,0-.59l.09-.5c.15-.57.44-.75.85-.53A13.55,13.55,0,0,1,367.52,77.22Zm.7-2.58a1.7,1.7,0,0,0-.51-.08c-1.31,0-1.33,2-1.3,2.82a.43.43,0,0,0,.32.35c.16,0,.32.12.49.19-.1.23-.2.47-.32.71a.49.49,0,0,0,.12.57l-5.7-.22a15.56,15.56,0,0,0,2.24-3.13l0,0a.26.26,0,0,0,.05-.12,6.16,6.16,0,0,0,.39-1.06,29.12,29.12,0,0,1,3.13-3.36c.4-.36-.22-1.06-.64-.68A30.48,30.48,0,0,0,364.12,73,7.79,7.79,0,0,0,362,69.18c.77-.66,1.57-1.29,2.43-1.89l2,.33a.73.73,0,0,0,.08.09c.42.27.83.56,1.21.86A12.81,12.81,0,0,1,368.22,74.64Zm-6.66-5c.23.25.46.5.68.76a4.13,4.13,0,0,1,.87,3.88l-.15.18a6.85,6.85,0,0,1-.56-.5l-.6-2.45A13.1,13.1,0,0,0,361.56,69.64Zm4.76-8a.38.38,0,0,0,.54,0l.45.49c-.05.25.19.5.43.37l.16-.12a5.19,5.19,0,0,0,.31.5l-1.72,0-1.37-.33A7.58,7.58,0,0,0,366.32,61.66Zm-7.69,2.12,8,1.87s0,0,0,.07c-.08.51-.15,1-.22,1.52L364.64,67c0-.27-.29-.58-.58-.39l-.37.26-1.91-.27c-.16,0-.17.25,0,.28l1.55.25c-.65.45-1.28.91-1.91,1.41l-.22-.26a17.14,17.14,0,0,0-2-4.12.46.46,0,0,0-.63-.16Zm1.42,5.41a4.43,4.43,0,0,0,0,.52l-.25.23c-.09-.33-.17-.66-.23-1a9.26,9.26,0,0,1,0-1.29l.19-.14a.6.6,0,0,0,.09.13C359.88,68.15,360,68.67,360.05,69.19Zm-1.51-4.65a5.08,5.08,0,0,0,.68,2.16l0,0a1,1,0,0,0-.5-.19,1.12,1.12,0,0,0-.26,0A16.9,16.9,0,0,1,358.54,64.54ZM355.7,63.1l2.42.56a15.37,15.37,0,0,0-.38,4.16,52,52,0,0,0-6.52,6c-.51.55-1.73,1.57-1.26,2.49a.77.77,0,0,0,1.2.21.34.34,0,0,0,.11-.39l0-.16c0-.19-.3-.32-.42-.11a21.61,21.61,0,0,1,4.24-4.57c.91-.84,1.86-1.63,2.84-2.39a3.2,3.2,0,0,0,.1.42,7.07,7.07,0,0,0,.74,1.64,21.44,21.44,0,0,0-3.63,4.8c-.12.21.15.6.35.36,1.25-1.49,2.49-2.94,3.8-4.32a27.46,27.46,0,0,1,1.56,2.49c0,.32,0,.65,0,1s.35.56.54.39a3.55,3.55,0,0,1-1,3.18.35.35,0,0,0-.07.12q-11.89-.47-23.79-.82a.59.59,0,0,0,0-.14,7.46,7.46,0,0,1,.26-1.94.42.42,0,0,0,.39,0,9.82,9.82,0,0,1,1.24-.66c.18-.1.14-.47-.09-.43L338,75a84.78,84.78,0,0,1,7.79-8.59l2.44.44c-.3.66-.62,1.32-.91,2-.56.42-1.14.83-1.73,1.2s0,1.07.41.79c.2-.12.39-.26.58-.39a3.77,3.77,0,0,0-.16.6c-.21.54-.42,1.08-.61,1.63-.7,2-.6,4.07,1,5.61.35.34,1.1.16,1-.41a11,11,0,0,1,3.95-10.43c1.49.25,3,.49,4.47.7.3,0,.36-.47.09-.54-1.21-.31-2.43-.6-3.64-.9C353.86,65.8,355.42,64.61,355.7,63.1ZM335.46,77.72c0,.13.07.25.12.37L325,77.77l1-2v0a.34.34,0,0,0,.28,0,.88.88,0,0,1,.15-.05c-.11.34-.22.69-.33,1s.36.73.54.33c.3-.67.57-1.35.84-2a2.71,2.71,0,0,0,.39-.6.22.22,0,0,0,0-.23l.09-.22a102.53,102.53,0,0,1,7.56-7.9,9.47,9.47,0,0,0,1.37-1.24l.64-.08,2.12.43c-1,1.48-2.42,2.83-3.35,4.41a9.56,9.56,0,0,0-1.43,4.54C333.89,75.48,333.79,77.2,335.46,77.72Zm-98.93-5-2-.21-3.41-.41c4.38-4,6.41-9.2,7.25-14.82.94-1.34,1.9-2.66,2.86-4l.76.09c.68,2.16,1.85,4.17,2.15,6.33a79.58,79.58,0,0,0-5.18,9,.22.22,0,0,0,.14.28c-1,1-2,1.92-2.74,2.77A.66.66,0,0,0,236.53,72.7Zm-7.79-15.16a12.56,12.56,0,0,0,1.43-5.26c1.23.08,2.45.18,3.67.28a165.31,165.31,0,0,1-4.11,19.35c-2.46-.31-4.92-.63-7.38-1v0C221.55,65.45,226.35,61.88,228.74,57.54ZM205.85,68.38l-5.09-.84a.18.18,0,0,0,.1-.11,201,201,0,0,1,10.79-24.85.31.31,0,0,0,0-.25c1.42.15,2.83.31,4.25.48a42.55,42.55,0,0,1-.56,4.51c-.71,2.5-4,4.45-5.84,6.2a6.42,6.42,0,0,0-1.95,3.4,9.4,9.4,0,0,0,0,3.13c.09.5.17,1,.26,1.49a4.81,4.81,0,0,1,.32,1.51q-.65,1.41-1.2,2.85a4.59,4.59,0,0,1-.39.37.3.3,0,0,0-.58,0c-.12.45-.23.9-.35,1.35A.85.85,0,0,0,205.85,68.38Zm-5.29-.87-14.44-2.39a.28.28,0,0,0,0-.11c.61-4.08,4.51-5.84,6.86-8.63,1.43-1.7,1.91-4.41,2.47-6.48.08-.28.14-.57.21-.85l.59.05c.12,0,.14-.2,0-.21l-.56-.08a25.58,25.58,0,0,0,.51-2.67c.4-.53.79-1.06,1.21-1.58.28-.34-.26-.86-.56-.49l-.51.64a16,16,0,0,0-.18-3.53q3.12.12,6.23.34a37.37,37.37,0,0,0-1.39,7.38,77.81,77.81,0,0,0-7.29,13.44c-.07.18.17.38.26.17A101,101,0,0,1,201,50.26c-.05.83-.07,1.66-.06,2.51a6.82,6.82,0,0,1-2,5.84,29.94,29.94,0,0,0-4,2.32c-.7.83-.64,3.74-.8,4.82-.06.45.58.88.83.38a5.58,5.58,0,0,1,.32-.52l.11.16a.21.21,0,0,0,.37-.17c-.05-.19-.07-.37-.1-.54,1.56-2,4.29-3.5,6-5.21A17.46,17.46,0,0,0,204,56.52a85.86,85.86,0,0,0-3.58,10.72A.28.28,0,0,0,200.56,67.51Zm-15.18-5.29,0,.05a18.66,18.66,0,0,0-.17,2.61.43.43,0,0,0,0,.11c-2.84-.46-5.67-.91-8.51-1.34a.62.62,0,0,0,0-.19C175,58,179,56.13,181.92,52.59a35.29,35.29,0,0,0-3.5,9.67c0,.18.2.32.29.13,2.34-4.9,4.32-9.63,6.95-14.17,1.6.12,3.2.23,4.8.37-1.81,4.22-4.16,8.25-4.94,12.9l0,0-.16.33A.4.4,0,0,0,185.38,62.22Zm-10.07-2.55c0,.21,0,.39,0,.54,0,.6.09,1.21.17,1.81a15.41,15.41,0,0,1-.76-4.67,9.92,9.92,0,0,1,1.6-2.6c-.5,1.44-.9,2.93-1.31,4.49A.38.38,0,0,0,175.31,59.67Zm-1.4-4.11,0,.06a4.85,4.85,0,0,0-1.11,3.57c-.1.36-.21.72-.3,1.08a.13.13,0,1,0,.25.08c.05-.14.11-.29.17-.43a6.3,6.3,0,0,0,2.35,3.5c-3.3-.49-6.6-1-9.9-1.38a.61.61,0,0,0,0-.27,4.88,4.88,0,0,1,.23-2.84c0,.12-.06.24-.09.36s.26.36.35.14l.84-2c1.35-1.34,3.37-2.26,4.67-3.94,1.07-1.4,1.4-3.82,1.4-5.5,0-.15,0-.31,0-.46l4.56.22c0,.2,0,.4,0,.59s0,.12,0,.18A46.14,46.14,0,0,0,173.91,55.56ZM164,61.86c-3.76-.46-7.53-.88-11.29-1.23a17.69,17.69,0,0,1,0-1.79c1.92-3.91,3.83-7.83,5.85-11.69q3.06,0,6.12.08a49.16,49.16,0,0,0-4.18,12.06c0,.15.15.24.21.08,1.51-4.16,3-8.19,4.79-12.12l1.42,0a31.31,31.31,0,0,1,.91,4.67c-.17.4-.32.8-.47,1.2a45.25,45.25,0,0,0-3.5,3.56A4.06,4.06,0,0,0,164,61.86ZM150,47.18h1.25q-.89,6.6-1.64,13.21l-3.69-.29a4.08,4.08,0,0,1-.57-2.89C146.83,53.81,148.35,50.47,150,47.18ZM145.62,55c.37-2.34,1-5.12,1.47-7.75l2.24,0C148,49.75,146.73,52.35,145.62,55Zm4.91-8.79c.38-.73.76-1.46,1.16-2.19-.11.73-.19,1.45-.29,2.18Zm.07,14.67.81.07C151.06,62,150.44,62.57,150.6,60.88Zm.72-3.87c0-.41.08-.82.12-1.23l.53-.54a16.71,16.71,0,0,0-.23,1.73c-.08.59-.14,1.18-.19,1.77C150.91,58.42,150.83,57.84,151.32,57Zm.59-14.5c-.71,1.22-1.39,2.46-2.06,3.71l-2.61.08a15.34,15.34,0,0,0,0-5.32l0-.2c1.63-.07,3.25-.14,4.88-.19C152.09,41.23,152,41.87,151.91,42.51Zm11.16-4.07c0,.26-.07.53-.1.79h0c-2.39,0-4.77,0-7.16.13a10.66,10.66,0,0,0-.88-1.34.4.4,0,0,0-.69.15,9.8,9.8,0,0,0-.24,1.25c-1.22,0-2.44.11-3.66.17a.22.22,0,0,0,.18-.21A13.34,13.34,0,0,0,150.6,38l2.84-.18c0,.2.06.4.1.59s.41.29.44,0l.06-.63,2.43-.15c0,.26,0,.51,0,.76a.19.19,0,0,0,.37,0c0-.28.11-.55.16-.82l2.4-.12c0,.31,0,.63.09.94a.23.23,0,0,0,.45,0c.06-.32.11-.64.15-1l2.41-.12-.06.21A.73.73,0,0,0,163.07,38.44Zm4.8,2.51a.07.07,0,0,1,0-.05,2.56,2.56,0,0,1,.11.24l-.87,1.48c-.28-.73-.58-1.46-.89-2.17h1.15c0,.12,0,.24,0,.36C167.4,41.1,167.77,41.28,167.87,41Zm5.29-2.75.1-.14a10.5,10.5,0,0,0,.13,1.27l-2.07,0a10,10,0,0,0-1.24-2l2.09.12c0,.15,0,.29-.06.45A.59.59,0,0,0,173.16,38.2Zm16.37.06c0,.37,0,.73.05,1.1,0,.21.28.21.29,0s0-.72.07-1.08l3.09.14a.25.25,0,0,0,0,.12c.07.43.13.85.18,1.27-.11-.24-.47-.25-.48.08,0,.14,0,.28,0,.43q-4-.33-8-.55a6,6,0,0,0-1.37-1.8Zm-.34-2c.3-1,.44-2,.76-3.05a10.37,10.37,0,0,1,.9-2,19,19,0,0,0-1.23,5.07Zm12.7,20.07c-.21.23-.44.47-.67.69a9.61,9.61,0,0,0,.53-2.42.23.23,0,0,0,.34-.13c.14-.46.25-.94.38-1.4-.09.91-.14,1.82-.14,2.72l0,0a.2.2,0,0,0-.1,0L202,56a.35.35,0,0,0-.12.36Zm.25,1.25c.17-.19.31-.39.47-.59h0A20.35,20.35,0,0,1,198,61.84a18.64,18.64,0,0,0-2.3,1.62l0,0a3.85,3.85,0,0,1,1-1.8,15,15,0,0,0,2.95-2.12v0A10.91,10.91,0,0,0,202.14,57.59ZM202.36,47a42.36,42.36,0,0,1,.83-5.46l.72.06c-.46,1.63-.86,3.28-1.21,4.93Zm1.91,2.21a24.43,24.43,0,0,1-.79,4.44C203.78,52.21,204,50.73,204.27,49.24Zm-.25-8-.72-.06c.17-.72.38-1.44.62-2.15a.19.19,0,0,0,0-.08l.75,0Q204.33,40.12,204,41.24Zm-1.45-.12-6.48-.53a11.94,11.94,0,0,0-.6-2.05l7.82.38C203,39.65,202.79,40.38,202.57,41.12Zm-7.79,3.53c0-.4.09-.79.13-1.19,0-.15-.06-1.35,0-2.33l.67,0a12.12,12.12,0,0,1,0,4.65l-.58.76c.15-.48.3-1,.43-1.46S195,44.38,194.78,44.65ZM194,49.39l.09-.18.19-.28.5,0c-.2.74-.4,1.47-.59,2.15A12.16,12.16,0,0,1,193,54C193.42,52.47,193.75,50.93,194,49.39Zm-.49-10.94.78,0c0,.66-.07,1.31-.11,2l-.29,0C193.83,39.74,193.71,39.08,193.55,38.45Zm-1.92-1.51,5,.14a.37.37,0,0,0,.07.12Zm.87,17.9a22,22,0,0,1-3.23,3.54c.12-.23.23-.43.34-.62.28-.47.54-.94.81-1.42a30.9,30.9,0,0,0,2-3.33c-.09.42-.18.85-.28,1.27A.47.47,0,0,0,192.5,54.84Zm-.27-6.49-.39-.05a10.14,10.14,0,0,0,.86-1.85,8.62,8.62,0,0,0,.28-1.14A24.52,24.52,0,0,1,192.23,48.35ZM188.84,42c-1.33,1.71-2.66,3.55-3.92,5.48l-.33,0a23.23,23.23,0,0,0,.76-3.38,7.31,7.31,0,0,0-.26-3.27l7.52.22a25.13,25.13,0,0,1-2,7.09c-1.54-.19-3.09-.35-4.64-.51a49.28,49.28,0,0,1,3.45-5.11C189.74,42.16,189.14,41.63,188.84,42Zm-4.57,3.42a9.35,9.35,0,0,1-.52,1.95l-1.3-.11a33.37,33.37,0,0,0,.8-3.49C183.58,44.32,183.91,44.86,184.27,45.45Zm-.79,2.62a26.81,26.81,0,0,1-1.33,2.62,9.62,9.62,0,0,1-2,2.49A28.35,28.35,0,0,0,182.25,48Zm-2.25-4.27.59-.82c-.12.86-.25,1.71-.41,2.56l-.16.34A16.06,16.06,0,0,0,181.23,43.8Zm-.1-1.22c-.06-.4-.13-.81-.21-1.22a.42.42,0,0,0-.39-.33c.09-.11.19-.21.29-.32h.49l.53.83Zm-.59,2.19a16.53,16.53,0,0,1-.17,2.34l-.64-.06v0a10,10,0,0,0,.42-1.72Zm-.32,3.1a14.75,14.75,0,0,1-.38,1.56l-.24.32,0-.25c.07-.55.11-1.11.14-1.67Zm-.5,3.94c-.3.54-.6,1.08-.91,1.61,0,0-2,2.92-1.65,1.12a.44.44,0,0,0-.13-.33.46.46,0,0,0-.16-.15c.74-.83,1.55-1.63,2.3-2.46A.38.38,0,0,0,179.72,51.81Zm-1.8-.2c.31-.57.62-1.13,1-1.67,0-.07,0-.18-.1-.09-.24.33-.46.66-.67,1a14.15,14.15,0,0,0,.41-2.25c.06-.27.1-.55.15-.83h.08a.4.4,0,0,0,.07.19,21.32,21.32,0,0,0,.24,2.42v0C178.7,50.81,178.31,51.21,177.92,51.61Zm.23-7.28-.15.8c-.13-1.52-.32-3-.47-4.5H178A30.27,30.27,0,0,1,178.15,44.33Zm-.38-5.85c0,.33.09.65.13,1l-2.8-.07a.45.45,0,0,0-.23-.3A.16.16,0,0,0,175,39c.19-.46.35-.94.53-1.41l2.43.14a0,0,0,0,0,0,0c.07.13.12.25.18.37A.31.31,0,0,0,177.77,38.48Zm-2.64-2.26h-.82c.05-.43.11-.85.2-1.28,0-.22.11-.42.16-.64a35.77,35.77,0,0,1,1.77-3.21c-.18.67-.34,1.34-.52,2C175.63,34.13,175.37,35.17,175.13,36.22Zm-.27,1.3c-.08.44-.16.88-.22,1.32a.22.22,0,0,0,.11.23.24.24,0,0,0-.15.11,1.74,1.74,0,0,1-.11.18H174c.08-.62.13-1.24.18-1.86Zm-.35,3,2.47,0c.06,2,.06,4.17.23,6.25-1.49-.11-3-.21-4.48-.29,0-.85-.07-1.7-.16-2.53C173.17,42.88,173.83,41.72,174.51,40.57Zm-2.12,2.29a15.51,15.51,0,0,0-.58-2.35l1.95,0C173.3,41.31,172.84,42.08,172.39,42.86Zm-.51,4.59c-.07,3.1-1.09,6.08-4.22,7.66l-.08,0,.33-.8a6.4,6.4,0,0,0,1.88-2.45,13.91,13.91,0,0,0,.42-2.87.2.2,0,0,0,.35-.14c0-.25,0-.5,0-.75l.34-.72Zm-.53-.93.47-1c0,.34,0,.67.05,1Zm-.89-6a23,23,0,0,1,1.14,3.34c0,.11,0,.22.05.33-.41.73-.82,1.48-1.21,2.23A16,16,0,0,0,170,44.5c-.15-1.36-.34-2.7-.5-4Zm-1.14-1.25a.26.26,0,0,0-.49,0h-.39c0-.1,0-.2,0-.3a.55.55,0,0,0,.4-.36c.09-.24.19-.47.28-.7a8.12,8.12,0,0,1,.81,1.38Zm-.62,7.15h-.22c-.18-.49-.36-1-.56-1.47s-.35-1-.53-1.52l.68-1.24A20.57,20.57,0,0,0,168.7,46.39Zm-2.08-.08H166l.35-.77C166.41,45.79,166.52,46.05,166.62,46.31Zm-2.45-5.87h1.21c.4,1.11.76,2.23,1.1,3.35l-.06.11A20.2,20.2,0,0,0,164.17,40.44Zm1.15-2c-.18-.37-.36-.74-.55-1.1a.29.29,0,0,0-.09-.12c.75,0,1.51-.07,2.27-.09A2.66,2.66,0,0,1,165.32,38.42Zm-.61.22-1,.31c.2-.49.38-1,.55-1.5a.3.3,0,0,0,0,.16C164.44,38,164.58,38.29,164.71,38.64ZM166,44.73c-.27.51-.53,1-.79,1.54q-3-.08-6.09-.11c.75-1.41,1.51-2.82,2.3-4.22.2-.36-.35-.73-.57-.34q-1.27,2.26-2.5,4.56h-2.12c.11-.35.23-.69.33-1a7.14,7.14,0,0,0-.18-4.62q3.65-.06,7.29-.05A40.5,40.5,0,0,1,166,44.73Zm-12.68-1.4c.16-.78.33-1.56.53-2.33a.31.31,0,1,0-.59-.17c-.05.16-.09.33-.14.5a.28.28,0,0,0-.32-.18l.06-.58,1.06,0a14.09,14.09,0,0,0,0,1.59c-.16,1.36-.38,2.71-.64,4h-.49c0-.31.09-.62.14-.93.18-1,.38-1.89.59-2.83C153.43,42.73,153.35,43,153.28,43.33Zm2.59,3.8h1.92c-1.77,3.36-3.45,6.77-4.92,10.27C153.35,53.85,154.67,50.69,155.87,47.13ZM155,43.59c-.12-.77-.25-1.53-.33-2.27a5.84,5.84,0,0,1,.74,4.83h-.14c0-.43-.05-.87-.1-1.3s.16-.61.25-.92A.29.29,0,0,0,155,43.59ZM152.33,49c.09-.61.19-1.21.29-1.82h.45c-.3,1.4-.64,2.8-1,4.19C152.11,50.56,152.21,49.76,152.33,49Zm37,3.21a41.13,41.13,0,0,1,2.23-3.5l.5,0A52.32,52.32,0,0,1,189.43,55v0l0,0a15.82,15.82,0,0,0-2.75,4.45.53.53,0,0,0,.48.71c0,.07,0,.14-.07.2l-.11.11a6.29,6.29,0,0,0-.81,1c0-.07-.07-.14-.15-.15l-.27,0A49.44,49.44,0,0,1,189.38,52.19Zm17.5-10.32c1.39.12,2.78.26,4.16.4-1.86,3.24-3.6,6.59-5.18,10A25.47,25.47,0,0,0,206.88,41.87Zm3.54,15.92-.5.44a12.19,12.19,0,0,1,1.92-3.61c-.31.66-.61,1.34-.86,2-.18.32-.36.64-.55,1A.19.19,0,0,0,210.42,57.79ZM210,59.41c-.29.53-.57,1.07-.84,1.61,0-.41-.09-.82-.12-1.22a.32.32,0,0,0,.42,0C209.6,59.7,209.77,59.56,210,59.41Zm-1-.74a6.93,6.93,0,0,1,2.22-5.15c1-1,2-1.9,3-2.86l-.29.58C211.85,53.52,209.73,55.79,209,58.67Zm-2.1,9.68a3.89,3.89,0,0,0,2.29-2.8l.06-.43a.22.22,0,0,0,.28-.24,10.41,10.41,0,0,1,.79-4c.48-1,1-2.07,1.49-3.1a20.78,20.78,0,0,0,4.17-6.11h.4A27.8,27.8,0,0,1,211.86,58a.18.18,0,0,0,0,.28,11.55,11.55,0,0,0-1,1.82c-1.33,2.95-.62,6.1-2.58,8.65l-1.53-.25A1.42,1.42,0,0,1,206.85,68.35Zm7.54-11.18a7.93,7.93,0,0,1-1.64,2.19A14.71,14.71,0,0,1,214.39,57.17Zm-3.63,9.45a22.27,22.27,0,0,0,.53-3,11.12,11.12,0,0,1,.77-2.84l.15.06a.36.36,0,0,0,.42-.11,26.08,26.08,0,0,0,3.06-4.86l.43-.42a9.54,9.54,0,0,0,2.4-3.69c1.52,0,3,.08,4.56.14-1.35,2.29-2.7,4.57-4,6.89-.1.18.19.43.31.23,1.45-2.34,2.84-4.72,4.23-7.1l1.69.08a8.46,8.46,0,0,1-.44.84c-1.35,2.18-3.07,4-4,6.48a15.15,15.15,0,0,0-1.14,6.89c-.24.49-.49,1-.72,1.49s.47,1,.79.49l.19-.32A12.43,12.43,0,0,0,221,70.73q-5.67-.83-11.35-1.74A10,10,0,0,0,210.76,66.62Zm6.17-23.69.52.06c0,.43,0,.86,0,1.29a.2.2,0,0,0-.14.09l-.39.72A19.56,19.56,0,0,0,216.93,42.93Zm0-.57c-.07-.91-.18-1.81-.24-2.65l.34,0a11.67,11.67,0,0,1,.4,2.57.43.43,0,0,0,0,.11Zm10.22,5.18.88.12c0,1.13,0,2.26-.07,3.39,0,.13-.11.27-.16.41l-1-.05A11.71,11.71,0,0,0,227.11,47.54Zm0-.45a25.91,25.91,0,0,0-.45-2.87l1.3.19.07.11c0,.9,0,1.79,0,2.69Zm.44,5-.68,1.83a.37.37,0,0,0-.59.11l-.22.39-.09.06c-.38.64-.72,1.27-1,1.91-1.37,2.42-2.74,4.84-4,7.31a18.56,18.56,0,0,1,2.34-6.54c.94-1.71,2.64-3.23,3.31-5.08,0,0,0,0,0-.05Zm-1,7.36c-.43.62-.9,1.21-1.37,1.79.05-.12.09-.25.14-.37.26-.5.53-1,.8-1.5A.94.94,0,0,0,226.54,59.47Zm-1-8.11L224,51.3l.46-.79c.14-.24-.2-.58-.36-.3l-.63,1.08c-1.58,0-3.15-.09-4.72-.11a29.42,29.42,0,0,0,1-4.66c2.13.28,4.25.59,6.38.88A10.7,10.7,0,0,1,225.57,51.36Zm-7-7.5c0-.24,0-.48,0-.72l.73.09c-.31,1.24-.56,2.5-.82,3.74A20.21,20.21,0,0,0,218.6,43.86Zm.94-1.25-.92-.09v-.2a.35.35,0,0,0-.22-.31c-.07-.41-.16-.81-.25-1.2s0-.67-.07-1l.31,0a1.81,1.81,0,0,0,1.21.35.49.49,0,0,0,.72.15A18.57,18.57,0,0,0,219.54,42.61Zm1.34,23.68c.7-1.22,1.39-2.45,2-3.7a.47.47,0,0,0,.28.18c0,.33,0,.67,0,1a10.29,10.29,0,0,0-2,4.19A10,10,0,0,1,220.88,66.29Zm7.74-20.4,0,.1a9.54,9.54,0,0,1,.39,1.36l-.34,0C228.69,46.84,228.66,46.35,228.62,45.89Zm8.65,0c-.14.86-.31,1.71-.47,2.56l-.4-.06c0-.23-.06-.47-.1-.7.08-.65.14-1.28.21-1.92Zm-.64-1.24c.05-.38.09-.77.13-1.14.13.4.23.8.32,1.21Zm.2,7.49c.21-1,.41-2.08.59-3.12h.1a25.77,25.77,0,0,1-.21,3.15Zm.38.78c-.15,1-.33,1.92-.57,2.88,0-.7,0-1.4-.06-2.11q.06-.37.09-.78v0Zm.7.06H238a33.85,33.85,0,0,1-.55,5.25l-1.36,2.06c.07-.27.13-.54.19-.81A45.79,45.79,0,0,0,237.91,52.93Zm-2-8.42-.3,0c0-.19-.09-.4-.13-.58s0-.36,0-.55.25-.37.38-.56l.29.08C236.13,43.41,236,44,236,44.51Zm-.43,8.36a.17.17,0,0,1,.14,0c0,.22,0,.44,0,.65l-.42,1.66a.35.35,0,0,0-.22,0C235.23,54.47,235.38,53.67,235.52,52.87Zm.33,3.3c-.1,1.33-.27,2.68-.35,3.3a53.13,53.13,0,0,1-3.64,8c.13-.57.27-1.14.39-1.71a.34.34,0,0,0,.41-.22A70.83,70.83,0,0,0,235.85,56.17Zm-2.4,5c-.19.56-.4,1.11-.61,1.66l.24-1.29a.19.19,0,0,0,.17-.13,39.29,39.29,0,0,0,1.62-5.34l.06.08a.27.27,0,0,0,.08.07C234.54,57.88,234,59.53,233.45,61.16Zm-1.8-13c-.47.77-1,1.53-1.43,2.31,0-.86-.11-1.71-.22-2.54Zm-1.72-.7a.88.88,0,0,0,0-.16c0-.25-.09-.51-.16-.78,0-.61,0-1.23,0-1.85l3.72.57c-.53.82-1,1.66-1.55,2.49Zm2.5.81,2,.27c-.13,1.09-.28,2.19-.44,3.29-1.16-.09-2.33-.17-3.49-.24C231.11,50.49,231.76,49.38,232.43,48.28Zm2-.2-1.74-.24c.5-.82,1-1.65,1.53-2.48l.5.08C234.65,46.32,234.55,47.2,234.44,48.08Zm-.34-3.82-4.35-.54c0-1,0-1.94,0-2.92l4.25.43c.21.8.38,1.61.54,2.42C234.37,43.85,234.24,44.06,234.1,44.26Zm-2.65,24.87a.35.35,0,0,0,.48-.11,24.12,24.12,0,0,0,4-8.3l1.36-2a31.32,31.32,0,0,1-1.86,6c-.85,2-4.09,4.75-4.48,6.1C231.15,70.29,231.3,69.71,231.45,69.13Zm17.46-26,.22-.09h.09a17.4,17.4,0,0,0-1.56,2.67,5.51,5.51,0,0,0-.28.61l-.47-.08c0-.23.06-.45.09-.68C247.63,44.71,248.27,43.91,248.91,43.09Zm-1.8,1.57c0-.28.06-.55.11-.82l.8-.35C247.72,43.88,247.41,44.26,247.11,44.66Zm4.45,6.3.84.12c-.14,1.07-.23,2.11-.3,3.05-.87-.15-1.73-.32-2.6-.46C250.18,52.76,250.86,51.85,251.56,51Zm-3,2.57-.14,0c-.13-.47-.26-.94-.38-1.39s-.18-.87-.24-1.28c0-.14,0-.28,0-.41l2.84.41C249.94,51.72,249.24,52.62,248.54,53.53Zm3.4-3.06.68-.85c-.06.31-.1.62-.14.93Zm-.89-.12-3.18-.46c.06-.65.11-1.3.19-2a.35.35,0,0,0-.11-.31l0-.08,4.76.74C252.17,49,251.61,49.65,251.05,50.35Zm-7.8.14c.16.28.61.38.72,0,.06-.19.12-.37.17-.56l.44.06a21.86,21.86,0,0,0-.34,2.94L243,52.75a11.8,11.8,0,0,1-.09-1.78Zm-.18-1.25a22.7,22.7,0,0,1,.49-2.4l.66.1a21.72,21.72,0,0,0-.77,2.36Zm1.21.17c.05-.16.1-.33.15-.48s.33-.45.5-.67c-.09.39-.18.79-.26,1.2Zm-.05,4.19A8.19,8.19,0,0,0,245.28,58l-.27.4c-.38-1-.91-2.09-1.29-2.93a9.87,9.87,0,0,1-.62-2Zm2.61.32q0,1-.06,1.95l-.67.93c0-.36,0-.72,0-1.08.06-.63.11-1.25.16-1.87Zm-.52-.72c.08-1,.15-2,.23-3l.36.06c0,.3.06.6.11.91-.07.69-.11,1.38-.15,2.08Zm.5,5.42a5.3,5.3,0,0,1-.46-.6c.14-.2.29-.4.43-.61C246.8,57.81,246.8,58.22,246.82,58.62ZM246.07,46l0,.05L245.6,46c.21-.38.42-.76.67-1.13C246.2,45.24,246.14,45.62,246.07,46Zm-.4,1.27.07-.1.14,0q-.18,1.18-.3,2.37h-.1C245.57,48.79,245.65,48,245.67,47.28Zm-.14,2.81c-.09,1-.16,2-.18,3l-.19,0c0-1,.15-2,.26-3Zm-.18,3.65c0,.77,0,1.55.09,2.31a9,9,0,0,1-.28-2.34Zm-3.83,14.39a.3.3,0,0,0,.29.1l.1,0h0a7.92,7.92,0,0,0,2.3-.87A14.08,14.08,0,0,1,238.77,71C239.67,70,240.63,69.11,241.52,68.13Zm-2.14.53c1.59-2.48,3.18-5,4.8-7.4a6.56,6.56,0,0,1-.48,1.94C243,65,241.15,66.92,239.38,68.66Zm3-1.56a14.33,14.33,0,0,0,2.5-4c0,.27-.09.54-.14.81s.22.3.29.09a19.79,19.79,0,0,0,1-5,5.78,5.78,0,0,0,.7.57.38.38,0,0,0,.12.05c0,.44.05.88.09,1.31a.34.34,0,0,0,.23.31,7.86,7.86,0,0,1-2.28,4.61.18.18,0,0,0-.28-.11A14.62,14.62,0,0,1,242.42,67.1ZM247,47.39a9,9,0,0,0-.16,2.37l-.29,0c.06-.79.11-1.58.19-2.37Zm-.47-4.15a8.79,8.79,0,0,0-1.86,2.6l-.82-.14c.33-1.09.7-2.16,1-3.22l1.75.21C246.64,42.87,246.61,43.05,246.57,43.24ZM243,45.55c-1.31-.22-2.63-.42-3.95-.61A6.48,6.48,0,0,0,238,41.66c2.1.23,4.2.48,6.29.73C243.87,43.38,243.41,44.45,243,45.55ZM241.69,52c-.14.18-.26.37-.39.56l-2.49-.28a1.09,1.09,0,0,1,0-.18c0-.85.11-1.85.18-2.9l2.81.38A9,9,0,0,0,241.69,52Zm-.87,1.24c-.8,1.13-1.61,2.27-2.39,3.42.16-1.2.26-2.41.33-3.64ZM239,48.7c.05-.85.09-1.72.07-2.57l3.47.55a18.06,18.06,0,0,0-.67,2.41Zm8.85,14.74A15.13,15.13,0,0,0,249,56.79a10.55,10.55,0,0,0-.3-2.07c.13-.18.27-.35.4-.52,1,.12,2,.26,3,.39,0,.32,0,.63-.06.92a.4.4,0,0,0,.16.36,13,13,0,0,0,.34,2.4c0,.15-.07.31-.1.46a.35.35,0,0,0,.29.39c.11.43.22.88.34,1.34,0,.81,0,1.63.11,2.43a.21.21,0,0,0,.13.17c-.68.93-1.37,1.86-2,2.79-.07.11.08.29.18.17.77-1,1.53-2,2.3-3,.78,3.13,1.24,6.24-.5,8.2a.59.59,0,0,0,.76.88,8.1,8.1,0,0,0,1.85-1.62,3.49,3.49,0,0,1-.15.34c-.11.22.14.6.37.37a6.75,6.75,0,0,0,1.64-4.06,19.11,19.11,0,0,0,.86-5.1c.1-1.84.14-3.68.14-5.52l3.07-4.09,4.38.64c-.38,2-2.95,4.31-2.83,6.42a7.16,7.16,0,0,0,.25,1.66l-2.35,3.17c0,.05,0,.13.07.07l2.33-3.09a8.12,8.12,0,0,0,1,2.1l.76,1.21a12.44,12.44,0,0,0,1.1,2.23,12.21,12.21,0,0,0,.66,2.76c-.54.88-1.06,1.76-1.56,2.66-.08.15.12.37.24.21l1.61-2.2.09.2a.22.22,0,0,0,.42-.1,11.39,11.39,0,0,1-.29,4.8,1.09,1.09,0,0,0,0,.18c-10.25-.67-20.5-1.5-30.74-2.61A15.9,15.9,0,0,0,247.88,63.44Zm9.85-11.59c0,1.14.06,2.38.11,3.68l-.07-.11a.31.31,0,0,0-.29-.09l-.29.11c.08-1.2.18-2.41.29-3.62Zm-.2-.58c.07-.74.14-1.48.23-2.23l.36.06c0,.09-.07.17-.1.26a4.85,4.85,0,0,0-.28,1.65v.29Zm.12,4.75a2.7,2.7,0,0,1,.13.89l-.73,1,.09-1.59,0,0A.3.3,0,0,0,257.65,56Zm.12,1.71c-.08,1.94-.55,4.79-.59,5.49-.07,1.17-.12,2.27-.26,3.34a9.71,9.71,0,0,1-1.42,2.66,8.73,8.73,0,0,0-.06-3.13.34.34,0,0,0,.05-.16L256,61.5c0,1.46,0,2.91,0,4.36,0,.35.59.49.61.09.14-2.41.26-4.81.39-7.2Zm-3.39,3.82c-.15-.56-.3-1.11-.43-1.66.25-2.1.49-4.16.8-6.22.23-.71.44-1.43.65-2.15l1.13.16c-.46,2.85-.9,5.71-1.21,8.58Zm.86-.5c-.1.94-.19,1.88-.26,2.83-.16-.65-.32-1.26-.48-1.87Zm1.62-11a.29.29,0,0,0-.1.17c-.05.3-.09.6-.14.9L255.56,51c.2-.73.41-1.46.61-2.18l.83.12C257,49.31,256.9,49.69,256.86,50.07Zm-1.74-2.28-.67-.13c.34-.91.74-1.56,1.21-1.63C255.47,46.61,255.3,47.2,255.12,47.79Zm-.22.83q-.32,1.08-.57,2.19l-.67-.09c.14-.74.31-1.51.51-2.22Zm-.69,2.72c-.12.5-.23,1-.33,1.49s-.29,1-.43,1.54l-.23,0c0-.13,0-.26,0-.4s.13-1.36.35-2.68Zm4.41,1.12c0-.17,0-.32,0-.48l2.55.37-2.5,3.36C258.67,54.63,258.66,53.54,258.62,52.46Zm9.13,5.79c0,.4.06.9.09,1.88l-.47-1a.34.34,0,1,0-.63.25c.41.92.75,1.84,1.07,2.76h-.66c0-.24,0-.48-.06-.71s-.18-.31-.32-.27l-.06-.36c-.06-.28-.52-.34-.55,0L266,62.33c0,.13.09.31.23.3h.17l0,.21-.06.83c-.21-.44-.42-.89-.61-1.33a6.33,6.33,0,0,1,.31-2.34,8.5,8.5,0,0,1,1.24-2.29.44.44,0,0,0,0,.1A.39.39,0,0,0,267.75,58.25Zm-2.64,2a5.74,5.74,0,0,1-.12-.8c.31-.41.61-.82.92-1.22A8.4,8.4,0,0,0,265.11,60.28Zm1.8-11.13.37.09c0,1.13,0,2.27-.06,3.4l-.29,0A14.23,14.23,0,0,0,266.91,49.15Zm-.07-.48a25.79,25.79,0,0,0-.75-3.26l1.16.18c0,1.06,0,2.12,0,3.18Zm0,4.5.33,0c0,1.07-.08,2.14-.14,3.21h0L265,59.23a3.63,3.63,0,0,1,.4-1.94A12.87,12.87,0,0,0,266.86,53.17Zm.55,12.5a.31.31,0,0,0,.1-.3c-.12-.92-.23-1.83-.31-2.75H268c.18.57.36,1.15.53,1.73a17.06,17.06,0,0,0,.31,2.67l-.4.62C268.12,67,267.77,66.36,267.41,65.67ZM270.56,50l.57.13a3.65,3.65,0,0,1,.23,3.11l-1.18-.17A6.12,6.12,0,0,0,270.56,50Zm.54,3.79a6,6,0,0,1-1.24,1.51c.07-.54.12-1.1.17-1.66Zm.87.13c2.1.31,4.21.63,6.31,1,0,0,0,.08,0,.12-2.55,2.86-5,5.83-7.27,8.93-.56-1-1.32-1.78-1.87-2.8,0-.41.06-.83.12-1.26a.2.2,0,1,0-.39-.08c0,.18-.05.37-.08.55a1.67,1.67,0,0,1-.08-.2C267.92,57.73,270.59,55.72,272,53.91Zm9-6.07.58.1c0,1.07,0,2.14-.12,3.18a.43.43,0,0,0,0,.17,2.62,2.62,0,0,1,0,.28l-.18.2-.64-.13.56-2.12A2.13,2.13,0,0,0,281,47.84Zm1.67,2.39h0a13.59,13.59,0,0,1,.11-2.09l.67.11a17.73,17.73,0,0,1,1.5,2.37,10.75,10.75,0,0,1,.91,2.14l-2.35-.51,0-.87c0-.32-.44-.4-.47-.06s0,.55-.07.82l-.48-.1c0-.28.06-.56.08-.84.17-.17.32-.36.49-.53S282.91,49.94,282.64,50.23Zm30.25,3.91-1.5-.23c.05-.1.1-.19.14-.29l1.34.24v0s0,0,0,0Zm1.19,16.8a10.42,10.42,0,0,0,1.21,1.93c-.07.12-.13.24-.19.36a3.13,3.13,0,0,1-.31-.41c-.86-1.46-1.74-2.91-2.61-4.36a3.9,3.9,0,0,1-.54-1.54c.27-.34.54-.68.82-1a12.31,12.31,0,0,0-.11,1.91c0,.28.38.44.49.12.17-.55.31-1.11.43-1.67a12.94,12.94,0,0,0,.25,1.75A5.59,5.59,0,0,0,314.08,70.94Zm1.65,1.22a10.58,10.58,0,0,1-.48-1A8,8,0,0,1,316,66c.14-.27-.24-.62-.41-.31a8.61,8.61,0,0,0-.93,3.15,6.93,6.93,0,0,1,1.25-4.69,7.15,7.15,0,0,0,1.07-2.87c.13-.12.27-.23.41-.34,2.06.28,4.13.56,6.2.82.16.8.3,1.6.4,2.4A41.55,41.55,0,0,0,319,68.36,26.54,26.54,0,0,0,315.73,72.16Zm0,1.3c.34.4.68.8,1,1.19,2.26,2.5,0,.47-1.27-.94Zm.39-12.67c-.69.59-1.37,1.2-2,1.83,0,0,0-.06,0-.09.19-.65.42-1.29.67-1.93ZM315.44,59c.23-.5.46-1,.7-1.5.05.21.1.42.14.63a5.78,5.78,0,0,1,.13,1.06Zm-.7,4.37c.35-.36.73-.7,1.09-1-.56,1.35-1.37,2.57-1.87,3.86,0-.66,0-1.32,0-2C314.2,63.94,314.47,63.66,314.74,63.38Zm4.14-3.69c1.11-.89,2.24-1.75,3.41-2.57a4.25,4.25,0,0,0,.35.88h0c.24.86.45,1.7.64,2.54Zm4.86-.56c-.21-.68-.45-1.36-.69-2l1.23.3s0,0,0,.06A5.85,5.85,0,0,0,323.74,59.13Zm-.4-4.74-2.67-.55h.09l.38-.1,2.28.48C323.39,54.28,323.37,54.34,323.34,54.39Zm-1.91,2.33c-1.23.86-2.46,1.78-3.67,2.75l-.64-.13a8,8,0,0,0-.82-3.77l2.13.46c0,.09,0,.19,0,.28s.3.44.45.19l.17-.33Zm-2.61-4.36-2.68-.55c.15-.36.31-.72.49-1.06.1-.19.22-.36.32-.54,1.82-.91,3.67-1.87,5.44-2.91A29.24,29.24,0,0,0,319.55,52C319.31,52.11,319.07,52.24,318.82,52.36Zm-1.19.64a.31.31,0,0,0,0,.23l-1.91-.39.09-.22Zm.91,2a.31.31,0,0,1,0,.1q-1.38-.26-2.76-.48l-.14-.22Zm-2.67,1.55a.27.27,0,0,0-.21.17c-.34.67-.67,1.39-1,2.12l-.52-.11c0-.52,0-1,0-1.58s-.13-1.39-.23-2.1l1.44.31A7.49,7.49,0,0,1,315.87,56.56ZM313,63.22c-.06.22-.11.44-.17.66-.37.38-.74.77-1.1,1.16.06-.29.13-.58.21-.86a.25.25,0,0,0,.15-.1,6.8,6.8,0,0,0,1.06-2.83C313.13,61.9,313.07,62.56,313,63.22Zm-1.5-8.63,1.13.22c-.24.25-.47.5-.72.74C311.8,55.23,311.66,54.91,311.51,54.59Zm.1,2.56a8.36,8.36,0,0,1,.11,1.1l-1-.21C311,57.75,311.32,57.44,311.61,57.15Zm-1.9.68L308,57.47a23.51,23.51,0,0,0-1.92-3.86l4.38.78c0,.13-.05.26-.06.39s.24.4.38.19l.11-.19a12,12,0,0,1,.47,1.34Zm-4.53,2.79c0-.49,0-1-.05-1.46l1.21.19a.86.86,0,0,0,0,.16C305.93,59.87,305.55,60.24,305.18,60.62Zm1.06-.51a9.72,9.72,0,0,1-.59,2.07l-.15.18c0-.17-.08-.35-.14-.53a.36.36,0,0,0-.19-.21c0-.11,0-.22,0-.33C305.52,60.89,305.88,60.5,306.24,60.11Zm-1.14-2c0-.13,0-.27,0-.4l1.26.27c0,.11,0,.22,0,.33Zm5.25-4.67a.36.36,0,0,0,0,.22,1,1,0,0,1,.07.15c-1.55-.23-3.09-.45-4.63-.65l-.29-.52C307.13,52.84,308.74,53.11,310.35,53.4ZM306.42,51a2.88,2.88,0,0,0,.22-.27c.54.12,1.09.22,1.63.33-.14.08-.3.14-.45.21Zm-.38-.07-1.41-.28a2.25,2.25,0,0,1-.08-.24l.2-.06,1.29.26,0,.13A.33.33,0,0,0,306,50.94Zm-.38,4a.14.14,0,0,0,.17,0,12.36,12.36,0,0,1,.46,2.1L305,56.84c0-.48-.05-1-.07-1.45a.28.28,0,0,0-.37-.26c0-.47-.12-1.05-.18-1.58A10.33,10.33,0,0,0,305.66,55Zm5.52-3-1.3-.26a2.1,2.1,0,0,0,.13-.26l1.28.26Zm-1.85-1.49L307.17,50c.12-.18.23-.36.34-.55a26.52,26.52,0,0,0,3.34-1.57c-.22.32-.46.64-.67,1A13.62,13.62,0,0,0,309.33,50.45Zm-2.54-1.75c-.58.31-1.17.61-1.76.91l-1.18-.23a20.45,20.45,0,0,0,.67-2.05,37,37,0,0,0,5.15-3.19c-.52.77-1,1.54-1.52,2.34S307.21,47.93,306.79,48.7ZM304,52.86c-.05,1.24-.08,2.49-.1,3.73l-.65-.13a19.39,19.39,0,0,0-1-4.31c.48.06,1,.11,1.43.18A5.36,5.36,0,0,0,304,52.86Zm-5.55,4.22c0-.29-.07-.59-.12-.88l3.23.7-.55.55Zm1.67,1.28-1.79,1.82a9.61,9.61,0,0,0,.19-2.07Zm-2-3a14.38,14.38,0,0,0-.71-2.13.23.23,0,0,0-.11-.25c-.22-.5-.47-1-.73-1.46,1.71.14,3.42.32,5.12.53a.35.35,0,0,0,0,.25,14.61,14.61,0,0,1,.69,4ZM294.46,62l-.93,1.16a7.13,7.13,0,0,0,.66-1.52,14.35,14.35,0,0,0,.55-4.16l1.23.2a18.28,18.28,0,0,1-1.22,5.46.19.19,0,0,0-.24,0l-.21.21.67-.9C295.21,62.18,294.74,61.67,294.46,62Zm-.79-10.67,1.49.1a16.47,16.47,0,0,1,.84,3.48l-1.52-.33A30.25,30.25,0,0,0,293.67,51.35Zm.25,5.08-6.49-.91a14.16,14.16,0,0,0-.32-1.8l6.7,1.49C293.86,55.62,293.9,56,293.92,56.43Zm2.15-.72c0,.28.05.56.06.84l0,.2-1.4-.21c0-.38-.05-.77-.11-1.16Zm-.16,6.71a.25.25,0,0,0,.24-.18,15.29,15.29,0,0,0,.85-4.37l.55.09a7.64,7.64,0,0,1-.64,3.69l-1.17,1.28C295.79,62.76,295.86,62.59,295.91,62.42Zm1.1-6.5.27.06c.06.33.12.65.17,1l-.43-.06C297,56.56,297,56.24,297,55.92Zm.12-7.81-1.33-.25c.54-.11,1.07-.25,1.59-.41C297.3,47.66,297.22,47.89,297.13,48.11Zm.35.89,1.34.24-.52.24-1-.18Zm6.36,10c0,1,0,2.09,0,3.13a26,26,0,0,0-2.77,4,.28.28,0,0,0-.44,0c.5-.86,1-1.72,1.46-2.62a11.46,11.46,0,0,0,1.18-4.56Zm-.57-1.69.58.13c0,.16,0,.32,0,.49l-.57-.09C303.28,57.62,303.28,57.45,303.27,57.27Zm.58,5.72c0,.39,0,.77,0,1.16-.35.39-.71.77-1.05,1.16s-.82.91-1.25,1.37A29.32,29.32,0,0,1,303.85,63Zm-.37-13.68-2.29-.44c.78-.32,1.57-.67,2.36-1A6.23,6.23,0,0,0,303.48,49.31Zm-.6.7,0,.13a3,3,0,0,0-1.2,0l-2.53-.47.6-.22Zm-3.44-1.47-1.55-.29c.21-.4.43-.8.65-1.2A17.84,17.84,0,0,0,301,45.84,19.89,19.89,0,0,0,299.44,48.54Zm-1.58-2.07a16.71,16.71,0,0,1-2.65,1A24.82,24.82,0,0,1,296.64,45a21.1,21.1,0,0,1,1.94-2.39c1-.48,1.95-1,2.89-1.6A31.06,31.06,0,0,0,297.86,46.47Zm-1,2.41-.09.32-2.3-.42a3.37,3.37,0,0,0,.21-.31ZM294.7,50.3c.05.12.09.24.14.37l-1.41-.07c-.06-.19-.12-.38-.19-.57Zm-1-1.65-2.1-.38.25-.32,2,.36C293.76,48.43,293.72,48.54,293.69,48.65Zm-.88,1.3a.24.24,0,0,0,0,.08c0,.19.09.38.13.57q-3.09-.08-6.17,0c-.37,0-.34.63,0,.62q3.18-.06,6.32.09c.23,1,.45,2.08.61,3.11L286.89,53a13,13,0,0,0-2.36-4.54l2.09.36ZM278.79,65l-.58,1h0c.1-.45.19-.91.27-1.37A.5.5,0,0,0,278.79,65Zm-3.08-11.17-3.38-.48a5.7,5.7,0,0,0,.79-2.8l6.19,1.4c-.32.82-.64,1.6-.86,2.27ZM278.6,64l-.11.32c.17-1.16.27-2.34.34-3.54a35.38,35.38,0,0,1,.86-5.66l1.19.19a48.13,48.13,0,0,1-1.37,5.85c-.34.87-.68,1.74-.94,2.64A.28.28,0,0,0,278.6,64Zm6.46-6.37c.12-.22-.14-.54-.33-.29-.39.51-.77,1-1.14,1.55a22.78,22.78,0,0,0,.8-3l1.85.29A10.11,10.11,0,0,1,284.11,62c-.47.48-.92,1-1.37,1.46a15,15,0,0,0-2.44,2.9c-.35.45-.69.9-1,1.37C281.23,64.39,283.24,61.05,285.06,57.6Zm-.92-3.32c0,.25-.11.5-.17.75l-.59-.08c0-.7.05-1.38.07-2.05l2.55.58a10.75,10.75,0,0,1,.24,1.87l-1.72-.24c0-.24.08-.47.11-.71S284.2,54,284.14,54.28Zm-.32,1.47c-.21.82-.44,1.63-.71,2.43.11-.83.18-1.67.23-2.51Zm-.91-3q-.09,1-.21,2.07l-.52-.07c.09-.7.18-1.41.24-2.11Zm-.29,2.78c-.06.47-.11.94-.18,1.41-.14,1-.37,2.08-.52,3.12a.32.32,0,0,0-.27.16c-.58.93-1.16,1.87-1.72,2.81A31,31,0,0,0,282,56c0-.19.06-.38.08-.57Zm-1.35-2.92c-.07.66-.17,1.31-.27,2l-1.16-.17.06-.24C280.35,53.68,280.81,53.15,281.27,52.64Zm-1.75-1.23L273.13,50c0-.37,0-.75-.05-1.13a4,4,0,0,0-1.3-2.6q4.13.66,8.25,1.37A6.5,6.5,0,0,1,279.52,51.41ZM270.4,66.27l.54-.74a9,9,0,0,1-.32,3.45c-.07-.55-.19-1.1-.23-1.65A9.37,9.37,0,0,1,270.4,66.27Zm-.29-1.12-.31.44c-.21-.75-.43-1.49-.69-2.22,0-.37,0-.75,0-1.13a4.58,4.58,0,0,1,1.34,1.63C270.32,64.27,270.21,64.71,270.11,65.15Zm-1.65-8.26q.3-.8.57-1.59l.11-.18c0,.3,0,.6,0,.89Zm.86-7.68-1-.22c0-.71,0-1.42,0-2.13.44.35.83.69,1.18,1Zm-1,1.62c0-.46,0-.91,0-1.36l1,.22c-.06.69-.11,1.38-.14,2.07-.15.37-.28.73-.42,1.1l-.54-.08C268.22,52.13,268.25,51.48,268.28,50.83Zm.23,2.58c-.17.48-.33,1-.48,1.45,0-.5.07-1,.11-1.5Zm.55,14.67a13.09,13.09,0,0,0,1,2.64c-.22.54-.45,1.07-.7,1.57a8.64,8.64,0,0,0-.25-3c-.08-.28-.19-.57-.31-.88Zm1.76,3.5a.33.33,0,0,0,.07-.16A11,11,0,0,0,271.7,66a5.81,5.81,0,0,0-.28-1.11c2.14-2.87,4.31-5.7,6.59-8.46-.11.92-.17,1.85-.25,2.76-.37,4.59-.65,8-3.49,11.71-1.44,1.88-.69,3.39.73,3.8a.41.41,0,0,0,.2.06,3.5,3.5,0,0,0,2.38-.42c.8-.45,1.39-2.29,1.68-3a23.27,23.27,0,0,1,3.58-6c1.65-2.09,4-3.07,4.51-5.82a12.62,12.62,0,0,0,.16-3.15l6.44,1a13.68,13.68,0,0,1-.23,2.75c-.73,3.89-3.7,3.93-5.45,6.65a8.12,8.12,0,0,0-.27,9.09c.3.5,1.12.42,1-.26a5.78,5.78,0,0,1,.43-3.39c.27-.29.53-.57.78-.86a1,1,0,0,0,.41-.24.27.27,0,0,0,.06-.29c3.57-4,6.83-8.35,10.56-12.28l.95.15c-.63,3.73-2.8,6.91-4.66,10.88a6.35,6.35,0,0,0,1.22,7.32c-10-.39-19.93-.84-29.89-1.47A24,24,0,0,0,270.82,71.58Zm18-1.44a16.68,16.68,0,0,0-.95,2.25c-.25-2.49,1.34-4.17,3-5.94a10.49,10.49,0,0,0-2,2.94A1.36,1.36,0,0,0,288.82,70.14Zm9.92,5a9.77,9.77,0,0,1-.47-2.41l.17-.34a4,4,0,0,0,.13,1.5.56.56,0,0,0,.24.29C298.78,74.52,298.75,74.83,298.74,75.17Zm-.36-4.37a8.18,8.18,0,0,1,1.44-3.35.75.75,0,0,0,.07-.12,10.27,10.27,0,0,0-.8,2.34A12.46,12.46,0,0,0,298.38,70.8Zm1.24,6a13.47,13.47,0,0,1,3.24-8.57c1.25-.22,1.67-1.24,1.91-2.37a27.62,27.62,0,0,0,3.15-4.51,4.23,4.23,0,0,0,.25-.58l.92-1,2.51.38c-.27,2-1,3.85-1.3,6.34,0,.07,0,.14,0,.22a31.6,31.6,0,0,0-4.43,7,.24.24,0,0,0,.4.25c1.52-1.9,2.93-3.85,4.41-5.76a33,33,0,0,0,2.3,3.59c1.34,2.22,3,6.34,6.21,5.14a.34.34,0,0,0,.1-.56A16,16,0,0,1,316.23,73c1.15-1.28,2.16-2.72,3.36-4a35.63,35.63,0,0,1,4.47-3.84,21.06,21.06,0,0,1-2.46,12.49c-7.34-.23-14.69-.46-22-.74A.53.53,0,0,0,299.62,76.75Zm23.71-.32-.1.09a21.87,21.87,0,0,0,.87-2.32.42.42,0,0,0,.27,0c-.06.4-.11.79-.14,1.19a.27.27,0,0,0,.15.25c-.15.69-.27,1.39-.38,2.1l-.88,0c.21-.29.42-.58.61-.9S323.57,76.23,323.33,76.43Zm1.05-21.83a1.09,1.09,0,0,1,.08-.15l1.5.32-.06.15Zm17,1.16c-.19.41-.38.83-.55,1.26l-2.65-.58A21.65,21.65,0,0,0,342,54c-.34.36-.67.71-1,1S341,55.83,341.34,55.76Zm1.05,4.35.91.2c-.18,1-.41,2-.67,3A9.18,9.18,0,0,0,342.39,60.11Zm.78,5.79,1.09.21a15.56,15.56,0,0,1-1.08,1.25c-.39.36-.76.72-1.14,1.09s-1,.86-1.45,1.26c.45-.5.88-1,1.29-1.58A.27.27,0,0,0,342,68v0l.15-.19A10.54,10.54,0,0,0,343.17,65.9Zm1-5.39,1.12.24a4.36,4.36,0,0,1-.25,4.16l-1.31-.28a7.85,7.85,0,0,0,.52-2C344.31,62.11,344.2,61.2,344.18,60.51Zm-5,9.28c-.86.88-1.76,1.74-2.63,2.59a16.25,16.25,0,0,1,1.3-3,.37.37,0,0,0-.08-.39,23,23,0,0,0,2.78-3.63h0a8.51,8.51,0,0,0-.08,1.52.5.5,0,0,0,.46.47,10.61,10.61,0,0,1-1.9,1.59A.49.49,0,0,0,339.16,69.79ZM339,61.56l-.34.29c.09-.27.16-.54.23-.81l1.78.45a4.87,4.87,0,0,1-.38,2.42l-1.93-.4c.42-.36.83-.74,1.27-1.09S339.53,61.17,339,61.56Zm1.35-1.43a6.3,6.3,0,0,1,.25.86L339,60.44c0-.16.06-.31.07-.46a.84.84,0,0,1-.23.4h0a4.56,4.56,0,0,0,.26-1l.86.18a1.8,1.8,0,0,0-.05.19A.32.32,0,0,0,340.39,60.13Zm1.3,4.07-.65-.14a5.11,5.11,0,0,0-.28-4.22.27.27,0,0,0,.08-.07l.84.19A7.83,7.83,0,0,1,341.69,64.2Zm-1.23-6.28,0,.08-4.26-.91.05-.1.27.06a.36.36,0,0,0,.27.06ZM328.78,68.16h.13c-.79,1.32-1.58,2.64-2.33,4a5,5,0,0,0,.48-2.84A38.51,38.51,0,0,1,329,65.63l1.94-.12a3.91,3.91,0,0,0-.55.52.18.18,0,0,0-.23.1c-.25.44-.51.88-.77,1.31l-.61,0C328.31,67.49,328.4,68.12,328.78,68.16Zm-2.56-5.82,4.29.94c-.31.21-.63.4-.95.61a.21.21,0,0,0-.32.06c-.05.08-.1.17-.16.25l-.2.12C327.38,64.52,326.62,63.62,326.22,62.34Zm.24,10c-.32.58-.63,1.17-.93,1.76-.08.16-.14.32-.21.48.1-.44.22-.86.34-1.29A4.13,4.13,0,0,0,326.46,72.36Zm-1-10.19.3,2c-.21-.66-.4-1.32-.56-2a.28.28,0,0,1,0-.09Zm-.4-1.28c-.06-.68-.11-1.36-.14-2l0-.16.33,2.25Zm.61-2.86a.17.17,0,0,0,.13-.1,1.11,1.11,0,0,0,.07-.16q4,1,7.95,2c0,.14-.08.29-.11.43a.47.47,0,0,0,.48.57,2.91,2.91,0,0,0,.47-.13,2.61,2.61,0,0,1-.19.27c-.79.44-1.57.9-2.35,1.37l-6.17-1.2C325.78,60.07,325.73,59,325.66,58Zm.65-1.27a.37.37,0,0,1,.05-.11L328,57a.27.27,0,0,0,.26.1l.1,0,1.33.28-.06.23C328.53,57.3,327.42,57,326.31,56.76Zm7.18,7.16c-.51.28-1,.55-1.48.83-.84.1-1.76.2-2.64.25l.12-.06a10.1,10.1,0,0,0,3-1.23Zm-5.31,1.76c-.47.81-.89,1.63-1.28,2.46,0,0,0-.07,0-.11.17-.79.35-1.57.55-2.33h.2a.27.27,0,0,0,.39.06l.12-.08Zm1.19,4.62.08-.2c.49-.7,1-1.38,1.56-2a11,11,0,0,0,1.1-.27q-1.56,1.56-3,3.21ZM331.93,67a13.25,13.25,0,0,1,2-1.73l1-.12-1.16,1.07A9.6,9.6,0,0,1,331.93,67ZM334,62.64a5.57,5.57,0,0,0,2-2l.42-.22,1,.26a4.9,4.9,0,0,1-2.13,2.24Zm2.76-3-.42-.14a5.36,5.36,0,0,0,.09-.7l1.06.23a1.8,1.8,0,0,1,.06.22Zm-1.45-3.83-1.87-.4a14.86,14.86,0,0,0,3.42-2.27C336.34,54,335.81,54.91,335.33,55.83Zm-.43.87a.54.54,0,0,1,0,.11c-1-.22-2.06-.45-3.1-.66a1.84,1.84,0,0,0,.25-.09Zm-.67,1.64c-.06.16-.11.33-.16.49-1.29-.38-2.58-.75-3.88-1.1l.15-.23Zm-6.51-4.13a21.46,21.46,0,0,1,4-1.67c-.35.75-.73,1.52-1.09,2.3Zm2.57,1.49s0,.08-.05.13l-3.32-.7A.88.88,0,0,1,327,55Zm-4-1.78-1.45-.3.59-1.17c.73-.26,1.49-.54,2.25-.85A14.54,14.54,0,0,0,326.31,53.92ZM325,65.3A19.88,19.88,0,0,1,326,68c-.5,1.64-1,3.3-1.35,5l-.17.13A22.57,22.57,0,0,0,325,65.3Zm11.13,9c.25-.32.52-.63.79-.92a8.56,8.56,0,0,0-.83,1.76C336.08,74.9,336.1,74.62,336.12,74.35ZM350.81,62l1.8.41-.18.26c-.14-.28-.58-.39-.71,0A20,20,0,0,1,350.27,66l0,0-.52-.12c.44-1.17.87-2.34,1.31-3.5A.4.4,0,0,0,350.81,62Zm2.48,2.88A17.3,17.3,0,0,1,351.83,66c-.17.12-.33.26-.49.39l-.1,0c.49-.66,1-1.3,1.55-1.92a.32.32,0,0,0,0-.42.43.43,0,0,1,0-.07C353.42,62.5,353.58,62.82,353.29,64.87Zm-1.19-6.72a1.17,1.17,0,0,0,1,.56c0,.35,0,.69,0,1v0l-2.56-.59ZM350.68,62a.27.27,0,0,0-.24.17c-.56,1.21-1.13,2.41-1.7,3.62l-1.75-.4c.19-.17.38-.34.59-.5.44-.37-.1-1.21-.55-.84s-.83.68-1.24,1c0-.1.1-.2.15-.3a5.45,5.45,0,0,0,.14-3.81l1.67.36Zm-1.77-2.13-4-.86-.05-.07ZM335.8,45.72,339,47.78,344,51c3.48,2.22,1.28,4.33,0,6.76l-2.4-.52a22.1,22.1,0,0,1,1-2.08.42.42,0,0,0,0-.46,13.61,13.61,0,0,0,1.9-2.13c.13-.19-.08-.56-.31-.41a6.45,6.45,0,0,0-.66.51c.1-.17,0-.51-.24-.39-2.24,1.17-4.28,2.7-6.51,3.91l-.1,0a33,33,0,0,1,2.07-3.89.59.59,0,0,0-.29-.82,8.11,8.11,0,0,0,.54-.89c.11-.22-.12-.57-.35-.36a48.35,48.35,0,0,1-4.2,3.76,13.53,13.53,0,0,1-2.24,1.23l-.55-.12c.35-.81.68-1.64,1-2.4a.44.44,0,0,0,0-.39c2.12-.78,4.06-1.76,4.77-3.9.08-.25-.26-.55-.46-.32-2.42,2.78-6.16,3.13-9.09,5a13.84,13.84,0,0,1,1.5-2.13C332.06,49.58,334.54,47.89,335.8,45.72Zm-5.57-3.55,4.59,2.93a13.06,13.06,0,0,1-3.19,3.19.4.4,0,0,0-.62-.23,20.91,20.91,0,0,0-1.89,1.8A29.24,29.24,0,0,1,326,51.32l.63-1.27c.27-.54-.64-1-.93-.46l-1.11,2.27c-1.08.4-2.15.74-3.16,1l-1.06-.22a1.86,1.86,0,0,0,.1-.25C324.82,50.47,328.84,46.62,330.23,42.17Zm-.73-.46.22.14a35.68,35.68,0,0,1-4.4,6,19.85,19.85,0,0,1-4.25,3.24,27.6,27.6,0,0,1,2.54-4,.37.37,0,0,0-.07-.51A26.36,26.36,0,0,0,329.5,41.71Zm-8.16-3.91c2.5,1.48,5.16,2.08,7.52,3.51a63.55,63.55,0,0,1-11.09,7.62,22,22,0,0,1,2.3-2.71c.36-.36-.21-1-.59-.67A24.25,24.25,0,0,0,316,50l-2.34,1.33-.95-.19c.31-.57.64-1.14,1-1.68a26.17,26.17,0,0,0,8.69-9c.09-.17-.15-.39-.28-.22a34.78,34.78,0,0,1-6.37,6.4c.1-.39-.39-.88-.69-.51-.54.66-1.12,1.4-1.68,2.17-.83.54-1.68,1.06-2.57,1.54a.3.3,0,0,0,0-.08,14.66,14.66,0,0,1,2.29-3,.36.36,0,0,0,.11-.22A25,25,0,0,0,321.34,37.8Zm-.93-.58a66.19,66.19,0,0,1-5.69,6.29,32.87,32.87,0,0,1-6.31,4.33l.2-.37c.88-1.49,1.86-2.93,2.88-4.33a.5.5,0,0,0,0-.5A16.93,16.93,0,0,0,317,34.47,33.91,33.91,0,0,0,320.41,37.22Zm-23,4.5a.31.31,0,0,0,.09-.37,104.44,104.44,0,0,0,8.56-7c2.07-1.89,4.84-6.89,7.31-3.71a31.57,31.57,0,0,0,3.23,3.53s-.05,0-.07.06C314,39.43,309.77,43.14,305,46v0a13.07,13.07,0,0,1,3.51-4.84c.32-.29-.1-.93-.44-.62a14.49,14.49,0,0,0-4.23,6.16c-1.22.69-2.48,1.34-3.74,1.95H300c1.05-1.38,2.06-2.8,3.12-4.17a27.66,27.66,0,0,0,8.8-11.22c.12-.28-.21-.68-.46-.4-4,4.55-7.13,9.81-12.16,12.83a33.49,33.49,0,0,1,3.8-5.52.33.33,0,0,0,.06-.31,25.82,25.82,0,0,0,7.25-7.37c.13-.2-.13-.57-.34-.35a57.23,57.23,0,0,1-9.45,8.09A.42.42,0,0,0,300,40c-.57.5-1.18,1.08-1.79,1.7-.69.37-1.39.74-2.12,1.07C296.5,42.42,297,42.06,297.44,41.72Zm-3,2.63c.72-.26,1.44-.54,2.15-.84a15.28,15.28,0,0,0-2.49,4l-1.75-.32a20.3,20.3,0,0,1,1.43-2.13C294,44.84,294.18,44.59,294.4,44.35Zm-2.9,1c-.09.15-.2.3-.29.46a.18.18,0,0,0,.27.22c.34-.34.65-.71,1-1.07l.81-.26a16.33,16.33,0,0,0-1.76,2.33c-.73-.13-1.45-.27-2.18-.39C290.06,46.26,290.78,45.82,291.5,45.39Zm-.38,2.43c-.05.11-.11.23-.15.34l-2.1-.38c-2.07-.36-4.14-.7-6.22-1.05l-.29-.2a.6.6,0,0,0-.69,0q-8-1.31-16-2.48a1,1,0,0,1,0-.1.28.28,0,0,0-.55,0c-1.55-.23-3.11-.44-4.66-.66a2.37,2.37,0,0,0-.18-.55C270.57,44.25,280.85,46,291.12,47.82Zm-31.79,1a13.86,13.86,0,0,0,1.19-4.29l4.86.72c.26,1.08.48,2.13.64,3.2l-4.22-.91c-.22-.05-.28.33-.07.38l4.36,1a17.32,17.32,0,0,1,.11,3.54l-4.06-.58.31-.41c.19-.25-.2-.59-.41-.31l-.48.64-2.89-.41a10.2,10.2,0,0,1,.54-2.21C259.36,49.19,259.4,49,259.33,48.87Zm-2.07-4.14,1.86,2c-.29.59-.55,1.2-.78,1.81l-.52-.11c0-.17,0-.34.06-.51.06-.48-.67-.65-.74-.12l-.06.46-.72-.16C256.67,47,257,45.84,257.26,44.73Zm-.68-.73.11.12a3.38,3.38,0,0,0-.11.34.27.27,0,0,0-.46.13l-.21.64a.82.82,0,0,0-.61-.2c.18-.38.38-.76.58-1.13Zm-.71-1.81a5.3,5.3,0,0,0-.48.47L251,42.08a.45.45,0,0,0-.26-.58C252.42,41.72,254.15,42,255.87,42.19Zm-5.65,1,4.37.58a13.44,13.44,0,0,0-1.49,3.65c-1.58-.32-3.17-.62-4.77-.91A16.8,16.8,0,0,1,250.22,43.15Zm-.54-1.77a3.25,3.25,0,0,0-.23.29l-.54.16-3.65-.44c.05-.29-.41-.55-.53-.22a.88.88,0,0,0,0,.15q-7.49-.89-15-1.63v-.25a.58.58,0,0,0-.13-.29Q239.63,40.1,249.68,41.38Zm-20.46,6.71c-.06.94-.16,1.87-.26,2.78l-.07.14c0-1.09-.07-2.17-.13-3.24l.4,0ZM228,40.64a7.3,7.3,0,0,1,1.09,3l-.5-.06c-.41-.82-1-2.06-1.59-3Zm-.65,2.8-.93-.11c-.17-.75-.35-1.5-.52-2.23C226.4,41.87,226.89,42.65,227.36,43.44ZM226.07,47l-6.29-.85c.14-.92.29-1.85.48-2.75l5.47.75A27.35,27.35,0,0,1,226.07,47Zm-1.19-6.6H225c.16.93.36,1.89.54,2.88-1.72-.19-3.44-.37-5.17-.54a15.67,15.67,0,0,1,.86-2.64C222.47,40.16,223.68,40.24,224.88,40.35Zm-.31-1.65c.08.18.17.35.26.53L221.72,39c0-.31-.41-.57-.6-.24l-.09.18-1.52-.14a3.55,3.55,0,0,0-2.45-.3.31.31,0,0,0-.17.09l-.3,0v-.19a.38.38,0,0,0-.14-.26Q220.52,38.35,224.57,38.7Zm-7.44,9.78a.28.28,0,0,0-.09-.3c.09-.14.17-.29.25-.43a26.24,26.24,0,0,1-.57,3.2l0,0-.42,0A23.65,23.65,0,0,0,217.13,48.48Zm-1.19-6.21c-3-.28-6.07-.55-9.1-.8-.1-.79-.22-1.59-.39-2.38,3.14.17,6.28.35,9.42.57A13.68,13.68,0,0,1,215.94,42.27Zm-.8-4.29a.19.19,0,0,0,.07.19.74.74,0,0,1,.27.26c-3.11-.25-6.23-.47-9.35-.68,0-.1,0-.2-.07-.3Q210.61,37.67,215.14,38ZM205.63,39h.05a15.56,15.56,0,0,1,.43,2.36l-.4,0,.09-.42c.08-.34-.32-.66-.53-.49A7.24,7.24,0,0,0,205.63,39Zm0,2.72.54,0c.08.79.13,1.58.17,2.36a21.14,21.14,0,0,1-2.4,10.68,11.16,11.16,0,0,0,1-4.92.48.48,0,0,0,0-.18,39.16,39.16,0,0,0,.28-4.32A.42.42,0,0,0,205,45c0-.16.06-.31.09-.46s.26-.35.4-.52a.38.38,0,0,0-.18-.57C205.39,42.91,205.49,42.33,205.62,41.76Zm-.46-4.36c0,.09-.06.19-.08.28q-3.93-.26-7.85-.46l.14-.12C200,37.18,202.56,37.28,205.16,37.4ZM192.35,21.81c1.65,1.77,2.27,4.51,3.25,6.76-.57,1-1.17,2-1.71,3S192.3,34,192.37,35.3c0,.21.23.42.44.29,1-.66,1.37-1.86,1.88-2.91s.93-2.09,1.4-3.13a8.79,8.79,0,0,0,1.83,2.21,11.51,11.51,0,0,0-1.37,2.5c-.05.18.15.48.34.29a4.77,4.77,0,0,0,.58-.73c-.1.23-.2.45-.29.68a5.27,5.27,0,0,0-.6,2q-3.2-.11-6.4-.17A22.48,22.48,0,0,1,192.06,30a.36.36,0,0,0-.18-.47c.19-.26.38-.53.58-.79.79-1.07,1.17-2.41.07-3.36-.3-.26-.68.14-.45.46.76,1.05-2.37,4.47-2.93,5.53A9,9,0,0,0,188,36.25q-3.72-.06-7.44-.06a18.56,18.56,0,0,1,3-7.56c.28-.39-.35-.92-.65-.49a19.76,19.76,0,0,0-3.48,8h-.87c.25-.93.54-1.85.87-2.75,2.88-4.9,5.34-10,7.83-15.14C189,19.5,190.84,20.2,192.35,21.81Zm-7.9-9.18c.6,1.29,1.11,4.23,2.18,5.15a.18.18,0,0,1,.07,0C184.1,23,181.31,28,178.81,33.14a.37.37,0,0,0,.1.42,19.66,19.66,0,0,0-.68,2.64H176c.22-.68.44-1.37.63-2.07a27.38,27.38,0,0,0,1.24-5.28c2.51-3.75,5.22-7.36,6.57-11.74a.5.5,0,0,0-.44-.59c-1-.13-.78-.18-1.55.44-.31.24,0,.78.35.58.57.27.48.7-.28,1.29a38.36,38.36,0,0,1-2.55,4c-1.16,1.68-2.41,3.3-3.58,5a22.82,22.82,0,0,0-4,8.42l-2.61,0c3.69-9.18,8.83-17.42,13.68-26C183.84,11.22,184.19,12.07,184.45,12.63Zm-12.32-5c.14-.19-.14-.56-.32-.35-.54.64-1.08,1.29-1.61,1.95a39.51,39.51,0,0,1,2.89-3.62,27.92,27.92,0,0,1,3.28-3c1.38-1.13,1.7-1.65,1.75.2a.71.71,0,0,0,.54.6c1.68.53,3.3,3.59,4.48,6.16a149.92,149.92,0,0,0-11.4,19.27c0-.36-.54-.66-.76-.26a34,34,0,0,0-2.89,6.76l-.05,0a.52.52,0,0,0-.83.39c0,.19,0,.35,0,.51l-2.53,0c.12-.45.24-.9.35-1.35a88.82,88.82,0,0,1,8.85-16.7c2.49-3.58,5.35-6.31,5.91-10.78.05-.44-.58-.63-.67-.15-1.16,5.72-7.28,11-10.26,15.92a59.85,59.85,0,0,0-6.06,13.3l-2.54.13a1.36,1.36,0,0,1,0-.2.56.56,0,0,0,.53-.42c.21-.62.39-1.25.55-1.89,1.48-4.35,4.35-8.39,6.56-12.33,2.86-5.08,5.8-10.14,8.44-15.34.12-.24-.18-.58-.36-.3-3.13,4.88-6,10-8.92,15-1.5,2.57-3.27,5.17-4.76,7.89a.24.24,0,0,0-.28.12,15.9,15.9,0,0,0-2.59,7.54l-2.23.1c.26-1.34.5-2.66.78-4C162.16,23.93,166.23,15.68,172.13,7.67Zm-12.17,9c3.11-3.3,6.08-6.71,9-10.18-.15,1.18-.29,2.35-.43,3.53a.59.59,0,0,0,.62.62,77.06,77.06,0,0,0-9.88,16.47.21.21,0,0,0-.23.14,33.76,33.76,0,0,0-2.26,6.94c0,.06,0,.12-.05.18a.16.16,0,0,0,0,.1,17.52,17.52,0,0,0-.27,2.38l-2.35.14.06-.79c.29.38,1,.37,1-.25.27-7.87,6.67-13.6,8.94-20.86.11-.36-.4-.75-.56-.33-2.4,6.42-7.75,11.55-9.18,18.23a27.78,27.78,0,0,1,.7-4.45c.13-.49-.64-.85-.79-.29a25.7,25.7,0,0,0-1,8.79l-2.71.16c0-.79,0-1.59,0-2.38a.35.35,0,0,0,.42-.24A67.46,67.46,0,0,1,156,24C157.42,21.56,159.22,19.35,160,16.63ZM147.68,32.5q3-6.13,6.45-12.08c1.54-2.67,3.18-5.27,4.78-7.91.19-.31.38-.59.55-.86-.34,1.32-.63,2.66-.93,4l0,0a.19.19,0,0,0,0,.19l-.15.69a.6.6,0,0,0,.47.7,26.63,26.63,0,0,1-1.53,3.1c-.93,1.41-1.85,2.82-2.71,4.28a58.41,58.41,0,0,0-3.8,7.94h0c.14-1.4.35-2.79.62-4.16.07-.36-.45-.59-.54-.19a32,32,0,0,0-1.08,9l-3.09.21C147.08,35.82,147.41,34.15,147.68,32.5Zm-1.25,5.76,3.38-.23a12.66,12.66,0,0,0,.24,1.37.25.25,0,0,0,.21.2c-.93,0-1.86.07-2.78.13,0-.19.05-.37.08-.55.09-.51-.64-.86-.8-.3,0,.19-.1.39-.16.58a3.31,3.31,0,0,0-.4-.44C146.28,38.77,146.36,38.52,146.43,38.26Zm-.88,2.62h0l.68,0c-.11.43-.23.86-.33,1.3-.2-.22-.59-.27-.65.08a10.5,10.5,0,0,0-.18,1.1c-.14-.69-.29-1.39-.46-2.09a.58.58,0,0,0-.18-.3l.85,0C145.35,41,145.5,41,145.55,40.88Zm-24.27,7.27-.5.06a20.73,20.73,0,0,1,2.72-3.8A26.35,26.35,0,0,1,121.28,48.15Zm.84.6c-.21.47-.43,1-.63,1.42a6.42,6.42,0,0,0-.43.48c.28-.63.58-1.26.88-1.89ZM125,43.46a.14.14,0,0,0,0-.11,4.33,4.33,0,0,1,.63.39c-.68,1-1.4,2-2.11,3.12C124,45.72,124.45,44.59,125,43.46Zm-1.27.53c0-.2-.28-.36-.47-.18a16.82,16.82,0,0,0-3.45,4.52q-6.06.7-12.08,1.62a27.89,27.89,0,0,1,.73-4.26q7.81-1.52,15.7-2.65C124,43.36,123.83,43.68,123.69,44Zm-3.81,7.23c-.39.8-.76,1.61-1.09,2.43.11-.57.23-1.13.39-1.69C119.42,51.72,119.65,51.47,119.88,51.22Zm.77,2.78c.34-.72.65-1.45,1-2.17.21-.43.44-.86.66-1.29.52-.66,1.09-1.31,1.67-2,1.81-.17,3.61-.32,5.42-.45-.06.17-.12.35-.17.53-.63,1.34-1.22,2.7-1.72,4.09a.23.23,0,0,0,.06.25c-1,2.2-2,4.43-2.83,6.7-2,.08-4,.18-6,.32a.37.37,0,0,0,0-.15c0-.25,0-.49,0-.74Q119.69,56.57,120.65,54Zm11-6.84-.39,0c.3-.58.61-1.16.93-1.73Zm.57.76.85-.06c-.57.84-1.12,1.67-1.64,2.5l.37-1.21.09-.32Zm-3.15,7.46c0,.1-.06.19-.09.29a17.31,17.31,0,0,1,.13-2.88A41.59,41.59,0,0,0,131,48l.41,0c-.05.17-.11.35-.17.52a22.33,22.33,0,0,0-2.16,6.83S129.08,55.36,129.08,55.38Zm.57-8c-1.66.14-3.31.29-5,.46l.48-.53a8.06,8.06,0,0,0,2.22-4.7l1.75-.24c.82-.11,1.64-.2,2.46-.29C131,43.78,130.26,45.55,129.65,47.34Zm-1.43,6.21a14.61,14.61,0,0,0,.33,4.82.4.4,0,0,0,.8,0,11.42,11.42,0,0,1,.32-2.09c.11-.38.23-.77.35-1.15a21,21,0,0,1,2.77-4.91,11.68,11.68,0,0,0,1.9-2.42l3.54-.2a112.76,112.76,0,0,0-5.26,12c-2.41,0-4.82,0-7.23.06Q126.9,56.58,128.22,53.55Zm11.24-8.4c-.26.51-.51,1-.77,1.52l-3.51.24a21.29,21.29,0,0,0,1-2.29c.13-.32.28-.63.39-1a5.64,5.64,0,0,0,.21-.78c.14-.48.28-1,.4-1.41,1.33-.12,2.66-.23,4-.32a47.78,47.78,0,0,1-.17,5.42l-1.8.09c.21-.4.41-.8.62-1.19S139.62,44.86,139.46,45.15Zm-.71,2.4,2.21-.09c-.24,3.85-.25,7.67,2.12,10.4,0,0,0,0,0,.07a.46.46,0,0,0,.38.36h0a7,7,0,0,0,.64.57c-.13.37-.26.74-.38,1.11-3.5-.19-7-.32-10.49-.36C134.9,55.51,136.72,51.48,138.75,47.55Zm3.15-6.46L143,41c-.14,1.79-.23,3.62-.29,5.45l-.6,0A28,28,0,0,0,141.9,41.09Zm0,7.34c0-.34.07-.68.11-1l.66,0c0,2.33,0,4.67.12,7,0,.16,0,.33,0,.49s0,.07,0,.1c0,.37,0,.73.08,1.1C141.67,53.84,141.49,51.46,141.9,48.43Zm2,5.47c0-1-.08-2-.13-3.06,0-.36,0-.73,0-1.09a.57.57,0,0,0,.55.21C144.15,51.27,144,52.58,143.87,53.9Zm.46-10c.14.67.26,1.34.34,2,0,.16-.09.32-.13.48h-.22A23.35,23.35,0,0,1,144.33,43.89Zm.2,15.27c.12.09.23.18.36.26a4.48,4.48,0,0,0,.2.62l-.91,0C144.3,59.72,144.41,59.44,144.53,59.16Zm.91-20.82a1.36,1.36,0,0,1,0,.2l-.26-.11c-.25-.08-.3.34-.1.44a2.25,2.25,0,0,1,.3.24c0,.25,0,.5-.05.75l-1.22.08h0c0-.44-.66-.64-.69-.14,0,.06,0,.13,0,.19l-1.64.13c0-.25-.07-.5-.12-.75-.07-.41-.7-.44-.62,0,0,.26.07.52.1.79-1.48.11-3,.24-4.43.37a2.18,2.18,0,0,0-1.26-1.28C138.76,38.9,142.1,38.61,145.44,38.34Zm-10.6,6.88c-.39.6-.79,1.2-1.19,1.79l-1.09.08c.36-.92.74-1.83,1.19-2.72.1-.18-.16-.37-.27-.17l-.5.91c.19-.64.36-1.28.53-1.93l.06-.1a.29.29,0,0,0,0-.24,6.59,6.59,0,0,1,.27-1.06l.8-.07Q136.28,43.55,134.84,45.22Zm-1-5.81c-.24.49-.5,1-.75,1.46a.09.09,0,0,0-.11,0q-2.81.3-5.6.64a8,8,0,0,0-.14-1.26l0-.09C129.46,39.9,131.67,39.65,133.89,39.41Zm-8.44,6.43a21.75,21.75,0,0,1-1.6,1.84q1-1.78,2.16-3.51C126.36,44.7,126.18,45.25,125.45,45.84Zm-16.37-3q8.49-1.47,17-2.55a3.22,3.22,0,0,0-1.46,1.58q-8,1.08-15.92,2.61l.39-1.43A.3.3,0,0,0,109.08,42.87Zm-.42.08a15.63,15.63,0,0,0-.62,1.69l-1.82.36c0-.18,0-.36,0-.55l.3-.7c.1-.22-.25-.5-.39-.24,0,.07-.07.15-.12.23a.88.88,0,0,0,0-.33C106.87,43.24,107.77,43.1,108.66,43Zm-1.79,7.64h.06c0,1.6.51,4.55.45,6.93l-.38-.27c-.18-.13-.33-.28-.49-.42A58.38,58.38,0,0,1,106.87,50.59Zm-.68-.41-.12,0,.12-4.08,1.13-.22A28.62,28.62,0,0,0,106.19,50.18Zm0,8.57a2,2,0,0,0-.35-.6c-.32-.4-.61-.77-.88-1.13a2.76,2.76,0,0,1,.08-.27,2.57,2.57,0,0,0,.94.71Q106,58.12,106.15,58.75Zm-1.32-4.59a9.35,9.35,0,0,1-.27-3.24l.46-.07c-.06.8-.13,1.59-.19,2.38A7.22,7.22,0,0,0,104.83,54.16Zm-1.14-3.11.3,0c0,.75-.07,1.5,0,2.28a6.4,6.4,0,0,0,.67,2.85c0,.11-.07.21-.1.32a6.26,6.26,0,0,1-1.08-5.06c0-.15.06-.29.09-.43A.17.17,0,0,0,103.69,51.05Zm-.1-.44a17.27,17.27,0,0,1,.75-2.16,17.79,17.79,0,0,0-.3,2.07l-.41.06Zm1-.18a18.62,18.62,0,0,1,.73-3.47l-.27,3.4ZM44.84,60.87a315.22,315.22,0,0,1,42.3-13.49q8.91-2.15,17.93-3.81h0l.15.1a.17.17,0,0,0,.12,0c-.09.33-.28.9-.54,1.6-12.33,2.52-24.52,5.76-36.56,9.41-.08-.1-.22-.14-.28,0l0,.08-2.42.73c-1,.3-1.93.63-2.9.93.09-.16.16-.33.25-.49s-.27-.65-.44-.33l-.53,1Q54.82,59,47.79,61.41h0c.09-.3-.33-.52-.45-.2,0,.14-.09.28-.13.42l-2.71,1Zm14.33-1.16c.41.09.79.18,1.16.29a75.26,75.26,0,0,0-5,14.79,1.84,1.84,0,0,0-1.6-1.51.5.5,0,0,0-.55.36c0,.27-.06.52-.08.76a6.22,6.22,0,0,0-2.41-3.55A38,38,0,0,1,52.48,63c.09-.27-.31-.5-.41-.19a40.67,40.67,0,0,0-1.85,7.75,9.4,9.4,0,0,0-4.39-1.4c.45-2.17,1-4.33,1.59-6.46Q54.3,60.25,61.26,58c-.21.43-.42.86-.62,1.3-.46-.09-.93-.17-1.41-.22S58.86,59.65,59.17,59.71ZM38.38,70.13c-1.46,2.75-3,7.45-2,10.86-.48-.09-1-.16-1.56-.23A82.31,82.31,0,0,1,39,68c.1-.24-.24-.45-.35-.19A96.57,96.57,0,0,0,34.1,80.66c-.46-.06-.92-.12-1.37-.21a110.4,110.4,0,0,1,3.38-13.73c2.47-.91,5-1.81,7.42-2.7-.45,1.83-.88,3.67-1.22,5.52a8.25,8.25,0,0,0-4.37,3.8c.29-1.11.62-2.14.91-3C39,70.11,38.54,69.84,38.38,70.13Zm-4.65,12c-.39,1.62-.74,3.25-1,4.88-.34-.16-.67-.33-1-.48.25-1.55.5-3.09.77-4.63C32.88,82,33.31,82.05,33.73,82.11ZM43,76.65a3.42,3.42,0,0,0,0,2h0a4.29,4.29,0,0,1-.25-2.33l.12-.27v.12A1,1,0,0,0,43,76.65Zm-3.33-2.26a9.45,9.45,0,0,1,1.73-2.23,5.34,5.34,0,0,1,.61-.48l0,.19a5.43,5.43,0,0,0-1.65,3.23,4.31,4.31,0,0,0,1.57,5.28,6.08,6.08,0,0,0,1.6,1.34c2.15,1.24,4.18.16,5.37-1.59,0,0,.1-.06.14-.1a5.12,5.12,0,0,0,1.15-1.37c0,.24,0,.48.08.73s.24.12.24,0c0-.44,0-.87,0-1.3a3.22,3.22,0,0,0,0-2.51c0-1,.08-2.1.16-3.13,1.54,1.73,1.23,4.44.47,6.71-.08.24-.16.47-.25.69a6.73,6.73,0,0,1-7.08,2.73C39.42,81.56,38.57,77.75,39.63,74.39Zm5.78,1.5a.46.46,0,0,0-.73-.25.48.48,0,0,0-.06-.37,4.77,4.77,0,0,1,2.4-1,4.34,4.34,0,0,1,.87,1.31,5.11,5.11,0,0,1-4.17,3,2.58,2.58,0,0,1-.07-1.43C44.49,77.45,45.64,77.05,45.41,75.89Zm.32-3.71a4.59,4.59,0,0,0-.51-.1l.09-.46a5.64,5.64,0,0,1,2.27-.29A1.53,1.53,0,0,1,49,72.44,3.75,3.75,0,0,0,45.73,72.18Zm2.51,5a5.94,5.94,0,0,1-.81,1.15,3.87,3.87,0,0,1-2.62,1.19,6.44,6.44,0,0,0,3.41-2.63A2.83,2.83,0,0,1,48.24,77.23ZM62,57.78c1.31-.42,2.62-.86,3.93-1.27L67.46,56q-1,2.64-2,5.32a12.48,12.48,0,0,0-4.26-1.92Q61.59,58.61,62,57.78ZM46.8,62.88a50.85,50.85,0,0,0-1.61,6.2,8.74,8.74,0,0,0-2,.23c.44-1.83.79-3.7,1.14-5.55ZM19.78,72l-.11,0q12.13-5.91,24.58-10.9l-.42,1.71q-3.67,1.32-7.32,2.68h0c.08-.24-.26-.45-.35-.19s-.09.25-.13.37l-.51.19C30.25,67.82,25,69.87,19.78,72Zm13-.32a8.34,8.34,0,0,0-3,1.79c.33-1.57.67-3.15,1.06-4.73l4.76-1.78a107.36,107.36,0,0,0-3.75,13.33,3.41,3.41,0,0,1-2.44-1.78C28.26,75.72,31.56,73.68,33,72,33.14,71.82,33,71.57,32.81,71.63Zm-4.25,8.44a5.33,5.33,0,0,0,2.84,1.56l.16,0q-.42,2.23-.69,4.47c-1-.42-2-.81-3.07-1.18C28,83.33,28.3,81.69,28.56,80.07ZM20.05,84l2.24.65a37.54,37.54,0,0,0-.18,7.64c-.51-.31-1.61-.92-3-1.7C19.37,88.32,19.67,86.13,20.05,84ZM17,83.13l2.32.62a45.7,45.7,0,0,0-.78,6.47l-2.79-1.6C16.2,86.81,16.6,85,17,83.13Zm-3.6,3.73c.09-1.55.18-3.06.32-4.55l2.56.64c-.4,1.77-.77,3.55-1.08,5.34q-.88-.53-1.77-1.08a1.26,1.26,0,0,0-.16-.2A.16.16,0,0,0,13.38,86.86Zm-9,3.87c-1.09-.82-2.18-1.66-3.24-2.56q1.56.08,3.12.12c.07.5.1,1,.13,1.5C4.41,90.1,4.39,90.42,4.39,90.73ZM6,91.87l-.89-.62a3.15,3.15,0,0,0,.18-1.15A4.78,4.78,0,0,0,5,88.31l1.3,0A6.64,6.64,0,0,0,6,91.87Zm11.94,6.95a80.76,80.76,0,0,1-11.43-6.6A9.67,9.67,0,0,1,7,88.48a.59.59,0,0,0,0-.13l1.31,0c1.37,0,3.73.6,4.9-.33L15,89.19c-.08.52-.17,1-.25,1.56,0,.25.28.34.35.09.13-.45.25-.9.37-1.35l3,1.9c0,.66,0,1.31,0,2a.13.13,0,0,0,.15.14l-.37,2.27A13.17,13.17,0,0,0,17.92,98.82Zm.42.19a0,0,0,0,0,0,0A11.38,11.38,0,0,0,19,95.92c.18-1.17.35-2.33.53-3.49.05-.36-.39-.56-.57-.32,0-.14,0-.28,0-.42l2.73,1.73.38.24a.25.25,0,0,0,0,.07,14.4,14.4,0,0,0-1.28,6.36C19.94,99.74,19.14,99.39,18.34,99Zm3.28,1.45c0-.59,0-1.19,0-1.78a15.3,15.3,0,0,1,1-4.62s0,0,0,0c1.14.74,2.29,1.52,3.45,2.29a11,11,0,0,0-.72,5c.06.37.58.48.65.06.18-1,.16-2,.32-3a14.22,14.22,0,0,1,.42-1.71c.62.41,1.25.82,1.89,1.22a.28.28,0,0,0-.2.16c-.63,1-1.11,3.09,0,4a.23.23,0,0,0,.36-.18,14.43,14.43,0,0,0-.2-1.45,3.26,3.26,0,0,1,.55-1.89.4.4,0,0,0,0-.35,39.62,39.62,0,0,0,5.63,3c.29.12.45-.34.25-.51a49.45,49.45,0,0,0-7.88-5.49.41.41,0,0,0-.43-.26c-1.48-.88-3-1.74-4.39-2.64,0,0,0,0,0,0,.1-2.6.27-5.1.55-7.57,1.29.39,2.59.82,3.9,1.28-.32,2.41-.55,4.83-.65,7.25,0,.27.35.38.4.08q.53-3.54,1-7c1.06.38,2.1.79,3.13,1.22-.16,1.58-.28,3.15-.31,4.73,0,.28.36.39.41.08.22-1.51.44-3,.67-4.48l1,.45a54.51,54.51,0,0,0-.58,6.49.15.15,0,0,0,.29,0q.47-3.15,1-6.19C40.44,92.18,45.59,97,42,103.38a12.42,12.42,0,0,0-2.28,2.42.41.41,0,0,0,.08.51A121.56,121.56,0,0,1,21.62,100.46ZM144,121.23a15.76,15.76,0,0,0,1.49.73c.06,1,.09,2,.15,3.06A36.69,36.69,0,0,1,144,121.23Zm15.32,20.25a68.47,68.47,0,0,1-5.36-4.94,16.22,16.22,0,0,1,.36-2.16,21.68,21.68,0,0,0,3.41,2.33,21.58,21.58,0,0,0-.68,2.06c-.05.2.2.49.34.24a18.91,18.91,0,0,0,.95-2c.34.17.69.34,1,.48A21,21,0,0,0,159.36,141.48Zm-5.74-10.9c.42.3.85.59,1.28.86a8.74,8.74,0,0,0-.74,1.25c-.26-.22-.53-.43-.78-.66s-.3-.31-.46-.46Zm-1.07.6a23.28,23.28,0,0,1-1.68-1.9l.24-.79a25.7,25.7,0,0,0,2,1.74Zm-.53-5.55c.79.66,1.59,1.3,2.41,1.93l.33.39A24.08,24.08,0,0,0,159,132.2c.26.18.48-.18.31-.39a29.34,29.34,0,0,0-2-2.2c.46.3.93.58,1.4.85.29.17.54-.23.32-.46a43.47,43.47,0,0,0-5.54-4.68l-1.18-1.53c3.3.51,3,1.49,5.09,3.07,2.38,1.79,4.36,1.77,3.2,5.24a25.56,25.56,0,0,0-1.09,4.43c-1.64-1.07-3.26-2.11-4.79-3.33a7,7,0,0,1,.75-1.4,15.67,15.67,0,0,0,1.64.82c.27.11.36-.25.21-.41-.39-.41-.81-.8-1.23-1.18.11-.12.21-.25.33-.37.29-.28-.08-.89-.39-.6-.16.16-.31.34-.47.51-1.29-1.12-2.68-2.18-3.92-3.33l-.13-.12Zm-2.48-2.11h0l1.84,1.57a.93.93,0,0,1,0,.1l-.42,1.34c-.57-.54-1.14-1.08-1.7-1.63C149.32,124.44,149.43,124,149.54,123.52Zm-.63,2.71c.51.57,1,1.13,1.58,1.67l0,.13c0,.15-.11.31-.16.47-.5-.67-1-1.35-1.42-2C148.88,126.38,148.9,126.3,148.91,126.23Zm-1.17-3.43a4.49,4.49,0,0,0,1.11.57l-.21,1-1.94-1.89C147,122.57,147.39,122.68,147.74,122.8Zm-1.87-.53c.21.32.43.63.65,1a.34.34,0,0,0,0,.28,22.46,22.46,0,0,0,1.57,3.35,3.79,3.79,0,0,0-.07,1c0,.16.23.3.34.13a3.14,3.14,0,0,0,.18-.37c.43.7.92,1.39,1.42,2.07a2.92,2.92,0,0,0,0,.66c0,.15.22.3.34.16a1.59,1.59,0,0,0,.15-.21c.5.63,1,1.24,1.58,1.83-.12.21-.26.42-.38.64s.13.38.27.21.27-.36.4-.54c.46.48.95.94,1.44,1.38a6.51,6.51,0,0,0-.32,2.09,45.07,45.07,0,0,1-7.32-10.11c-.09-1.25-.24-2.51-.34-3.75l.11,0A.25.25,0,0,0,145.87,122.27Zm-.1-1.38c-.7-.24-1.39-.48-2.1-.69-.16-.49-.33-1-.47-1.48,0,0,0,0,0-.06A7.62,7.62,0,0,1,145.77,120.89ZM318.45,109a.35.35,0,0,0-.16-.42q4.17-1,8.29-2.07c.53.6,1.22,1.35,2,2.12a39.86,39.86,0,0,0-2.12,4,8.88,8.88,0,0,1-1.67-2.67c.37-.66.76-1.32,1.17-2,.24-.37-.31-.9-.58-.49s-.62,1-.93,1.47c-.06-.22-.14-.45-.18-.67-.08-.4-.72-.51-.72,0a8.21,8.21,0,0,0,.19,1.88c-.46.76-.91,1.54-1.34,2.33a14.13,14.13,0,0,1-1.46-2.71l.55-.71c.21-.25-.13-.72-.37-.44l-.43.53c-.05-.15-.12-.29-.17-.44-.14-.45-.73-.22-.61.23.08.29.19.55.29.83a30.12,30.12,0,0,0-2.66,4.08c-.19-.33-.38-.66-.56-1C317.45,111.59,317.94,110.28,318.45,109Zm16.81-4.39a.61.61,0,0,0,.05.12c-.55.94-1.1,1.9-1.63,2.86a19.1,19.1,0,0,1-1.61-2.61l.71-.21a.22.22,0,0,0,.29.07l.73-.36,2-.59-.08.14C335.43,103.93,335.13,104.29,335.26,104.62Zm-1.46,5.15c.33.41.68.8,1.05,1.18s.52.51.8.76a4.13,4.13,0,0,1-2.55-.7C333.34,110.6,333.57,110.19,333.8,109.77Zm-.74-1c-.3.57-.58,1.13-.85,1.7-.54-.38-1-.77-1.46-1.08s-.66-.54-1-.81c.54-1,1.11-2,1.75-2.91A14.49,14.49,0,0,0,333.06,108.73Zm-4.05-.8a19.17,19.17,0,0,1-1.63-1.62l3.29-.92C330.1,106.21,329.54,107.06,329,107.93Zm-3.16,6.13c-.19.48-.35,1-.51,1.44a7.73,7.73,0,0,1-.94-.71,11.72,11.72,0,0,1-1.34-1.39c.32-.69.65-1.38,1-2.07a8.51,8.51,0,0,0,1.44,2.36Zm-6.2,2.69a15.7,15.7,0,0,1-1.6-2,23.88,23.88,0,0,1,2.36-4.21,14.52,14.52,0,0,0,1.56,2.84,37.09,37.09,0,0,0-1.77,3.92C320,117.1,319.82,116.94,319.65,116.75Zm.15,1.64a23.48,23.48,0,0,0-.69,2.55,15.29,15.29,0,0,1-2.51-2.2c.32-1,.66-2.07,1-3.07A17.27,17.27,0,0,0,319.8,118.39Zm-3.2-4.54c.15.3.32.6.49.89a23,23,0,0,0-1.25,3.05c-.17-.24-.34-.48-.5-.74C315.78,116,316.2,114.92,316.6,113.85Zm-1.86,4.57c.2.34.42.66.65,1-.1.44-.17.89-.24,1.34a7.43,7.43,0,0,1-1.12-.86C314.28,119.4,314.51,118.91,314.74,118.42ZM320,124c-3.38,2.86-5.67-.89-8-3.44-.5-.54-1-1.11-1.5-1.69a49.74,49.74,0,0,0,4.6,4.58l0,0a11,11,0,0,0,1.8,1.16c.28.14.5-.15.37-.41a7.88,7.88,0,0,0-1.25-1.75,4.24,4.24,0,0,0,2.32.23c.29-.06.23-.5,0-.59a23.47,23.47,0,0,1-2.4-1c.08-.29.15-.57.23-.85A7.67,7.67,0,0,0,321.2,123C320.79,123.34,320.37,123.68,320,124Zm1.59-1.31a.26.26,0,0,0-.1-.2l-1.8-1.19.94-2.17a10,10,0,0,0,3,1.9C322.94,121.59,322.25,122.15,321.56,122.71Zm2.78-2.2c-1.08-.87-2.21-1.61-3.28-2.48.53-1.26,1.05-2.51,1.61-3.75.24.3.49.59.76.88a12.78,12.78,0,0,0,1.57,1.38c-.16.58-.31,1.16-.43,1.74,0,.23.28.55.42.25l.69-1.51a9.53,9.53,0,0,0,2,1C326.57,118.84,325.45,119.66,324.34,120.51Zm4.35-3.11c-.86-.48-1.72-.9-2.55-1.39l.54-1.2a5.32,5.32,0,0,0,3.95,1.37C330,116.58,329.33,117,328.69,117.4Zm2.45-1.55-.15.1a.48.48,0,0,0-.18-.46,37.4,37.4,0,0,1-3.51-2c.64-1.38,1.29-2.75,2-4.09a24.9,24.9,0,0,0,2.45,2.09c-.32.73-.61,1.46-.86,2.2-.05.16.13.4.27.21.47-.6.91-1.24,1.33-1.9,1.61,1,3.08,1.45,3.87.35a8.54,8.54,0,0,0,.78.56A63.19,63.19,0,0,0,331.14,115.85Zm7.52-3.67a28,28,0,0,1-3.13-2.41,15.54,15.54,0,0,1-1.09-1.19c.46-.9.92-1.81,1.36-2.72a13.9,13.9,0,0,0,3.46,4.86,3.58,3.58,0,0,0,1.24.58C339.9,111.6,339.28,111.9,338.66,112.18Zm6.32-3.53a23.16,23.16,0,0,1-2.74,1.74v0c0-.2-.23-.42-.45-.33-1.34.55-2.26-1-3-1.88-.87-1.08-1.68-2.22-2.49-3.36.2-.42.4-.82.6-1.23.52-.15,1-.29,1.54-.45A8.92,8.92,0,0,0,341,107.8a1.67,1.67,0,0,0,2.22.33.9.9,0,0,0,.09-1.46c-.11-.11-.29,0-.34.11-.59,1.77-2.43-.84-2.86-1.5l1.14-1.89s0-.13-.07-.06l-1.13,1.87a6.17,6.17,0,0,1-.82-2,.19.19,0,0,0,.14,0c.27-.18.55-.38.82-.58l2.68-.8a12.53,12.53,0,0,0,1,1.68,5.8,5.8,0,0,0,2.67,2.31.29.29,0,0,0,.3-.44c-.54-.79-1.39-1.36-2-2.1a9.44,9.44,0,0,1-1.11-1.71l.84-.26c.19.26.43.58.71.65C349.86,103.13,347.66,106.65,345,108.65Zm5-7.74-.11.06c-.31.2-.21.59,0,.81-.21-.08-.43-.14-.64-.21a1.71,1.71,0,0,0-.47-.42,4.23,4.23,0,0,1,.23-.48c.09-.17-.12-.37-.26-.22s-.33.33-.49.48a8.48,8.48,0,0,0-1.86-.2c2-.6,4-1.2,6-1.78l.13,0c-.27.35-.55.69-.83,1l-.38.27a9.24,9.24,0,0,0-1.32.69h0Zm3.38,1.58a.52.52,0,0,0,.05.44c-.08.34-.15.69-.22,1a10.59,10.59,0,0,0-1.93-1.49l.09-.07.34-.31C352.24,101.63,353.86,101.25,353.4,102.49Zm24.58-9a3.2,3.2,0,0,0-.2,2.46l-.54-.21a1.51,1.51,0,0,0-.3-.51.64.64,0,0,0-.53-.2,1.44,1.44,0,0,0-.48-.53,2.75,2.75,0,0,0-.93-.36,1.73,1.73,0,0,0,.27-.35C376.18,93.7,377.08,93.6,378,93.48Zm12-3.25a2,2,0,0,0-.86.25l-1.06.08-.16-.26a1.43,1.43,0,0,0,.55,0l1.1-.27.5-.14A2.46,2.46,0,0,1,390,90.23Zm5.65-4.08-3.87.91a11.67,11.67,0,0,0,4.56-3.14c.14-.16-.06-.44-.25-.31a24.16,24.16,0,0,1-6.62,3.5c-.25.07-.25.36-.12.54l-3.59.86a15.54,15.54,0,0,0,3.62-4.59c.06-.13-.09-.38-.24-.25a26.82,26.82,0,0,0-2.36,2.74c-.69.82-1.43,1.6-2.17,2.38q-6.21,1.53-12.39,3.15a8.22,8.22,0,0,0,2.89-3.33c.08-.18-.15-.45-.32-.28a35.13,35.13,0,0,1-3,2.89,14.08,14.08,0,0,1-2.69,1.54c-1.75.46-3.5.9-5.24,1.38A14.9,14.9,0,0,0,366.36,92c.1-.11,0-.37-.18-.26-1.37,1-2.73,2-4.15,2.93L357.31,96a23.23,23.23,0,0,0,3.41-3c.12-.14,0-.45-.22-.35a34.22,34.22,0,0,0-5.31,3.91l-1.42.4-4.17,1.22,1.32-1a15.51,15.51,0,0,0,2.85-2.44c.12-.15,0-.46-.24-.36a13.69,13.69,0,0,0-2.63,1.91l-3,2.4L343.45,100A15.45,15.45,0,0,0,345,98.3c.09-.11,0-.37-.16-.25-.75.6-1.48,1.23-2.2,1.85a.41.41,0,0,0-.33.29l-.25.22-3,.89c-.09-.39-.68-.49-.72,0a1.62,1.62,0,0,0,0,.22l-.47.14.05-.09a.48.48,0,0,0-.18-.59,3.77,3.77,0,0,0,.32-.71c.07-.2-.15-.46-.35-.29-.82.69-1.43,1.61-2.2,2.37-1.9.56-3.81,1.12-5.71,1.66a2.94,2.94,0,0,0,.48-1.47c0-.18-.26-.43-.38-.19a6,6,0,0,1-1.3,1.91,2.31,2.31,0,0,1-.19.14l-2.15.61-.1-.12a.35.35,0,0,0-.62.31l-3.34.89a8.57,8.57,0,0,0,2.53-2.75c.11-.21-.09-.52-.32-.35-.83.64-1.55,1.43-2.35,2.1a16.44,16.44,0,0,1-2.48,1.65,5.77,5.77,0,0,0,.88-1c.12-.19-.09-.54-.32-.41-1.18.68-2.27,1.49-3.46,2.13q-2.61.61-5.23,1.16a4.66,4.66,0,0,0,2.33-2.3c.06-.17-.11-.44-.31-.33a17.08,17.08,0,0,0-1.87,1.55,8.67,8.67,0,0,1-2.2,1.19.29.29,0,0,0-.19.34q-2.53.49-5.07,1a10.5,10.5,0,0,0,4.63-3c.13-.17-.07-.5-.29-.39-.85.43-1.63,1-2.46,1.51a16,16,0,0,1-2.9,1.28.43.43,0,0,0-.08.77q-3.44.6-6.87,1.13a18.77,18.77,0,0,0,6.63-3.47c.18-.15,0-.56-.22-.49-3.19,1-6.11,2.85-9.24,4a.32.32,0,0,0-.19.41l-4,.56c.46-.31.92-.62,1.37-.95a6.09,6.09,0,0,0,1.57-1.32c.11-.17,0-.47-.24-.42a5.77,5.77,0,0,0-1.62.87c-.65.41-1.27.86-1.9,1.29a.47.47,0,0,0-.08.65c-1.49.2-3,.4-4.46.58a22.43,22.43,0,0,0,4.86-2.69.25.25,0,0,0-.24-.43c-2.65.95-5.16,2.39-7.77,3.51l-3.09.36a11.07,11.07,0,0,0,4.85-4.12c.12-.2-.1-.58-.34-.42-2.18,1.46-4.08,3.3-6.28,4.75h0l-2.79.33a10.66,10.66,0,0,0,2-1.64c.11-.11,0-.37-.17-.3a11.8,11.8,0,0,0-2.5,1.51.35.35,0,0,0,0,.51l-8.3.89a23.62,23.62,0,0,0,4.67-2.14c.2-.13.14-.57-.15-.5a37.6,37.6,0,0,0-6.39,2.61.29.29,0,0,0-.18.24c-6.79.69-13.59,1.3-20.39,1.87a15.66,15.66,0,0,0,5.52-2.53c.16-.13.05-.49-.18-.44-2.22.48-4.37,1.62-6.55,2.27-.39.12-.36.56-.13.81l-6.67.55a9.7,9.7,0,0,0,4.19-2.67c.14-.18-.06-.48-.27-.38a28.61,28.61,0,0,0-2.62,1.51,18,18,0,0,1-3.14,1.32.29.29,0,0,0-.2.38l-3.13.25a6.68,6.68,0,0,0,2.73-1.74c.11-.12,0-.42-.18-.37a11.78,11.78,0,0,0-2.28,1.06,7.27,7.27,0,0,1-2.89.77c-.27,0-.33.27-.25.49q-4.63.35-9.27.66a10.41,10.41,0,0,0,5.39-2.68c.18-.2,0-.55-.26-.45-1.12.41-2.16,1.09-3.26,1.56a18.26,18.26,0,0,1-4.27,1.22.36.36,0,0,0-.24.53l-1.46.1c-1.76.12-3.53.22-5.3.3a21.26,21.26,0,0,0,4.57-3,.24.24,0,0,0-.22-.42,22,22,0,0,0-3,1.55c-1,.54-2.94,2.25-4.13,1.5-.42-.26-.73.23-.53.56l-3.88.15a12.77,12.77,0,0,0,2-.9,5.13,5.13,0,0,0,2.08-1.58.25.25,0,0,0-.28-.38,9.53,9.53,0,0,0-1.93,1.2,13.65,13.65,0,0,1-2.82,1.24.32.32,0,0,0-.16.46c-1.42,0-2.85.07-4.27.09,2.05-.38,4.47-1.26,5.72-3,.11-.16-.06-.5-.28-.38-1.89,1.08-3.39,2.21-5.59,2.62-.47.09-.32.83.1.79-2.49,0-5,.07-7.46.06a7,7,0,0,0,2.62-2c.12-.17-.05-.46-.26-.37-.91.4-1.73,1.06-2.6,1.55a13.38,13.38,0,0,1-1.85.83h-2.06a4.69,4.69,0,0,0,1.76-1.69c.1-.17,0-.52-.29-.39-.9.52-1.66,1.22-2.6,1.7a6.2,6.2,0,0,1-.84.35c-1.79,0-3.58-.08-5.37-.14h0c1.48-.4,3.84-1.27,4.53-2.79a.24.24,0,0,0-.29-.32,13.11,13.11,0,0,0-2,1.32,9.87,9.87,0,0,1-2.54,1.1c-.35.1-.22.6.07.68-1.63-.06-3.27-.12-4.9-.2a5.88,5.88,0,0,0,1.5-.76.26.26,0,0,0-.18-.45,12.09,12.09,0,0,0-3.11,1.12c-1.93-.11-3.85-.22-5.78-.36l.74-.39c.43-.23,1-.42,1.28-.85.07-.13,0-.39-.16-.4a3,3,0,0,0-1.39.55l-1.41.73a.34.34,0,0,0-.18.27c-1.88-.14-3.75-.29-5.63-.46,1.88-.83,3.86-1.3,5.73-2.11.25-.11.11-.5-.14-.49a17.22,17.22,0,0,0-6.18,2.13.3.3,0,0,0-.09.41c-1.49-.14-3-.27-4.45-.43a50.16,50.16,0,0,1,5.44-1.18c.16,0,.12-.32,0-.32a17.27,17.27,0,0,0-6.81,1.34c-1.75-.19-3.51-.38-5.26-.6,1.56-.22,3.48-.59,4.58-1.63.15-.14.06-.48-.18-.44a13.21,13.21,0,0,0-2.06.71,14.53,14.53,0,0,1-3,.71.36.36,0,0,0-.24.54l-2.05-.27a.55.55,0,0,0-.45-.82,128.35,128.35,0,0,0-13,.11l2.31-1.06A11,11,0,0,0,133,114c.11-.1.1-.39-.1-.36a9,9,0,0,0-2.72,1l-3.43,1.54a.38.38,0,0,0-.16.52l-1.95.1a5.89,5.89,0,0,0,2.14-1.79c.12-.18-.06-.5-.29-.39-.79.4-1.49,1-2.26,1.43a11,11,0,0,1-2.08.89c-1.59.09-3.17.17-4.76.24,2.71-.65,5.66-1.59,7.74-3.33a.25.25,0,0,0-.23-.43c-3.11,1.06-5.88,2.63-9.12,3.38-.23.05-.25.27-.17.46-2.74.09-5.48.12-8.23,0a27.37,27.37,0,0,0,5-1.34c-.68.2-.31,1.28.36,1.13,2-.47,4.67-1.45,5.74-3.36.1-.19,0-.49-.29-.39-.93.39-1.73,1.06-2.65,1.49a14.23,14.23,0,0,1-3.11,1.11,12.76,12.76,0,0,0,3.69-2.11.26.26,0,0,0-.25-.44c-3.06,1-5.83,2.48-9,3.16-.36.08-.35.51-.15.72l-1.43-.08c-2.39-.15-4.79-.39-7.19-.68a12.94,12.94,0,0,0,2.79-.74c0,.28.17.6.48.51,1.76-.54,4.3-1.35,5.42-2.93.1-.14,0-.47-.23-.41a15,15,0,0,0-2.36,1.28,15.93,15.93,0,0,1-1.79.79,5.66,5.66,0,0,0,1.73-1.64c.13-.19-.07-.52-.3-.4-1.08.57-2,1.32-3.15,1.86a11.17,11.17,0,0,1-3.85,1c-.3,0-.35.31-.25.54l-1.79-.24c1.58-.22,3.29-.87,3.87-2.27a.25.25,0,0,0-.31-.33,18.74,18.74,0,0,0-1.92,1.15,6.13,6.13,0,0,1-3.14.73.38.38,0,0,0-.38.46c-1.35-.19-2.7-.41-4.05-.62a14.9,14.9,0,0,0,2.87-1.8c.14-.12.06-.49-.17-.43a17.06,17.06,0,0,0-3.42,1.64A.37.37,0,0,0,88,115l-2-.32,1.22-.61A7.15,7.15,0,0,0,89,113c.13-.12.09-.43-.13-.4a16.28,16.28,0,0,0-4.21,1.87l-1.46-.25.38-.22A18,18,0,0,0,85.65,113c.11-.08.08-.32-.08-.32a6,6,0,0,0-3.31,1.43l-.94-.17a3.94,3.94,0,0,0,1.78-1.15c.18-.24,0-.61-.31-.49s-.78.48-1.18.69a7.24,7.24,0,0,1-1.49.56.25.25,0,0,0-.18.15l-.34-.06A3.82,3.82,0,0,0,81.13,112c.07-.16-.09-.4-.27-.32a10,10,0,0,0-1.54,1.16,7.48,7.48,0,0,1-.89.57l-2.9-.52a13.08,13.08,0,0,0,2.55-1.75c.16-.16,0-.48-.2-.4a17.42,17.42,0,0,0-3.52,2L71,112.08l1.92-1.22a10,10,0,0,0,2.14-1.56.22.22,0,0,0-.22-.35,9.9,9.9,0,0,0-2.3,1.31l-2.48,1.61s0,0,0,0l-1.7-.28a4,4,0,0,0,2.5-2c.06-.16-.09-.39-.27-.31a10.71,10.71,0,0,0-1.61,1.15,10.46,10.46,0,0,1-1.78,1l-.18,0L64.44,111a6.13,6.13,0,0,0,3.49-2.47c.09-.16,0-.51-.26-.38-1.52.92-2.74,1.9-4.53,2.27a.35.35,0,0,0-.29.32l-1.67-.28A9,9,0,0,0,64.87,108c.17-.23,0-.66-.33-.49-.78.43-1.46,1-2.24,1.48a13.55,13.55,0,0,1-2.23,1,.32.32,0,0,0-.2.25l-2.3-.38a9,9,0,0,0,1.4-.67,5.45,5.45,0,0,0,2.3-2.21c.07-.18-.13-.45-.33-.34-.95.54-1.66,1.48-2.63,2a8.54,8.54,0,0,1-2.27.9l-2.18-.37c.51-.36,1-.72,1.52-1.11A7.7,7.7,0,0,0,57,106.64a.25.25,0,0,0-.27-.38,6.43,6.43,0,0,0-1.63,1.06c-.64.48-1.27,1-1.87,1.49a.35.35,0,0,0-.11.28l-1.66-.29a4,4,0,0,0,3.09-3.36.22.22,0,0,0-.39-.19,8.76,8.76,0,0,1-2.69,2.52,4.92,4.92,0,0,1-2.45.56l-1.35-.26a3.42,3.42,0,0,0,.79-.53,4.08,4.08,0,0,0,1.45-2.48c0-.15-.16-.4-.34-.27-.56.39-.83,1.21-1.25,1.74a2.76,2.76,0,0,1-2.23,1.22c-2-.43-4.07-.88-6.09-1.37l.09,0,.47-.41a.42.42,0,0,0,.39.13c7.09-2.14,2.56-11.41-1-14.47a31.37,31.37,0,0,0-6.54-4.23q.48-2.59,1.06-5.14A13.71,13.71,0,0,0,37,82.3a5.28,5.28,0,0,0,2.32,2.06,12.62,12.62,0,0,0,9.05.78,5.34,5.34,0,0,0,2.9-2.72,13,13,0,0,0,1.49-1.57,16.27,16.27,0,0,0,2.1-3.42,48.06,48.06,0,0,0-.69,9.92c0,.16.19.18.21,0,1.28-9.61,2.82-18.43,6.54-27.19A10.68,10.68,0,0,1,65,62.63a123.5,123.5,0,0,0-5.8,23.24.12.12,0,0,0,.24,0C61.16,78.14,63,70.53,65.41,63c2.57,2.77,3.46,6.77,4.38,10.86q-1.33,4.22-2.6,8.45c0,.09.09.16.12.06.9-2.62,1.76-5.26,2.62-7.89,1,4.32,2.07,8.68,5.28,11.75,3.44,3.29,8.14,5,11.75,8.14,5.94,5.12,3.85,14.24-3.74,16-.23,0-.21.45,0,.42a10,10,0,0,0,8.84-8.5c1.07-6.16-5.58-10.6-10-13.26-4.08-2.46-7.73-4.84-9.61-9.46a33.57,33.57,0,0,1-1.71-7.8c1.5-4.66,3-9.32,4.45-14a.15.15,0,1,0-.29-.08c-1.42,4.43-2.86,8.86-4.27,13.3-.16-1-.34-2-.59-3a11.65,11.65,0,0,0-4.22-6.45q1-2.88,2-5.75c12-3.7,24.16-6.88,36.46-9.41-.93,2.51-2.14,5.77-2.07,6.74a9,9,0,0,0,1.88,4.18A77.39,77.39,0,0,0,101,70.65a34,34,0,0,0-6.84-8.47c.71-1.57,1.45-3.12,2.23-4.67.13-.25-.21-.58-.36-.3q-1.16,2.31-2.24,4.65a48.19,48.19,0,0,0-7.24-5.21c0-.26,0-.52.06-.78a.27.27,0,1,0-.54,0c0,.16,0,.33,0,.5q-2.31-1.34-4.8-2.5c-.39-.18-.61.41-.26.59q2.58,1.4,5,2.92c-.87,8-4.83,15.72-7,23.39-.06.21.25.35.34.14,2.81-7.21,6.39-15.32,7.23-23.18A46.47,46.47,0,0,1,93.29,63,114.36,114.36,0,0,0,89,73.77c0,.15.18.29.25.12,1.41-3.54,2.87-7,4.43-10.51a32.68,32.68,0,0,1,7,10.09c0,.63-.12,1.25-.16,1.88a.15.15,0,0,0,.29.05c.06-.4.13-.8.2-1.2.28.68.55,1.37.8,2.09,2,6,4.43,38.67-8,35.56-.59-.15-.69.68-.24.93,11.9,6.48,11.9-23.18,11.5-28.49a32.37,32.37,0,0,0-3.56-12.77,128.21,128.21,0,0,1,3.09-13.47,5.39,5.39,0,0,1,.88,2.62c0,.19.26.44.4.19a2.82,2.82,0,0,0,.33-1.89c.08.13.3.05.29-.13v-1.1a4.37,4.37,0,0,1,.84.51c-.11,1.31-.47,2.34-1.31,2.71-.41.17-.13.88.28.71a2.7,2.7,0,0,0,1.76-2.23.13.13,0,0,0,.1-.08,1.51,1.51,0,0,0,0-.87c0-.11,0-.21,0-.32.09-2.21-.54-4.44-.57-6.66,0-.35,0-.7,0-1q5.88-.84,11.75-1.45a17.85,17.85,0,0,0-1.06,2.83c-.45.53-.92,1-1.41,1.6-.17.2,0,.61.29.39l.83-.77a18.47,18.47,0,0,0-.37,3.87c0,.13-.08.25-.1.38a.16.16,0,0,0,.11.2c0,.54.06,1.07.12,1.61l-.37,1c-2,.16-4.11.37-6.16.61.85-3.11,1.67-6.22,2.53-9.32.09-.34-.41-.57-.51-.19-.89,3.19-1.8,6.39-2.68,9.59-1.16.14-2.32.27-3.48.44-.15,0-.1.29.06.27,1.11-.15,2.22-.28,3.33-.41-1,3.57-1.93,7.15-2.77,10.75,0,.17.19.27.24.08,1.16-3.6,2.19-7.25,3.2-10.91q3-.33,6.11-.55a103.76,103.76,0,0,0-3.88,12.79c0,.17.2.32.27.13,1.58-4.34,3.07-8.67,4.6-13q3.14-.21,6.27-.31A64.71,64.71,0,0,0,121.81,70c-1.57.31-3.12.64-4.64,1-.32.08-.23.65.09.63,8.81-.73,17.39-2.31,26.27-2.21a58.56,58.56,0,0,1,14.54,2.09c3.31.88,6.29,1.92,9.59,1.92-1.12.92-2.26,1.82-3.4,2.71-13-5.22-30.52-6.3-44.11-1.34a3.1,3.1,0,0,1-2.26-1.67.36.36,0,0,0-.69.08,5,5,0,0,1-.23,1.53c0,.19.24.34.31.13l.22-.51a2.79,2.79,0,0,0,1.06,1c-.83.34-1.64.69-2.43,1.07-.2.1-.11.44.12.39l1.77-.44c-.07.21.07.53.31.5.86-.14,1.72-.26,2.58-.38a3.31,3.31,0,0,1,.69.65l-.85.09c-.3,0-.2.52.09.51l1.13,0a4,4,0,0,1,.33.85q-.27.07-.54.18c-.25.09-.11.57.15.5l.52-.1c.16.79.24,1.65.38,2.54s.31,2.06.47,3.08c.12.78-1.71,1.72-2.24,2.15a.37.37,0,0,0,.31.64,16,16,0,0,0,3.32-1.12.68.68,0,0,0,.34-.67L125,85.4A27.67,27.67,0,0,1,131,87.46a51.42,51.42,0,0,0-7.93.27c-.7.09-.4,1,.15,1.12,8.18,1.45,18,1,25.82-1.82a41.65,41.65,0,0,0,7.86-3.89h0a86.87,86.87,0,0,0,8.29-6,.18.18,0,0,0,.11-.08c1.57-1.26,3.11-2.54,4.64-3.79.44-.37.21-1.26-.45-1.17-4.61.62-8.72-1.08-13.09-2.25a59.27,59.27,0,0,0-13.06-1.64A96.34,96.34,0,0,0,122.23,70c1.07-3.36,2.17-6.66,3.37-9.89,2.4-.07,4.81-.07,7.22,0-.22.6-.46,1.19-.66,1.8,0,.13.12.21.17.08.25-.63.51-1.25.76-1.88,3.5,0,7,.17,10.51.36-.16.48-.32,1-.47,1.44,0,.14.17.28.23.12l.65-1.53,1.29.06a4,4,0,0,0,.36.58.39.39,0,0,0,.35.15l.77-.12c.27,0,.22-.39,0-.51l2.78.23c-.06.47-.11,1-.17,1.43a.57.57,0,0,0,.43.6l2.46.53a.44.44,0,0,0,.54-.49c-.08-.63-.12-1.23-.15-1.82,3.92.36,7.83.8,11.74,1.29a.57.57,0,0,0,.44.06c3.74.48,7.46,1,11.19,1.57l.06,0a.46.46,0,0,0,.34,0c9.83,1.48,19.65,3.19,29.46,4.83-.19.62-.38,1.25-.53,1.88,0,.15.16.29.24.12.32-.63.62-1.26.92-1.89l1.38.23a7.31,7.31,0,0,1-.9.83.51.51,0,0,0,.55.84,6.11,6.11,0,0,0,1.75-1.44c4,.65,8,1.28,12,1.88a.68.68,0,0,0,.72.11c2.53.38,5.07.73,7.6,1.07a.5.5,0,0,0,.76.19l.08-.07q4,.52,7.95,1c27.27,3,54.86,4.76,82.43,5.56.06.33.54.61.81.3.09-.09.16-.19.25-.28q23.18.66,46.26.44c.19,0,.19-.34,0-.35h-.1c2.29-.37,3.58-2.42,3.87-4.74a5.87,5.87,0,0,0-1-3.69,24.58,24.58,0,0,0-2.43-2.51l-.16-.37q3.19.52,6.39,1.1a13.61,13.61,0,0,1,1.5,5,14.76,14.76,0,0,0-4.05,4,.5.5,0,0,0,.41.7,1.69,1.69,0,0,0,1.82-1.27.28.28,0,0,0-.1-.31c.45-.48.9-1,1.4-1.41.16-.14.33-.26.49-.39-.22,1-.76,2.51.2,3,1.42.77,2.32-.46,3.19-1.47.21-.24.41-.49.61-.73,0,.11.07.22.11.33a.31.31,0,0,0,.61-.1,8.57,8.57,0,0,0-.18-.88c1.31-1.55,2.61-3.12,3.92-4.67l2.41.44c-.05.35-.09.7-.13,1a51.77,51.77,0,0,0-6.33,6.32c-.18.21,0,.62.29.41,2-1.72,3.94-3.46,5.9-5.2-.13,1.86-.14,3.74-.17,5.61a.69.69,0,0,0,.66.62c4.31-.43,7-3.56,9.7-6.66a.46.46,0,0,0,.1-.35l5.16.88-1.53,3.28c-.24.27-.48.56-.71.84a36.75,36.75,0,0,0,1.37-3.47A.47.47,0,0,0,401,74a.85.85,0,0,0-.9,1.19c-1,1.81-1.79,3.7-2.65,5.57v0c-9.06-.34-18.13-1.11-27.14-1.38-.38,0-.34.59,0,.62,8.43.79,16.85,1.43,25.3,2,2.1.13,4.22.26,6.35.35A13.63,13.63,0,0,1,395.81,86,.23.23,0,0,0,395.63,86.15Zm-260.43.93c-2,.72-4.16-1.21-6-1.85a13.29,13.29,0,0,0-4.39-.78c-.12-.91-.23-1.84-.36-2.77,3.63,1.27,7.21,2.64,10.86,3.83,2.68.88,5.41,1.54,8.07.43a.36.36,0,0,0-.14-.68c-6.45.06-12.78-2.4-18.89-4.34-.1-.6-.21-1.2-.35-1.79,3.84.11,7.83,2.73,11.25,3.9a31.85,31.85,0,0,0,12.54,1.74c.4,0,.33-.6,0-.65-5.4-.72-10.5-1.45-15.63-3.39-2.83-1.07-5.45-2.59-8.32-2.36l-.18-.62c6.89-.19,13.56-.15,20,3.07,2.73,1.38,5.39,3.08,8.16,3.45-1.08.53-2.17,1-3.3,1.5-4.3,1.72-8.6,1.9-12.92,1.82C135.67,87.37,135.48,87,135.2,87.08Zm2.5-9.5c-4.54-1.19-9.59-1-14.33-.52-.05-.12-.09-.25-.15-.37a2.32,2.32,0,0,0-.21-.38,82.48,82.48,0,0,1,16-.6,41.59,41.59,0,0,1,11.53,2.61c2.84,1.07,5.14,2.21,8.1,1.94q-2.39,1.6-4.91,3C148.18,83.45,143,79,137.7,77.58ZM139,74.42a74.32,74.32,0,0,0-16.87,1.15L122,75.5a81.25,81.25,0,0,1,17.78-2.59c8.25-.11,15.79,2.2,23.69,3.89-1.31,1-2.63,2-4,2.9a.36.36,0,0,0-.24-.18C152.25,78.9,146.18,74.84,139,74.42Zm279.46,6.71q-9.4,1.92-18.75,4.08a8.58,8.58,0,0,0,2.63-2.6.24.24,0,0,0,0-.22c1.44,0,2.88.08,4.32.06a.81.81,0,0,0,1.05.39c.32-.14.63-.31.94-.46a41.59,41.59,0,0,0,8.74-1.25c.35-.09.21-.71-.14-.68l-1,.08a7.43,7.43,0,0,0,1.22-.82.56.56,0,0,1,0,.13.19.19,0,0,0,.34.12,2.61,2.61,0,0,0,.51-1.17,1.84,1.84,0,0,0,.17-.22.4.4,0,0,0-.1-.52,7.92,7.92,0,0,0-.12-1.46l.39-.26a.66.66,0,0,0-.06-1.06l1.65-1.16c.05.17.2.31.39.21l1.32-.7c-.09.2,0,.53.25.56a1.2,1.2,0,0,1,.91.85l-.31.51c0-.24-.08-.48-.14-.72a.43.43,0,0,0-.77-.16c-.62,1-1.19,2-1.77,3l.15-.64c.16-.64-.87-1.12-1-.43-.31,1.36-.67,2.72-.9,4.1A.49.49,0,0,0,418.45,81.13Zm.8-.16a16.46,16.46,0,0,1,2.57-4.81,3.29,3.29,0,0,1-.28,1.17c-.19.26-.38.51-.59.77a.62.62,0,0,0,.87.88,2.5,2.5,0,0,0,.36-.37.8.8,0,0,0,1.21.36c0,.38,0,.76.07,1.14Zm4.59-7.34c-.09.18-.19.36-.29.54a1.8,1.8,0,0,0-1.33-.71c1.73-.92,3.42-1.89,5.1-2.88-.42.47-.82,1-1.23,1.43a.34.34,0,0,0-.49.47l0,0-.83,1A.61.61,0,0,0,423.84,73.63Zm2.54,4.28a6.35,6.35,0,0,1-.39.88,10.88,10.88,0,0,0,.16-1.81l.15-.07C426.32,77.25,426.34,77.58,426.38,77.91ZM424.68,80c0-.15,0-.3-.05-.45a.6.6,0,0,0,.69-.34c.07-.16.12-.32.19-.48a1.11,1.11,0,0,0,0,.17.27.27,0,0,0,.26.2,12.19,12.19,0,0,1-.82,1.11A.86.86,0,0,0,424.68,80Zm.42,1.65a1.42,1.42,0,0,0-.08-.18,4.08,4.08,0,0,0,1.86-1.79,123.26,123.26,0,0,0,24.83-16.23c4-3.25,7.86-6.67,11.71-10.1l1.18-1c-9.41,10.19-19.59,20.07-32,26.2h-.37c-.21,0-.29.15-.28.32a60.39,60.39,0,0,1-6.83,2.81Zm.3.62a55.61,55.61,0,0,0,7.41-3c.65,0,1.32.08,2,.08-1,.57-2,1.13-3.06,1.67l-.52.13a.24.24,0,0,0-.16.24l-1,.52-.38.06a.24.24,0,0,0-.21.25l-1.11.56a.83.83,0,0,0-.08-.12.4.4,0,1,0-.7.37l0,0c-.55,0-1.11.06-1.66.11C425.74,82.85,425.56,82.56,425.4,82.27Zm2.29,3.6c-.51-.69-1-1.4-1.43-2.12l1.61-.07a35.79,35.79,0,0,0,2.75,4.76C429.65,87.57,428.68,86.71,427.69,85.87Zm28.11,23.71c-1.92-2.07-3.41-4.48-5.82-6.12-4.18-2.86-5.7-7.32-9.05-11a22.28,22.28,0,0,0-6.64-4.89,34.54,34.54,0,0,1,3.56,1.38.4.4,0,0,0,.26.28l.92.28c.53.26,1,.56,1.56.84,5.55,6.14,11.25,12.16,16.55,18.51a17.9,17.9,0,0,0,3.13,3A23.49,23.49,0,0,1,455.8,109.58ZM442.5,91.4c6,3.71,11.13,8.8,16.23,13.9a114.06,114.06,0,0,0,8.81,8.19,18.22,18.22,0,0,1-2.12-.54.4.4,0,0,0-.18-.07h0c-5-1.71-7.91-5.48-11.73-9.66C449.85,99.25,446.17,95.33,442.5,91.4ZM464,113.94l.53-.06a11.42,11.42,0,0,0,3.9.35c.94.73,1.9,1.43,2.89,2.08C468.86,115.59,466.43,114.81,464,113.94Zm16.17,5.61q-1-.47-1.95-1a.26.26,0,0,0-.11-.41l-1.33-.36c-7.93-4.37-14.09-10.14-20.79-16.63a79.88,79.88,0,0,0-11.78-9.83c9.19,4,16.17,10.51,23.6,17.71,2.71,2.63,7.08,7.67,11.55,9ZM466.72,99.21c2.75,4.56,5,10.52,9.73,13.29.7,1.3,1.41,2.59,2.1,3.89-3.3-1.54-6.18-4.7-8.64-6.94-3.36-3.06-6.53-6.32-9.87-9.4a50.94,50.94,0,0,0-19.77-11,32.09,32.09,0,0,0-8.09-2.84c-.25,0-.37.17-.35.37a.35.35,0,0,0,.08.56A26.37,26.37,0,0,1,444.29,99c1.93,3.69,5.08,4.73,7.57,7.77-2.23-1.82-4.38-3.83-6.64-5.75-5.8-4.93-11.44-9.83-15.63-16.2,0,0,0,0,.06,0,9,2.6,17.87,4.84,26.17,9.24,4.39,2.34,8.27,5.14,10.25,9.85,1,2.31,1.77,4.09,4.07,5.24.45.22.66-.49.31-.73-2.94-2-3.53-5.75-5.42-8.61-2-3-5.82-5-8.87-6.67-8-4.51-17.34-6.83-26.26-8.72a16.59,16.59,0,0,1,4-.68,58.8,58.8,0,0,1,15.41,3c4.72,1.59,9.49,3.85,12.92,7.52A65.69,65.69,0,0,0,466.72,99.21Zm-4.58-6.58a.5.5,0,0,0,.14.08q1.31,1.73,2.54,3.54a53.24,53.24,0,0,0-4.46-4.8c-2.8-2.44-6.7-3.92-10.19-5.21A30.77,30.77,0,0,1,462.14,92.63Zm-8.44-9.31c.88.68,1.73,1.4,2.58,2.14q1.83,2,3.56,4.14a31.72,31.72,0,0,0-11.46-4.85c-4.45-1.07-9.7-2.21-14.53-1.79-1.58-.07-3.17-.08-4.75,0l.79-.37C438.21,81.32,445.7,82.18,453.7,83.32Zm-3.62-2.51c.22.2.43.41.64.63a62.41,62.41,0,0,0-18.81.14l.33-.16A48.66,48.66,0,0,1,450.08,80.81Zm-1.24-6.15-.7,0a9.07,9.07,0,0,1,1.25-2.38c.47-.62,1-1.22,1.49-1.83l.68-.45a12.6,12.6,0,0,0-1.9,2.76A10.31,10.31,0,0,0,448.84,74.66Zm.9,0h0c.66-2.21,1.88-4.54,3.64-5,.29-.08.21-.58-.09-.53a3.09,3.09,0,0,0-.54.17c.95-.67,1.89-1.37,2.81-2.09C453.55,69.61,451.6,72.11,449.74,74.62Zm-64.49-2.31c-.05,0-.06.1,0,.1S385.31,72.31,385.25,72.31Zm26,10.1c.05,0,.06-.1,0-.1S411.19,82.41,411.25,82.41ZM10.4,88.7l-1.55.56a.13.13,0,0,0-.23.1,17.91,17.91,0,0,0,0,3,.1.1,0,0,0,.2,0,16.76,16.76,0,0,0,.05-2.65h0l1.43-.52a18.26,18.26,0,0,1,.26,2c0,.73-.06,1.47,0,2.21,0,.16.21.22.26,0a9.83,9.83,0,0,0-.18-4.51A.21.21,0,0,0,10.4,88.7ZM13.55,91c.1-.26-.23-.61-.47-.35a4.16,4.16,0,0,0-.62.84A3.82,3.82,0,0,1,12.9,90c.15-.28-.24-.63-.41-.32A4,4,0,0,0,12,92.54,1.81,1.81,0,0,0,12.09,94a.18.18,0,0,0,.33,0,3.89,3.89,0,0,0,.19-1.14,3.42,3.42,0,0,1,.55-1.25,8.82,8.82,0,0,1,0,2,12.23,12.23,0,0,0-.25,1.79.19.19,0,0,0,.35.12c.86-1,.67-3,.49-4.15A.41.41,0,0,0,13.55,91Zm1.9-.39a5.37,5.37,0,0,0-.73,5.27c.08.17.26,0,.24-.1a6.36,6.36,0,0,1,.9-4.85C16,90.69,15.65,90.35,15.45,90.63Zm2.1,2.07a6.75,6.75,0,0,0-1.08,2.73A17,17,0,0,1,17,91c.08-.29-.32-.52-.43-.2a9.33,9.33,0,0,0-.4,5.64c.06.18.26.14.29,0a4.14,4.14,0,0,0,.19,1,.15.15,0,0,0,.3,0A8.61,8.61,0,0,1,18,93C18.14,92.75,17.74,92.41,17.55,92.7Zm2.39,1.53c-.47,1.33-1.07,3.41-.4,4.74A.23.23,0,0,0,20,99a7.07,7.07,0,0,0,.17-2,10,10,0,0,1,.56-2.42C20.87,94.06,20.12,93.71,19.94,94.23Zm3.78,2.07-.24,2.42a5.72,5.72,0,0,0-.06,2.18c.06.19.3.33.44.11a4.23,4.23,0,0,0,.36-1.84c.09-.92.19-1.85.28-2.77C24.56,95.89,23.77,95.74,23.72,96.3Zm7.9,4a.45.45,0,0,0-.48-.32c.07-.32-.34-.72-.66-.46a1.69,1.69,0,0,0-.56,1.82c.13.45.7.24.68-.17a1.07,1.07,0,0,1,.26-.83s0,0,0,.06l.57,1.72a3.37,3.37,0,0,0,.68,1.44.21.21,0,0,0,.35-.11,2.8,2.8,0,0,0-.28-1.44Zm312.13-45.4c.05,0,.06-.1,0-.1S343.69,54.91,343.75,54.91Zm-295.36,50a3.5,3.5,0,0,0-1.51.68,20.28,20.28,0,0,0-2.11,1.34c-.2.14,0,.51.22.41.66-.28,1.28-.6,1.92-.92a4.36,4.36,0,0,0,1.68-1.12A.25.25,0,0,0,48.39,104.92Zm-9.61-1.75a3.48,3.48,0,0,0-1.2.77c-.17.14-.33.3-.49.45a.69.69,0,0,0-.2.22c0,.09,0,.21-.09.29s.05.66.3.47.32-.05.47-.18l.61-.5a3.14,3.14,0,0,0,.88-1.07C39.13,103.44,39,103.1,38.78,103.17Zm55.11,10.62-1.34.65c-.09,0,0,.22.07.17l1.32-.68C94,113.89,94,113.75,93.89,113.79Zm15.71-.39a7.94,7.94,0,0,0-2.28.87,25,25,0,0,1-2.56.9c-.45.13-.12.87.33.74.86-.26,1.72-.56,2.56-.89a5.11,5.11,0,0,0,2.2-1.21C110,113.64,109.8,113.38,109.6,113.4Zm27,.83a24.76,24.76,0,0,0-4.41,1.24c-.54.16-.26,1,.27.79a25.62,25.62,0,0,0,4.31-1.43C137,114.7,136.87,114.2,136.58,114.23Zm4.61-.57a9,9,0,0,1-4.65,1.82c-.45,0-.33.76.09.74a6.1,6.1,0,0,0,4.83-2.18C141.58,113.88,141.4,113.53,141.19,113.66Zm4.67.53a22.07,22.07,0,0,0-4.07,1c-.44.12-.14.86.29.72a21.13,21.13,0,0,0,3.88-1.4C146.1,114.46,146,114.18,145.86,114.19Zm49.06,3.15a9.12,9.12,0,0,0-2,1,19.72,19.72,0,0,1-2.53,1.13c-.44.17-.12.91.32.74,1.42-.53,3.43-1.22,4.37-2.48C195.19,117.59,195.11,117.29,194.92,117.34Zm20.82-2.11c-.84.5-1.49,1.32-2.32,1.86a11.45,11.45,0,0,1-2.93,1.35c-.5.14-.29,1,.19.84,1.9-.51,4.62-1.74,5.38-3.72C216.12,115.39,215.94,115.12,215.74,115.23Zm9.11,1.1a6.22,6.22,0,0,0-2,1.1c-.57.44-1,1-1.64,1.41-.05,0,0,.13,0,.09a11.51,11.51,0,0,1,2.12-1.18,9,9,0,0,0,1.64-1A.23.23,0,0,0,224.85,116.33Zm29.7-3c-2.21.4-4.43,1.66-6.5,2.51-.47.19-.07,1,.4.78,2-.86,4.5-1.53,6.29-2.83A.27.27,0,0,0,254.55,113.29Zm8.31-.71a26.37,26.37,0,0,0-2.56,1,23.29,23.29,0,0,1-3.74,1c-.43.08-.34.79.08.73,2.09-.32,4.77-.84,6.41-2.27C263.21,112.9,263.1,112.52,262.86,112.58ZM381.68,86.82a11.69,11.69,0,0,0-2.62,1.48,27.72,27.72,0,0,0-2.7,1.88c-.17.14,0,.5.2.4a30.2,30.2,0,0,0,2.93-1.66,10.88,10.88,0,0,0,2.38-1.65C382,87.13,381.93,86.74,381.68,86.82ZM271.93,111.41a7.91,7.91,0,0,0-1.84,1.33,14.56,14.56,0,0,1-2.38,1.4c-.3.14-.06.73.25.6a17,17,0,0,0,2.31-1.23,4.8,4.8,0,0,0,2-1.77A.25.25,0,0,0,271.93,111.41Z"/></g></g></svg>