<svg xmlns="http://www.w3.org/2000/svg" viewBox="0 0 182.78 130.38"><defs><style>.cls-1{fill:#1a1c14;}</style></defs><g id="Layer_2" data-name="Layer 2"><g id="Layer_2-2" data-name="Layer 2"><path class="cls-1" d="M46.76,106.73c.1,0,.13-.12,0-.16a30.64,30.64,0,0,1-12.5-8.83c-.06-.07-.13,0-.08.1A26.75,26.75,0,0,0,46.76,106.73ZM153.7,75.78c1.53,5.55,2.84,11.25,4.78,16.68,0,.13.22.07.2-.06-1.16-5.64-3-11.19-4.52-16.74A.24.24,0,0,0,153.7,75.78ZM79.36,69.65c-5.57,1.56-11.74,2.25-16.81,5.2-4.84,2.81-9.61,5.82-14.25,8.94-.09.06,0,.25.08.19,2.73-1.54,5.4-3.16,8.07-4.79,2.83-1.72,5.65-3.8,8.73-5,4.63-1.85,9.67-2.27,14.27-4.14C79.63,70,79.57,69.6,79.36,69.65ZM22.07,115.07c-.33-.24-.71.39-.28.58l.4.19c.26.11.51-.31.28-.48ZM76.56,107c-.27-.24-.64.21-.39.44a15.15,15.15,0,0,0,1.56,1c.44.32.85,1.15.24,1.53a.15.15,0,0,0,0,.27c.75.13,1-.75.85-1.33C78.6,107.77,77.31,107.65,76.56,107ZM102.17,67.2c.18.08.26-.25.09-.33-8.51-4.05-18.26-1.16-26.89,1-9.69,2.43-20,5.29-27.4,12.43,0,0,0,.15.09.11,8.15-6.82,18-10.18,28.25-12.47C84.69,66.08,93.92,63.43,102.17,67.2Zm60.37,14.49c1.08,2.94,1.88,5.94,2.71,9,0,.14.23.07.21-.06a49,49,0,0,0-2.51-9A.22.22,0,0,0,162.54,81.69ZM67.68,53.28c-.05,0,0,.11,0,.1S67.74,53.27,67.68,53.28Zm90.56,25.13c1.47,4.53,2.7,9.13,4,13.71a.08.08,0,1,0,.16,0,124.25,124.25,0,0,0-3.74-13.92C158.55,77.87,158.15,78.14,158.24,78.41Zm13.14,5.39c.88,2.77,1.48,5.58,2.14,8.41,0,.08.15.07.13,0a51.08,51.08,0,0,0-2.11-8.44A.08.08,0,1,0,171.38,83.8Zm-5.63-.54a72.08,72.08,0,0,1,2.34,7.62c0,.14.21.11.19,0a34.85,34.85,0,0,0-2.19-7.74C166,82.86,165.66,83,165.75,83.26Zm3.19.88c.79,2.44,1.26,5,1.95,7.42,0,.14.24.08.23-.06A36.58,36.58,0,0,0,169.3,84C169.22,83.72,168.87,83.9,168.94,84.14Zm4.46,5.33c-.07-.32-.16-.65-.25-1,0-.06-.1,0-.08,0,.09.32.17.64.27,1C173.35,89.53,173.41,89.52,173.4,89.47ZM80,106.51c-.3-.12-.52.38-.22.51a4,4,0,0,1,1.69,1.37c.32.48.52,1,.84,1.48a.12.12,0,0,0,.22-.05C82.69,108.32,81.29,107.05,80,106.51Zm-21.65,2.57c-.38-.13-.63.48-.25.63a4.31,4.31,0,0,1,1.4.86,4.6,4.6,0,0,1,.47.52,1.46,1.46,0,0,1,.22.33l-.07.15a.16.16,0,0,0-.29.1c0,.87,1.42.46,1.1-.48A4.23,4.23,0,0,0,58.37,109.08Zm3.45.15c-.44-.07-.68.65-.2.72a2.3,2.3,0,0,1,1.45.78c.35.43.39,1.08.76,1.45a.19.19,0,0,0,.31-.06c.35-.57-.07-1.36-.44-1.82A3,3,0,0,0,61.82,109.23ZM37.28,37.74c.06,0,0-.11,0-.09S37.23,37.76,37.28,37.74ZM56.2,110.09l-1.56-1.37c-.32-.29-.79.27-.47.56l1.53,1.37c.26.23.52.45.77.69,0,0,.41.43.2.31a.15.15,0,0,0-.22.18.42.42,0,0,0,.56.31c.37-.11.43-.47.39-.79C57.33,110.86,56.53,110.39,56.2,110.09Zm-10.87,1a1.5,1.5,0,0,0,.08-1.45c-.22-.43-.89,0-.68.39.29.59-.24.82-.57,1.18a.26.26,0,0,0,0,.39C44.58,111.89,45.12,111.49,45.33,111.12ZM182.77,87.87c-.32-5.78-6.34-12.86-10.07-17-10.16-11.28-23-21.13-35.82-29.17A404.55,404.55,0,0,0,95.6,19.61C81.37,12.86,67.21,5.79,52.1,1.23c-.23-.06-.29.29-.09.35,6,2.07,11.89,4.51,17.71,7.1l.18.42a91.86,91.86,0,0,0-9.56-3.8L57,4.2A.2.2,0,0,0,56.93,4a31.21,31.21,0,0,0-5-2.11l0-.11a.17.17,0,0,0-.19-.16l-.24,0a.17.17,0,0,0-.12.07A38.79,38.79,0,0,0,38.46,0C37,.09,35.28.17,33.54.38l-.2-.16c-.19-.15-.41.05-.42.24C29,1,25.09,2.28,23.21,5.5a16.67,16.67,0,0,0-1.89,9.62.28.28,0,0,0-.18.48l.24.19A28.45,28.45,0,0,0,23,22.85a32.76,32.76,0,0,0,3.27,6.54.23.23,0,0,0,.13.18,25.26,25.26,0,0,0,4.12,4.82,109.79,109.79,0,0,0,10.27,10.9A247.25,247.25,0,0,0,63.26,63.82c-2.16,1.1-4.27,2.34-6.37,3.57-5.35,3.15-12.32,6-16.26,11A17.19,17.19,0,0,0,37.73,84,15.88,15.88,0,0,0,35,89c-.21.64.82.8,1,.2a14.12,14.12,0,0,1,1.2-2.65,14.86,14.86,0,0,0,0,3.77l-3.29.3a.51.51,0,0,0-.46.38c-.32-.21-.64-.41-1-.63-.5-.32-1.22.3-.78.79a15.73,15.73,0,0,0,1.94,1.8,41.93,41.93,0,0,0-10,2.19c-.82.27-.49,2.12-.42,2.69a4.88,4.88,0,0,0,.23,1l-1.1.27-.93-.89c-.13-.12-.28.07-.24.21l-.9-.41.68-.25a.22.22,0,0,0,.13-.24l1.36-.37c.56-.15.48-1.15-.15-1L9,99.57c-2.82.73-5.65,1.14-7.82,3.16l-.82.2a.48.48,0,0,0-.19.83c1.22,1.16,2.46,2.26,3.7,3.34,2.47,3.41,6.25,5.65,10.33,7.39a50.12,50.12,0,0,0,7,3.29,99,99,0,0,0,15.33,4.36c4.73,1.4,9.5,2.63,14.33,3.64a203.65,203.65,0,0,0,53.21,4.3,180.3,180.3,0,0,0,52.14-10.43c1.21-.45,2.47-.92,3.72-1.41.19.34.38.67.6,1,.1.16.28,0,.26-.15a5.76,5.76,0,0,0-.26-1.07c1.27-.43,2.53-.87,3.74-1.4a1.65,1.65,0,0,1-.23,1.3c-.08.11.06.35.2.24a1.56,1.56,0,0,0,.57-1.78,17.85,17.85,0,0,0,3.56-2.11,1.34,1.34,0,0,1,0,.4.14.14,0,0,0,.25.11,1.26,1.26,0,0,0,.21-.88,29.14,29.14,0,0,0,2.73-2.45,15.86,15.86,0,0,0,3.57-5.15,5.47,5.47,0,0,0-1-6.09,7.4,7.4,0,0,0-1-2c-.27-.35-1.15-1-1.74-1.65a8.07,8.07,0,0,0,4.13-1c.13-.09.23-.2.35-.29a7.13,7.13,0,0,0,1-.54,4.92,4.92,0,0,0,1.33-1.19C181.31,94.2,182.94,90.93,182.77,87.87Zm-78.6-63a.25.25,0,0,0,0,.34l.75.51c-2-1.1-4-2.15-6-3.2l-3.52-1.84Q99.82,22.79,104.17,24.91ZM97,22.46a.32.32,0,0,0-.28.24l-3.59-2.11-.57-.35Q94.74,21.34,97,22.46Zm11.21,32.21a15.34,15.34,0,0,1,2.48,4.07c-2.8-3.23-5.76-6.38-8-10.06-1.43-2.41-2.5-5-2-7.82l.27-1.29c2.35,5,4.76,9.87,7.33,14.69A.26.26,0,0,0,108.17,54.67Zm-7.33-17.11-.91-1.82s0,0,0-.06a56.62,56.62,0,0,0-4.14-8.28c-.71-1.43-1.43-2.87-2.13-4.31l.2.12c2.3,4.31,4.51,8.85,7.18,12.94A13.67,13.67,0,0,1,100.84,37.56Zm-8.48-15.2a.28.28,0,0,0,0,.25c1.15,2.15,2.24,4.42,3.39,6.66-.42-.69-.85-1.37-1.25-2.06q-1.61-2.72-3.19-5.44Zm-12.57-9c-.29.11-.5.43-.23.68q-2-1.11-4.07-2.16c.63.13,1.25.24,1.88.35Zm-3.52-1.64c-.72-.16-1.44-.34-2.15-.53-1.27-.64-2.54-1.27-3.83-1.87-.07-.14-.14-.28-.2-.43C72.15,9.77,74.21,10.72,76.27,11.67ZM63.14,8.21a68.83,68.83,0,0,0,7.35,2.45.35.35,0,0,0,0,.33c.26.34.5.69.75,1,.8,1.68,1.65,3.33,2.52,5-1.61-2.08-3.4-4-5.1-5.84-.26-.28-.68.18-.43.45.92,1,1.78,2,2.59,3.06a.18.18,0,0,0-.14.23c-1.57-1.94-3.28-3.77-4.86-5.42-.31-.32-.8.23-.5.55a61.85,61.85,0,0,1,5.57,6.63c.9,1.26,1.71,2.6,2.6,3.89-1-1.13-1.9-2.25-2.88-3.35A49,49,0,0,0,66.56,12c-.3-.53-.6-1.05-.91-1.57-.13-.21-.37,0-.3.21-.76-.82-1.53-1.64-2.29-2.43Zm-1.53-.62c.23.26.46.53.7.79l-.09-.09c-.19-.19-.42.15-.26.32,1.74,1.76,3.43,3.56,5.09,5.39a1.13,1.13,0,0,0,.1.13c-.15-.05-.31-.07-.46-.11A67.9,67.9,0,0,0,60.4,7.09Zm3.84,6.18-.62-.06a56.93,56.93,0,0,0-5.77-6l1,.07A67.22,67.22,0,0,1,65.45,13.77Zm-3,0c-.52-.6-1-1.19-1.58-1.79s-1-1.36-1.48-2a.16.16,0,0,0-.19-.05c-.38-.55-.76-1.11-1.16-1.66-.16-.22-.46,0-.32.25l0,0-.9-1c.35,0,.7,0,1,.06a56.3,56.3,0,0,1,5.78,6.08A9.72,9.72,0,0,0,62.47,13.81Zm3.17,6.42-3.19-4c.32.26.64.52,1,.76C64.15,18.07,64.9,19.15,65.64,20.23Zm8.67,36.49.18.23a17.82,17.82,0,0,0,2.42,2.9l-1.44.09-.55.06c-1-.5-2-1-3-1.39a17.6,17.6,0,0,0-1.55-1.67c1.39.5,2.78,1,4.17,1.45.14,0,.2-.16.08-.21-1.82-.83-3.66-1.62-5.51-2.39l-.23-.2a.26.26,0,0,0-.31,0c-2.56-1.06-5.15-2.08-7.75-3.08a.36.36,0,0,0,0-.09c.28.13.65-.28.42-.52-.66-.7-1.33-1.37-2-2a46.21,46.21,0,0,0-5.38-5.76c-1.56-1.49-3.15-3-4.66-4.5a55.51,55.51,0,0,1-5-7.19c2.53,2.34,5,4.73,7.54,7.13.14.14.32-.13.21-.27a76.1,76.1,0,0,0-8.92-9A30.37,30.37,0,0,1,41.25,26c-.23-.7-.45-1.46-.66-2.26,2.49,2.21,4.91,4.48,7.3,6.8,5.34,7.52,10.72,15,16.29,22.33.13.17.3-.08.2-.22C60,46.23,55.46,39.87,50.88,33.54l1.83,1.84c.09.1.22-.07.14-.16-1.13-1.28-2.3-2.53-3.48-3.77Q45.92,26.71,42.46,22c3.7,3.53,7.33,7.15,10.93,10.8.13.13.27-.09.17-.21A164.52,164.52,0,0,0,40.63,19.49l-1-1.36a14.93,14.93,0,0,1,.16-3.22c1.53,1.45,3,2.93,4.52,4.41,3.88,5.53,7.73,11.07,11.6,16.6C59.75,44.38,66.06,52.53,74.31,56.72ZM56.5,33.14a50.78,50.78,0,0,0,8.93,13.28c2.17,2.37,4.48,4.82,6.92,7.12a.18.18,0,0,0-.1,0A55,55,0,0,1,64,45.7,47.43,47.43,0,0,1,56.5,33.14Zm9.33,29.29a6.12,6.12,0,0,0-.53-.83l1.37.64-.86.36A.17.17,0,0,0,65.83,62.43Zm2.21.46c.46.22.85.42,1.1.56l-.06,0a.29.29,0,0,0-.14.25c-.83.29-1.67.6-2.49.93a.5.5,0,0,0-.18-.23l-.71-.54C66.38,63.52,67.21,63.19,68,62.89Zm.93-.33.59-.21a2.43,2.43,0,0,0,.25.2c.15.1.3-.13.24-.26a.59.59,0,0,0,0-.08c.59-.18,1.17-.34,1.77-.48l.48.2a6.48,6.48,0,0,0,1.21.44c-1.19.3-2.37.64-3.53,1A2.72,2.72,0,0,0,69,62.56Zm-.36-2.15,1.46.61-.69.2C69.14,60.94,68.88,60.67,68.61,60.41Zm4.23,1.07.33-.07.13.15a.15.15,0,0,0,.25-.16l0-.06A31.21,31.21,0,0,1,80,60.78c1.59,0,3.18.09,4.77.2-1.35,0-2.71,0-4,.16a49.66,49.66,0,0,0-6.31,1,.75.75,0,0,0-.2-.11Zm-.13-1.82c.43.17.87.31,1.3.46l-.93.15A5.51,5.51,0,0,0,72.71,59.66ZM61.64,54.34a7.69,7.69,0,0,0-.34-.91c2.53,1,5.07,2,7.61,3A21.8,21.8,0,0,1,70.58,58c-2.33-.93-4.72-1.73-7-2.55-.66-.24-1.33-.46-2-.69A.51.51,0,0,0,61.64,54.34Zm-9.9-2.45c-2.23-1.79-4.52-3.5-6.83-5.19,1.39.56,2.79,1.14,4.18,1.72L51,49.7c.24.15.42-.25.22-.4,2.54,1.05,5.08,2.11,7.64,3.15.43.62.87,1.24,1.3,1.87-2.73-.94-5.48-1.85-8.25-2.69C51.78,51.58,51.71,51.75,51.74,51.89ZM37.21,27a20.45,20.45,0,0,0-1.74-2c1.65,1.29,3.25,2.62,4.82,4A35.41,35.41,0,0,0,42,32.5c-1.58-1.78-3.17-3.54-4.77-5.3A.17.17,0,0,0,37.21,27Zm4.25-5L40,20.8c-.08-.45-.13-.89-.18-1.34l.73.68,5.81,8.23q-2.88-2.81-5.93-5.44c-.11-.5-.22-1-.32-1.52.43.25.85.52,1.27.76C41.5,22.26,41.59,22,41.46,21.91ZM49.1,14a38.45,38.45,0,0,0-3.83-3.94L44,8.38l.43-.21c.46.46.91.91,1.34,1.39,1.17,1.29,2.19,2.72,3.3,4.07C50.6,15.82,52.18,18,53.84,20a12.73,12.73,0,0,0-.47,1.44c-1.91-2.71-3.84-5.39-5.76-8.08l1.12,1C49,14.62,49.28,14.25,49.1,14ZM45.9,11.8q3.66,5.2,7.31,10.43c-.05.24-.07.48-.1.72-3.59-4.18-7.5-8.13-11.27-12.15l-.25-.3A7.66,7.66,0,0,1,43,9.09C44,10,44.93,10.89,45.9,11.8Zm-4.66-1.67c-.16-.18-.32-.37-.49-.54A3.92,3.92,0,0,1,42,8.29l.53.42A10.58,10.58,0,0,0,41.24,10.13Zm2.88,5.34A31.68,31.68,0,0,0,41,11.39l.14-.25c1.09,1.08,2.16,2.2,3.24,3.33.06.07.13,0,.14-.06,2.78,3.11,5.57,6.22,8.51,9.16a15.84,15.84,0,0,0,0,3c-4-4.54-8.13-8.93-12.37-13.22l-.39-.54a7.86,7.86,0,0,1,.36-.84c1.13,1.17,2.23,2.37,3.34,3.6C44.07,15.64,44.17,15.54,44.12,15.47Zm-3.47-1.39,1.14,1.62c-.61-.54-1.22-1.08-1.84-1.6,0-.2.09-.4.15-.59Zm6.07,7.61c1.4,1.38,2.82,2.75,4.28,4.08.14.13.28-.14.19-.26a62.13,62.13,0,0,0-7.64-8.21l-.72-1Q48,21.64,53.12,27a23.7,23.7,0,0,0,1.33,5.32l.26.65Q50.77,27.31,46.72,21.69Zm7.43-2.36q-1.62-2-3.17-4a.17.17,0,0,0,0-.12,20.06,20.06,0,0,0-4.47-6.17l-.86-1.33.65-.17c.87,1.06,1.71,2.15,2.5,3.3.1.14.26,0,.18-.15a36.37,36.37,0,0,0-2.14-3.2l.67,0c.31.34.61.68.92,1a.29.29,0,0,0,0,.34A104.26,104.26,0,0,0,54.91,18l0,.05A10.51,10.51,0,0,0,54.15,19.33ZM51.79,8.43a1.12,1.12,0,0,1-.41.17l-.65-.7,1.56.19c1.1,1.67,2.17,3.35,3.25,5-1.33-1.47-2.67-2.91-4-4.35a2.42,2.42,0,0,0,.36-.1C52.07,8.61,51.94,8.32,51.79,8.43Zm.46,3.19,0,0q-1.77-2-3.57-3.94h.07C49.37,8.36,50,9,50.65,9.74S51.72,11,52.25,11.62Zm-2.37-1.44c.79.89,1.59,1.78,2.38,2.68.42.49.85,1,1.28,1.46a1.2,1.2,0,0,1,.72,1.13c-.13-.06-.23.14-.12.23l.25.23a.13.13,0,0,0,.16,0,.83.83,0,0,0,.38-1.2,19.07,19.07,0,0,0,1.62,1.51,8.3,8.3,0,0,0-1.13,1.09C53.5,15,51.64,12.64,49.88,10.18Zm3-2,.46,0s0,0,0,0c.91.94,1.82,1.89,2.7,2.86,1.07,1.2,2.09,2.48,3.15,3.71a12.24,12.24,0,0,0-1.47.69C56.14,13,54.5,10.56,52.86,8.15Zm5.65,4.65q.85.81,1.74,1.59l-.29.07h0C59.49,13.9,59,13.34,58.51,12.8Zm-.74-1.89.89,1.15c-.95-.93-1.89-1.87-2.79-2.84-.56-.59-1.11-1.2-1.66-1.81l1.56.08c.32.37.64.73,1,1.09q2.05,2.31,4.17,4.57l.57.89-.57.18L60.69,14,58,10.67C57.88,10.48,57.64,10.74,57.77,10.91ZM56.14,5.38c1.1.42,2.19.86,3.28,1.3a.35.35,0,0,0,0,.44l.24.25-1.15-.16L58.3,7a.32.32,0,0,0-.51.12L56.32,7l-1-1.15-1-1Q55.24,5.05,56.14,5.38Zm-3.09-1,2.16,2.43-1.6-.12c-.66-.75-1.31-1.5-2-2.27L51.27,4Zm-2.61-.65c.77,1,1.57,2,2.38,2.92h-.13Q51.06,5.07,49.38,3.5C49.74,3.59,50.09,3.7,50.44,3.78ZM48,2.88a.23.23,0,0,0,.13.29l.73.19a.28.28,0,0,0,0,.4c.55.51,1.09,1,1.63,1.55a.06.06,0,0,0,0,0l.84,1.28h-.49a17,17,0,0,0-2-.42c-1-1.29-2-2.57-3.08-3.82C46.54,2.54,47.27,2.7,48,2.88ZM45.41,2.3a.21.21,0,0,0,0,.23l2.06,2.85c-1.1-1.12-2.2-2.24-3.33-3.34ZM43.68,2a.29.29,0,0,0,0,.42C44.83,3.58,46,4.78,47.17,6H47.1c-1.32-1.39-2.65-2.78-4-4.13Zm-1.14-.19a.32.32,0,0,0,0,.36L46.06,6l-.44,0A36.15,36.15,0,0,0,41.26,1.6ZM36,1.37A4.2,4.2,0,0,0,37.9,3.16c.17.08.22-.2.11-.29a9,9,0,0,1-1.44-1.53,30.27,30.27,0,0,1,3.8.16A49.33,49.33,0,0,1,45,6a13.1,13.1,0,0,0-1.4.2,50.11,50.11,0,0,0-4.95-4c-.38-.26-.81.39-.41.67,1.13.79,2.22,1.64,3.28,2.53a.2.2,0,0,0,0,.1l.74,1a7.7,7.7,0,0,0-.71.33L40.34,6a.27.27,0,0,0-.25,0c-1.68-1.53-3.41-3-5.18-4.44C35.27,1.43,35.64,1.39,36,1.37Zm-6.86,1.7a31.66,31.66,0,0,0,3.46,2.15c.12.06.19-.13.1-.2a27.55,27.55,0,0,0-3.06-2.2A10.09,10.09,0,0,1,31.75,2,23.43,23.43,0,0,0,35.1,4.62c.16.09.26-.13.16-.24a19.92,19.92,0,0,0-2.89-2.53c.54-.12,1.08-.21,1.62-.28,2.19,2,4.5,3.95,6.84,5.82a5.27,5.27,0,0,0-1.19,1.12,45.22,45.22,0,0,0-5.87-4.67l-.07-.09a.11.11,0,0,0-.14,0c-.4-.27-.8-.54-1.2-.79s-.83.32-.47.55c.82.52,1.6,1.08,2.37,1.64l.3.43L33.05,4.41c-.3-.21-.6.33-.3.54,1.11.79,2.16,1.63,3.18,2.5.86,1.2,1.72,2.39,2.57,3.6a.13.13,0,0,0,0,.06Q35.91,8.55,33.3,6c-.22-.21-.49.23-.28.43q2.7,2.64,5.36,5.32s0,.05,0,.07a64.23,64.23,0,0,0-8.3-7c-.14-.1-.26,0-.28.19-.55-.44-1.11-.86-1.67-1.29A10.27,10.27,0,0,1,29.15,3.07Zm7.61,11.79,1.3,1.83v.47h0q-2.46-2.19-5-4.3c-.21-.18-.47.17-.28.33,1.79,1.53,3.54,3.09,5.27,4.67,0,.53,0,1.06.05,1.58L36.71,18.4a54.46,54.46,0,0,0-9.45-8.22.22.22,0,0,0-.34.09l-2-1.58a.21.21,0,0,0-.27,0,12.68,12.68,0,0,1,1.13-2.31C27.5,7.63,29.21,8.93,31,10.06a.18.18,0,0,0,.1.13A42.35,42.35,0,0,1,36.76,14.86ZM36,13.1l2.11,2c0,.12,0,.24,0,.35q-.76-.87-1.59-1.68ZM24.8,9.29a92.42,92.42,0,0,0,13.41,11c0,.3.07.6.1.9Q36,19.24,33.72,17.41c-.22-.18-.44.24-.23.41,1.67,1.32,3.3,2.67,4.91,4,.08.53.16,1.05.27,1.57C34,19.35,28.74,15.81,24,11.77a.22.22,0,0,0-.11,0A16.26,16.26,0,0,1,24.53,9a.19.19,0,0,0,.07.11Zm13.84,1.22c-.47-.63-.93-1.27-1.4-1.91.53.48,1,1,1.55,1.47C38.74,10.21,38.68,10.36,38.64,10.51Zm-3-4.18-.38-.52c1.38,1.08,2.69,2.22,4,3.41l-.08.16C38,8.31,36.8,7.3,35.59,6.33ZM32.13,7.44c.14.09.22-.13.13-.22S32,7,31.83,6.81c2.22,1.79,4.34,3.7,6.44,5.63a1.37,1.37,0,0,0,0,.19l-1.7-1.44c-.28-.24-.67.22-.4.44.68.58,1.35,1.17,2,1.77,0,.39-.07.78-.08,1.16A47.71,47.71,0,0,0,34,10.44l-2-2.8c-.12-.17-.31.08-.21.23.38.53.75,1.06,1.13,1.58C32,8.62,31,7.82,30,7c-.27-.21-.6.24-.35.44,1.72,1.34,3.34,2.78,4.92,4.25.19.27.38.53.56.8a37.79,37.79,0,0,0-3.72-2.85.18.18,0,0,0-.22,0C29.52,8.35,27.76,7.18,26,6a10.4,10.4,0,0,1,1.72-1.91A37.89,37.89,0,0,0,32.13,7.44Zm-9.37,4.7L22.53,12a12.47,12.47,0,0,1,1.39-5.49,8.35,8.35,0,0,1,3-3.11l.07.05a11,11,0,0,0-1.77,2,.22.22,0,0,0-.21.29A16.2,16.2,0,0,0,22.76,12.14Zm.81,2.26c4.06,3,7.82,6.4,11.84,9.48.16.12.33-.14.21-.27a83.41,83.41,0,0,0-12-9.89c0-.13,0-.27,0-.4,2.08,1.25,4,2.72,6.05,4.07h0a74.22,74.22,0,0,0,9,6.55h.06c.13.6.27,1.2.43,1.78s.37,1.22.57,1.82c-2.21-1.79-4.47-3.49-6.72-5.12a.24.24,0,0,0-.33,0A78,78,0,0,0,24.65,17c-.22-.13-.39.16-.28.34l-.76-.57C23.55,16,23.55,15.21,23.57,14.4ZM24.39,21c-.07-.25-.15-.49-.22-.73a20,20,0,0,1-.46-2.63c1.77,1.39,3.55,2.78,5.43,4,.14.1.29-.14.17-.25C28,20.15,26.5,19,25,17.89c2.86,2,5.73,4,8.42,6.18,3.46,3.76,6.88,7.57,10.27,11.39.5.74,1,1.46,1.6,2.17-1.6-1.47-3.25-2.89-4.92-4.29a57.17,57.17,0,0,0-9.48-8.26c-1.82-1.39-3.74-2.67-5.59-4-.14-.1-.27,0-.31.15L24.62,21A.21.21,0,0,0,24.39,21Zm1.12,3.09c-.35-.83-.68-1.66-.94-2.5.6.37,1.19.76,1.78,1.14a.25.25,0,0,0,0,.34c8.44,6.27,16.17,13.25,24.13,20.09l.06.06q2.47,2.8,5,5.59c.13.16.3-.08.19-.22l-1.51-1.82.74.75a40.94,40.94,0,0,1,3.2,4l-8.26-3.11c-1.49-1.08-3-2.13-4.49-3.18,2.06.7,4.13,1.41,6.2,2.09l.36.35c.19.17.39-.16.23-.32-4-4.13-8.06-8.13-12.15-12.14a21.18,21.18,0,0,0-5.24-4.69c-1.12-.78-2.26-1.52-3.4-2.27C30,27.13,28.58,26.09,27.18,25A.2.2,0,0,0,27,25c-.39-.32-.8-.62-1.18-1A.2.2,0,0,0,25.51,24.07Zm3.95,6.35-.61-.33a37,37,0,0,1-3.06-5.37A41.37,41.37,0,0,0,30,27.89a76.17,76.17,0,0,0,6.52,4.74A46.89,46.89,0,0,1,41,37.48c.1.12.27,0,.22-.15s-.08-.17-.11-.26q1.53,1.51,3.07,3C40.28,36.85,36,34,31.87,31c-.26-.18-.54.26-.29.43l1,.69c-.45-.27-.9-.54-1.35-.79s-.9-.72-1.34-1.09C29.7,30.15,29.52,30.26,29.46,30.42ZM33.68,36c-.63-.6-1.24-1.21-1.84-1.84-.71-.87-1.39-1.76-2.05-2.66.82.49,1.63,1,2.42,1.53,1.22,1,2.48,2,3.77,2.93a28.53,28.53,0,0,0,3.09,2.44.25.25,0,0,0,.36-.11c.54.32,1.08.64,1.63.94.1,0,.13-.11.07-.16-.73-.58-1.47-1.15-2.21-1.71a16.75,16.75,0,0,0-1.55-1.61c2.4,1.79,4.8,3.59,7.26,5.31.14.1.28,0,.3-.2,2.15,2.11,4.32,4.22,6.51,6.28q-3.24-1.16-6.5-2.27c-3.71-2.89-7.41-5.77-10.92-8.9A.22.22,0,0,0,33.68,36Zm7.61,8.12c-2.36-2.26-4.84-4.7-7.2-7.32a101.59,101.59,0,0,0,9.4,7.56l-1.82-.62c-.1,0-.13.14,0,.17l2,.68a.28.28,0,0,0,.12.27l4,2.69c-.92-.35-1.84-.69-2.75-1-.13,0-.19.11-.13.2ZM60.82,60.31l-.39-.4a.29.29,0,0,0-.24-.08l-2.9-2.19c1,.65,2,1.3,3,1.93.11.07.18-.09.09-.16a81.58,81.58,0,0,0-8.89-6.35c-2.27-1.83-4.5-3.72-6.66-5.68,2.58,1.91,5.18,3.8,7.87,5.54.12.08.22-.1.12-.18L52,52.09C54.91,53,57.81,54,60.69,55a.63.63,0,0,0,.29.1c1.12.4,2.25.78,3.37,1.2,2.4.89,4.77,2,7.17,2.92.29.4.57.82.85,1.24-.45.09-.9.2-1.34.32l-2-.83-1.63-.66c-.71-.68-1.43-1.33-2.18-2-.28-.23-.65.23-.39.45s.64.55,1,.84L59.34,56c-.3-.13-.53.39-.23.51L67,59.72l.06,0c.21.2.42.4.62.61s.66.74,1,1.12l-1.1.41-3.08-1.38-.65-.77c-.18-.23-.46,0-.45.27-1-.48-1.94-.91-2.37-1.14h0l.06-.13A.19.19,0,0,0,61,58.5l-.16-.12a.16.16,0,0,0-.15,0l-.12.05a.26.26,0,0,0-.16.3c.13.46,1.77,1.36,3.62,2.26a10.72,10.72,0,0,0,1.53,1.69l.06,0-1,.47ZM44.41,76.24c5-3.8,10.86-6.81,16.33-9.91,1.15-.65,2.3-1.26,3.45-1.81l.91.68c-.78.34-1.55.69-2.32,1.06a110.57,110.57,0,0,0-17.56,11,57.44,57.44,0,0,0-5.34,4.34A15.24,15.24,0,0,1,44.41,76.24Zm59.31,13.88a102.35,102.35,0,0,0-14,1c-.12-.16-.25-.31-.38-.46a7,7,0,0,0,1.38.15.38.38,0,0,0,.33-.44.66.66,0,0,0,.57-.41c5.24.26,10.62-.27,15.87-.19s10.32.19,15.46.52l-2.61.16c0-.13,0-.25-.2-.26C114.68,89.93,109.2,89.92,103.72,90.12Zm11.88.64q-11,.76-22,1.87c-.5-.14-1.34-.3-2.21-.47,4.75-.06,9.56-.71,14.32-1.25C109,90.81,112.29,90.77,115.6,90.76Zm-46,2.73-.24-.31,3.84-.34.15.13-1.63.36-2.13.32A.15.15,0,0,0,69.63,93.49ZM73.17,92c-.27-.27-.58-.51-.87-.76L75.91,91c.29.21.58.43.88.63C75.58,91.73,74.38,91.84,73.17,92Zm-.84.09-3.56.38a13,13,0,0,0-1-1l3.61-.21C71.7,91.53,72,91.79,72.33,92.06Zm-4.26.46-3.34.36a12.33,12.33,0,0,0-1.22-1.17l3.3-.18Q67.44,92,68.07,92.52ZM63.88,93l-1.09.11-4.36.44a14.12,14.12,0,0,0-1.5-1.24l3.62-.41,2-.11C63,92.15,63.44,92.56,63.88,93Zm-6.37.64L53.38,94c-.58-.39-1.17-.76-1.77-1.1,1.45-.19,2.91-.37,4.37-.54l.09.06C56.57,92.81,57,93.21,57.51,93.61Zm-5.76-.07.88.57c-1.24.13-2.47.28-3.71.43-.43-.38-.87-.74-1.31-1.11L50.83,93C51.13,93.2,51.45,93.35,51.75,93.54ZM49,95.31c.5.38,1,.75,1.51,1.1-.6,0-1.19,0-1.78-.07a8.59,8.59,0,0,0-.69-.93Zm-.89-.68-.72.09a13.41,13.41,0,0,0-1.26-1.1l.61-.08Zm-.44,1.64c-.73-.07-1.46-.17-2.19-.28a1.74,1.74,0,0,0-.18-.33l1.63-.14Zm-1.41-1.41-1.42.2A8.43,8.43,0,0,0,43.48,94L45,93.76C45.42,94.11,45.83,94.48,46.22,94.86Zm-3.65-1.52L42.06,93l-.29-.15,1.79-.12c.18.11.36.21.53.33Zm-.12.73c.45.36.89.75,1.33,1.14l-1.21.17q-.65-.18-1.26-.39a.52.52,0,0,0-.06-.16c-.09-.2-.46-.39-.62-.5l-.06,0Zm-2.58-.26-.22-.15c-.41-.26-.82-.49-1.23-.73.71,0,1.42,0,2.14,0,.36.18.72.36,1.06.57ZM50.7,97.74c-4.53.25-10.06,0-13.5-2.62A33.34,33.34,0,0,0,50.7,97.74Zm-.07-1.32a.2.2,0,0,0,0-.3l-1-.89,4-.41a5.37,5.37,0,0,1,1.55,1.45C53.67,96.38,52.15,96.44,50.63,96.42Zm3.77-1.69,3.92-.44c.42.35.84.69,1.28,1,.16.12.27-.13.18-.25a8.57,8.57,0,0,0-.67-.82l3.67-.4,1.83-.17q.4.36.84.69c-2.88.5-5.74,1.1-8.57,1.78-.38,0-.77.08-1.16.11C55.63,95.72,54.89,95.1,54.4,94.73Zm10.91-1.16c1.21-.12,2.41-.24,3.62-.34l.54.44h0c-1.24.19-2.47.39-3.7.61a.16.16,0,0,0,0-.1C65.62,94,65.46,93.77,65.31,93.57Zm9.46.6.1.09c.09.08.17-.05.14-.14a96,96,0,0,1,13.42-1.94c.87.22,1.77.48,2.67.69q-6.76.7-13.49,1.52c-4,.48-7.89,1.07-11.84,1.64C68.78,95.44,71.77,94.78,74.77,94.17Zm12.15-3.31a7,7,0,0,0-1.64-1.19L87,89.54c.14,0,.17-.17.12-.29l.18,0a.13.13,0,0,0,.1-.16l.34.31a5.26,5.26,0,0,0-.25,1.78c-.12-.1-.24-.21-.37-.3s0,0,0,0l.39.32c-.82,0-1.65,0-2.47,0a16.36,16.36,0,0,0-1.65-1.44l1.43-.11.32.17A18.14,18.14,0,0,0,86.83,91C86.93,91.06,87,90.92,86.92,90.86Zm-2.5.3c-1.07,0-2.13.07-3.2.13-.19-.22-.4-.44-.62-.65.13-.13.11-.41-.12-.4h-.3L80,90.1c.63,0,1.25-.1,1.87-.17l1-.08A18.37,18.37,0,0,0,84.42,91.16Zm-3.74.17c-1,.06-2,.14-2.94.22-.28-.22-.58-.42-.87-.62l3.12-.2Zm11.43-3.14c-.56-.29-1.14-.55-1.71-.82l3.84-.16c.65.18,1.3.36,2,.51-1.33.13-2.64.3-3.92.55Zm-1.54.57c0,.1,0,.21.13.21h.17s.07,0,.09.08a.67.67,0,0,1,.13.25l-.6.09L90,88.62h0A2.07,2.07,0,0,1,90.57,88.76ZM89.49,88c-.3,0-.4.56-.07.58h.08a.36.36,0,0,0-.1.47l.66,1a6.4,6.4,0,0,1-1.5-.28l-.14-.14a4.55,4.55,0,0,1,1.11-1.93c.22.09.43.2.64.3C89.94,88,89.7,88,89.49,88Zm-1.62,1.17-.28-.25c-.54-.46-1.1-.9-1.68-1.31l3-.15A5.22,5.22,0,0,0,87.87,89.15ZM87.31,89c-1.06,0-2.12.05-3.18.1-.23-.11-.44-.25-.66-.35s-.17.15-.07.2.2.12.3.17l-1.14.07c-.29-.22-.57-.44-.84-.67-.1-.08-.18.1-.09.17l.58.53c-1,.06-2,.14-3,.21a23.67,23.67,0,0,0-2-1.35c1.73-.1,3.47-.2,5.2-.28l3.22-.15A17.37,17.37,0,0,1,87.31,89Zm-8.86.48c-1.1.09-2.21.19-3.31.3l-1.45-1c-.24-.17-.48.26-.25.42s.57.42.86.64l-.46,0-3,.22c-.79-.54-1.61-1-2.41-1.47,2.67-.19,5.34-.37,8-.52A23,23,0,0,1,78.45,89.44Zm-8.51.7-3.59.29A21,21,0,0,0,63.59,89c1.36-.1,2.71-.21,4.07-.3a.12.12,0,0,0,.06.08A19.93,19.93,0,0,1,69.94,90.14Zm-4.56.37c-1,.08-2,.19-3.06.28a28.65,28.65,0,0,0-2.47-1.54L62.64,89s0,0,0,0A15.07,15.07,0,0,1,65.38,90.51Zm-4.09.35L58,91l-2.86.13c-.79-.46-1.58-.89-2.35-1.28l6-.49A26.11,26.11,0,0,1,61.29,90.86Zm-7.26.3-5.46.24c-.32-.14-.64-.31-1-.44s-.4.29-.17.39l.21.09-.36,0c-.67,0-1.34.05-2,.06l-1.17-.94c2.56-.22,5.12-.45,7.68-.66l.05,0C52.57,90.32,53.31,90.73,54,91.16Zm-9.75.38-1.54,0c-.55-.27-1.09-.52-1.62-.74l2.1-.18Zm-2.88.07c-.67,0-1.33.07-2,.13-.34-.13-.68-.29-1-.4a2.45,2.45,0,0,1,0-.27L39.77,91C40.32,91.15,40.87,91.37,41.4,91.61ZM39,94l-.15,0c-.81-.37-1.6-.78-2.39-1.22l.85.08a.23.23,0,0,0,.11.24Zm-1.66-2.82c0,.27.13.55.2.82-.38.06-.75.12-1.12.21a.35.35,0,0,0-.2.46c-.53-.3-1.07-.61-1.6-.94,0-.1-.09-.2-.13-.31ZM24.84,99c3.4,5,8.75,10.08,14.63,10.83.37,0,.62-.52.28-.73-2.81-1.71-5.84-2.8-8.41-4.93A29.46,29.46,0,0,1,25,96.84a44.72,44.72,0,0,0,9-2.7.4.4,0,0,0,.53.3.42.42,0,0,0,.33-.38c2.88,3.74,8.52,4.81,13.11,4.77,8.34-.07,16.62-1.69,24.88-2.73q26.53-3.33,53.26-4.79c.83,0,.57-1.25-.23-1.2l-.92,0a.14.14,0,0,0-.12-.12c-5.76-.48-11.48-1-17.26-1.06a139.55,139.55,0,0,0-14,0l-.16-.11c2.13-.12,4.27-.38,6.4-.47,3.31-.15,6.62-.18,9.93-.07,6.11.21,12.13,1,18.18,1.72.16,0,.18-.27,0-.31-2.27-.53-4.57-1-6.88-1.28,1.85.16,3.71.35,5.57.6,1.19.26,2.36.55,3.53.87.26.08.38-.37.12-.45-.91-.29-1.83-.55-2.75-.79a.3.3,0,0,0-.25-.25l-2-.3c-10.11-2.3-20.82-2.27-31.3-1.84-.71-.13-1.42-.24-2.11-.34a.23.23,0,0,0-.2-.07,5.42,5.42,0,0,0-1.58.58l-6.73.33c-2.52.12-5,.26-7.57.4L75.46,87c-.17-.09-.29.1-.25.25-12.33.73-24.64,1.78-36.94,2.91A18,18,0,0,1,39,84c2.72-3.25,6.53-5.75,9.88-8.13a95.34,95.34,0,0,1,16-9.62A53.62,53.62,0,0,1,74.14,63a.18.18,0,0,0,.19.06L74.5,63a.3.3,0,0,0,.15-.12,42.06,42.06,0,0,1,9.71-1.14,98,98,0,0,1,19.14,2.36l.23.05.36.1a.26.26,0,0,0,.11.45c2.1.51,4.25,1,6.38,1.44l1.4.47c-.18,0-.24.31-.07.36,1.09.31,2.17.62,3.23,1,.77.38,1.54.76,2.29,1.17.21.12.39-.13.34-.33a43.24,43.24,0,0,1,5.47,2.56c-.35-.06-.7-.13-1.06-.16l.06.13-.94-.11c-.17,0-.22.29,0,.33,1.31.31,2.62.55,3.85,1a55.24,55.24,0,0,1,6.36,5.69l.46.43c1.54,2.45,2.77,5.08,4.41,7.46,3.49,5.07,9.11,7.45,13.64,11.39l.25.47a.18.18,0,0,0-.12.29c.22.23.41.48.6.72l.06.13a5.49,5.49,0,0,1,.12,2.34,25.17,25.17,0,0,0-1.6-2.47c-.15-.22-.49.08-.36.29a31.79,31.79,0,0,1,1.69,3.15,5.15,5.15,0,0,1-1.37,1.87,7.42,7.42,0,0,0-2.43-4.4c-.24-.23-.52.22-.31.44a8,8,0,0,1,1.7,2.53c.24.59.35,1.22.55,1.82a9.16,9.16,0,0,1-.89.59c-.17.1-.12.44.1.42a3.91,3.91,0,0,0,3.13-2.08,6.42,6.42,0,0,0,.72,1.49c.09.13.28,0,.28-.11a6.68,6.68,0,0,0-.58-2.27,6.13,6.13,0,0,0,.29-1.06c.25.72.49,1.44.7,2.18a.35.35,0,0,0,.07.15l-.08,0c-.23.08-.29.49,0,.5a2.1,2.1,0,0,0,1.84-.66c0,.41.1.82.12,1.24q-4.52.93-9.1,1.52c-5.93.76-11.88,1.36-17.84,2,.78-1.89-.61-4-2.28-4.91-.32-.17-.62.35-.31.54,1.73,1,2,2.59,2.29,4.4l-2.64.27-.2,0a4.11,4.11,0,0,0-2.46-3.34c-.36-.16-.6.45-.24.62a3.64,3.64,0,0,1,2,2.64,3,3,0,0,0-.41.19l-3.25.31a5.71,5.71,0,0,0-2.58-3.92c-.3-.2-.58.33-.29.53a5.39,5.39,0,0,1,2.13,3.23,1.67,1.67,0,0,1-.62-.2c-.13-.07-.24.1-.17.2a2.32,2.32,0,0,0,.24.28c-11.84,1.14-23.7,2.11-35.59,2.67-9.71.45-19.45.66-29.18.39a.42.42,0,0,0,0-.16,5.06,5.06,0,0,0-2.88-3.17c-.33-.15-.64.37-.31.54A5.09,5.09,0,0,1,53,112h-.16a.19.19,0,0,0-.11.34l.08,0c-1.39,0-2.78-.11-4.18-.17a.61.61,0,0,0,.24-.44c.07-.52-.53-1-.87-1.26a11.2,11.2,0,0,0-1.13-.82,27.23,27.23,0,0,0,2.85.44.14.14,0,0,0,0-.27A46.88,46.88,0,0,1,40.3,107c-3.79-1.75-8.84-4.18-8.81-9,0-.31-.4-.26-.42,0-.24,3.46,2.5,6,5.3,7.61a36.62,36.62,0,0,0,9.71,3.94.37.37,0,0,0,0,.62,9.12,9.12,0,0,1,1,.7c.21.17.42.34.62.52l.28.25a.15.15,0,0,0-.13.07.32.32,0,0,0,0,.5c-2.59-.12-5.18-.27-7.76-.49-3-.24-5.88-.52-8.8-.88a.09.09,0,0,0,0-.13c-1.25-1.62-2.63-3.17-4-4.7l.89-.19s.05,0,.07-.05c1.13,1.16,2.25,2.32,3.37,3.5.06.07.14,0,.08-.11-.7-.84-1.42-1.67-2.14-2.49a18.24,18.24,0,0,0,12.57,5c.24,0,.35-.46.1-.53-5.61-1.63-10.49-2.92-14.43-7.62A28.23,28.23,0,0,1,24.69,99Zm72-11.84q3.43-.12,6.87-.13c-1,.07-2,.16-3,.28-.1,0-.15.12-.15.22-.86,0-1.71,0-2.57.1C97.62,87.41,97.25,87.25,96.87,87.11Zm40.23-3.32-.63-.26c-.25-.09-.48.32-.24.47.63.39,1.26.78,1.88,1.18l.22.29a.27.27,0,0,0,.37.09c1.28.83,2.53,1.7,3.71,2.64l-.29-.17c-.26-.14-.47.26-.24.41a29.15,29.15,0,0,1,5.43,4.77l.23.31,0,0c-3.24-2.89-7.77-4.67-10.41-8.14-.12-.15-.27-.06-.34.08-.7-1-1.37-2.09-2-3.24-.39-.71-.79-1.43-1.2-2.15l.88.74A20.18,20.18,0,0,0,137.1,83.79Zm-1-4.72c0,.09.11.16.16.24.51.88,1,1.8,1.53,2.69l-1.26-1C136.35,80.36,136.21,79.72,136.05,79.07Zm10.41,11.54a28,28,0,0,1,3.4,3.66,30.43,30.43,0,0,1,3.21,4.89,19.28,19.28,0,0,1,.71,2,2.35,2.35,0,0,1-.47,2.24,26.84,26.84,0,0,0-1.5-4.62,5.22,5.22,0,0,0-.35-1.14,17.15,17.15,0,0,0-2.49-4c-.26-.38-.54-.76-.83-1.14a.2.2,0,0,0-.17-.09C147.49,91.84,147,91.22,146.46,90.61ZM146.8,94c-1.28-.85-2.63-1.61-3.87-2.44a21.82,21.82,0,0,1-4.25-3.68,31.9,31.9,0,0,0,3.67,2.62A36.08,36.08,0,0,1,146.8,94ZM134.88,79.68a48.72,48.72,0,0,0-3.24-4.46,24.4,24.4,0,0,0-2.83-2.74c-.06-.21-.12-.42-.19-.63a21.79,21.79,0,0,1,5.89,5c.4,1.19.83,2.38,1.28,3.56ZM8,104.79c.4-.24.81-.46,1.21-.68.19.15.39.3.57.47l.24.22-.56.32c-.12.08,0,.33.11.27l.77-.29A21.28,21.28,0,0,0,12,106.64c-1.46-.49-2.91-1-4.35-1.6l.11-.07.1.09c.12.1.22-.08.21-.18Zm7.73-1.49c.57-.17,1.14-.32,1.71-.46.61.5,1.22,1,1.81,1.53l-1.62.44C17,104.28,16.37,103.78,15.72,103.3ZM16.84,105c-.61.16-1.21.34-1.81.52-.57-.52-1.16-1-1.78-1.49.6-.2,1.19-.39,1.79-.56C15.66,104,16.25,104.5,16.84,105Zm4-1.12-.9.26c-.61-.51-1.22-1-1.85-1.51l1.26-.27C19.88,102.89,20.37,103.4,20.87,103.91Zm-.81-1.66,1-.19,1.32,1.42c-.29.07-.59.15-.88.24Q20.81,103,20.06,102.25Zm-1.26,2.81.9-.28c.74.65,1.47,1.32,2.2,2-.57.19-1.13.4-1.69.63a24.77,24.77,0,0,0-2.08-2.15Zm1.6-.5.84-.27,2,2.07-.71.2C21.87,105.87,21.15,105.2,20.4,104.56Zm1.49-.46.89-.22c.66.71,1.34,1.4,2,2.1l-1.06.25C23.15,105.5,22.53,104.79,21.89,104.1Zm1.48-.34a8.41,8.41,0,0,1,1.49-.13c.56.67,1.13,1.33,1.7,2-.39.06-.79.14-1.18.22C24.72,105.15,24.05,104.45,23.37,103.76Zm-.4-.4L21.59,102c.56-.09,1.12-.17,1.69-.24.41.48.82,1,1.22,1.46A8,8,0,0,0,23,103.36Zm-1.86-1.86-1.2-1.19,1.82-.45L23,101.41C22.39,101.42,21.75,101.45,21.11,101.5Zm-.5,0-1.17.13-1.06-1,1.17-.28Zm-1.85.24c-.48.08-1,.17-1.42.27l-1.08-.81c.31-.09.62-.19.94-.27l.58-.14Zm-2.11.43q-.9.21-1.77.48l-1-.69c.58-.21,1.18-.41,1.79-.59C16,101.66,16.31,101.94,16.65,102.21Zm-2.4.68c-.57.19-1.14.41-1.7.64l-.88-.64c.54-.24,1.09-.47,1.64-.68C13.63,102.43,14,102.66,14.25,102.89ZM12,103.8c-.5.23-1,.47-1.47.73l-.46-.38-.37-.3c.48-.25,1-.49,1.44-.71C11.4,103.35,11.69,103.58,12,103.8Zm-1-1.41-.85-.61c-.24-.17-.48.26-.25.42s.39.29.58.44c-.47.22-.93.47-1.38.72-.52-.42-1.07-.83-1.61-1.24,1.36-.37,2.71-.76,4.06-1.17a.19.19,0,0,0,.09.18c.33.19.64.4,1,.6C12,101.93,11.49,102.15,11,102.39Zm0,2.49,1.66-.6c.5.4,1,.81,1.46,1.23.09.09.18.19.27.27-.36.12-.72.24-1.08.38-.19.06-.15.38.06.34.48-.09,1-.2,1.44-.31.65.63,1.28,1.29,2,1.88-1.28-.34-2.56-.72-3.83-1.12A7.59,7.59,0,0,0,10.93,104.88ZM15.52,106c.6-.16,1.21-.33,1.81-.51,1.24,1.15,2.43,2.36,3.64,3.61-1.16-.25-2.32-.53-3.47-.82A14.07,14.07,0,0,0,15.52,106Zm4.9,1.66,1.92-.48,2.77,2.56c.13.12.25-.09.16-.2A33.74,33.74,0,0,0,23,107l.71-.18,1,1c.09.09.19-.07.13-.16-.24-.33-.5-.65-.76-1l1.14-.27c1.11,1.14,2.24,2.25,3.41,3.32.1.09.21-.07.14-.16-1-1.13-1.95-2.22-3-3.29l1.12-.25c1.41,1.62,2.84,3.21,4.34,4.73-3.27-.41-6.5-.93-9.7-1.59A19.22,19.22,0,0,0,20.42,107.65Zm3.26-8.32A11.72,11.72,0,0,0,25,101.49c.13.18.27.36.41.53-.82-.83-1.65-1.66-2.49-2.47Zm-1.25.34L28,105.4l-1,.16-1.51-1.7-.18-.19c.13,0,.25,0,.37,0s.27-.34,0-.39a5.76,5.76,0,0,0-.82-.11l-1.44-1.62c0-.08,0-.17-.13-.17h0l-1.12-1.28-.31-.32Zm-1.21-1.23.7.71-.54.13C20.88,98.73,20.47,98.17,21.22,98.44Zm-1-.44,1.08,1.31q-1,.21-1.92.45l-1.05-1.05Zm-2.14.8,1,1-1.25.3-1-.89Zm-1.81.63c.32.28.63.57.94.86-.54.14-1.08.29-1.61.45l-1-.74Zm-2,.92c.26.18.51.37.76.56-.62.19-1.24.4-1.86.62-.39-.25-.78-.48-1.17-.7l2.19-.69A.2.2,0,0,0,14.21,100.35Zm-1.74-.55c-2,.57-3.94,1.11-5.92,1.62l0,0c-.12-.09-.23,0-.28.11l-1.69.42A53.43,53.43,0,0,1,12.47,99.8Zm-5.58,2.48c.59.44,1.17.88,1.73,1.34l-.88.58a3.92,3.92,0,0,0-2.64-1.44c-.27,0-.3.44,0,.48a3.3,3.3,0,0,1,1.64.67,3.65,3.65,0,0,1,.58.6c-.12.08-.22.18-.33.26-1.19-.49-2.36-1-3.52-1.6Zm39.45,20.94c-2.73-.66-5.44-1.38-8.14-2.13a.84.84,0,0,0-.24-.43,16.09,16.09,0,0,0-2.36-1.61c-.42-.27-1,.38-.52.67l1.31.86c-3.64-1-7.25-2.17-10.82-3.42-3.26-1.13-7.06-2.25-10.69-3.72a68.43,68.43,0,0,1-11.55-8.23c.67.35,1.34.68,2,1l-.1.08c-.09.1,0,.29.14.2a1.88,1.88,0,0,1,.23-.16c13.32,6.17,29.22,7,43.57,7.58A398.54,398.54,0,0,0,102,112.24c17.5-1.61,35.69-2.35,52.88-6.09,1.11-.24,2.85-.5,4.76-.88a.21.21,0,0,0,.09.17l1.06.78c-7.85,3.08-16.85,3.62-25.16,4.51-14,1.48-28,2.89-42,3.86-13.66,1-27.36,1.53-41.06,1.31-12-.19-25.67.31-36.62-5.46-.23-.11-.37.26-.17.38,5.07,3.08,10.73,4.33,16.59,4.9,7,.68,14.07.88,21.1,1,14.68.16,29.35-.5,44-1.64,14.31-1.12,28.59-2.64,42.87-4.17,6.85-.73,14.5-1.47,21.11-4.14a32.41,32.41,0,0,1,2.73,2.37,35.67,35.67,0,0,1-3.73,1c-.33-.4-.64-.8-.95-1.19s-.69.14-.46.44l.69.91c-1.4.29-2.75.53-3.92.76l-1.19.22-.25-.16c-.21-.13-.4.09-.38.28q-8.14,1.52-16.38,2.5c-12.24,1.47-24.55,2.36-36.84,3.38-11.57,1-23.14,2-34.75,2.28-5.7.12-11.42.07-17.11-.36-6.29-.47-12.42-1.62-18.64-2.58-.25,0-.29.34-.07.41a62.06,62.06,0,0,0,10.31,2.15.29.29,0,0,0,.15.4,9.47,9.47,0,0,1,1.17.65l-.79,0c-.21,0-.23.32,0,.36.56.11,1.13.19,1.69.28a10.28,10.28,0,0,1,1.13,1.06,1.22,1.22,0,0,1-.54,0c-.21,0-.24.32-.09.41a1.34,1.34,0,0,0,1.43,0,.41.41,0,0,0,.16-.61c-.18-.22-.39-.42-.59-.63.94.14,1.89.26,2.83.36l.28.22c.39.33.79.65,1.19,1-.08-.06.81.69.55.69a.21.21,0,0,0-.17.32c.5.61,1.21-.26.91-.86a3.84,3.84,0,0,0-1.31-1.2c3,.28,6,.44,8.94.59a.3.3,0,0,0,.12.16c.4.28.79.58,1.17.88-1.22-.12-2.43-.23-3.65-.29a8.12,8.12,0,0,0-1.48-.8c-.46-.19-.82.53-.36.75h-.32a.19.19,0,0,0-.05.38c.56.13,1.12.23,1.69.33a7.16,7.16,0,0,1,.83.62c.39.37.72.85,1.12,1.21C53.11,124.77,49.71,124.05,46.34,123.22Zm120.87-20.43.09.09c-.39.27-.8.52-1.21.76l-.2-.18A10.19,10.19,0,0,0,167.21,102.79Zm-.21-3c-.12-.09-.24-.19-.37-.27-.8-.57-1.62-1.13-2.47-1.62-.24-.15-.55-.37-.82-.56a8.71,8.71,0,0,1,3.22,1h0c.19.36.36.73.52,1.1a1.55,1.55,0,0,1,0,.21A.61.61,0,0,0,167,99.83Zm-17.14,14.86c.22.14.42.3.63.46-3.38.66-6.77,1.29-10.17,1.84q-14,2.31-28.13,3.57a.32.32,0,0,0-.35,0c-1.39.12-2.77.26-4.15.36l-.92.06a.24.24,0,0,0-.27,0c-10.83.78-21.69,1.13-32.54,1-5.65-.1-11.3-.31-16.94-.66-3.32-.2-6.65-.55-10-.81l-1-.76,2.81.21a183.48,183.48,0,0,0,18.91.32c13-.45,26-1.74,38.94-2.83,13.56-1.13,27.17-2.1,40.62-4.24q3.68-.58,7.33-1.29a15.43,15.43,0,0,1,2.28,1.9l-.86.2c-1.58.34-3.18.65-4.77,1a13.85,13.85,0,0,0-1.14-.82C149.86,114,149.56,114.5,149.86,114.69Zm-4.19,4.11-3,.47-.43-.5c-.27-.34-.82.12-.55.43l.16.19-5.18.79h0a.33.33,0,0,0-.4.07l-3.65.53a13,13,0,0,0-1.71-1c-.32-.15-.62.38-.29.54s.72.36,1.07.57c-1.67.24-3.33.47-5,.69a10.24,10.24,0,0,0-1.6-.77c-.38-.13-.64.48-.25.63.22.08.43.2.64.3l-3.82.48-1.83-1.19c-.31-.2-.59.33-.3.53l1.12.78-1.86.21a.44.44,0,0,0-.54.06l-3.95.42c-.43-.61-.89-1.18-1.35-1.72,1.4-.13,2.8-.26,4.2-.41q14-1.45,27.89-4l2.46,2.2c.07.07.53.46.94.88-1.18.38-2.37.73-3.57,1l-.61.15a14.89,14.89,0,0,0-1.18-1.47c.9-.19,1.8-.37,2.69-.58C145.92,119.09,145.87,118.77,145.67,118.8Zm-26.09,4.53,2.17-.22a3.47,3.47,0,0,1,1,.75.21.21,0,0,0-.17.22.39.39,0,0,0,.58.33c.37-.15.4-.48.32-.81a1.29,1.29,0,0,0-.59-.63c1.3-.15,2.61-.29,3.91-.47.16.11.33.2.48.32.43.36.85.91,1.33,1.24-1.19.15-2.38.29-3.57.41s-2.64.22-4,.31C120.57,124.28,120.08,123.8,119.58,123.33Zm.49,1.51c-1.54.09-3.09.17-4.63.24a12.25,12.25,0,0,0-.69-1.28c1.26-.11,2.51-.23,3.76-.36C119,123.92,119.54,124.38,120.07,124.84Zm7.77-2.48c1.63-.22,3.25-.46,4.86-.71A9.76,9.76,0,0,1,134,122.8a5.65,5.65,0,0,1,.36.44c-1.7.29-3.41.53-5.12.75A3.05,3.05,0,0,0,127.84,122.36Zm5.72-.86c1-.16,2-.32,3-.5a4.14,4.14,0,0,1,1.44,1.35l.12.21c-1,.19-2,.38-3,.55a2.66,2.66,0,0,0-.39-.51A10.06,10.06,0,0,0,133.56,121.5ZM102.61,123q.56.43,1.08.9l-3.9.22-1.39-1.56c-.28-.31-.82.12-.55.43l1,1.17-1.7.07c-.65,0-1.3,0-2,0a10.76,10.76,0,0,0-1.68-1c-.4-.2-.78.45-.37.65s.54.28.8.44l-3.88.07c-.22-.19-.43-.37-.66-.55s-.84.23-.61.57c-4.75,0-9.49,0-14.24-.18l-3.49-.16-1.18-1.18c-.33-.32-.87.22-.54.55l.56.57c-1.09-.05-2.17-.13-3.25-.19a15.12,15.12,0,0,0-1.41-.68c-.32-.14-.58.38-.26.52l.11.06-1.82-.11c-1-.08-2.08-.18-3.13-.29a19,19,0,0,0-1.54-1.13l2.06.11q9.39.49,18.79.5,13.73,0,27.42-1a12.87,12.87,0,0,1,1.78,1.76c-1.36.11-2.72.2-4.08.29-.55-.45-1.11-.88-1.62-1.27C102.69,122.38,102.36,122.83,102.61,123Zm-30.8,1.79,4,.16,0,0a11.35,11.35,0,0,1,2.41,1.45l.09.09c-1.88-.13-3.77-.26-5.65-.37a.17.17,0,0,0,0-.1A2.68,2.68,0,0,0,71.81,124.82Zm.25,1.33c-.82,0-1.63-.08-2.45-.1a11,11,0,0,0-1.69-1.43c.9,0,1.8.11,2.7.15l.27.28A6.78,6.78,0,0,0,72.06,126.15ZM77.61,125l4.69.07a.32.32,0,0,0,.17.22,7.81,7.81,0,0,1,2,1.53l-1.09,0c-1.2,0-2.39-.12-3.59-.2l-.56-.48A12.78,12.78,0,0,0,77.61,125Zm6.08.09c2,0,3.94,0,5.9,0,.32.27.64.54.93.83a9.39,9.39,0,0,1,.76.79,1.94,1.94,0,0,1,.21.29c-2,0-3.91-.06-5.87-.11A8.47,8.47,0,0,0,83.69,125.13Zm7.7.48c-.18-.18-.37-.35-.56-.52l4-.1a8.16,8.16,0,0,1,1,.92c.28.31.53.71.8,1.07H96.6c-1.41,0-2.81,0-4.21,0A3.33,3.33,0,0,0,91.39,125.61Zm4.81-.48c-.07-.06-.15-.11-.22-.18,1.14,0,2.29-.07,3.43-.12l.81.94c.27.32.53.66.81,1a11.31,11.31,0,0,1-3.35.25A6,6,0,0,0,96.2,125.13Zm13-.88c.24.36.46.75.68,1.14q-1.71.12-3.42.27a11.79,11.79,0,0,0-1.09-1.15Zm.33-.75a16.33,16.33,0,0,0-1.79-1.75c1.44-.11,2.88-.21,4.32-.34.45.57.89,1.15,1.31,1.73Q111.41,123.34,109.49,123.5Zm4.36.38c.27.41.52.83.78,1.24l-3.87.21a7.92,7.92,0,0,0-.73-1.15C111.31,124.08,112.58,124,113.85,123.88Zm41.52-12.1,2.45-.48c.76-.17,1.54-.32,2.33-.49l1.26,1.65a37.2,37.2,0,0,1-3.81,1.2A19.17,19.17,0,0,0,155.37,111.78Zm12-2.6c-.43.35-.88.67-1.34,1-.25-.27-.5-.53-.76-.78.41-.17.81-.36,1.2-.56a3.62,3.62,0,0,1,.33-.2Zm0-.9a11.8,11.8,0,0,0,1.28-.91l.3.34a12.47,12.47,0,0,1-1.1,1.08Zm-2.59.61c-.87-.85-1.79-1.65-2.74-2.41.59-.25,1.17-.51,1.74-.79.87.83,1.74,1.67,2.6,2.52C165.86,108.46,165.32,108.68,164.77,108.89Zm.82,1.54a24.81,24.81,0,0,1-3.45,1.75c-.41-.52-.83-1-1.24-1.53a27.16,27.16,0,0,0,3.81-1.06Zm-3.8,2.52.37.48c.12.16.27.34.43.53l-.24.13c-1,.55-2,1.07-3,1.58a13.43,13.43,0,0,0-1.22-1.51C159.32,113.81,160.57,113.42,161.79,113Zm.73-.29a24.74,24.74,0,0,0,3.52-1.79c.21.21.42.42.62.64-1.15.78-2.33,1.48-3.43,2.1C163,113.29,162.76,113,162.52,112.66Zm3.95-2h0a15.12,15.12,0,0,0,1.35-1l.64.59c-.45.36-.91.7-1.38,1C166.84,111,166.63,110.79,166.47,110.61Zm1.78-1.39a12,12,0,0,0,1.07-1.07l.63.72c-.35.35-.72.68-1.11,1C168.65,109.66,168.45,109.43,168.25,109.22Zm1.47-1.55a11.39,11.39,0,0,0,1.09-1.64l.84.76a11.83,11.83,0,0,1-1.34,1.69Zm-.34-.46-.23-.31a9.14,9.14,0,0,0,1.17-1.32l.11.11A11.4,11.4,0,0,1,169.38,107.21Zm-.47-.59a27.82,27.82,0,0,0-2.34-2.53c.4-.26.8-.52,1.18-.81l2.35,2.1A8.7,8.7,0,0,1,168.91,106.62Zm-2.9-2.16c.8.84,1.58,1.7,2.35,2.59a12.67,12.67,0,0,1-1.37.86c-.86-.86-1.75-1.69-2.66-2.5C164.9,105.11,165.46,104.79,166,104.46Zm-2.21.47-.59-.51c.71-.21,1.41-.44,2.07-.7l.26.27C165,104.32,164.39,104.63,163.8,104.93Zm-.56.26c-.6.29-1.21.55-1.83.81l-1.15-.85c.77-.16,1.55-.34,2.33-.55ZM45.79,120.42c-.83-.06-1.65-.11-2.48-.15a10,10,0,0,0-1.4-.93c1,.11,2,.22,3,.3l.06.08Zm16.05,5.92c-1.56-.25-3.11-.52-4.67-.81a.09.09,0,0,0,0,0,2.59,2.59,0,0,0-1-1.67q1.78.21,3.6.33a25.35,25.35,0,0,1,2.09,2.18Zm1.18.18a.37.37,0,0,0-.07-.28,14.94,14.94,0,0,0-1.8-2l3.88.22c.49,0,1,.06,1.48.09A15.19,15.19,0,0,1,68.43,126l-1.24,0c-.19,0-.19.29,0,.32.62.11,1.24.19,1.87.28l.28.26a1.32,1.32,0,0,1-.56,0c-.15,0-.21.2-.09.27a1.53,1.53,0,0,0,1.32.1.36.36,0,0,0,.19-.47c3,.37,6,.58,9.1.7a3.31,3.31,0,0,0,1.14.87c.13.06.27-.11.26-.23a1.43,1.43,0,0,0-.2-.59l4.51.13c.22.36.42.75.66,1.1A209.48,209.48,0,0,1,63,126.52Zm68.92-1.4a189.69,189.69,0,0,1-41.24,3.8c-1.43,0-2.86-.09-4.28-.15a3,3,0,0,0-.3-1.1l1,0c1.27,0,2.54,0,3.81,0a.2.2,0,0,0,0,.2c.24.75,1.25.4,1.5-.2,1.41,0,2.83,0,4.24,0h.77a1.81,1.81,0,0,0,.23.18c.11.06.21-.06.22-.15v0a9.13,9.13,0,0,0,3.63-.48,3.35,3.35,0,0,0,.67.52c.22.12.39-.13.32-.33a3.83,3.83,0,0,0-.29-.57,4,4,0,0,0,.57-.46c.2-.21-.06-.54-.29-.34a4.21,4.21,0,0,1-.58.39c-.43-.55-1-1-1.41-1.52l-.09-.1.45,0,3.55-.2c.14.14.3.28.44.43l.72.79c-.06.1,0,.25.1.26h.13l0,0s1,1.23.5,1.2a.18.18,0,0,0-.12.29c.56.54,1.29-.25,1-.88a5,5,0,0,0-.39-.62c1.17,0,2.35,0,3.52,0a6.36,6.36,0,0,0,.69,1c.13.14.32,0,.31-.19a3.7,3.7,0,0,0-.18-.8c1.36,0,2.73-.08,4.09-.16a6.31,6.31,0,0,0,.44.58c.14.18.33-.08.29-.23s-.08-.25-.12-.38c3.69-.22,7.39-.58,11-1,2.59-.29,5.18-.64,7.76-1.07a.17.17,0,0,1-.13,0c-.15,0-.17.21-.06.29a.52.52,0,0,0,.78-.14.8.8,0,0,0,.1-.31c1.07-.18,2.13-.37,3.19-.58a2.87,2.87,0,0,0,.28.43C136.46,124.14,134.21,124.66,131.94,125.12Zm5.65-4.31c1.56-.29,3.11-.59,4.66-.92.41.5.82,1,1.26,1.48-1.53.38-3.07.72-4.61,1A4.56,4.56,0,0,0,137.59,120.81Zm1.5,2.67a1.77,1.77,0,0,0,0-.46c1.67-.33,3.34-.7,5-1.13a1,1,0,0,0,.15.14.15.15,0,0,0,.12,0Q141.73,122.81,139.09,123.48Zm5.32-1.43a.28.28,0,0,0,.15-.28q1.5-.39,3-.84l1.32-.42.11.18C147.45,121.16,145.93,121.61,144.41,122.05Zm1.33-5.27c1.83-.34,3.65-.67,5.47-1a8.24,8.24,0,0,1,1.79,2.2,2.64,2.64,0,0,1,.18.38c-1.34.52-2.7,1-4.07,1.46A32.08,32.08,0,0,0,145.74,116.78Zm3.86,3.7a.42.42,0,0,0-.08-.18c1.32-.44,2.63-.89,3.93-1.38l.12.28C152.25,119.64,150.93,120.06,149.6,120.48Zm2.38-4.89,1.34-.27c1.31-.28,2.71-.59,4.13-1a11.45,11.45,0,0,1,1,1.22c.09.13.17.27.25.41-1.56.75-3.16,1.42-4.77,2.06A9.12,9.12,0,0,0,152,115.59Zm2.27,3.38c0-.11-.07-.22-.11-.33,1.64-.65,3.27-1.34,4.86-2.1l.3.57Q156.79,118.1,154.25,119Zm5.74-2.15q-.15-.3-.33-.6c1.13-.56,2.25-1.14,3.34-1.77.21.26.43.53.62.81Q161.82,116.09,160,116.82Zm4.16-1.81c-.18-.31-.37-.6-.57-.9,1.17-.69,2.33-1.41,3.45-2.19a11,11,0,0,1,.76,1A38.52,38.52,0,0,1,164.15,115Zm4.69-2.8c-.16.11-.3.23-.47.33l-.11.08a9.7,9.7,0,0,0-.81-1c.45-.33.92-.69,1.38-1.07l.88.82C169.43,111.67,169.14,111.94,168.84,112.21Zm1.09-1c-.25-.31-.5-.61-.76-.91.37-.33.75-.65,1.1-1l.69.79C170.63,110.42,170.28,110.79,169.93,111.16Zm2.43-2.88c-.37.51-.78,1-1.22,1.55-.18-.3-.37-.6-.56-.9a13,13,0,0,0,1.47-1.78l.64.58C172.59,107.91,172.48,108.1,172.36,108.28Zm1-6.19a9.19,9.19,0,0,1,.22,1,8.43,8.43,0,0,1-.78,4.49l-.6-.64A6.93,6.93,0,0,0,173.36,102.09Zm-.4-1a.23.23,0,0,0-.17.27,7.36,7.36,0,0,1-1,5.19l-.83-.84a11.12,11.12,0,0,0,1.1-4.68c0-.15-.21-.22-.22,0a11.19,11.19,0,0,1-1.24,4.37l-.09-.09a7.58,7.58,0,0,0,1.21-4c0-.14-.19-.17-.19,0a7.08,7.08,0,0,1-1.21,3.79c-.72-.7-1.47-1.38-2.22-2,.32-.25.66-.5,1-.78l1.77,1.49c.13.11.23-.09.14-.2-.49-.56-1-1.09-1.56-1.6a22.22,22.22,0,0,0,2.3-2.35c.11-.13-.06-.34-.19-.21a26.8,26.8,0,0,1-2.46,2.22l-.16-.15a4.06,4.06,0,0,0,1.1-2.33,2.32,2.32,0,0,0-.14-1.1A6.64,6.64,0,0,1,173,101.05Zm-1.08-2.77a18.35,18.35,0,0,0-3-1.6l-.28-.19h.4c.45,0,.92.08,1.38.09a3.17,3.17,0,0,0,.26.26A11,11,0,0,1,171.88,98.28Zm4.3-5.54a4.87,4.87,0,0,1-3.57,1.8c-6.43,1-12-.11-18.24-1.31-.58-.11-.91.83-.36,1.08a18.33,18.33,0,0,0,2.3.91l-.67,0c-.19,0-.32.31-.11.38a47.29,47.29,0,0,0,6.35,1.51s0,0,0,0c.32.25.66.48,1,.71l.18.31a.08.08,0,1,0,.14-.09h0c1.17.75,2.42,1.42,3.53,2.27a4,4,0,0,1-.76.84c-1.76-1.46-3.56-2.86-5.37-4.2-.17-.13-.31.17-.16.28,1.79,1.34,3.49,2.75,5.17,4.2-.37.27-.76.53-1.12.82-1.34-1.12-2.73-2.16-4.1-3.09-.16-.1-.27.17-.13.27a34.29,34.29,0,0,1,3.84,3.15l-.25.08c-.66.2-1.33.4-2,.58l-.5-.43c-.23-.2-.49.23-.27.42a1.54,1.54,0,0,0,.19.17c-2,.56-4,1-6.1,1.46a15.66,15.66,0,0,0-.27-2.57q.17.54.3,1.11c0,.14.24.14.25,0a7.55,7.55,0,0,0-2-5.62,23.45,23.45,0,0,0-2.69-4.3c.22.18.46.36.67.55a16.2,16.2,0,0,1,3,3.82c.1.19.34,0,.25-.16s-.24-.47-.37-.7a24.09,24.09,0,0,1,3.8,6.61c.09.25.41.08.34-.15-1.56-5.19-4.82-8.93-9-11.95-.41-.33-.82-.64-1.23-.94s-.6-.58-.91-.86a.11.11,0,0,0,.1-.13c-1.59-6.93-4-13.73-6-20.54-.1-.33-.55-.07-.46.23,2,6.76,3.77,13.71,6.25,20.32l-.51-.46c-1.59-1.4-3.24-2.72-4.9-4a45.19,45.19,0,0,0-1.87-6.93c-1.27-3.56-3.24-7-3.66-10.81a.27.27,0,0,0-.54.07c.3,3,1.53,5.53,2.59,8.27,1.14,2.93,2,5.94,2.91,9l-1.71-1.33,0,0c-1.36-2.12-2.5-4.38-3.94-6.44a72.73,72.73,0,0,0-4.79-11.92c-.16-.32-.61,0-.46.34a69.29,69.29,0,0,1,3.64,9.6,20.7,20.7,0,0,0-5.61-4.18c-1.18-3.32-2.74-6.58-4-9.79-.13-.35-.64-.12-.51.2,1.1,2.88,2.06,6,3.24,9a44.07,44.07,0,0,0-4.78-1.91c-.26-3.41-2.34-7-4.16-9.78-.21-.32-.68,0-.49.33a30,30,0,0,1,2.53,4.75c.61,1.48,1,3.06,1.6,4.54l-.83-.28-.83-.24a48.85,48.85,0,0,0-8.31-2.34c-.64-.21-1.28-.38-1.92-.58a50.75,50.75,0,0,0-6.15-2.33c-.22-.06-.34.32-.14.41l1.22.54c-3-.72-5.9-1.31-8.79-1.81a84.4,84.4,0,0,0-18.7-1.51.17.17,0,0,0,0-.14A11,11,0,0,0,75.5,57.3a.55.55,0,0,0,.66-.43c.42.34.83.69,1.26,1a7.06,7.06,0,0,0,1.13,1.25c.14.11.26-.11.21-.23a.22.22,0,0,1-.05-.08l.73.52c.2.13.34-.21.21-.36-.75-.8-1.54-1.57-2.34-2.32-.73-.93-1.54-1.83-2.22-2.7-.2-.26-.54.07-.4.31a103.75,103.75,0,0,1-7.63-7,53.45,53.45,0,0,1-9.4-13,28.33,28.33,0,0,1-2.92-9l.08.09c.1.09.21-.08.14-.17l-.26-.31c0-.18,0-.36,0-.54,3.19,4.59,6.4,9.18,9.65,13.73.13.19.33-.07.23-.23C61.33,32.92,58,28.09,54.66,23.3A9.57,9.57,0,0,1,55,21.37a63.77,63.77,0,0,0,5.89,6.17c.13.12.24-.09.14-.19-1.95-2.26-3.88-4.48-5.77-6.74a7.86,7.86,0,0,1,.73-1.41,66.86,66.86,0,0,0,6.71,7c.2.19.43-.14.27-.33-2.21-2.41-4.38-4.84-6.48-7.31a7.23,7.23,0,0,1,1.11-1.1c.17-.13.34-.23.51-.35C64.57,27.5,70.69,38.14,76.84,48.82c.1.18.31,0,.23-.16a299,299,0,0,0-16-28.07c2.2,2.64,4.4,5.27,6.67,7.84.11.12.26-.06.18-.18a125,125,0,0,0-9.21-11.58A7.74,7.74,0,0,1,60.34,16a17.57,17.57,0,0,0,1.3,1.29c.11.11.21-.06.15-.17-.25-.43-.52-.85-.81-1.27.18,0,.38-.06.57-.09,2.29,3,4.58,5.95,6.93,8.88,1.24,2,2.47,4,3.66,6,4.15,7,7.68,14.4,11.78,21.44.1.19.31,0,.24-.16C80.9,44.15,76.4,36.72,72,29.5c-.42-.69-.86-1.38-1.29-2.07.46.56.9,1.12,1.36,1.67a.09.09,0,0,0,.13,0c.68.84,1.36,1.66,2.05,2.47.15.18.38-.11.27-.28-3.3-5-6.83-9.87-10.37-14.73.25.25.5.51.76.76s.39-.12.26-.28c-.39-.48-.8-.94-1.19-1.41.39,0,.76,0,1.17,0h0a31.32,31.32,0,0,0,2.54,3.18c.09.1.22,0,.18-.14a18.93,18.93,0,0,0-1.69-3.08,2.69,2.69,0,0,0,.59-.11c1.47,1.91,2.88,3.87,4.31,5.85a.1.1,0,0,0,.17,0q2.61,4.57,5.2,9.17c3.7,6.57,7.07,13.52,11.29,19.76.11.17.29,0,.22-.15-3.18-6.86-7.39-13.37-11.12-19.95-2.22-3.94-4.42-7.9-6.65-11.85a28.53,28.53,0,0,0,2.19,2.69.17.17,0,0,0,.27-.2c-.13-.29-.28-.57-.42-.86,3.82,4.56,7.47,9.28,11,14.11.09.11.22,0,.15-.14a139.77,139.77,0,0,0-8.33-11.48.18.18,0,0,0,.08-.23A23.6,23.6,0,0,0,72,16.62c1.27,1.63,2.54,3.25,3.81,4.89.57.78,1.15,1.56,1.75,2.32,0,0,0,0,0,0,.51.88,1,1.76,1.55,2.63,1.73,2.87,3.48,5.72,5.18,8.61.57,1,1.11,1.92,1.64,2.89a11.21,11.21,0,0,0,.63,7.18A88.24,88.24,0,0,0,95.54,60.5c.1.14.26,0,.24-.16.09.13.25,0,.23-.13-.56-3.17-2.94-6.15-5.09-8.43a.24.24,0,0,0-.09-.06c-.87-1.43-1.72-2.88-2.49-4.37-1.38-2.66-2.64-5.69-2-8.75,2.43,4.46,4.57,8.91,6.94,13.43.08.15.28,0,.23-.12a71,71,0,0,0-6.94-14.18,17.38,17.38,0,0,1,.65-1.88c.7.83,1.39,1.66,2.1,2.49.13.15.3-.09.2-.23-.68-.93-1.37-1.85-2.07-2.77.1-.21.18-.43.29-.64a6.1,6.1,0,0,1,.33-.54c2.79,5.3,5.33,10.83,8.49,15.9.12.18.32,0,.25-.16-2.34-5.58-5.49-10.92-8.4-16.25a3.7,3.7,0,0,0,.64-1.35.17.17,0,0,0,.32.08c0-.11.07-.22.11-.33a.21.21,0,0,0,0-.21l-.24-.23a.25.25,0,0,0-.35.06c-.27.44-.53.89-.79,1.33l-.39-.73L84.9,27.19c.31.44.64.87,1,1.28.13.16.29,0,.24-.19-1.05-2.93-3.18-5.68-5.09-8.14Q79.85,18,78.64,15.8a.24.24,0,0,0-.43.23l1,1.86q-2-2.4-4.15-4.63c-.27-.27-.67.18-.43.44a72.39,72.39,0,0,1,6.24,7.43c.19.25.36.51.54.76q3.16,5.79,6.28,11.6a.43.43,0,0,1,0,.07c-.24.44-.44.88-.65,1.33-3.1-4.08-6.32-8.07-9.56-12l-.31-.52A24.76,24.76,0,0,0,75.89,20c-1.18-2.07-2.33-4.14-3.42-6.25,3,4.27,5.91,8.63,9.08,12.77.06.08.16,0,.12-.1A156.39,156.39,0,0,0,71.21,10.9c1.61.76,3.2,1.54,4.77,2.39.61.32,1.22.66,1.83,1,1.85,2.28,3.63,4.62,5.27,7.06,1.54,2.28,2.8,4.85,4.51,7a.19.19,0,0,0,.31-.2c-1.08-2.84-3.12-5.53-4.87-8-1.24-1.75-2.54-3.44-3.87-5.12l2.23,1.23c2.75,4.2,5.28,8.56,8.2,12.64.07.1.2,0,.16-.12A92.14,92.14,0,0,0,82.59,16.9L85,18.22c.17.25.35.5.52.76.25.54.49,1.08.74,1.61q1,2.23,2.06,4.45l4.56,9.79c2.87,6.18,5.38,12.79,8.83,18.67.09.16.24.07.26-.07a58.83,58.83,0,0,0,4.33,8.26c.12.18.32,0,.26-.19-1.3-3.61-3.47-7-5.23-10.42a.17.17,0,0,0-.25-.08c-2.23-5.58-5.19-11-7.72-16.39q-3-6.36-6-12.71l.45.73c1.53,2.61,2.76,5.41,4.37,8,.12.2.35,0,.3-.2A44.29,44.29,0,0,0,86.31,19l.89.5c2.92,4.47,5.3,9.41,8.41,13.73.16.23.4-.11.33-.29-1.69-4.42-4.53-8.59-7.19-12.56l1.3.73,4.29,7.39A39.1,39.1,0,0,0,98,34.28c.14.18.4-.05.34-.23s-.22-.55-.33-.82l.38.67,2.26,4.81a12.88,12.88,0,0,0-.54,4.58A13.91,13.91,0,0,0,102.2,49,48.54,48.54,0,0,0,111,59.61c.33.83.65,1.68,1,2.56.06.16.29.08.28-.07-.11-2.71-1.71-5.38-3.44-7.43h0c-2.37-5.5-5-10.92-7.63-16.31a12.54,12.54,0,0,0,.18-1.62c.45.68.92,1.35,1.4,2a.13.13,0,0,0,.23-.12c-2.09-5.1-5.19-10-8.07-14.74l3.17,1.83.77,1.52a5.06,5.06,0,0,0,.86,1.7c1.76,3.49,3.56,7,5.62,10.26.45.88.91,1.75,1.35,2.64,3,5.95,5.35,12.2,8.35,18.13.08.17.33.05.27-.12-1.81-5.69-4.65-11.21-7.32-16.54-.53-1.08-1.08-2.15-1.63-3.21a131.41,131.41,0,0,0-6.79-13,.13.13,0,0,0,.11-.15V26.7c3.16,5.48,5.87,11.39,9.47,16.56.12.18.33,0,.27-.2-2.1-5.48-5.42-10.64-8.49-15.7l2.27,1.36c2.76,5.08,5.1,10.47,8.15,15.35.13.2.37,0,.31-.2a57,57,0,0,0-4.31-9.35c1,1.5,1.88,3,2.72,4.6,1.31,2.42,2.32,5.05,3.79,7.38a.1.1,0,0,0,0,0c1.92,4.51,3.55,9.17,5.65,13.59.08.16.29,0,.25-.13-1.38-5.36-3.91-10.61-6.27-15.62a36.68,36.68,0,0,0-3.5-7.08q-1.76-3.36-3.63-6.66c1.11.68,2.22,1.38,3.32,2.07a.4.4,0,0,0-.33.56c2.31,4.56,4,9.65,6.67,14,.14.23.42,0,.36-.19-1.23-4.89-4-9.67-6.33-14.15l2.61,1.63a93,93,0,0,0,6.78,14.68c1.84,4.53,3.59,9.09,5.59,13.55.07.17.29,0,.25-.12-2.12-7.7-5.76-15.22-9.18-22.42a.23.23,0,0,0-.32-.11c-.78-1.66-1.54-3.33-2.25-5l2.71,1.72c1.67,4,3.32,8.11,5.22,12,.07.15.26.07.21-.09-1.37-3.85-3-7.62-4.54-11.39l.67.43a.36.36,0,0,0-.06.4C120,43,122,48,124.75,52.52a.14.14,0,0,0,.26-.12c-.33-1-.7-1.92-1.08-2.88a20.06,20.06,0,0,0,1.43,2.22c.14.19.4,0,.33-.2a60.39,60.39,0,0,0-2.75-6.09q-1.16-2.64-2.17-5.32c1.58,3.36,3.15,6.72,4.64,10.12,2.07,4.72,3.79,9.65,6.05,14.28a.15.15,0,0,0,.28-.12A126.93,126.93,0,0,0,125.9,50c-1.18-2.65-2.38-5.3-3.62-7.93l-1-2.06,2.54,1.7a.34.34,0,0,0-.11.37c1.53,4.43,3,9.38,5.6,13.33a.14.14,0,0,0,.25-.12c-1.35-4.45-3.5-8.71-5-13.12l1.26.85a111.1,111.1,0,0,0,5.15,12.32.15.15,0,0,0,.27-.13,102.59,102.59,0,0,0-4.43-11.51l2.49,1.71c3,7.35,5.23,15,8.22,22.28.07.17.26.07.22-.09a95.46,95.46,0,0,0-4-12.71,41.65,41.65,0,0,0-2.74-8.28l.9.64c1.54,4,2.82,8.15,4.37,12.19.07.18.28,0,.25-.12A56.88,56.88,0,0,0,132.89,48l1.09.78c1.14,3.67,1.93,7.48,3.29,11.06.06.15.28.06.26-.08A42.06,42.06,0,0,0,135,49.51l.55.4s0,.07,0,.11c.21.47.42.94.61,1.4l1.14,2.89c1.09,2.94,2.06,5.92,3.26,8.83a.14.14,0,0,0,.09.08c.95,2.69,1.83,5.39,2.6,8.13a.08.08,0,1,0,.16,0,48.07,48.07,0,0,0-2.77-9.23,59.9,59.9,0,0,0-4.35-11.63L139,52.54c1.19,3.81,2,7.7,3.32,11.46.07.2.3.11.28-.09a50.3,50.3,0,0,0-2.79-10.76l1.41,1.06c1.88,5,3.77,10.12,6,15a.11.11,0,1,0,.2-.09c-.47-1.31-1-2.61-1.47-3.91a.12.12,0,0,0,0-.11c-.06-.74-.16-1.49-.29-2.23A45.58,45.58,0,0,0,148.14,67c.12.19.38,0,.3-.2-1.08-2.32-2.24-4.6-3.36-6.91-.37-1.25-.81-2.49-1.29-3.71l1.51,1.19c.79,2.07,1.37,4.17,2,6.32,0,.14.23.08.22-.05a18.28,18.28,0,0,0-.42-2.23c.8,1.42,1.59,2.9,2.4,4.38.9,3,1.73,6,2.54,9a.09.09,0,1,0,.17,0c-.48-2.49-1.1-5-1.82-7.38a40.59,40.59,0,0,0,3.86,5.8c.14.17.35,0,.28-.2a57.59,57.59,0,0,0-5.44-9.67c-.33-1-.67-2-1-2.92.16.4.32.81.5,1.2.07.16.24.06.21-.09-.13-.58-.28-1.15-.45-1.72q2.24,1.83,4.43,3.7a.2.2,0,0,0,0,.32c.56.5,1.13,1,1.69,1.47a.23.23,0,0,0,0,.32,65.19,65.19,0,0,1,7.15,10.52c.11.19.32,0,.25-.16a31.81,31.81,0,0,0-5.75-9.27l.73.64a.21.21,0,0,0,.08.2c3.85,2.73,6.24,6.21,8.38,10.33.11.22.35,0,.29-.16a18.25,18.25,0,0,0-2.82-5.27c2.89,2.75,5.73,5.55,8.46,8.45q.42.51.81,1c1,1.76,2.08,3.46,3,5.27.53,1.06,1.1,2.13,1.57,3.23a7.53,7.53,0,0,1-.46,1.7A.55.55,0,0,0,176.18,92.74ZM79.73,26.52c2.34,3,4.7,6,7.13,8.89a16.74,16.74,0,0,0-.64,1.75C85,35.05,83.65,33,82.41,30.94,81.51,29.47,80.62,28,79.73,26.52ZM92.6,54.64A19.08,19.08,0,0,1,94,56.86c.25.47.48,1,.7,1.44C94.05,57.06,93.33,55.84,92.6,54.64Zm11.84-25.21,1.28.76c.57,1,1.13,2,1.69,3.05-.56-.8-1.12-1.59-1.67-2.35a.26.26,0,0,0-.43,0Zm16.65,13.82c-.78-1.62-1.58-3.24-2.35-4.86.26.16.52.32.77.49C120,40.28,120.54,41.76,121.09,43.25Zm-.7-5.08q2.33,1.36,4.6,2.8c.08.23.17.46.26.69-1.54-1-3.07-2.06-4.63-3.07l0,0Zm-3.74-2.11,0-.07,3,1.73c.05.11.1.23.16.34Zm9.17,5.46c1,.61,1.89,1.21,2.81,1.84.13.28.26.57.38.85h0l-2.86-2C126,42,125.93,41.77,125.82,41.52Zm48.79,41.71c-.24-.59-.51-1.16-.78-1.73l.09.07c.29.47.59.94.86,1.43q.51,1.38.93,2.82c-.43-.76-.9-1.5-1.39-2.23A.27.27,0,0,0,174.61,83.23Zm-.57,0a23.58,23.58,0,0,0-2-2.49c-.4-.56-.82-1.12-1.24-1.67l2,1.66C173.25,81.49,173.67,82.32,174,83.18Zm-5.95-7.51a103.3,103.3,0,0,0-10.68-10.76q-5.1-4.48-10.33-8.86l-.21-.59c.79.57,1.58,1.13,2.36,1.71,5.33,3.95,10.88,8.08,15.61,12.9-.56-.43-1.13-.85-1.7-1.24a.19.19,0,0,0-.24.28c2.42,3.13,5.56,5.62,8.16,8.59.36.56.71,1.13,1,1.7Q170.14,77.51,168.09,75.67ZM146.76,58.53c.27.74.52,1.5.75,2.26l-.37-.59a.27.27,0,0,0-.38-.1q-.33-1.1-.75-2.16Zm-1.14-3.71c-.09-.15-.18-.31-.28-.46l.92.66c.05.15.09.31.14.46C146.14,55.26,145.88,55.05,145.62,54.82Zm23.27,18.8c-5.08-6.43-11.82-11.54-18.47-16.44Q142.65,51.44,134.67,46l-.4-.32-.25-.19-.22-.54c-.05-.14-.24,0-.19.09a1.8,1.8,0,0,0,.08.21q-1.74-1.32-3.54-2.55c6.94,4,13.9,7.91,20.48,12.45,8.54,5.89,16.49,13,21.45,22C171.08,75.92,170,74.74,168.89,73.62ZM142.55,55.71c.59,1.41,1.19,2.82,1.82,4.22.36,1.24.7,2.48,1,3.74-1.19-3-2.43-6-3.64-9.07l1,.76A.26.26,0,0,0,142.55,55.71Zm-4-4.66c-1.09-.81-2.17-1.63-3.27-2.42-.07-.16-.13-.32-.19-.48l3.41,2.75C138.52,51,138.53,51,138.55,51.05Zm-4.87-4a.35.35,0,0,0-.15.36l-1.29-.91-.35-.8C132.49,46.14,133.1,46.57,133.68,47ZM130.9,45c.12.28.24.56.35.84l-1-.72c-.14-.3-.27-.6-.42-.89C130.17,44.43,130.54,44.68,130.9,45Zm44.84,37.31a25.52,25.52,0,0,0-1.81-2.81c-4.24-9.66-11.91-17.31-20.84-23.6-6.26-4.41-12.88-8.26-19.46-12.16-7.55-4.48-15-9.4-22.88-13.31-.16-.08-.24.21-.11.3l2,1.33c-1.66-.95-3.32-1.9-5-2.87l-10.16-6-.33-.6s-.05,0-.07-.06l2.23,1.15c5.44,2.88,10.66,6.07,16,9.1.25.14.42-.25.22-.4l-.26-.18c3.33,1.93,6.69,3.83,10,5.79,6.81,4.09,13.67,8.09,20.41,12.3,6.51,4.06,13,8.39,18.48,13.78a59.28,59.28,0,0,1,12.23,17.22c.2.9.42,1.81.63,2.72C176.61,83.4,176.18,82.82,175.74,82.26ZM179,90.91l-.24-1.21a7.05,7.05,0,0,0-.81-4c-.22-1-.44-2.07-.69-3.09a.21.21,0,0,0,.06-.21c-.11-.37-.26-.72-.38-1.08l0-.08c1.39,2.48,2.92,5.38,2.14,8-.08.28.31.36.4.09.89-2.75-.44-5.32-1.63-7.77-.65-1.32-1.29-2.67-2-4-.06-.18-.1-.35-.16-.52s-.09-.11-.15-.09a36.89,36.89,0,0,0-3.06-5.07c-.13-.18-.32,0-.36.13-6-8.72-15.17-15.51-23.86-21-7.2-4.56-14.58-8.85-21.89-13.23-5.44-3.26-10.83-6.79-16.35-10,5.38,2.72,10.72,5.53,16,8.5,10.91,6.18,22,12.75,31.65,20.77a129,129,0,0,1,13.71,12.73,52.59,52.59,0,0,1,7,9.24,38.23,38.23,0,0,1,2.27,4.41C182.15,86.07,181.57,88.54,179,90.91ZM65.21,108.12c-.33-.07-.44.47-.11.55a2.56,2.56,0,0,1,1.75,1.39c.22.5.15,1.15.43,1.59a.17.17,0,0,0,.29,0c.49-.65.07-1.71-.37-2.29A3.2,3.2,0,0,0,65.21,108.12Zm-35.29,9.37c-.34-.15-.66.39-.33.54a7,7,0,0,0,2.07.81.22.22,0,0,0,.17-.37A6.52,6.52,0,0,0,29.92,117.49Zm14.44-95.8s0-.11,0-.1S44.3,21.7,44.36,21.69Zm-15.07,1c.21.16.45-.16.27-.33a9.41,9.41,0,0,0-3.75-2.16c-.29-.09-.47.4-.18.49A12.1,12.1,0,0,1,29.29,22.69Zm43.76,84.56c-.29-.17-.52.35-.23.51a4,4,0,0,1,1.3,1.15c.25.35.37.88.81,1a.19.19,0,0,0,.21-.11c.22-.53-.31-1.1-.66-1.46A5.83,5.83,0,0,0,73.05,107.25Zm-2.25,1.09c-.38,0-.47.6-.06.64,1,.07,1.32,1.23,1.13,2,0,.11.1.26.2.17C73.27,110.22,72.09,108.41,70.8,108.34ZM5.61,103.55c.06,0,0-.11,0-.09S5.56,103.57,5.61,103.55Zm108.67,2.35a7.47,7.47,0,0,1,1.62,2.51,1.71,1.71,0,0,1-1.14-.3c-.15-.07-.25.14-.15.24.54.5,1.24.93,1.94.51a.39.39,0,0,0,.18-.42,6.34,6.34,0,0,0-1.91-3.09C114.48,105,113.94,105.58,114.28,105.9Zm-10.17.4c-.3-.08-.52.41-.21.51a3.1,3.1,0,0,1,1.65,1.15,3.51,3.51,0,0,1,.54,1.14,1.28,1.28,0,0,0,.27.63.22.22,0,0,0,.35,0c.33-.7-.19-1.62-.66-2.16A3.91,3.91,0,0,0,104.11,106.3Zm4.22-.08c0-.42-.64-.22-.6.16a2.09,2.09,0,0,0,.9,1.4c.46.37,1.3,1.13.61,1.72a.21.21,0,0,0,.08.36c.69.19.9-.69.81-1.19C109.94,107.54,108.46,107.29,108.33,106.22Zm33.55-2a13,13,0,0,0,.61,2.26.16.16,0,0,0,.3,0c.52-1.6-.79-3.75-1.76-4.94-.22-.27-.62.08-.43.34A8.19,8.19,0,0,1,141.88,104.17Zm3.71-.69c.25.76.19,1.58.48,2.31a.14.14,0,0,0,.26,0c.84-2-1-4.46-2.58-5.51-.24-.16-.45.25-.23.41A5.68,5.68,0,0,1,145.59,103.48ZM129.94,103c-.33-.12-.6.39-.28.53,1.76.77,2.13,2.47,2.1,4.2,0,.11.15.21.22.1C133.16,106,131.75,103.64,129.94,103Zm3.28-.49c-.31-.16-.58.36-.27.53a4.77,4.77,0,0,1,2.17,2.35,13.65,13.65,0,0,0,.59,2c.08.14.24.07.3,0a3.27,3.27,0,0,0-.55-2.8A5.44,5.44,0,0,0,133.22,102.47Zm-21.71,3.76c-.36-.32-.86.34-.48.67a6.28,6.28,0,0,1,1.53,2,7.46,7.46,0,0,0-1.22.37.18.18,0,0,0,0,.34,9,9,0,0,0,1.8-.08.42.42,0,0,0,.3-.56A7.14,7.14,0,0,0,111.51,106.23ZM152.18,79.1c-.08-.29-.75-2.12-.92-2.79a.16.16,0,0,0,.28,0,1.63,1.63,0,0,0,.11-.17.22.22,0,0,0-.07-.3l-.16-.12a.21.21,0,0,0-.29.09c-.72,1.18.78,4.12,1.11,5.35.82,3.07,1.64,6.14,2.64,9.16,0,.11.18,0,.16-.06-.54-2.51-1.17-5-1.85-7.48C152.85,81.56,152.52,80.33,152.18,79.1ZM84.81,105.84c-.28-.17-.6.27-.33.44a6,6,0,0,1,1.8,1.74,9.6,9.6,0,0,0,.91,1.64c.11.11.27,0,.28-.14C87.63,108.1,85.89,106.52,84.81,105.84Zm16.15-.36a13.72,13.72,0,0,0,1.77,2.18,5.2,5.2,0,0,1,1.46,2.82.14.14,0,0,0,.28,0c.72-2.09-2.18-3.75-3.13-5.25C101.18,105,100.82,105.24,101,105.48Zm-8.28.74c-.29-.15-.49.35-.22.51a6.58,6.58,0,0,1,1.78,1.5,8.24,8.24,0,0,0,1.22,1.57.16.16,0,0,0,.25-.14C95.68,108.16,93.88,106.88,92.68,106.22Zm4.75.45c-.21-.25-.57.11-.38.35l1.25,1.59a3.71,3.71,0,0,0,1.12,1.21c.13.06.27-.09.24-.21a3.64,3.64,0,0,0-1-1.39C98.28,107.71,97.86,107.19,97.43,106.67ZM34.72,19.45c.13.08.23-.1.12-.19-3.06-2.5-6.23-4.86-9.39-7.23-.27-.21-.62.24-.35.44C28.27,14.84,31.44,17.22,34.72,19.45Zm53.67,85.86c-.29-.2-.64.25-.37.45a10.12,10.12,0,0,1,2.06,1.86,5.82,5.82,0,0,0,1.37,1.51c.13.07.23-.06.22-.19a3.6,3.6,0,0,0-1.29-2A15.1,15.1,0,0,0,88.39,105.31Zm10.86-53c-.18-.34-.65,0-.49.33,1.36,2.58,2.54,5.47,4.25,7.83.13.18.33,0,.28-.2A64,64,0,0,0,99.25,52.32Zm-4.56-.22c2.16,2.53,3.48,5.32,5.09,8.19a.14.14,0,0,0,.26-.12c-.8-3.14-2.88-6-5-8.42C94.85,51.51,94.49,51.87,94.69,52.1Zm9.13.65c1.77,2.69,2.72,5.64,4.25,8.41a.13.13,0,0,0,.24-.08c-.49-3.06-2.44-6.12-4.13-8.67C104,52.15,103.66,52.51,103.82,52.75Zm52.62,23c-.8-2.72-1.78-5.4-2.77-8.07,1.77,2.83,3.4,5.73,5.22,8.57.11.18.31,0,.25-.2a48,48,0,0,0-6.52-11.22L152,63.08c-.07-.22-.34,0-.27.16s.13.41.2.61q-.71-.95-1.41-1.86c-.23-.29-.67.07-.47.33.95,1.23,1.82,2.49,2.65,3.77,1.11,3.27,2.2,6.55,3.53,9.71A.12.12,0,1,0,156.44,75.71ZM111.07,54.88c2,2.78,2.84,5.75,4.12,8.86a.15.15,0,0,0,.28-.08c-.19-3.24-2.11-6.56-4-9.12C111.28,54.26,110.88,54.62,111.07,54.88ZM86.75,52.5c-.25-.25-.62.21-.37.44a14.38,14.38,0,0,1,2.72,3.35c.72,1.28,1.11,2.66,1.72,4a.15.15,0,0,0,.28-.08C90.91,57.26,88.83,54.44,86.75,52.5Zm50.48,49.68c-.26-.24-.58.21-.36.44a7.65,7.65,0,0,1,1.43,2c.08.16.87,1.9.46,1.91a.18.18,0,0,0-.12.29l.09.12a.2.2,0,0,0,.21.06C140.94,106.38,137.85,102.76,137.23,102.18Zm8.48-29.71c2.08,5.75,3.64,11.64,5.58,17.43.06.18.26.07.23-.09a125.48,125.48,0,0,0-5.39-17.57C146,71.93,145.61,72.2,145.71,72.47ZM56.54,6.66s0-.06,0-.06l-.32.07c-.05,0,0,.1,0,.09ZM81.83,51.51c-.18-.25-.49.11-.34.34,1.59,2.46,3,5.44,5.08,7.54.14.14.32-.09.26-.23C85.67,56.46,83.47,54,81.83,51.51Zm-5.64,1.71a21.25,21.25,0,0,1,2.68,3.3A23.06,23.06,0,0,0,80.41,59a.18.18,0,0,0,.31-.15c-.54-2.26-2.59-4.44-4.18-6C76.3,52.54,76,53,76.19,53.22Zm56,31c.11.13.26,0,.17-.16-5.41-8.14-17.95-10.54-26.93-11.41A62.59,62.59,0,0,0,72.93,78.4c-.08,0-.05.2,0,.16a64.9,64.9,0,0,1,30.74-5.67C113.89,73.49,125.29,76.27,132.18,84.24ZM75.94,102.91q17.1-.63,34-2.89c5-.67,10.05-1.44,15-2.39,4.61-.87,9.24-2.18,13-5.1.11-.08,0-.31-.14-.23a34,34,0,0,1-13,4.87c-5.26,1-10.59,1.77-15.9,2.49-11,1.48-22,2.48-33,3C75.79,102.69,75.81,102.92,75.94,102.91Zm-32.09-.23a52.21,52.21,0,0,0,35-2.33.13.13,0,0,0-.1-.23,55,55,0,0,1-34.87,2.27C43.73,102.34,43.68,102.64,43.85,102.68Z"/></g></g></svg>