<svg xmlns="http://www.w3.org/2000/svg" viewBox="0 0 437.26 158.91"><defs><style>.cls-1{fill:#1a1c14;}</style></defs><g id="Layer_2" data-name="Layer 2"><g id="Layer_2-2" data-name="Layer 2"><path class="cls-1" d="M2.42,86.29c7.49-.6,14.84-2.34,22.33-.82.52.11.49-.73,0-.83-7.53-1.54-15,.08-22.46,1.1C2,85.78,2.1,86.31,2.42,86.29ZM62.66,77.7a67.4,67.4,0,0,1-2.89,9.24,29.56,29.56,0,0,0,1-3.42.37.37,0,0,0-.63-.32A8.15,8.15,0,0,0,58.79,86c-.33.42-.82.89-.85,1.42,0,.07.08.18.16.15a1.14,1.14,0,0,0,.3-.18A13.49,13.49,0,0,1,56,91c-.09.1,0,.3.14.2a8.35,8.35,0,0,0,2.2-2.8c0,.29-.09.59-.13.88a.57.57,0,0,0,.35.55q-1,2.22-2.1,4.4a9,9,0,0,1-1,1.49l-.07.06-1.52,1.4a0,0,0,0,1,0,0c-4,2.79-10.32,1.69-15.23,2.16-.44,0-.35.78.06.81,5,.3,13.52,1.38,17.2-2.74A17.47,17.47,0,0,0,58,94.55a12,12,0,0,0,1.21-1.35c.11-.15-.06-.5-.26-.37l-.07,0c2.27-4.71,3.49-10.56,4.45-15A.33.33,0,1,0,62.66,77.7Zm20.73,36.39,1.67-.35s0-.07,0-.06l-1.66.35S83.36,114.1,83.39,114.09Zm31-13.88c.07,0,.09-.09.07-.16a75.7,75.7,0,0,0,8.92-.47.2.2,0,0,0,0-.4,102.8,102.8,0,0,0-13,.44c-.14,0-.18.15-.14.27A92.62,92.62,0,0,0,91.69,102c-.2,0-.08.38.12.34A119.93,119.93,0,0,1,114.42,100.21Zm37.3,1.11a230.54,230.54,0,0,0-32.18-3.65c-9.93-.51-20.65-1.07-30.48.66-.07,0-.09.15,0,.16,10.13.45,20.31-.41,30.47,0,6.18.27,12.34.85,18.47,1.57-3.07-.06-6.15.07-9.24.25,1-.15,2-.32,3-.53.19,0,.13-.36-.06-.37-6.17-.19-12.56.93-18.7,1.56-.31,0-.22.62.08.6,1.58-.12,3.19-.21,4.8-.3,0,.1.09.19.21.19,6.87-.26,13.84-.08,20.67-.88.19,0,.23-.27.14-.41,4.27.51,8.53,1.09,12.79,1.69C152.05,101.94,152,101.38,151.72,101.32Zm-10.32.28c-6-.13-12,.49-18,.84-.34,0-.34.59,0,.58,6-.28,12.07-.28,18-1A.19.19,0,0,0,141.4,101.6Zm7,1c-6.67.06-13.4,1.19-20.05,1.66-.3,0-.23.59.05.57,6.62-.39,13.56-.47,20-1.9C148.61,102.91,148.57,102.6,148.4,102.61Zm-17.66,2.66c-.36,0-.34.63,0,.6a122.36,122.36,0,0,0,16-1.63c.22,0,.21-.42,0-.41C141.38,104.08,136.07,104.87,130.74,105.27Zm305.74-71.6c-11.4,3.07-22.78,5.85-33.58,10.75a79.85,79.85,0,0,0-14.34,8.47c-4.8,3.54-8.88,7.85-14,10.9a43.45,43.45,0,0,1-12.37-.14c-.28,0-.3.4,0,.46a34.53,34.53,0,0,0,14.28.19c3.39-.59,6.19-2,9.56-1.27l-1,.6c-.11.06,0,.28.08.22l1.3-.73c.2.05.39.1.59.17s.44.17.65.26c-3.06.57-6.09,1.32-9.18,1.78-.12,0-.1.25,0,.23,1.3-.18,2.61-.36,3.93-.57l-1.78,1.4a3.57,3.57,0,0,0-.48.47l-.72,0c-.28,0-.21.49.07.48h.29a2.1,2.1,0,0,0-.19.63,1,1,0,0,0,.53.94l-5.19-.7h0a1,1,0,0,0,.59-1.11l2.23.14c.42,0,.36-.72,0-.76l-2.94-.31a.53.53,0,0,0-.61-.12h-.27L372.64,66a1.1,1.1,0,0,0-.47-.64c.24.17.24.15,0,0a2.22,2.22,0,0,0-.49-.18,1.08,1.08,0,0,0-1.25.64c-1.23-.14-2.45-.3-3.68-.45.13-.23-.21-.58-.51-.43l-.56.3q-7.42-.89-14.82-1.94a.37.37,0,0,0,0-.23c2.66.27,5.33.55,8,.8.18,0,.17-.28,0-.3q-11.71-1.41-23.45-2.65c-34.5-5.64-68.71-13.23-103.21-18.93a45.3,45.3,0,0,1,14.56-4.58.54.54,0,0,0,.38-.72,9.57,9.57,0,0,0-1.12-2.42c.05-.17,0-.37-.23-.34-2.09-3-5.6-4.76-8.52-7.09a26,26,0,0,1-6.27-7.25,13.1,13.1,0,0,1,1.51-.41c.25-.05.21-.47,0-.44a15.05,15.05,0,0,0-1.75.35A21,21,0,0,1,229.3.69c.12-.3-.15-.87-.55-.63-16.09,9.59-31.26,21.25-43.81,35.22a.32.32,0,0,0,0,.4l-.74-.07q-11.46-1-23-1.5a1.39,1.39,0,0,0-1.89-.3c-.1.08-.18.16-.28.23a341.18,341.18,0,0,0-62.34,3.25c0-.22-.22-.49-.43-.32s-.36.31-.54.46l-1.93.3A251.73,251.73,0,0,0,50.14,49l.08-.08c.19-.16-.09-.5-.29-.33l-.92.82c-1.65.59-3.3,1.18-4.95,1.8a.16.16,0,0,0-.13,0l0,0c-11.62,4.37-23,9.43-34.23,15a.83.83,0,0,0-.47.23l-1.44.71c-1.68.83-3.35,1.68-5,2.52-.4.21-.11.92.3.73l.42-.21a.19.19,0,0,0-.05.25A10.77,10.77,0,0,0,5.06,72c2,2.26,5.55,2.75,8.15,4.41A3.76,3.76,0,0,0,14.9,77a19.34,19.34,0,0,1,2.41.3,31.32,31.32,0,0,1,4.75,2.79c3.3,2.36,5.6,6,8.34,8.93a9.54,9.54,0,0,1-2.62.54l-.06,0-2.08,0c-2.93-.19-6-1-8.59-1.35a65,65,0,0,0-11-.43s0,0,0,0C4.32,87.43,2.59,87,.82,86.46a1.87,1.87,0,0,1,.08-.32C1,85.79.48,85.57.36,86a5.46,5.46,0,0,0,1.48,6.12c1.31,2.35,4.11,3.77,6.88,4.8.06,0,.12.1.19.14a.11.11,0,0,0,.15,0c1.28.47,2.55.85,3.65,1.2,7.21,2.31,14.62,3.35,22,4.65l7.33,2.07,4.34,1.23a2.22,2.22,0,0,0,.65.23l.28,0,11.85,3.34c4.29,1.61,8.58,3.24,12.92,4.57s9.34,3,14.23,4.23a.15.15,0,0,0,.13,0c1.23.31,2.47.59,3.71.84a2,2,0,0,0,0,.7,1,1,0,0,0,1.56.65c.09-.07,0-.25-.1-.2l-.86-1,0-.06c1.65.32,3.3.57,4.92.74a2.08,2.08,0,0,0-.16.8,1.34,1.34,0,0,0,.77,1.28.93.93,0,0,0,1.27-.34c.06-.11-.06-.29-.18-.18-.52.46-1.11,0-1.22-.53a1.53,1.53,0,0,1,.22-1c.92.08,1.85.15,2.76.17a.24.24,0,0,0,.23-.16l2.18.52c.08.5.39,1,1,.93.13,0,.12-.22,0-.26a.62.62,0,0,1-.43-.54l3.63.86c23.5,5.38,47.87,9.26,72.19,9.73l-.18.21c-.22.3.24.74.48.44s.4-.42.59-.64a210.82,210.82,0,0,0,53.88-5.69c.39-.1.17-.83-.21-.75l-.76.16a36.37,36.37,0,0,1,3.83-4.4c.18-.16-.09-.5-.28-.33a16.28,16.28,0,0,0-3.86,4.8Q223.87,127,216.33,128a3.3,3.3,0,0,1,.69-.85c.36-.39.74-.76,1.12-1.13a23.76,23.76,0,0,1,2.49-2c.26-.18-.07-.61-.34-.43a16,16,0,0,0-4.51,4.09.8.8,0,0,0-.14.41c-2.08.28-4.15.54-6.23.76h0a15.82,15.82,0,0,1,2.2-2.35c.9-1,1.81-1.94,2.73-2.89.21-.22-.19-.57-.42-.34-1,1.05-2.08,2.08-3.13,3.11a8.79,8.79,0,0,0-2.19,2.41.29.29,0,0,0,0,.16c-1.48.16-3,.3-4.43.43.47-.36.95-.72,1.4-1.11a.14.14,0,0,0-.15-.23c-.3.13-.59.28-.89.43a27.17,27.17,0,0,1,3.4-4.17c.23-.22-.09-.65-.32-.43a30.46,30.46,0,0,0-4.53,5.41.26.26,0,0,0-.06.18c-2.75.23-5.51.41-8.26.54l.46-.32a.17.17,0,0,0,0-.2,49.2,49.2,0,0,0,3.53-4.12c.19-.23-.2-.58-.41-.34-1.37,1.63-3,3.07-4.31,4.76a.21.21,0,0,0,0,.25c-2.35.11-4.7.19-7.06.22a15.72,15.72,0,0,0,1-1.28c.54-.69,1.1-1.36,1.65-2,.2-.25-.22-.59-.44-.34-.55.67-1.1,1.34-1.66,2a8.1,8.1,0,0,0-1.3,1.69q-3.22,0-6.45,0a28,28,0,0,1,4.15-3.91c.24-.18-.05-.6-.3-.42a30.48,30.48,0,0,0-4.7,4.31,313.64,313.64,0,0,1-39.34-3.16,14.62,14.62,0,0,0,2-1.53l2.32-2c.2-.17-.1-.51-.31-.33l-2.53,2.11a11.33,11.33,0,0,0-1.74,1.65s0,0,0,0c-3.15-.45-6.3-.92-9.45-1.45l1.86-.81a2.3,2.3,0,0,0,2.1.45c.22-.06.06-.38-.12-.38a3.21,3.21,0,0,1-1.41-.33,36,36,0,0,0,6.18-3.34c.12-.08,0-.31-.11-.24-2.22,1-4.35,2.18-6.54,3.26a2,2,0,0,1-.47-.59c-.15-.28-.61-.16-.46.15a2.85,2.85,0,0,0,.46.67l-1.68.8c-.15.06-.12.24,0,.33q-6.48-1.09-12.93-2.38a.82.82,0,0,0,.48-.3c.11-.13-.06-.38-.23-.3-.78.37-1.26-.71-1-1.31a3.14,3.14,0,0,1,1.88-1.24c.32-.12.08-.6-.22-.51-1.07.35-2.48.88-2.53,2.2a1.62,1.62,0,0,0,.82,1.31l-.63-.12q-3.85-.78-7.69-1.64c.27,0,.53,0,.79-.09s.11-.25,0-.27c-.44-.06-.87-.1-1.31-.14a3.61,3.61,0,0,1,1.18-2.16c.26-.22-.13-.66-.39-.44a3.94,3.94,0,0,0-1.48,2.8v0l-4.15-.93.06-.11c.36-.56.9-.93,1.21-1.53.14-.27-.29-.51-.44-.24-.36.63-1.1,1.08-1.42,1.74l-4.33-1a9.2,9.2,0,0,1,1.19-1.06c.26-.2-.08-.63-.34-.44a13.14,13.14,0,0,0-1.53,1.33l-5-1.21c.34-.66.68-1.31,1-2,.14-.28-.27-.63-.43-.34-.39.72-.79,1.43-1.19,2.15l-4.22-1.06c0-.21.06-.41.11-.62a8.35,8.35,0,0,1,.3-1l.33,0a.16.16,0,0,0,.14,0l.2,0a206.15,206.15,0,0,0,37-2.07c10.47-1.49,21.25-3.52,29.8-10.13.43-.33,0-1.14-.47-.81a40.32,40.32,0,0,1-10.63,5.75.26.26,0,0,0-.25-.21c-1.19,0-2.4.06-3.6.13a52,52,0,0,0,6-1c.17,0,.12-.36-.06-.35-6.56.28-13.08,1.26-19.67,1.47-.27,0-.21.46.06.46,2.93,0,5.92,0,8.9-.2-3.67.37-7.34.86-11,1.22-.43.05-.34.75.06.71,6-.54,12.19-.74,18.15-1.74a101.55,101.55,0,0,1-17.75,3.87.23.23,0,0,0-.13-.42c-6.78.18-13.55.88-20.32,1.25-.42,0-.35.69,0,.68,5.69-.2,11.43-.4,17.1-1a215.7,215.7,0,0,1-29.4,1.81c4.33-.67,8.66-1.24,13-1.79a113.29,113.29,0,0,0,19.48-1.59,67.46,67.46,0,0,0,8.17-1c.17,0,.13-.37-.05-.36-3.51.19-7,.5-10.52.75a.22.22,0,0,0-.17-.34c-5.53.35-11,1-16.54,1.75-.59,0-1.19.07-1.79.09a.29.29,0,0,0-.26.21c-4.62.68-9.23,1.45-13.82,2.24l-1.75,0c.11-.22.2-.45.31-.67s-.28-.51-.42-.24-.3.59-.44.91l-1,0c-.36,0-.34.59,0,.61l.71,0a9.77,9.77,0,0,0-.44,1.46q-8.15-2.09-16.24-4.3l.08-.12a2.92,2.92,0,0,0,1.76-.48c.15-.09,0-.38-.14-.35a4.78,4.78,0,0,1-1.12.11,18.07,18.07,0,0,0,2.27-4.92c.78-2.48,3.82-4.49,6.49-6,4.11-1.41,7.65-4.83,10-8.41l.27-.15C85.58,97.72,79,102.9,73.63,107.78c-.46.42.17,1.3.7,1s1.28-.84,1.92-1.28a.32.32,0,0,0,.44,0c3.33-2.73,6.93-5.32,9.9-8.44.17-.18,0-.61-.26-.45l-.14.1a35.87,35.87,0,0,0,5.89-9.21c.39-.45.76-.9,1.12-1.31.75-.87,2.34-2.37,1.19-3.5-.1-.11-.23.08-.15.18.48.57-.35,1.7-1.48,2.89a25,25,0,0,0,1.33-10.94A26,26,0,0,0,89,64.11a6,6,0,0,0-.15-1,.14.14,0,1,0-.27.07,4.28,4.28,0,0,1,.07.48l-.5-.66.24-.3c.21-.26-.23-.59-.45-.34l-.16.18c-.25-.3-.53-.58-.78-.87q11.3-1.78,22.63-3a.56.56,0,0,0,.57.29,8,8,0,0,0,1.88-.55,568,568,0,0,1,70.39-2.56q47.81,3.66,95.63,7.26,6,.51,12,.91,23.43,1.8,46.87,3.65a1,1,0,0,0,.56.25,1.47,1.47,0,0,0,.75-.15l5.81.44c2.85.39,5.69.78,8.54,1.14a1.38,1.38,0,0,0,.8.1c8.45,1.07,16.92,2,25.4,2.8.17,0,.16-.27,0-.29q-9.85-1.28-19.68-2.62l9.19.67,3,.49c.17,0,.23-.15.16-.27,4.25.3,8.5.58,12.76.87l2.71.25a.29.29,0,0,0,.22,0l2.84.19a.24.24,0,0,0,.24-.34,20.83,20.83,0,0,1,2.05,8.33c.19,5.7-2.48,10.06-5.93,14.29-.13.16.1.41.27.28,6.83-5.34,7.82-15.87,4-23.51h.68a6.66,6.66,0,0,0,.85.31.19.19,0,0,0,.22-.29h.34c.12,0,.1-.22,0-.22l-.58,0a14.39,14.39,0,0,0-2.5-1.57A17.68,17.68,0,0,0,388.33,67c.14,0,.28,0,.42-.06s.24-.39,0-.41l-.62,0a3.78,3.78,0,0,1,.66-.25c.48-.12.22-.8-.23-.71a4,4,0,0,0-1.15.43,14.32,14.32,0,0,0-1.22-1.12c-.14-.11-.27.12-.16.23.35.38.68.76,1,1.15a2.08,2.08,0,0,0-.21.21c-.65,0-1.31,0-2,.07a2.13,2.13,0,0,1,.94-.8c.28-.12.11-.58-.17-.47a3.06,3.06,0,0,0-1.55,1.31c-1,.07-1.94.16-2.91.24.56-.48,1.15-.93,1.73-1.4a.32.32,0,0,0,0-.47,40.29,40.29,0,0,0,5-1.14,10.59,10.59,0,0,1,3.75,3.85l-.33.1a.16.16,0,0,0,.07.3c.15,0,.3-.06.45-.09a27.8,27.8,0,0,1,2,4.35l-1.15.25c-.22.06-.17.42.06.39l1.26-.18c.26.74.5,1.45.71,2.1.14.45.26.9.38,1.36l-.63.08c0-.3-.05-.6-.08-.89s-.31-.22-.31,0a65,65,0,0,1-.14,6.69h-.64c-.23,0-.16.38.06.38l.54,0c-.55,6-2.46,11.65-8.21,15-.15.09,0,.38.14.31,6.14-2.68,8.34-9,8.75-15.27l1.23,0a25.23,25.23,0,0,1-.64,5.27l-.18,0c-.16,0-.11.33.05.31h.05A25.77,25.77,0,0,1,394.3,91l-.87-.11a.19.19,0,0,0,0,.37l.76.12a23.87,23.87,0,0,1-4.1,7,10.07,10.07,0,0,1-1.36,1.34,46.13,46.13,0,0,1-8.93-1.3l1,0c.29,0,.24-.38,0-.43-1.2-.26-2.41-.48-3.62-.66a2.5,2.5,0,0,1,1.66-.84c.41,0,.32-.65-.07-.62A3.46,3.46,0,0,0,376,97.32s0,0,0,.06c-3-.85-6-1.83-9-2.75a28.26,28.26,0,0,0-3-1.45c-.29-.12-.41.26-.27.46-.92-.25-1.84-.5-2.76-.73l.45-.07c.17,0,.1-.3-.05-.31l-.82-.09a11.76,11.76,0,0,1,3.64-2c.34-.12,0-.63-.29-.53a13,13,0,0,0-4.6,2.61s0,0,0,.06a47.64,47.64,0,0,0-7-1c.1-.1.2-.21.31-.3a4.25,4.25,0,0,1,2.28-1c.4-.06.16-.64-.2-.6a5.6,5.6,0,0,0-2.73,1.16,4.8,4.8,0,0,0-.69.67,62.4,62.4,0,0,0-10.23.38c.17-.11.33-.21.46-.31.28-.23.58-.43.88-.63a13.3,13.3,0,0,1,2.21-1.16c.34-.14,0-.66-.3-.52A19.53,19.53,0,0,0,342,90.34,6,6,0,0,0,340,91.73a1,1,0,0,0-.11.23,108,108,0,0,0-23.75,6.38c-.67.25-1.32.53-2,.79a3.74,3.74,0,0,1,.25-.29,11.59,11.59,0,0,1,1.82-1.45c.27-.17-.06-.6-.32-.43a14.53,14.53,0,0,0-1.87,1.44A4.77,4.77,0,0,0,313,99.63q-3.24,1.31-6.45,2.71a.94.94,0,0,0,.1-.1,4.06,4.06,0,0,1,2.2-1.06c.33-.06.22-.57-.09-.52a5,5,0,0,0-2.49,1.14,4.24,4.24,0,0,0-1,1.09q-3.06,1.36-6.09,2.78a6.08,6.08,0,0,1,2.08-1.89c.33-.18,0-.7-.31-.52a6.78,6.78,0,0,0-2.39,2.16,7.23,7.23,0,0,0-.44.74l-2.95,1.37c-.13-.26-.26-.51-.38-.78a.36.36,0,1,0-.66.29c.12.27.23.54.36.81l-5.95,2.72a4.37,4.37,0,0,1,.47-.91,4.56,4.56,0,0,1,2.21-1.58c.34-.12,0-.63-.28-.52-1.3.45-3,1.86-3.26,3.4-2.81,1.25-5.64,2.47-8.5,3.6a135.11,135.11,0,0,1-22.65,6.57l.65-.39c.1-.07.06-.3-.09-.26l-.45.14a16,16,0,0,1,5-5.52c.27-.18-.08-.61-.35-.44a14.1,14.1,0,0,0-5.56,6.35.22.22,0,0,0,.07.27q-4.29.87-8.61,1.57v0c0-.11-.13-.18-.18-.07l-.29,0a11.13,11.13,0,0,1,4.53-5c.29-.16.05-.65-.22-.5a11.11,11.11,0,0,0-5,5.61.22.22,0,0,0,0,.08c-2,.32-4,.62-6,.9-.09,0-.08.18,0,.17A152.76,152.76,0,0,0,277.84,116c.7-.25,1.39-.53,2.08-.79l.06,0c3.36,2.43,4.66,6.45,6.62,10a46,46,0,0,0,8.47,10.53.63.63,0,0,0,1-.16c.32-.68.67-1.34,1-2,.3.34.61.68.94,1,.18.17.41-.12.28-.3-.32-.42-.62-.86-.92-1.29a67.79,67.79,0,0,1,32-30.27c.58-.26.19-1-.28-1.09a8.35,8.35,0,0,1-6.2-4.11.73.73,0,0,0-.18-.17c9-2.94,18.37-4.84,27.86-4.6a1.71,1.71,0,0,0,0,.32.2.2,0,0,0,.33.13,1.66,1.66,0,0,0,.37-.43c.87,0,1.75.08,2.62.15a59.38,59.38,0,0,1,12.84,2.77c3.26,2,6.69,3.76,10.07,5.57.48.26,1,.53,1.51.79a23.23,23.23,0,0,0,2.49,5.32,1.92,1.92,0,0,1-1-.37c-.28-.21-.69.09-.45.4a2.37,2.37,0,0,0,1.48.91,1.63,1.63,0,0,0-.09.19c-.27.73.67,1.4,1.18.72h0a37.82,37.82,0,0,0,5.7,7.61,52.18,52.18,0,0,0,8,6.06,72,72,0,0,0,9,5.56c.17.08.2-.2.09-.29-5.28-4.26-11.57-7.12-16.57-11.78a34.14,34.14,0,0,1-5.76-7.73l.8-1a2.28,2.28,0,0,0,.42-.5c.32-.52-.34-1.23-.82-.76l-.76.76a1.92,1.92,0,0,1-.42.16c-.54-.92-1.08-1.84-1.59-2.79a15.3,15.3,0,0,1-1.07-2.18,8.16,8.16,0,0,0,5.13.94l.74-.2s0,0,0,0c4.74,3.54,10.15,6,15,9.35s8.51,7.41,12.44,11.56c-.44.08-.25.74.16.72a3.81,3.81,0,0,0,.47-.07l1,1c.17.17.34-.1.24-.26s-.39-.57-.58-.86a4.9,4.9,0,0,0,2.43-1.47.52.52,0,0,0-.52-.85,9.45,9.45,0,0,0-1.87.59.76.76,0,0,0-.42.94l-.12,0c-2.89-4-6.92-7.46-10.78-10.44-5.31-4.1-11.61-6.52-17-10.42a13.46,13.46,0,0,0,2.39-1,.21.21,0,0,0,.1.08,53.64,53.64,0,0,1,18.56,9.54,76.68,76.68,0,0,1,8.58,7.19c1.08,1.1,1.55,2.54,2.68,3.38a59.8,59.8,0,0,0,4.78,13.46c-2.59-1-5.2-1.91-7.81-2.83a.19.19,0,0,0-.08-.21c-2.57-1.72-4.15-4.17-6-6.57a52.82,52.82,0,0,0-6.86-6.68l-.29-.26a2.75,2.75,0,0,0,.41-.11c.5-.2.68-.94.68-1.43a2,2,0,0,0-.55-1.49c-.44-.34-1.38-.16-1.87,0a1.44,1.44,0,0,0-.7.44l-.06.08a1.94,1.94,0,0,0-.27.43q-7.12-6.37-14.34-12.67c-.18-.16-.36.11-.2.26q7.17,6.65,14.41,13.22a3.65,3.65,0,0,0,0,.74.6.6,0,0,0,.62.58l.86,0,1.5,1.38A48.33,48.33,0,0,1,409,128a15.68,15.68,0,0,0,3.6,4,109,109,0,0,1-15.2-6.34,51.93,51.93,0,0,1-22.38-22.86c-.08-.17-.26,0-.21.13,6.58,19.33,29.66,29.58,48.26,34,.39.68.79,1.35,1.21,2s1.72.33,1.39-.53c-3.38-8.86-6.57-17.26-8.23-26.66A122,122,0,0,1,416,80.66c0-.42.09-.83.13-1.25l1.33.17c.18,0,.17-.28,0-.33-.42-.12-.87-.22-1.3-.33a77.94,77.94,0,0,1,3.2-15.45,3.49,3.49,0,0,0,1.44-4.07,67.33,67.33,0,0,1,16.31-24.78C437.54,34.18,437,33.53,436.48,33.67ZM356.05,65a3.58,3.58,0,0,0-1,.83l-5.46-.63a.24.24,0,0,0-.16-.29l-.87-.13a4.73,4.73,0,0,1,.85-.7C351.61,64.4,353.83,64.7,356.05,65Zm-6.23-2.11-.32.13L346,62.51Zm-4.89.61a.31.31,0,0,0,.1,0l3.13.45a4.63,4.63,0,0,0-.83.94.29.29,0,0,0,0,.1l-3.13-.36a2.46,2.46,0,0,0,.39-.22c.15-.1,0-.39-.15-.36a5.87,5.87,0,0,1-.83.1A5.29,5.29,0,0,1,344.93,63.5Zm-25.16-3.78,6.39.71c-.87.42-1.74.86-2.59,1.32l-5.85-1a9.3,9.3,0,0,1,1.85-.82A.25.25,0,0,0,319.77,59.72ZM190.52,50.33l-.29-.16,1.31.24,6.15,1.15-7-.28c0-.15.07-.29.1-.44A.55.55,0,0,0,190.52,50.33Zm-1.8.87-3.89-.12a5.56,5.56,0,0,1,1.71-.53c.57-.1,2.74-.07,2.92.68Zm.61.61a3,3,0,0,1-2.54,1.73,1.76,1.76,0,0,0,.48-.88,2,2,0,0,0,.7-.73.23.23,0,0,0,0-.16Zm-110.16,6L79,58l-2.29-2.2c.56-.06,1.12-.13,1.67-.21.34.24.69.47,1,.71l-.35.08a.19.19,0,0,0,0,.35.14.14,0,0,0,.13,0l.35-.08c-.16.2-.34.41-.5.62A.36.36,0,0,0,79.17,57.84Zm-3.54-3.2,0,.06c-.16-.15-.32-.3-.47-.46l0,0a.12.12,0,0,0,0-.1L76,53.9c.35.23.68.49,1,.72l-.83.62,0,0L75.89,55l0,0C76.08,54.78,75.8,54.44,75.63,54.64Zm12.08-8a100.76,100.76,0,0,1-14.44,4.13l-1.06-.6q7.33-1.84,14.72-3.49a.1.1,0,0,0,.11.05l1-.14h0c0,.14.14.39.28.24s.18-.22.28-.33q2.91-.43,5.83-.82a.21.21,0,0,0,.32.19l.31-.27c1.59-.21,3.17-.39,4.75-.58a1.11,1.11,0,0,0,0,.51.45.45,0,0,0,.4.28.53.53,0,0,0,.59-.56.27.27,0,0,0-.21-.27l0-.06.45,0a.75.75,0,0,0,0,.26,1.15,1.15,0,0,0-.08,1.11l-1.87.21c-1,.1-2,.22-2.95.35l1.5-.53c.11,0,.06-.28-.07-.24l-3.27,1a60.58,60.58,0,0,0-14.63,3.66c-.57.14-1.15.26-1.72.41-.13,0-.1.28,0,.24l.9-.2c0,.1.09.19.19.15l1.16-.45.59-.13a.88.88,0,0,0,.08.71l-.44.14c-1.26.43-2.55.94-3.87,1.29-.94-.62-1.88-1.22-2.84-1.79a53.2,53.2,0,0,0,14-4.21C87.91,46.79,87.84,46.57,87.71,46.62ZM70.17,49c-.8-.43-1.59-.84-2.38-1.23,2-.52,4-1.07,6.06-1.66l-.12.14a17,17,0,0,0-1.61,2.11Zm.26,1.41-1.09.1,0-.75h0Zm3.81-5L70,46.74a5.71,5.71,0,0,0,.77-1.12.13.13,0,0,0,.17-.09c0-.07,0-.13.07-.2,1.08-.22,2.16-.46,3.24-.67A.93.93,0,0,0,74.24,45.44Zm40.56-5.85c0,.07,0,.15,0,.23a.76.76,0,0,0,.26.49c-1.46.07-2.92.17-4.38.28.41-.54.83-1.06,1.27-1.58.24-.27-.19-.71-.44-.44-.63.68-1.25,1.37-1.85,2.08-1.82.14-3.65.29-5.47.48l.94-1,1.93-.2a0,0,0,0,0,0-.09l-1.74.1c.12-.14.25-.27.37-.4q4.48-.91,9-1.56A3.87,3.87,0,0,0,114.8,39.59Zm2.67-.59h0c0-.15,0-.38,0-.43a5.79,5.79,0,0,0-.07-.82.58.58,0,0,0,0-.14c3.8-.49,7.6-.82,11.42-1.06-.87.77-1.75,1.52-2.63,2.27l-.41,0s0,.08,0,.08l.31,0c-.43.36-.84.74-1.26,1.1-1.45,0-2.9,0-4.35.1a24.62,24.62,0,0,1,2.53-2c.26-.18-.07-.61-.34-.43a32.8,32.8,0,0,0-3.31,2.44h-.18c0-.08,0-.21-.11-.19l-1.52.24-.77,0a1.5,1.5,0,0,0,.72-1.22C117.46,39.12,117.46,39.18,117.47,39Zm12-2.49q3-.16,6.07-.24-1.4,1.13-2.73,2.31c-1.83,0-3.67.08-5.5.18.69-.65,1.38-1.31,2.1-1.95A.27.27,0,0,0,129.49,36.51ZM158.4,40.7a7,7,0,0,0,1-.06c.22,0,.17-.33,0-.38l-.3-.07.19-.16,3.9.31h.07a.19.19,0,0,0,.3.14.63.63,0,0,0,.12-.11l6.05.51c-.05.06-.11.12-.15.18-.61.75,1.18,1.19.77.29h0c.09-.13.2-.25.31-.38l6.08.54a.5.5,0,0,0,.13.19,1.08,1.08,0,0,0,1.22.2.16.16,0,0,0,0-.27l3.68.33-.13.21c-.11.22.18.44.37.33a6.76,6.76,0,0,0,.72-.46l1.22.11a1.83,1.83,0,0,0,.35,1.36q-9.93-1.17-19.93-1.74c-7-.64-14.1-1.14-21.17-1.46a2.45,2.45,0,0,0-1.36-.41.77.77,0,0,0-1.1,0l-.11.15-.08,0a.22.22,0,0,0-.14-.17l-.35-.08c.3-.34.6-.67.91-1,1.63.06,3.27.14,4.9.23h.32l1.91.12a3.14,3.14,0,0,0-.32.31c-.15.17.05.5.27.41a8.07,8.07,0,0,0,1.23-.65l2.92.21a3,3,0,0,0-.32.92c0,.12.14.3.26.19a3.61,3.61,0,0,0,.74-1.06c1.79.13,3.57.28,5.36.42l-.22.21C157.83,40.4,158.17,40.7,158.4,40.7Zm38-1.25c.53-.52,1-1,1.58-1.53l2,.24A18.81,18.81,0,0,0,197.56,40l-4.85-.82c.68-.55,1.38-1.08,2.09-1.6l2.35.25c-.34.45-.68.91-1,1.38C196,39.36,196.2,39.6,196.36,39.45ZM244.31,49l.51-.36,2.68.46c-.16.23.05.5.26.6a1.51,1.51,0,0,0,1.67-.26l2.59.45a1.49,1.49,0,0,0-.24.51.32.32,0,0,0,.44.36,4.29,4.29,0,0,0,.92-.68l6.77,1.18c-.42.29-.84.59-1.25.91q-6-.85-12.05-1.86L244,49.73a1.6,1.6,0,0,0,.62-.41A.23.23,0,0,0,244.31,49Zm30.24,6a.67.67,0,0,0,0-.2s0-.06,0-.1c2.15.27,4.3.51,6.45.76a11.51,11.51,0,0,0-1.58,1.11l-4.92-.63A2.69,2.69,0,0,0,274.55,54.91ZM280,57.06l5.42.73a.94.94,0,0,0,.1.28l-6-.59Zm-.46,1.08a.18.18,0,0,0,.09-.2l1.06.1c3.24.32,6.48.66,9.71,1a.76.76,0,0,0,.47.14.32.32,0,0,0,.19-.07l.57.06a2,2,0,0,0-.27.42l0,.08a.71.71,0,0,0-.3.21l-9.5-1.34-.23,0-1.81-.34Zm6.9-.22,3.82.51s0,.08,0,.11l-2.66-.27-1.11-.11s0,0,0,0A.24.24,0,0,0,286.43,57.92Zm-2.23,1.51c1,.19,2.05.39,3.08.57,1.19.21,2.38.4,3.58.6a.79.79,0,0,0,.71.61h.09l.06,0q-6-1.3-12.08-2.47Zm6.67-1.76-.27.24-3.81-.49,1.65-1.18.58.06,3,.53A11.53,11.53,0,0,0,290.87,57.67Zm-5.31-.41-5.07-.64a11.43,11.43,0,0,1,1.6-1.12c1.28.15,2.55.31,3.83.45l1.33.15A5.23,5.23,0,0,0,285.56,57.26Zm-4-2.22q-3.61-.42-7.21-.87l.58-.33,6.7,1.17Zm-2.67,1.88c-.15.15-.3.3-.44.46L274,56.94a.89.89,0,0,0,0-.14,2.18,2.18,0,0,0,.35-.49Zm-5-3.16a1,1,0,0,0-.68-.1,2.58,2.58,0,0,0-.57.21,1.05,1.05,0,0,0-.24.06c-2-.25-4.07-.53-6.11-.79.15-.2.3-.4.44-.57l.14-.15L274,53.67Zm-2,.53a.82.82,0,0,0-.13.35.06.06,0,0,0,0,0,3.18,3.18,0,0,0-.16.32,3.78,3.78,0,0,0-.63.41l-7.81-1c-1.65-.5-3.3-1-5-1.42.27-.14.52-.29.78-.44l6.13.84a1.86,1.86,0,0,0-.26.62.19.19,0,0,0,.25.21,2.47,2.47,0,0,0,.88-.71Zm-41-2.07c-5-1.16-10.07-2.3-15.11-3.38l.55-.09c12.41,1.78,24.72,4.09,37.1,6Q242.19,53.39,230.9,52.22Zm17.26,2.46-5.24-.41a1.1,1.1,0,0,0-.23-.2h0C244.51,54.27,246.34,54.46,248.16,54.68ZM241.72,54a1.38,1.38,0,0,0-.43.19l-2.93-.23-2.91-.66C237.54,53.48,239.63,53.72,241.72,54Zm-6.56-.26q-5.55-.39-11.11-.74l0,0a1.36,1.36,0,0,0,.26-.76c2.4.22,4.81.44,7.22.69Zm8.57-1.44,14.34,1.9c3.16.68,6.31,1.36,9.47,2h0l1.49.3-3.4-.31-2.35-.44Q253.52,53.93,243.73,52.26Zm14.06.64c-1.54-.41-3.09-.8-4.64-1.17l5.11.73c-.15.12-.3.23-.44.36A.11.11,0,0,0,257.79,52.9Zm9.55,2.87c-.67-.23-1.34-.44-2-.65l4.06.53,1.16.16a.58.58,0,0,0,.07.62Zm-2-2.75c-1.65-.22-3.31-.42-5-.65l-1-.13.93-.64.36-.25.49.09,4.82.84C265.84,52.52,265.59,52.76,265.37,53Zm-7.89.66c-3.37-.74-6.74-1.48-10.11-2.25l-7.6-1.69.12-.06C245.79,50.88,251.64,52.24,257.48,53.68Zm-14.8-4.63a.37.37,0,0,0-.11.4L240.4,49a1,1,0,0,0-1-1.19l.2-.15,4,.69C243.26,48.59,243,48.81,242.68,49.05Zm-2.84,1.12,13.69,3-15.2-2a1.47,1.47,0,0,0,.23-.26,3.7,3.7,0,0,0,.29-.66.85.85,0,0,0,.52-.21Zm-2.63-1.75-3-.55-1.15-.19a11.1,11.1,0,0,1,1-1l4.36.76A9.17,9.17,0,0,0,237.21,48.42Zm-.51,1.08a1.45,1.45,0,0,0,.2,1.51h0l-2.3-.3L224.39,49c-2.51-.41-5-.82-7.55-1.21a19.82,19.82,0,0,1,1.86-1.7c1.48.21,3,.41,4.44.64l1.33.26h0c-.45.7.35,1.86,1.12,1.35.16-.11.1-.42-.11-.42-.55,0-.34-.38,0-.74C229.21,47.91,233,48.69,236.7,49.5Zm-4.63-2q-3-.51-5.91-1c.33-.26.66-.52,1-.79l.23-.17,5.64,1A12,12,0,0,0,232.07,47.49Zm-7-1.14-2.79-.44-2.67-.5a14,14,0,0,1,1.54-.93l5.23.9A12.31,12.31,0,0,0,225.06,46.35Zm-6.52-1.13L217.25,45a3.41,3.41,0,0,0,.8-1l2.06.36A13.71,13.71,0,0,0,218.54,45.22Zm-1,.71a13.69,13.69,0,0,0-1.78,1.71c-2-.31-3.93-.61-5.9-.9a.15.15,0,0,0-.18-.05l0,0-.16,0,2-1.56,1.73.22a3.12,3.12,0,0,0,2.71.36Zm-73.65-4.88a1.61,1.61,0,0,0-.24-.34c3.75.17,7.49.4,11.23.67-3.6-.09-7.21-.12-10.81-.09-.12,0-.11.22,0,.21,5.62,0,11.24.09,16.85.36q3.73.31,7.46.68c-4.65-.16-9.32-.2-14-.08q-5.5-.2-11-.22A.83.83,0,0,0,143.88,41.05Zm29.24,2c6.29.65,12.56,1.41,18.83,2.22-6.28-.68-12.57-1.28-18.87-1.75q-7.82-.58-15.67-.92C162.65,42.54,167.89,42.71,173.12,43Zm23.17-1.77c-1.67-.28-3.35-.57-5-.84.33-.3.66-.6,1-.87l.11-.09,4.87.85A12.16,12.16,0,0,0,196.29,41.24Zm6.12,1.49-.69.55L199.38,43l-3.2-.31a4.28,4.28,0,0,0,.89-.91ZM196,41.62a2,2,0,0,0-.38.94.3.3,0,0,0,0,.1c-2.13-.21-4.27-.43-6.4-.62a11.07,11.07,0,0,0,1.64-1.29C192.59,41,194.3,41.33,196,41.62Zm-7.5.28s0,0,0,.07l-.38,0v-.14a1,1,0,0,0-1.27-1l-2.05.29a1,1,0,0,0-.67.51l-.69-.06c.62-.52,1.2-1.1,1.8-1.64,1.37.2,2.73.4,4.09.62l.36.06A5.69,5.69,0,0,0,188.5,41.9Zm-.84,2a.79.79,0,0,0,.43-.68c0-.22,0-.45,0-.68l3.45.32h-.16c-.11,0-.1.2,0,.2,1.13,0,2.25.08,3.38.13l3.57.37,2.62.3-1.18.92a.38.38,0,0,0-.06.53C195.72,44.78,191.69,44.3,187.66,43.89Zm15.82,2.26a.44.44,0,0,0-.12.22c-2-.36-3.93-.71-5.9-1Q200.48,45.73,203.48,46.15Zm-2.93-.74.55-.1a.2.2,0,0,0,0-.39l-.14,0L202,44l3.63.43c-.62.47-1.24,1-1.83,1.46C202.73,45.71,201.65,45.55,200.55,45.41Zm2.17-2,.6-.5,3.48.63-.37.28-1.83-.2Zm1.92,2.93,3.36.5a.3.3,0,0,0-.05.2l-3.43-.47A.51.51,0,0,0,204.64,46.32Zm.3-.31c.58-.49,1.15-1,1.72-1.49l3.71.46a23.38,23.38,0,0,0-2,1.54Zm2.41-2.1.27-.24,3.7.67-.09.06C209.94,44.22,208.64,44.06,207.35,43.91ZM215.44,48l-.07.09-5.93-.83a1.19,1.19,0,0,0,.23-.16C211.6,47.36,213.52,47.67,215.44,48Zm-3.22-4.2-.34.21-3.83-.68c.2-.18.4-.36.61-.53s-.09-.64-.34-.43l-1,.82-3.52-.63,1.08-.9,7.25,1.27.14,0A3.34,3.34,0,0,0,212.22,43.77Zm-9.35-1.4-5.51-.95a7.1,7.1,0,0,1,.53-.65c.1-.11.22-.2.32-.31l5.79,1ZM191.72,39l0,0-4.37-.74c.63-.44,1.28-.87,2-1.27l4.56.48C193.12,38,192.41,38.46,191.72,39Zm-.37.28c-.41.3-.85.61-1.26.95-1.49-.24-3-.48-4.45-.7l.41-.33c.3-.23.61-.44.91-.66ZM185.07,39l-.53.4c-1.37-.2-2.73-.41-4.1-.6.17-.14.34-.29.52-.42s.58-.42.87-.63c1.37.21,2.73.44,4.1.66C185.64,38.57,185.35,38.75,185.07,39Zm-1,.75a10.6,10.6,0,0,0-1.88,1.71l-4.37-.36a10.57,10.57,0,0,1,1.06-.94c.36-.34.72-.66,1.09-1ZM177,41l-5.88-.48c.2-.18.39-.35.53-.49l1-.94c.29-.26.59-.51.9-.76,1.84.22,3.67.46,5.5.7A24.21,24.21,0,0,0,177,41Zm-6.87-.55-6-.45L164,40l.15-.26a6.07,6.07,0,0,1,2.21-2.18q3.18.32,6.36.69A19.61,19.61,0,0,0,170.14,40.45Zm-5.56-2.27a4,4,0,0,0-1.26,1.76l-3.6-.25c.93-.81,1.83-1.68,2.72-2.52,1,.09,2.07.2,3.11.3A6,6,0,0,0,164.58,38.18Zm-11.87.45-.31.56L149.71,39c.77-.52,1.51-1.1,2.24-1.61.42-.29-.07-.92-.46-.65A30.94,30.94,0,0,0,148.4,39l-1.57-.09a.47.47,0,0,0,.09-.45.22.22,0,0,0-.07-.09c.54-.64,1.07-1.3,1.61-1.94l0,0c1.68,0,3.37.12,5.06.2.08.13.26.16.32,0h0a7.84,7.84,0,0,1-.57,1Zm-7-.19a.38.38,0,0,0-.06.37c-1.47-.06-3-.13-4.43-.17a12.37,12.37,0,0,1,3.27-2.41c1,0,2,.05,3.06.08C146.89,37,146.26,37.7,145.68,38.44Zm-5.76.18c-2,0-3.92-.07-5.87,0l.15-.14c.8-.75,1.62-1.48,2.45-2.19,2.13-.05,4.27-.05,6.4,0A12.28,12.28,0,0,0,139.92,38.62Zm-15.57,3.57c-.58-.13,1.05-1.63,1.22-1.79h0c1.79,0,3.58,0,5.37,0a1,1,0,0,0-.21,1.28.77.77,0,0,0,1,.27c.15-.09.13-.37-.07-.38a.91.91,0,0,1,.41-1.18c2.42,0,4.85.07,7.28.16a1,1,0,0,0,.32,1.69c-5.07,0-10.14.14-15.2.36A.28.28,0,0,0,124.35,42.19Zm-6.53.47c.38-.41.77-.81,1.16-1.2,1.54-.12,3.08-.25,4.63-.36a1.21,1.21,0,0,0,0,1.53c-1.91.09-3.81.2-5.72.32,0,0,0-.05,0-.09A.28.28,0,0,0,117.82,42.66Zm1.53-1.56.58-.56c1.23,0,2.45-.09,3.68-.12h.73c-.2.18-.4.34-.59.52h0C122.27,41,120.81,41,119.35,41.1ZM126,40l.82-.76.4-.38c1.82-.08,3.64-.12,5.46-.14-.46.42-.92.85-1.36,1.28C129.56,40,127.78,40,126,40ZM139,39.9a.33.33,0,0,0,0,.24h-.19q-3.09-.1-6.2-.13l.35-.33c.33-.33.67-.64,1-1,2,0,3.91,0,5.87.09A8.73,8.73,0,0,0,139,39.9Zm-20.14.69-.62.56q-3.22.16-6.45.42l4.56-.86ZM80.87,54.27l2-.48s0,.08.08.08c1.75-.14,3.49-.25,5.24-.38q-3.41,1-6.72,2.14a.18.18,0,0,0-.23,0l-.07.08-.39.13.41-.64c.07-.1,0-.32-.14-.3a12.46,12.46,0,0,1-1.37.13c-.48-.36-1-.72-1.45-1.06a.26.26,0,0,0-.13-.1c-.18-.12-.35-.27-.54-.39Q85,51.69,92.4,50.3q3.12-.4,6.26-.76c-6,1.29-12,2.75-17.88,4.42C80.6,54,80.69,54.31,80.87,54.27Zm15.94-4.79c3.3-.58,6.62-1.1,9.94-1.59q-2.55.48-5.09,1Zm-11.23,1.6-2.86.44a.73.73,0,0,0,.16-.14c.55-.21,1.09-.41,1.62-.58l6.18-2.08q5.58-1,11.17-1.81a2.25,2.25,0,0,0,1.15,0,.9.9,0,0,0,.35-.18c9.55-1.31,19.16-2.16,28.85-2.66q-7.41.86-14.79,2A235.2,235.2,0,0,0,85.58,51.08ZM82.76,50a59.37,59.37,0,0,1,8.84-2.06l-1.37.44C87.73,48.85,85.24,49.4,82.76,50Zm4.08-.51-.66.21-3.14,1a.84.84,0,0,0-.15-.38l0,0C84.18,50,85.5,49.72,86.84,49.46Zm15.9-5.21a3.72,3.72,0,0,0-.57-.08,1,1,0,0,0-.75.23l-.3,0,.88-.94c1.38-.28,2.75-.57,4.13-.84l2.11-.22c-.32.44-.63.88-.92,1.33C105.79,43.92,104.27,44.08,102.74,44.25ZM89.32,45.6l.54-.77c1.79-.28,3.58-.54,5.37-.8l-.21.32Q92.17,45,89.32,45.6Zm5.33-.6c0,.09-.07.19-.11.28-1.26.17-2.52.35-3.77.54ZM81.48,47.42l-4.9,1.19a9,9,0,0,0,1.18-1.34l3.34-1,1-.18a4.09,4.09,0,0,0-.61,1.17A.19.19,0,0,0,81.48,47.42Zm-3.09-1c.14-.2.29-.4.44-.58l.08-.09c1.4-.31,2.8-.6,4.2-.88l-.39.46C81.27,45.66,79.83,46,78.39,46.42Zm4.81-.49c1.85-.33,3.71-.62,5.56-.92-.15.27-.3.54-.42.81-2.11.48-4.21,1-6.3,1.46A6.88,6.88,0,0,0,83.2,45.93Zm1.57-.74.7-.21c.11,0,.06-.26-.06-.23-.55.1-1.09.23-1.63.35l.06-.09.24-.32c1.86-.37,3.72-.7,5.58-1-.18.24-.36.48-.53.73C87.68,44.66,86.22,44.91,84.77,45.19Zm5.52-1,.49-.73q2.82-.46,5.65-.85c-.23.23-.46.48-.68.74Q93,43.76,90.29,44.21Zm4.12-1.89c1.08-.32,2.15-.61,3.23-.9L97.1,42C96.2,42.07,95.3,42.18,94.41,42.32Zm1.46,2.42,4.63-.94a3.15,3.15,0,0,0-.57.79l-4.42.55Zm1.23-1.56c.18-.25.36-.48.55-.71,1.64-.22,3.28-.42,4.92-.61l-.41.42-.3.28C100.27,42.75,98.68,43,97.1,43.18Zm1.13-1.38c.22-.25.46-.48.7-.71l2.28-.57c1-.11,2-.2,3-.3l-1,1C101.53,41.4,99.88,41.58,98.23,41.8Zm8.36.23c-1.2.12-2.4.26-3.59.4l.64-.69q2.77-.3,5.57-.54l-.33.43Zm2.81.3c2.79-.29,5.59-.54,8.39-.78-.38.39-.76.78-1.11,1.19a.34.34,0,0,0-.08.28q-4,.27-8,.64l-.07,0Zm.67-.91.23-.3,2.65-.21Zm-5.12-2c-1,.22-2.1.46-3.14.71-.69.05-1.37.12-2.06.18.7-.62,1.42-1.2,2.17-1.75,1.53-.26,3.06-.5,4.59-.74Zm-6.19,1c-2,.19-4,.39-6,.64.31-.34.63-.67,1-1q3.49-.67,7-1.27C100,39.3,99.39,39.85,98.76,40.41Zm-.52.47-.29.26c-1.39.37-2.77.75-4.16,1.17-.05,0-.06.06,0,.11-.84.13-1.67.28-2.5.42.15-.2.3-.41.46-.6s.32-.38.49-.57C94.21,41.39,96.22,41.12,98.24,40.88Zm-6.43.28c-1.9.25-3.81.51-5.7.8l.24-.32a.19.19,0,0,0,0-.11q3.17-.68,6.33-1.3C92.42,40.54,92.1,40.84,91.81,41.16Zm-.61.66c-.34.39-.69.79-1,1.21-1.9.34-3.79.69-5.67,1.09l1.08-1.45C87.45,42.37,89.33,42.09,91.2,41.82Zm-5.94.28c-1.21.2-2.42.39-3.62.6l.19-.19c1.24-.28,2.49-.54,3.73-.81Zm-2.79,1.18a.11.11,0,0,0,0-.13c.73-.13,1.46-.23,2.19-.35l-1.17,1.53c-1.43.31-2.85.63-4.26,1,.37-.43.74-.86,1.13-1.29C81.09,43.78,81.79,43.54,82.47,43.28Zm-2.69.53-3.84,1.12a.88.88,0,0,0-.12-.26l.38-.37c1.25-.24,2.51-.47,3.77-.69ZM76,45.5c1.07-.33,2.14-.67,3.2-1l-.09.09-.95,1c-.47.12-.94.22-1.4.35-.14,0-.1.28,0,.25l1-.22c-.21.24-.42.49-.61.75l-1.69.36c-.09,0-.1.12-.07.19-.81.24-1.61.53-2.41.79.35-.5.69-1,1.06-1.48.2-.24.42-.47.63-.71a.93.93,0,0,0,.48.13A.76.76,0,0,0,76,45.5ZM71.78,49a2.92,2.92,0,0,0-.17.36c0,.12.1.25.2.16a6.25,6.25,0,0,0,.63-.72l4.13-1.21a5.4,5.4,0,0,0-.45,1,.19.19,0,0,0,0,.13c-1.48.37-3,.73-4.45,1.12-.3-.18-.6-.36-.91-.52Zm8.15,8.71,1-.23,1.06.87a1.45,1.45,0,0,0-.49.52.34.34,0,0,0,.27.53l1.29-.11c.14.12.26.26.4.38l-2.21.57c-.61-.65-1.23-1.28-1.87-1.9C79.57,58.16,79.74,58,79.93,57.74Zm3.09-1h-.34l-.67.05-.56-.45q11.58-2,23.17-3.92l2.86-.15Q95.17,54,83,56.76Zm5.8-2.39c1.4-.4,2.79-.8,4.18-1.22l3.53-.23Q92.66,53.61,88.82,54.37Zm11-2-5.41.37c3.71-1.14,7.4-2.34,11.06-3.49.15,0,.1-.31-.06-.27-5.2,1.35-10.53,2.65-15.78,4.14-2,.16-4,.33-5.92.51,7.5-1.76,15-3.4,22.57-4.87l3.06-.28a1.37,1.37,0,0,0,.07.29,1.79,1.79,0,0,0,.65.74,1.55,1.55,0,0,0,2-.54,1.1,1.1,0,0,0,.16-.75Q122.09,47.39,132,47l1,0a1.66,1.66,0,0,0-.85.8C121.36,49,110.53,50.5,99.78,52.35ZM132,48.24a1.46,1.46,0,0,0,.1.71H132a.66.66,0,0,0-.68.78c-6.13.46-12.24,1.06-18.34,1.84-1.47.07-2.94.16-4.4.24Q120.28,49.93,132,48.24Zm-.24,2.17a3.56,3.56,0,0,0,2.29.29,2.25,2.25,0,0,0,.88-.46,2,2,0,0,0,.26-.06,495.16,495.16,0,0,1,50.09-.6,6.44,6.44,0,0,0-1.48.64,4.44,4.44,0,0,0-1,.8q-14.55-.44-29.1-.44a.32.32,0,0,0-.43-.36,1.59,1.59,0,0,0-.45.36q-14.69,0-29.36.52Q127.63,50.71,131.8,50.41Zm23.3-3c1.53-.14,3.06-.22,4.6-.27l2.42.11a2,2,0,0,0,0,.55,1,1,0,0,0,.5.7c-8.72,0-17.45.31-26.16.86a1,1,0,0,0-.71-1.21,1.5,1.5,0,0,0-.18-.41l3.84-.53c.12,0,.1-.21,0-.2l-4.06.44a1.92,1.92,0,0,0-.78-.49c5-.14,10-.15,15-.08a.86.86,0,0,0,.13.2,1.17,1.17,0,0,0,.77.39,1.28,1.28,0,0,0,.61-.09,1.21,1.21,0,0,0,.29-.19,1.24,1.24,0,0,0,.32-.28c1.79,0,3.59.08,5.38.14l-2,.16C155,47.23,155,47.43,155.1,47.42Zm10.31,1.08a2.16,2.16,0,0,0,.94-1q5,.24,10,.55c1.88.23,3.76.5,5.63.78Q173.71,48.51,165.41,48.5Zm19.3,4.35.08,0a3.44,3.44,0,0,0,.79.14,3.09,3.09,0,0,1-1.53.21A1,1,0,0,1,184.71,52.85Zm.86-4h-.24c-1-.17-2-.34-3.07-.49l2.13.14c.13,0,.15-.2,0-.21q-8.89-1-17.89-1.56a2,2,0,0,0-.47-1.42c-.58-.67-1.55-.54-2.36-.6a1.06,1.06,0,0,0-1,.79,1.59,1.59,0,0,0,0,.43,3.68,3.68,0,0,0-.32.58c-3.43-.16-6.86-.24-10.3-.3a1,1,0,0,0,0-.35,1.18,1.18,0,0,0-1.66-.8,1.64,1.64,0,0,0-.89,1.11c-12.47-.1-25,.47-37.38,1.61,0,0,0,0,0,0a1.13,1.13,0,0,1-.1-.13c7.87-1.45,15.78-2.74,23.75-3.79.12,0,.1-.22,0-.21l-1.53.18c-3.89,0-7.79.11-11.69.33,0,0,0-.1-.11-.09-1.26.1-2.5.22-3.75.34-3.54.26-7.07.62-10.6,1.05l-4.4.48v-.06a1.8,1.8,0,0,0-.08-.21.84.84,0,0,0,0-1.07l3.78-.35a.37.37,0,0,0,.31.2c.39,0,.81,0,.95-.32A375.25,375.25,0,0,1,147,42.79l-.57,0s0,.08,0,.08l1.83-.09q12.45.22,24.9,1.14c11.45.84,22.87,2.08,34.26,3.58,1.62.31,3.24.62,4.85,1,5,1,10,2.19,15,3.35l-3.17-.29a.48.48,0,0,0-.09-.11,1.33,1.33,0,0,0-1.72-.06c-3.65-.33-7.3-.65-11-.93a.81.81,0,0,0-.42-.51,1.42,1.42,0,0,0-1.8.33Q197.33,49.39,185.57,48.9Zm36.25,3.92c-3.76-.23-7.53-.45-11.29-.65a1,1,0,0,0,.25-.49l.22-.2a1,1,0,0,0,.28-.43q5.28.41,10.56.88a1.06,1.06,0,0,0-.1.46A1.41,1.41,0,0,0,221.82,52.82ZM191.55,50l-1.18-.22c5.68.26,11.36.61,17,1a1,1,0,0,0-.39.73,1.08,1.08,0,0,0,0,.48l-6.6-.32Zm16.07,2.57a2.45,2.45,0,0,0,.54.18,2,2,0,0,0,1.1-.1q6.45.33,12.91.73a1.43,1.43,0,0,0,.86.42.79.79,0,0,0,.76-.33q7.23.43,14.44,1l2,.46a1.31,1.31,0,0,0-.06,1.28,1,1,0,0,0,1.09.56,2.81,2.81,0,0,0,1.78-1.07.36.36,0,0,0,0-.11c7.41,1.7,14.83,3.28,22.31,4.55-8.87-.7-17.75-1.38-26.62-2-3.87-.54-7.74-1.1-11.6-1.71-7.63-1.19-15.23-2.57-22.82-4ZM243.22,55a.87.87,0,0,0,0-.23q8.55.65,17.08,1.39,4.66.59,9.31,1.22c8.45,1.65,16.87,3.41,25.32,5.08l-6.66-.56-17.57-1.41C261.46,59,252.33,57.06,243.22,55Zm50.7,6.72a1.15,1.15,0,0,0,.72-.5q8.94,1.47,17.92,2.7l-14.3-1.19Zm.47-3.35a2.17,2.17,0,0,0-1.18-.15l-1.5-.19c.27-.22.52-.46.76-.63s.44-.27.66-.4l6.58,1.16q-.6.36-1.17.75Zm2.54-1.2,3.8.42-.33.17ZM301,58.41l5.32.94a5,5,0,0,0-.6.52l-5.91-.77C300.2,58.85,300.61,58.63,301,58.41Zm.67-.41a.25.25,0,0,0,.11-.27l5.88.65c-.25.17-.5.34-.74.52Zm5.74,1.54,4,.7a2.37,2.37,0,0,0-.09.36l-4.5-.58Zm.61-.45c.26-.2.53-.39.8-.58l9.75,1.08a10.82,10.82,0,0,0-2,.95l-1-.17a1.11,1.11,0,0,0-.61-.89,3.74,3.74,0,0,0-1.57-.45,1.77,1.77,0,0,0-1.62.69Zm8.91,2.12,3.44.6-3.6-.48A1,1,0,0,0,316.94,61.21Zm-59.89-14c20.63,3.89,41.21,8.12,61.86,11.85l-9.54-1c.28-.3-.12-.82-.48-.58s-.43.31-.65.46c-4.68-.5-9.36-1-14-1.5l.08,0c.46-.2,0-.83-.43-.65s-.68.36-1,.54L290.15,56l-1.15-.2c.58-.42,1.16-.84,1.75-1.25.27-.19-.08-.62-.36-.44-.79.52-1.6,1-2.4,1.52l-5-.85a.31.31,0,0,0-.42-.26l-.3.14-7.26-1.25a.29.29,0,0,0-.39-.14l-.1.06-2.47-.42-5-.86,1.2-1.42c.24-.29-.23-.72-.48-.43l-1.48,1.71-5.17-.89.42-.29c.09-.07,2.32-1.62,2.24-.77,0,.27.4.44.44.13.12-1-.81-1.16-1.55-.83a15,15,0,0,0-2.4,1.61l-6.86-1.18a9.75,9.75,0,0,1,1.11-1,11.18,11.18,0,0,1,2.33-1.26A.21.21,0,0,0,257.05,47.26Zm-4.68-.89,3.76.72a11.15,11.15,0,0,0-1.8.89,9.85,9.85,0,0,0-2.07,1.53L249.55,49a.18.18,0,0,0-.22-.07l-.06,0-.37-.06a13.29,13.29,0,0,1,3.3-2.2A.28.28,0,0,0,252.37,46.37Zm-.72-.13a12.24,12.24,0,0,0-3.84,2.5l-2.54-.44c.24-.15.47-.31.72-.45.52-.3,0-1-.48-.76s-1.06.63-1.57,1l-3.88-.67c.59-.36,1.2-.69,1.82-1,.31-.15.06-.64-.25-.51a26.73,26.73,0,0,0-2.72,1.3l-4.48-.77a10.53,10.53,0,0,1,2.77-1.63.32.32,0,0,0-.22-.59,12.3,12.3,0,0,0-3.6,2l-5.66-1c.65-.52,1.29-1,1.95-1.54.28-.22-.15-.65-.44-.44-.81.62-1.62,1.23-2.46,1.82L223,44.45l-1.57-.28a.34.34,0,0,0-.46-.29l-.31.16-2.43-.43a3.38,3.38,0,0,0,.11-.34,1.08,1.08,0,0,0-.49-1,4.34,4.34,0,0,0-3.12-.83,4.26,4.26,0,0,0-1.86.67,1.5,1.5,0,0,0-.46.49l-7.16-1.25.41-.34c.28-.23-.15-.66-.43-.44l-.81.64-5.85-1a15,15,0,0,1,2.11-1.7.23.23,0,0,0,.12-.22q11,1.32,22,3c0,.21.15.45.35.27l.21-.18C232.77,42.83,242.22,44.49,251.65,46.24ZM235.83,27.07a0,0,0,0,1,0,0l.56.52c1.31,1.14,6.4,4.29,8,6.59-5.43,1.35-11.11,3-15.84,5.95-.3.19,0,.73.3.63,5.38-1.68,10.53-4.13,15.87-6,.37.91,0,1.62-1.68,1.92a42.83,42.83,0,0,0-12.69,4.6.48.48,0,0,0-.25.3l-2.93-.46c1.14-.9,2.13-2,3.25-2.93a27.84,27.84,0,0,1,9.45-4.74c.35-.11.21-.75-.15-.69-4.61.75-11.22,3.79-13.4,8.23l-2.18-.34c4.87-4.22,9.13-8,15.72-9.76.16,0,.11-.34-.07-.3-6.1,1.38-13.09,4.4-16.6,9.92l-2.88-.45a62.51,62.51,0,0,1,6.55-5.91A30.38,30.38,0,0,1,235.47,30c.35-.11.18-.72-.17-.62-5.79,1.66-12.58,5.13-15.75,10.55L217,39.57c3-2.5,5.61-5.27,8.85-7.49A47.33,47.33,0,0,1,235.83,27.07ZM185.3,35.71a256.34,256.34,0,0,1,23.55-21.13c4.6-3.58,9.41-6.9,14.3-10.06.77-.49,4.48-2.16,4.77-2.81a14.5,14.5,0,0,0-1,3.73.3.3,0,0,0-.4-.17c-13,7.1-23.19,18.08-35.44,26.22-.16.11,0,.41.16.3,12.42-7.89,23-18.26,35.61-25.85,0,.25-.08.49-.11.74a16.54,16.54,0,0,0-.15,3.05c-6.5,1.48-12.18,5.33-17.48,9.22a239.22,239.22,0,0,0-20.19,16.26c-.17.15,0,.5.21.35C201.77,27,212.14,16,226.6,10.4c0,.25.06.49.09.74a.23.23,0,0,0-.26-.16h0a.13.13,0,0,0-.11.06c-11.36,6.1-23.09,13.51-31.92,23-.17.18,0,.56.25.37,10.47-8.15,20.35-16.33,32-22.92a.23.23,0,0,0,.11-.18,22,22,0,0,0,2.84,8c-3.77,1.33-7.13,4.11-10.35,6.32a54.39,54.39,0,0,0-12.75,11.5c-.25.34.21.81.53.49a86.21,86.21,0,0,1,10-9.14c3.51-2.71,8.4-6.78,12.94-8.63a32.81,32.81,0,0,0,5.41,6.63c-6.92,2.31-15,6.65-19.09,12.92l-4.51-.65c5.6-6.56,12-10.44,19.78-14.22.18-.08.1-.43-.09-.34-7.27,3.21-16.29,7.07-20.22,14.49q-6.19-.85-12.41-1.6c8.54-8.27,16.8-15.91,27.39-21.92.33-.18,0-.75-.32-.56C215.51,20.2,205,27.6,197.76,37l-1.85-.21c.22-.15.44-.32.67-.47s-.07-.6-.34-.43l-1.24.8c-3.23-.36-6.46-.7-9.71-1Zm-1.05.82,4,.38c-.65.38-1.29.78-1.91,1.2l-4.12-.65c.5-.34,1-.66,1.54-1Zm-1.47-.11c-.49.3-1,.6-1.45.92-2.31-.35-4.61-.7-6.93-1-3.37-.45-6.75-.8-10.13-1.09C170.45,35.51,176.63,35.92,182.78,36.42ZM161.29,35.3l2.48.18c5.75.51,11.49,1.25,17.21,2.11-.48.33-.95.68-1.41,1q-2.73-.37-5.46-.71l.79-.61c.27-.2-.1-.64-.37-.44l-1.27.94q-3-.36-6-.68c.19-.09,0-.41-.16-.35s-.47.16-.7.26l-1.83-.19-1.69-.15c0-.2-.21-.41-.4-.25l-.25.2-1.64-.15A5.75,5.75,0,0,0,161.29,35.3ZM160.09,37l1.53.14c-1,.81-2,1.63-3,2.51l-5.57-.38.27-.54a8.63,8.63,0,0,0,1-2.11c1,.05,2.09.11,3.13.18a1,1,0,0,0,1.16.9A2.81,2.81,0,0,0,160.09,37Zm-6.16-2.08c1.35,0,2.7.12,4,.2h0a1.17,1.17,0,0,0-.26.84.87.87,0,0,0-.19.37c-1.15-.08-2.3-.14-3.45-.19a.45.45,0,0,0-.36,0q-2.72-.13-5.43-.21a.33.33,0,0,0-.33,0c-1.07,0-2.15-.07-3.22-.08a.32.32,0,0,0-.41-.22l-.42.2c-2.29,0-4.58,0-6.87,0,0-.23-.3-.49-.5-.32l-.44.35a180.13,180.13,0,0,0-18.87,1.48,1.49,1.49,0,0,0-1.52-.46,1.45,1.45,0,0,0-.89.8q-4.44.66-8.83,1.57l.89-.94a.32.32,0,0,0-.1-.48,269.06,269.06,0,0,1,29.42-2.91Q145.06,34.68,153.93,34.88Zm-32.57.68c-6.25.6-12.48,1.44-18.69,2.46.2-.21-.16-.58-.42-.4s-.52.4-.79.59c-2.4.41-4.81.83-7.21,1.29.37-.34.74-.69,1.12-1C104,37.12,112.66,36.15,121.36,35.56Zm-29,3.4c.68-.12,1.36-.21,2-.32-.37.34-.74.7-1.11,1.06q-5.46,1.06-10.9,2.3c.33-.32.64-.66,1-1,.1-.09.06-.23,0-.33C86.27,40.06,89.28,39.47,92.32,39Zm-84,56.82a5.86,5.86,0,0,1-.3-.55c.8.26,1.59.49,2.31.69a3.29,3.29,0,0,0,.46.87C9.94,96.48,9.11,96.15,8.32,95.78Zm3.88,1.5a5.36,5.36,0,0,1-1.13-1.15l2.44.7a3.8,3.8,0,0,0,.42,1C13.35,97.64,12.77,97.47,12.2,97.28Zm2.81.8A4.57,4.57,0,0,1,14.19,97l3.54,1a2.62,2.62,0,0,0,.52.81C17.19,98.6,16.1,98.36,15,98.08Zm4.28,1a5.22,5.22,0,0,1-.67-.75l6,1.7C23.09,99.72,21.24,99.42,19.29,99Zm59.38.13c-.89.37-1.79.74-2.67,1.17a.27.27,0,0,0,.14.51l.4,0c-.42.36-.82.74-1.21,1.14-.73.52-1.44,1.07-2.13,1.66-1.17,1-1,2.44-1.57,3.9a18.51,18.51,0,0,1-1.51,3A5,5,0,0,1,71.31,107c.26-.32-.28-.73-.55-.43a5.43,5.43,0,0,0-1.4,4.94.83.83,0,0,0,.09.16l-.08.13-5.64-1.56q-3.43-1.19-6.86-2.42a2.91,2.91,0,0,0,.63-.16c.19-.08.09-.4-.1-.41h0l2.2-.63-1.64.77c-.38.17-.17.85.23.77.65-.13,1.28-.29,1.89-.46a1.19,1.19,0,0,0,.36.54c.52.47,1.72.5,1.72-.41,0-.2-.28-.34-.4-.14-.22.37-.86.19-1-.2v0C77.06,102.21,79,80.78,70.11,68.05c-.2-.28-.51.08-.35.34,4.75,7.59,6.93,16.08,4.07,24.8A18.3,18.3,0,0,1,67,102.35a4,4,0,0,0,.29-.29,8.88,8.88,0,0,0,2.22-4.81.28.28,0,0,0,0-.13,15.76,15.76,0,0,0,4.3-9.93,5.42,5.42,0,0,0,0,.57c0,.26.34.46.49.18,1.65-2.93-.15-7.32-2-9.68-.21-.27-.52.09-.35.34s.39.6.57.9a.24.24,0,0,0-.3,0c-.52.54-1,1.1-1.57,1.62s-1.23.9-1.17,1.54a.21.21,0,0,0,.23.18c.61-.07,1-.83,1.42-1.28s1-1.08,1.5-1.62a.28.28,0,0,0,.07-.17,12.3,12.3,0,0,1,1.18,3.41,17,17,0,0,1,0,3.91,12.63,12.63,0,0,0-1.12-5.51c-.15-.34-.65-.09-.52.24,3.1,7.82-2.27,13.3-7.25,18.47-.14.15,0,.54.21.4a19.46,19.46,0,0,0,3.15-2.36,8.61,8.61,0,0,1-2,3.21c-1.16,1.16-2.77,1.49-4,2.5a.28.28,0,0,0,.14.47,2.85,2.85,0,0,0,1,0,.71.71,0,0,1-.1.14c-.48.27-1,.52-1.47.77l-.16,0a.33.33,0,0,0-.47-.16l-.35.31c-.6.09-1.16.14-1.51.21-1.32.24-2.65.45-4,.72a2.31,2.31,0,0,1,.49-1.23c.22-.27-.17-.7-.42-.44a2.82,2.82,0,0,0-.82,1.87.37.37,0,0,0-.16.19l-3.2-1.15a0,0,0,0,1,0,0,.77.77,0,0,1,.54-1c.32-.1.08-.58-.22-.5a1.28,1.28,0,0,0-.94,1.26l-.9-.32c-1-.34-1.9-.63-2.85-.91a1.49,1.49,0,0,1,.31-.36c.27-.23-.15-.67-.42-.44a2.52,2.52,0,0,0-.51.62c-1.33-.38-2.67-.72-4-1a26,26,0,0,0,11.22-2.47c.31-.15.06-.67-.25-.6a79.31,79.31,0,0,1-11.59,2.08,3,3,0,0,1,.49-.91c.18-.2-.12-.54-.32-.34a2.93,2.93,0,0,0-.71,1.27c-1.1.07-2.22.09-3.37,0-2.12-.4-4.25-.75-6.38-1.09l-.48-.14L27.07,99.9a2.83,2.83,0,0,1-.25-.63,4.06,4.06,0,0,1,.05-2.73c.09-.26-.3-.53-.41-.25a4.83,4.83,0,0,0-.13,3.35l0,.06L25,99.32l.09,0a.15.15,0,0,0,0-.28,3.29,3.29,0,0,1-2-.92A2.22,2.22,0,0,1,23,95.35c.16-.23-.18-.58-.35-.34a2.87,2.87,0,0,0-.16,3.23,2.22,2.22,0,0,0,.4.48l-4.76-1.34A2.55,2.55,0,0,1,18.36,95c.15-.24-.21-.59-.37-.34a3.76,3.76,0,0,0-.49,2.52L16,96.78c-.6-.17-1.33-.34-2.14-.53a2.89,2.89,0,0,1,.22-1.93c.12-.26-.29-.52-.43-.24a3.88,3.88,0,0,0-.3,2l-2.63-.63a3.28,3.28,0,0,1,.18-2.91c.13-.21-.2-.48-.33-.25a4.46,4.46,0,0,0-.42,3c-.8-.21-1.61-.45-2.41-.72A4.08,4.08,0,0,1,8,91.3c.1-.2-.18-.47-.3-.25a5.21,5.21,0,0,0-.5,3.38c-.44-.15-.87-.32-1.29-.5a8.07,8.07,0,0,1-.64-3.13c0-.27-.39-.33-.41,0a6.68,6.68,0,0,0,.46,2.9c-.39-.18-.78-.38-1.14-.59A9.92,9.92,0,0,1,3,91.72c0-.14-.05-.28-.07-.41a8.6,8.6,0,0,1,0-1.83c0-.21-.34-.34-.38-.11a10.2,10.2,0,0,0-.14,1.51A7.27,7.27,0,0,1,1.68,89c-.1-.4-.62-.26-.62.12a7.33,7.33,0,0,0,.1,1.07A5,5,0,0,1,.7,87,48.51,48.51,0,0,0,23.64,90.6c2.72.46,4.87.59,7.23-1.07a15.79,15.79,0,0,0,5.56,4c.21.08.26-.27.12-.37-5.63-3.62-8.92-9.48-14.08-13.64-.32-.26-.65-.5-1-.74a26.33,26.33,0,0,1,2.85,1.72C29.09,83.7,28.82,89,35.39,89.1a.52.52,0,0,0,.18,0c.41.85.82,1.69,1.25,2.52a.25.25,0,0,0,.47-.19,34.31,34.31,0,0,0-3.9-8.83c.71-.67,1.38-1.37,2.14-2a14.23,14.23,0,0,1,4-2.18c.17-.06.08-.38-.09-.31a14,14,0,0,0-6.29,4.05,27.83,27.83,0,0,0-1.79-2.51A11,11,0,0,0,37.14,79c.12-.06.06-.29-.08-.25a15.49,15.49,0,0,1-6,.5s0,0-.08,0l-.24-.3c1.77,0,3.55,0,5.31-.06a.08.08,0,0,0,0-.16c-1.85-.1-3.71-.07-5.56-.06-.29-.33-.57-.67-.87-1a16.44,16.44,0,0,0-6.76-4,38.24,38.24,0,0,1-4.68-1.93c.42-.64.82-1.3,1.22-2a.53.53,0,0,0,.17-.19.22.22,0,0,0,0-.14c.06-.09.12-.18.17-.27a.79.79,0,0,0,.87.07.56.56,0,0,0,.15-.93l.46-.38c.37-.3,1.06-.51,1.07-1,0-.1-.08-.23-.19-.23-.52,0-.72.4-1.07.72l-.29.25c.25-.37.5-.74.77-1.1a37.9,37.9,0,0,1,4.24-4.71,3.17,3.17,0,0,1,.3.34c-.63.19-.32,1.27.42,1.27l.11,0a.54.54,0,0,0,.24.23.15.15,0,0,0,.17,0c.31-.26.14-.66-.06-1a.67.67,0,0,0-.12-.2,1.42,1.42,0,0,0-.11-.18,3.6,3.6,0,0,0-.57-.76c.36-.1.71-.28.78-.61a.19.19,0,0,0,0-.13l.22-.2c.11-.1,0-.32-.18-.21l-.26.24a1.54,1.54,0,0,0-1.23.34.25.25,0,0,0-.3.38.37.37,0,0,0,.33.28l0,0a38.65,38.65,0,0,0-6,6.94.5.5,0,0,0-.58-.48c-1,.24-.61,1.24-.11,1.62a18.31,18.31,0,0,0-1,1.86c-1-.52-2-1.07-3-1.69A25,25,0,0,1,20,64.29c.62.31,1.44-.52.81-1.06l-.36-.3a.64.64,0,0,0-1.06.43c-.12-.18-.43-.27-.52,0a5.32,5.32,0,0,0-.22.78c0,.13.13.27.24.16a4.31,4.31,0,0,0,.51-.62l0,0a.71.71,0,0,0,.13.24,2.75,2.75,0,0,0,.22.26.56.56,0,0,0,.19.16,24.19,24.19,0,0,0-5.28,5.5c-.5-.32-1-.66-1.47-1a.53.53,0,0,0-.54-.39l-.07,0c.72-.83,1.43-1.68,2.15-2.5,0-.06,0-.17-.08-.1-.73.83-1.47,1.66-2.2,2.5-.31-.24-.62-.47-.93-.73s-.54.25-.32.46.56.51.84.76c-.58.67-1.17,1.34-1.72,2,0,0,0,.1.06.06.61-.64,1.19-1.32,1.77-2l.1.08a2.75,2.75,0,0,0,.12,2.42.46.46,0,0,0,.47.24,2.91,2.91,0,0,0,.84-.16c-.13.23-.25.46-.37.7,0,0,0,.09.07,0,.32-.54.65-1.06,1-1.58l.45.29a.25.25,0,0,0,.28.18c.77.5,1.56,1,2.38,1.4,0,.07-.06.13-.08.2s.06.19.12.1.09-.14.14-.21a31.53,31.53,0,0,0,5,2,15,15,0,0,1,6.56,4.09c-.18,0-.35,0-.53,0s-.16.28,0,.28.53,0,.8,0A36.51,36.51,0,0,1,35,87.84c-1.79-.62-3.52-1.16-4.65-3a14.7,14.7,0,0,0-1.46-2.39,31.65,31.65,0,0,0-7.61-5.67c-2.21-1.31-4.69-.9-7-1.63l-.66-.25a6.24,6.24,0,0,1-.85-.44,16.34,16.34,0,0,0-2.49-1.66c-1.32-.5-2.74-.59-4.08-1a22.9,22.9,0,0,1-2.63-1.58.1.1,0,0,0-.09,0c1.33-.66,2.67-1.3,4-1.94a27.63,27.63,0,0,0-2.14,2c-.09.1,0,.31.15.24a10.76,10.76,0,0,0,2.22-1.83c.34-.33.66-.68,1-1l.57-.27a.83.83,0,0,0,.55.25c.43,0,.49-.36.43-.71l1.67-.79a7.8,7.8,0,0,0-2.52,2.56c0,.08.06.18.12.1a11.29,11.29,0,0,1,4-3.23.12.12,0,0,0,0-.19q9.33-4.36,18.73-8.33L31,58.77a2.64,2.64,0,0,0-.57.53.16.16,0,0,0-.12,0l-.09,0a.27.27,0,0,0-.14.25l0,.15a.41.41,0,0,0,.07.15Q28.62,62,27.05,64.19h0a.37.37,0,0,0-.14,0l0,0,0,0a25.72,25.72,0,0,1-2.11,2.55.36.36,0,0,0,.08.54c-.43.63-.86,1.26-1.27,1.9-.07.09.05.24.14.13.51-.63,1-1.27,1.49-1.92.82.07,1.9-.46,1.74-1.42,0-.11-.17-.24-.29-.16l-.56.39c.31-.44.64-.87,1-1.29.15,0,.31,0,.31-.2a1.15,1.15,0,0,0,0-.19h0a.22.22,0,0,0,0-.13c1.06-1.47,2.09-2.94,3.13-4.42a.18.18,0,0,0,.14-.1,1.78,1.78,0,0,1,.63-.7,2.72,2.72,0,0,1,.88-.27c.25-.09.16-.44-.06-.49a1,1,0,0,0-.49,0c.38-.54.76-1.09,1.14-1.62q4.34-1.8,8.69-3.49a18.18,18.18,0,0,0-4.82,7c0,.12.12.25.21.12,1.07-1.63,1.94-3.32,3.16-4.86.21-.27.44-.51.66-.76a.66.66,0,0,0,.1.3.63.63,0,0,0,1.13-.37.36.36,0,0,0-.32-.3.21.21,0,0,0-.13-.15.69.69,0,0,0-.32,0c.46-.48.93-.94,1.43-1.39,1.46-.56,2.93-1.1,4.4-1.64a44.84,44.84,0,0,0-7.63,9.2h0a.19.19,0,0,0-.14.23c-.14.26-.3.51-.44.76s.09.32.2.19l.55-.69h0c.35-.08.53-.12.71-.46a.87.87,0,0,0,.07-.57c1.78-2.25,3.54-4.45,5.44-6.56a.61.61,0,0,0,.65.3.28.28,0,0,0,.07-.51v-.11a.48.48,0,0,0-.19-.27c.62-.67,1.24-1.33,1.89-2q2.87-1,5.75-2c-.54.52-1.09,1.06-1.64,1.61a.78.78,0,0,0-.22,0c-.18,0-.21.26-.16.39h0c-.62.63-1.23,1.26-1.83,1.91-.53,0-1.06,0-1.27-.46s-.77-.2-.61.22a1.6,1.6,0,0,0,1.17,1A40.51,40.51,0,0,0,44,60.83c-.42.13-.83.28-1.23.44a3.48,3.48,0,0,0-2.06-1.36c-.28-.07-.43.23-.3.46a3.1,3.1,0,0,0,1.48,1.41.34.34,0,0,0,0,.2l0,.13a.34.34,0,0,0,.29.25c.35,0,.51-.1.58-.34A3.45,3.45,0,0,0,44,62l2.6-.56a2.56,2.56,0,0,0,0,.27.52.52,0,0,0,.32.55c-.21.32-.43.64-.63,1-.08.12.08.28.18.15.27-.36.55-.71.83-1.07a.45.45,0,0,0,.31-.28,2.77,2.77,0,0,0,.1-.26c.16-.21.34-.42.5-.64l1.59-.3h0a.65.65,0,0,0,.16.32c0-.08,0-.06,0,.05a.3.3,0,0,0,.18.3.55.55,0,0,0,.42,0,1.44,1.44,0,0,0-.15.61.48.48,0,0,0,.54.45c-.13.21-.26.4-.38.61s.06.24.13.13c.43-.61.87-1.2,1.31-1.8a1.32,1.32,0,0,0,.59,0,1.72,1.72,0,0,0,1.11-1.86.36.36,0,0,0-.14-.26,74.19,74.19,0,0,1,6.76-7.74c.06.6,1.1.72,1.05.06l0-.29a.51.51,0,0,0-.36-.44c.74-.7,1.48-1.39,2.25-2.07.17-.14,0-.46-.22-.31a69.16,69.16,0,0,0-6.75,6.73.49.49,0,0,0-.5-.66.12.12,0,0,0,0-.15.27.27,0,0,0-.32-.24.61.61,0,0,0-.43.71.76.76,0,0,0,.87.6.52.52,0,0,0,.2-.06q-1.76,2-3.32,4.24a1.2,1.2,0,0,1-.51.24.47.47,0,0,0-.51-.53l-1.42.18s0,0-.07,0a.48.48,0,0,0-.54.12l-.45.05c.59-.72,1.18-1.43,1.78-2.14a3,3,0,0,0,1,.49c.67.18,1-.76.46-1.12-.14-.1-.38-.21-.59-.33A71.31,71.31,0,0,1,57.34,51a.41.41,0,0,0,.22,0l.24.08a.75.75,0,0,0,.57-.06.68.68,0,0,0,.32-.82.88.88,0,0,0-.17-.28c.76-.66,1.54-1.32,2.34-2,.19-.15-.07-.48-.26-.32-.84.66-1.66,1.34-2.47,2a.85.85,0,0,0-.22,0,.67.67,0,0,0-.68.49l0,0a.38.38,0,0,0-.17.51,66.26,66.26,0,0,0-5.31,5.29.51.51,0,0,0-.41-.22c-.07-.45-.81-.77-1.06-.29a1.52,1.52,0,0,0-.15.63,4.73,4.73,0,0,1-1.32-.47.24.24,0,0,0-.15,0l1.59-2a1.5,1.5,0,0,0,1-.41c.13-.14,0-.37-.16-.41l-.16,0c.28-.33.58-.65.87-1,.08.38.6.69.91.38a1,1,0,0,0,0-1.44c.68-.73,1.38-1.45,2.11-2.14,0,0,0,0,0,0a257.14,257.14,0,0,1,28-7.77c-.53.48-1,1-1.55,1.47-1.48.34-3,.69-4.43,1a.19.19,0,0,0-.27,0l-.12.12q-2.66.65-5.31,1.34l.07-.22c.08-.21-.25-.4-.34-.16a4.61,4.61,0,0,1-.22.51c-.92.24-1.85.47-2.77.72,0,0-.06,0-.08.08l-.8.19c-.16,0-.11.31,0,.27,1.1-.24,2.21-.45,3.31-.68a13.28,13.28,0,0,1-.94,1.45l-2.12.65c-.39-.2-.78-.37-1.18-.56a3.17,3.17,0,0,1-.21-.91c0-.27-.44-.28-.44,0a4.5,4.5,0,0,0,.07.63l-1.26-.6c-.31-.14-.45.37-.21.52l.17.11a3.59,3.59,0,0,0-.63,1.36c0,.1.1.19.18.12A3.14,3.14,0,0,0,64.5,47l.44.2c.27.15.53.31.79.47a4.78,4.78,0,0,0-.32.5.16.16,0,0,0-.07.17,1,1,0,0,0-.08.65h0l-1.51,1.64a10,10,0,0,0-1.57.3c-.7.17-.39,1.11.18,1.23C60.7,54,59.1,55.83,57.58,57.78a3.49,3.49,0,0,1,0-1.11c.14-.63-.87-1.12-1-.43a5.32,5.32,0,0,0-.1,1.38.64.64,0,0,0-.22.19l-.12.31a.72.72,0,0,0,.34.83c0,.06,0,.11.07.17-1.17,1.59-2.29,3.21-3.3,4.88-.07.11.08.31.18.19,1.18-1.49,2.33-3,3.49-4.49a3.84,3.84,0,0,0,1.61,1.2c1.5.61,3-.62,3.46-2,.11-.29-.22-.69-.53-.53-.68.33-1.29.85-2,1.12a1.53,1.53,0,0,1-1.21,0,.58.58,0,0,0-.1-.23,4,4,0,0,1-.37-.67c1.72-2.2,3.45-4.37,5.27-6.49a3.66,3.66,0,0,0,2.24-.79c.18-.19,0-.49-.18-.57a2.51,2.51,0,0,0-.72-.16c.39-.43.77-.87,1.17-1.3,0,0,0,0,0-.07a.38.38,0,0,0,.16,0c.12,0,.14-.14.06-.21-.26-.17-.24-.46-.11-.75l.42-.1a1,1,0,0,0,.6.44c.18,0,.24-.15.21-.29s0,0,0,0l1.94,1.15-.19.07c-.89.07-2,.26-2.1-.78,0-.2-.33-.25-.34,0s0,.69,0,1a.25.25,0,0,0,.24.25c.89,0,2.4-.43,2.38.77a.31.31,0,0,0,.34.31c.63-.12,1.26-.22,1.9-.31l.55.33a5,5,0,0,0-.18.92.36.36,0,0,0,.36.39h.67a49.4,49.4,0,0,0-3.1,3.89,4,4,0,0,0-1-.47v0c.36-.68-.63-1.54-1.19-.93A4.42,4.42,0,0,0,66.36,56c-.4.8.75,1.38,1.35.91a3.43,3.43,0,0,0,.76.71A30,30,0,0,0,65,64.42c0,.12.13.26.21.13,1.2-2.31,2.39-4.54,3.73-6.68l0,0a.74.74,0,0,0,.84-1.21s0,0-.08-.07a40.63,40.63,0,0,1,3.1-4.08.14.14,0,0,0,0-.11h.83l.42.27-.31.52h-.41c-.27,0-.25.4,0,.43h.18l-.27.47a.16.16,0,0,0-.07.11c-.07.12-.14.24-.2.36s.15.46.36.46a2,2,0,0,0,1.54-.65c.15.17.31.33.47.5A67.49,67.49,0,0,0,67.9,65c-.07.13.08.28.18.16,1.31-1.65,2.55-3.35,3.81-5a4.56,4.56,0,0,1-.08.82.79.79,0,0,0,.6.91,1.37,1.37,0,0,0,1.72-1,.43.43,0,0,0-.33-.45c-.26,0-.57,0-.87,0,0-.07,0-.15,0-.22a.63.63,0,0,0-.64-.6c1.11-1.49,2.24-3,3.44-4.38q1.49,1.59,3,3.16c-.28.31-.56.63-.83,1a.63.63,0,0,0-.59-.25,3.89,3.89,0,0,1-1.18,0,.34.34,0,0,0-.36.48,1.55,1.55,0,0,0,1.23.9,27.92,27.92,0,0,0-2.21,3.3c-.08.12.08.28.18.15q1.36-1.83,2.77-3.59A.65.65,0,0,0,78,60c.33-.41.69-.81,1-1.21l1.56,1.66-.06,0c-.14,0-.1.29,0,.25l.22-.05c.57.61,1.13,1.2,1.69,1.81,2.56,2.8,3.73,5.79,4.85,9.35a13.79,13.79,0,0,0,1.43,2.94c.07.12.14.23.2.35a12,12,0,0,0-.61,2.35c-.09.65.67,1.22,1.2.8.1-.07.09-.29-.07-.28-.52,0-.29-1.16-.06-2a9.09,9.09,0,0,1,1,4.19l-.67.72c-.26.27,0,.67.38.62l.2,0c-.55,4.14-3.83,7.21-6.43,10.2-.07.08.05.24.14.16a26.43,26.43,0,0,0,5.1-6.38A25.81,25.81,0,0,0,89,89.06a.36.36,0,0,0,.11.29c-.31.63-.65,1.24-1,1.84C85.85,94.87,82.06,96.79,78.67,99.16ZM14.25,70.44l-.33.55a.2.2,0,0,0-.11-.11A3,3,0,0,0,13,70.7a1.83,1.83,0,0,1,0-1.22Q13.61,70,14.25,70.44Zm33.3-11.55a4.48,4.48,0,0,0-.49.84c-.24,0-.51.16-.45.44h0q-1,.2-1.92.45c1.26-1.62,2.5-3.25,3.76-4.84,0,1,1,1.27,1.87,1.11a2.16,2.16,0,0,0,.24.35c-.71.85-1.39,1.73-2.06,2.62l-.44.06a5.28,5.28,0,0,0,0-.8C48.06,58.89,47.74,58.65,47.55,58.89ZM91.77,81l-1-.1c.41-.54.84-1.07,1.28-1.59C92,79.84,91.87,80.4,91.77,81Zm.51.26a1.92,1.92,0,0,1,.88.25,5.18,5.18,0,0,1-.4.73,15.15,15.15,0,0,1-.9,1.31C92,82.76,92.16,82,92.28,81.23Zm-.73.08.16,0c-.21,1.13-.47,2.24-.78,3.34-.22.23-.44.46-.68.68a.41.41,0,0,0,.17.71h.08c-.22.67-.46,1.32-.73,2a16.77,16.77,0,0,0-.17-2.56.2.2,0,0,0-.3-.17,12.58,12.58,0,0,0,1.3-3.83C90.91,81.38,91.23,81.34,91.55,81.31Zm-.49,8.09-.46.44c.09-.3-.37-.58-.55-.27a20.85,20.85,0,0,1-2.86,3.81,17.34,17.34,0,0,0,2.24-3.09,21.85,21.85,0,0,0,1.77-4.2,2,2,0,0,0,1.65-.87c.11-.15-.07-.38-.24-.27a1.91,1.91,0,0,1-1.2.42c0-.05,0-.1,0-.15a10.78,10.78,0,0,0,2.14-4c0-.07,0-.2-.12-.19a11.22,11.22,0,0,1-1.16,0c.33-2.21.5-4.44.66-6.63A19.19,19.19,0,0,1,91.06,89.4Zm-.21-19.9a.27.27,0,0,0,.07-.18c.25.48.49,1,.73,1.47a24.56,24.56,0,0,1,1,2.65c-.15,1.7-.31,3.42-.55,5.14a.2.2,0,0,0-.25,0c-.37.43-.77.83-1.16,1.24a9.39,9.39,0,0,0-1.15-4.4c0-.17.09-.3.11-.35.2-.74.42-1.47.63-2.21.08-.28-.36-.54-.46-.23-.2.64-.46,1.29-.7,1.95a48.48,48.48,0,0,1-2.26-5.74,2.92,2.92,0,0,0,2.19-.2c.52-.22.88,0,1.09.74a8.35,8.35,0,0,0-.87.67A6.79,6.79,0,0,0,88,71.6.36.36,0,0,0,88,72c0,.09.1.18.16.27a.39.39,0,0,0,.49.17c.38-.18.36-.18.46-.6a.17.17,0,0,0-.28-.16C89.22,71.28,90.25,70,90.85,69.5Zm-2-3.63c.57.82,1.09,1.68,1.59,2.56-.73-.44-2.05,0-2.89-.06A5.48,5.48,0,0,0,88.84,65.87Zm-1.06-1.46c.25.33.5.68.75,1a5.22,5.22,0,0,1-1.88,2.8,18.58,18.58,0,0,0-1.73-3.49,33.33,33.33,0,0,0-3.43-4.24L83.77,60c.34.33.69.65,1,1a7.15,7.15,0,0,1-1.26,1.19.33.33,0,0,0,.16.58,3.67,3.67,0,0,0,2.29-.5c.34.37.65.77,1,1.15-.38.42-.75.84-1.1,1.28s.2.66.5.48C86.82,64.88,87.3,64.65,87.78,64.41Zm-2.63-3.06c.21.21.41.42.61.64a5,5,0,0,1-1.26.18A5.71,5.71,0,0,0,85.15,61.35Zm1.52,0c-.31-.35-.61-.72-.94-1.06l.18-.4c.07-.21-.24-.39-.34-.16s-.09.17-.13.26c-.09-.1-.19-.18-.29-.28,7.75-1.69,15.54-3.12,23.39-4.19-.47,1-.55,2.1.43,2.56Q97.78,59.34,86.67,61.32Zm23.72-5.51a0,0,0,0,1,0,0c0-.32-.56-.46-.62-.08a10.75,10.75,0,0,0-.14,1.38c-.68-.15.07-1.35.37-1.78l.8-.11A2.73,2.73,0,0,0,110.39,55.81Zm3,1.75a2.26,2.26,0,0,0,.77-2.39l.1-.16a.81.81,0,0,0,.08-.25c5.3-.6,10.63-1,16-1.26,14.45-.61,28.89.53,43.29,1.66A521.73,521.73,0,0,0,113.42,57.56Zm68.44-2.25c-15.53-1.2-31.07-2.38-46.66-2.12q-10.45.2-20.91,1.24a.5.5,0,0,0-.33-.27,2.2,2.2,0,0,0-.36,0,3,3,0,0,0-3.92-.12,3.88,3.88,0,0,0-.9,1,216.82,216.82,0,0,0-24,4.33c-.48-.46-1-.92-1.44-1.37a.83.83,0,0,0,.07-.93c10.71-2.23,21.47-3.92,32.24-5.15q18.22-.73,36.46-.73a.31.31,0,0,0-.07.4l-.36.23c-.37.27-.06.9.37.86a3.56,3.56,0,0,0,.65-.13s.05.08.08.11c.28.33,1.34.2,1.71.16a2.09,2.09,0,0,0,1.55-.82.39.39,0,0,0-.15-.6,4.48,4.48,0,0,0-.53-.21q13.47,0,26.94.4a2.53,2.53,0,0,0-.18.37l-.26.08a.43.43,0,0,0-.31.33,11.49,11.49,0,0,0-.09,1.18.49.49,0,0,0,.37.49c3,.85,7.4,1.12,8.63-2.2,3.67.13,7.34.27,11,.44,8.53,1.6,17.07,3.18,25.65,4.53,2,.31,4,.62,6,.91-14.21-.94-28.42-1.72-42.66-2.18Q186.18,55.41,181.86,55.31Zm11.22.85c15.85.55,31.69,1.51,47.52,2.65q8,1.13,16.1,2.1Q224.89,58.53,193.08,56.16Zm97.44,7.27L275.31,62.3Q262.08,61,248.89,59.42q12.74,1,25.47,2c1.68.22,3.35.42,5,.59a.1.1,0,0,0,.08-.17l1.94.15,19.12,1.58.49.1a.09.09,0,0,0,.1-.05q9.51.8,19,1.62a1.33,1.33,0,0,0,.5.4Q305.6,64.56,290.52,63.43Zm30.79.2a2.64,2.64,0,0,0,.29.21l-.13.08-.12,0a.69.69,0,0,0-.17-.1,1,1,0,0,0-.91.14l-25-3.52h0a1.07,1.07,0,0,0,.28-.9l1.91.21a.39.39,0,0,0,.21.69,1.71,1.71,0,0,0,1.54-.5l6.09.66c-.1.74,1.15,1.29,1.31.45a.26.26,0,0,0-.37-.27c-.09,0-.13,0-.11-.09l5.22.56a3.17,3.17,0,0,0,.12.44,1.66,1.66,0,0,0,.73.84,1.49,1.49,0,0,0,1.35.11.71.71,0,0,0,.49-.61,2.53,2.53,0,0,0,0-.49l1.06.12a8,8,0,0,0-.77.77c-.27.31.1.65.41.64a11.34,11.34,0,0,0,1.75-.09c.22,0,.18-.39,0-.43s-.61-.12-.92-.17c.21-.2.42-.41.64-.6l3.24.36,2.8.34-.81.45A.43.43,0,0,0,321.31,63.63Zm2,2.2a.68.68,0,0,0,.27-.29l3.5.3.65.08,3.23.46Zm14.66-.6a1.21,1.21,0,0,0-.07.49l-.07,0a.92.92,0,0,0-1.21.33c-1.49-.14-3-.26-4.47-.39L324,64.51s0-.05,0-.07a.8.8,0,0,0-.36-.61l.22-.19a.24.24,0,0,0-.26-.37,1.6,1.6,0,0,1-1.17.08l1.14-.69,4.22.51a8.79,8.79,0,0,0-.74.6.43.43,0,0,0,.39.72c.43-.06.87-.07,1.3-.17.24,0,.16-.37,0-.42l-.25,0,.74-.5,4.9.85c-.13.09-.25.19-.37.29-.34.32,0,.77.4.73,1.1-.11,2.21-.2,3.29-.41l0,0,.64.11A1.69,1.69,0,0,0,338,65.23Zm-1-1.5-.28,0a5.31,5.31,0,0,1,.6-.22c.51-.16.15-.88-.32-.74a8.31,8.31,0,0,0-1.81.78l-3.63-.42-1.4-.24c.19-.12.38-.24.58-.35.52-.27,0-1-.47-.75s-1,.55-1.52.86L324.82,62c.71-.41,1.42-.81,2.15-1.19a.22.22,0,0,0,.13-.22q8.13,1.39,16.29,2.65a5.65,5.65,0,0,0-1.32.91.41.41,0,0,0-.12.21Zm15,3.68-11.66-1.06a.76.76,0,0,0,.58-.39.83.83,0,0,0,.08-.58c3.69.64,7.39,1.26,11.08,1.89C352,67.31,352,67.36,351.93,67.41Zm8.39.76L354,67.05a1.31,1.31,0,0,0-.72-.32,1.46,1.46,0,0,0-.6.09c-4.24-.75-8.47-1.51-12.71-2.25,7.67,1,15.34,2,23,2.91a1,1,0,0,0,.09,1Zm3.09-1.35Q360,66.4,356.56,66a.14.14,0,0,0-.1-.08,1.67,1.67,0,0,0-.3-.08,3.92,3.92,0,0,1,1.22-.68q3.45.45,6.91.87A5.57,5.57,0,0,0,363.41,66.82Zm.92.82,1.89.23-1,.14A.64.64,0,0,1,364.33,67.64Zm7,1.56L366,68.7a16.34,16.34,0,0,0,2.37-.57l3.31.39C371.52,68.74,371.39,69,371.29,69.2Zm-1.53-1.6c.24-.11.5-.21.74-.33s0-.34-.13-.3c-.63.17-1.25.33-1.88.47l-4-.5.36-.33c.19-.17.39-.3.59-.45,1.6.19,3.21.38,4.82.55l.26,0c.19.22.69.59.94.42l.77-.26.73,0a6.08,6.08,0,0,0-.88,1Zm4,1.4a4.68,4.68,0,0,1-1.29.09c.08-.15.17-.3.26-.44q5.54.66,11.08,1.24c-3.3-.16-6.6-.34-9.9-.52C374,69.25,374,69,373.73,69Zm16.47,2a.26.26,0,0,0-.15-.09l-3-.25h0l-4.16-.39,1.16,0q3,.11,5.94.17C390,70.69,390.12,70.86,390.2,71Zm-2.83-3.92.36-.05c.25.33.51.67.74,1l-.82-.46C387.37,67.45,387.31,67.28,387.37,67.12Zm-2.88.2c.69,0,1.38-.06,2.06-.12v.09a3.79,3.79,0,0,1-2.12.51A2.52,2.52,0,0,1,384.49,67.32Zm-.7,0a2.77,2.77,0,0,0-.06.81.37.37,0,0,0,.31.3,3.68,3.68,0,0,0,2.6-.79.13.13,0,0,0,0,.06c.25.62,1.37,1,1.88,1.29l.84.49c.14.24.28.47.41.71L386.29,70a.18.18,0,0,0-.14-.19q-2.59-.39-5.19-.75a.72.72,0,0,0,.35-.34c.07-.14-.11-.35-.25-.24-.32.27-.71,0-.82-.35a.89.89,0,0,1,.3-.78Zm-81.31,55.29c-2.74-4.28-6-8.23-8.75-12.54-.25-.39-.74,0-.51.39,2.64,4.29,5.39,8.9,8.95,12.53l-.27.33c-1.11,1.44-2.12,2.94-3.08,4.48a.1.1,0,0,0,0-.07c-3.47-4.75-7.21-9.27-10.52-14.15-.19-.28-.5.07-.34.32A91,91,0,0,0,298.55,128a.16.16,0,0,0,.14,0c-.6,1-1.18,1.93-1.75,2.92-.06.11-.19.43-.36.83-2.15-3.33-3.94-6.8-5.81-10.34-1.22-2.29-2.54-5.65-5.36-6.13-.13,0-.16.2-.05.24,3.59,1.28,5.45,7.55,7,10.67a37.94,37.94,0,0,0,3.83,6.33c-.44.86-1,1.64-1.56,1.12a35.55,35.55,0,0,1-3.36-3.79c-1.19-5.2-4.5-10.19-7.88-14.12-.13-.15-.3.08-.19.2a41.1,41.1,0,0,1,6.83,12.29l-.63-.86c-2.83-3.95-4.12-10.18-8.69-12.5,4.8-1.86,9.52-3.93,14.22-6,2,4.14,5.07,8.15,9.11,10.32.18.09.32-.17.19-.29-3.42-3.22-6.45-6.27-8.61-10.34l2-.91a1.77,1.77,0,0,0,.05.52.17.17,0,0,0,.29.07,4.26,4.26,0,0,0,.44-.94l.19-.09c2.21,3.65,4.79,7.85,8.23,10.39C305.34,119.18,303.87,120.85,302.48,122.62Zm4.73-5.43c-1.29-1.86-3-3.47-4.4-5.25-1.28-1.62-2.47-3.29-3.59-5l3.83-1.72c1.12,3,3.06,6.19,5.95,7.73.17.09.3-.15.18-.28-2.31-2.4-4.33-4.58-5.53-7.71l2.48-1.09c.94,3.32,2.74,7.17,5.67,8.94Q309.41,114.89,307.21,117.19Zm9.58-8.38a28.83,28.83,0,0,1-2.55-2.63,8.22,8.22,0,0,1-1.4-4.34c0-.48-.76-.66-.75-.12.06,2.58,1.43,6.48,4.12,7.52-1.41,1.05-2.77,2.14-4.09,3.29,0,0,0-.06,0-.09-.91-1.4-2.12-2.57-3-4a19.48,19.48,0,0,1-2.24-4.91c.95-.42,1.9-.83,2.86-1.23.11,3,1.54,7,4.56,8.15.22.09.39-.21.24-.38a35.82,35.82,0,0,1-2.7-3.19,9.93,9.93,0,0,1-1.47-4.8s0,0,0,0l3-1.24,1.47-.57a.75.75,0,0,0,0,.16,6.71,6.71,0,0,0,4.48,6.74C318.37,107.68,317.57,108.24,316.79,108.81Zm7.7-8a3.11,3.11,0,0,0,1.88,1.84c.2.06.23-.23.11-.33a9.1,9.1,0,0,1-.84-.78,10,10,0,0,0,1.88.81c-.95.46-1.88,1-2.79,1.46a11.57,11.57,0,0,0-1.17-1.43,10.57,10.57,0,0,1-.92-1.37,6.42,6.42,0,0,1-.53-.91.27.27,0,0,0,.25-.34c-.19-1-1.29-.39-.92.51a10.46,10.46,0,0,0,1.37,2.47,6.13,6.13,0,0,0,1.26,1.44l-1.27.73a16.81,16.81,0,0,1-1.4-1.4,5.66,5.66,0,0,1-.9-4,.37.37,0,1,0-.73-.12,6.2,6.2,0,0,0,.54,4,6.92,6.92,0,0,0,1.55,2.06l-1.7,1.07a9.05,9.05,0,0,1-3.15-1.87,5.65,5.65,0,0,1-1.51-4.14.41.41,0,0,0-.3-.42c2.18-.86,4.38-1.68,6.61-2.42a.5.5,0,0,0,.1.39A11.51,11.51,0,0,0,324.49,100.78Zm54.36-.09a1.29,1.29,0,0,1,1.22-.57h0a14.68,14.68,0,0,1-2-.14c-.1,0-.14.1-.13.18s0,.15,0,.23a50.1,50.1,0,0,1-6.4-3.18c5.11,1.62,10.23,3.13,15.64,3.43C384.66,102,381.79,101.69,378.85,100.69ZM401,117.84h-1a.85.85,0,0,0,.06-.4c0-.38.5-.41.88-.39A1.05,1.05,0,0,1,401,117.84Zm-6.43-41.19.68-.05c.16.66.27,1.33.37,2-.3.06-.6.1-.89.17,0,0,0,0,0,0C394.68,78.06,394.64,77.35,394.58,76.65Zm.1,5.4c.05-1,.06-2,0-2.92a.24.24,0,0,0,.09,0l.89-.1a22.52,22.52,0,0,1,.19,3Zm1.84,6A54.3,54.3,0,0,1,405,88a85.44,85.44,0,0,1,8.81,1.67.16.16,0,0,0,.1,0c0,2.18,0,4.36.13,6.55a59.79,59.79,0,0,0-18.36-5.09A32,32,0,0,0,396.52,88Zm18-8.83c-.12,1-.22,2-.31,3q-.3,3.61-.34,7.24s0,0,0,0c-5.2-2.31-11.59-2.64-17.26-1.81.08-.38.16-.76.22-1.15a23.9,23.9,0,0,0,.32-3.85c4.64.22,9.31.63,13.93.51.18,0,.19-.29,0-.32a70.61,70.61,0,0,0-14-.77,26.83,26.83,0,0,0-.2-3.08,81.57,81.57,0,0,1,8.27-.5A70.88,70.88,0,0,1,414.54,79.21Zm-8-2.71a1.06,1.06,0,0,0,.15-.28.19.19,0,0,0,0-.13l1.07,0a.63.63,0,0,1,0,.3C407.72,76.71,407.05,76.64,406.54,76.5Zm-9.67,1.87c-.09-.62-.19-1.24-.32-1.86,2.52-.17,5-.26,7.54-.34a.52.52,0,0,0,.16.41,2,2,0,0,0,.72.4,2.88,2.88,0,0,0,1.57.68A50.65,50.65,0,0,0,396.87,78.37Zm18.72,33.52c.43,2.94,1,6,1.65,9-.49-.62-.88-1.34-1.33-2a15.43,15.43,0,0,0-3-2.85c-2.53-2.12-5.08-4.22-7.74-6.18A49,49,0,0,0,388,101.69c3.65-2.18,6.07-6,7.53-10.12a120.36,120.36,0,0,1,18.52,5C414.29,101.69,414.84,106.83,415.59,111.89Zm-1-33.34a44.5,44.5,0,0,0-7.07-.86l.43,0A1.27,1.27,0,0,0,409,76c1.92,0,3.84-.11,5.76-.19.21,0,.16-.32,0-.34a60.21,60.21,0,0,0-6-.32,2.33,2.33,0,0,0-.5-.64,1.82,1.82,0,0,0-1.13-.43.38.38,0,0,0-.15-.16,1.77,1.77,0,0,0-2.63,1.34c-2.63.14-5.25.39-7.83.73a28.79,28.79,0,0,0-1-3.47c3-.4,6-.78,9-1,3.8-.27,7.58-.13,11.37-.22Q415.07,74.91,414.62,78.55Zm1.26-7.6a67.4,67.4,0,0,0-20.65,1c-.17-.45-.35-.9-.54-1.34C401.92,69.4,409,69.26,416.3,69,416.15,69.64,416,70.3,415.88,71Zm.5-2.31c-7.14-1-14.84,0-21.85,1.64a21.44,21.44,0,0,0-1.42-2.59c6.87-1.38,13.69-2.31,20.65-3.28.2,0,.17-.34,0-.34a75.56,75.56,0,0,0-20.9,3.21,18.69,18.69,0,0,0-1.21-1.57c-.11-.13-.22-.23-.33-.35a200.61,200.61,0,0,1,22.08-5.83,4.27,4.27,0,0,0,.29,2.89,3.47,3.47,0,0,0,3.92,1.73C417.15,65.63,416.74,67.13,416.38,68.64ZM415.82,59a2.13,2.13,0,0,0-1,1.38,3.48,3.48,0,0,0-.38.54,3.41,3.41,0,0,1,0-1.65Zm-1-.55a2.65,2.65,0,0,1,.76-.73l0,0a5.62,5.62,0,0,1,2.29.15,2.21,2.21,0,0,1,.34.18C417.14,58.16,416,58.31,414.85,58.48Zm1.8,3.9a3,3,0,0,0,.92-1.45.57.57,0,0,1,.1.19C417.89,61.87,417.31,62.22,416.65,62.38ZM419,59.82c-.22,0-.42,0-.63,0a1.83,1.83,0,0,0-.87-.38,1,1,0,0,0-.62-.63l1.9-.39a3.35,3.35,0,0,1,.49.58C419.19,59.28,419.11,59.55,419,59.82Zm.77-2.12,0-.06a4.25,4.25,0,0,0-3.4-1.19c-.81.08-1.93.3-2,1.29a3.81,3.81,0,0,0-.67.92A109.44,109.44,0,0,0,391,65.05a13.63,13.63,0,0,0-1.27-1.17,70.42,70.42,0,0,0,9.58-4.35.53.53,0,0,0,.79.11l.06,0a1.53,1.53,0,0,0,.39.74.32.32,0,0,0,.45,0,2.37,2.37,0,0,0,.4-1.72l.28-.22,1.16-.53c5.61-2.44,11.43-3.8,17.3-5.42.17,0,.11-.3-.06-.28a63.07,63.07,0,0,0-15.84,4.48c-.75.3-1.5.63-2.24,1a.68.68,0,0,0-.86-.28,2.68,2.68,0,0,1-1.29.25,4.09,4.09,0,0,1-.18-.49c-.05-.22-.43-.38-.51-.08a7.75,7.75,0,0,0-.3,1,.53.53,0,0,0,.31.58l.28,0h0a.61.61,0,0,0-.23.33,78.7,78.7,0,0,1-9.84,4.64,9.42,9.42,0,0,0-1.94-1.11c5.52-3.08,11-6.17,16.76-8.87.79-.38,1.59-.73,2.38-1.08a1.94,1.94,0,0,0,.71-.29,138.4,138.4,0,0,1,17.22-5.58c.17,0,.1-.3-.07-.29a57.31,57.31,0,0,0-16.19,4.82,3.17,3.17,0,0,0,.36-1.06.49.49,0,0,0-.24-.44,4.52,4.52,0,0,0-1.38-.43l.1,0c4.33-1.72,9.22-2.38,13.74-3.83l.08,0a3.64,3.64,0,0,0,2.76-1.08,20.16,20.16,0,0,0,4.2-2.4c.14-.1,0-.37-.15-.27a29.89,29.89,0,0,1-3.34,1.69s0,0,0,0a.62.62,0,0,0-.24-.74,2.18,2.18,0,0,0-.42-.23,5.65,5.65,0,0,0,2-.89.46.46,0,0,0-.24-.83,4.73,4.73,0,0,0-2.15.35l.33-.63a55.87,55.87,0,0,1,7.48-1.47A62.76,62.76,0,0,0,419.79,57.7Zm-14.26-6.25c.12,0,.29,0,.33-.12.11-.46-.06-1,.52-1.06a3.09,3.09,0,0,1,1.08.17c-.41,1.73-2.57,1.47-3.43.15,0,0,0,0,0,0,.32-.15.64-.28,1-.41A1,1,0,0,0,405.53,51.45Zm26-12.89a.15.15,0,0,0-.07,0c-4.42-.22-8.75,1.3-12.86,2.76s-7.88,3.05-11.72,4.82a120.41,120.41,0,0,0-22.38,13.25c-.14.11,0,.39.17.28A175.46,175.46,0,0,1,406.41,47a102.28,102.28,0,0,1,16.41-6.42l-.87,1.2s0,0,0,.08a4.5,4.5,0,0,0-1,1.27,1.82,1.82,0,0,0-.47,1.26c0,.11-.06.21-.08.32s0,.07,0,.11c-4.75,1.5-9.7,2.37-14.39,4.22A84.85,84.85,0,0,0,384.22,61.3c-.08.07,0,.25.08.19,6.43-3.67,12.58-7.65,19.29-10.74a2.27,2.27,0,0,0,1.7,1.78l-1.32.61A188.85,188.85,0,0,0,387,62.38a10.38,10.38,0,0,0-4.49-.47,45.52,45.52,0,0,0-6.25,1.52c4.16-2.49,7.69-5.79,11.47-8.86a72,72,0,0,1,15.58-9.35c9.94-4.58,20.76-7.53,31.42-10C433.61,36.28,432.53,37.41,431.48,38.56Zm-39.1,59.37c-.21,0-.19.36,0,.38l3.3.26a.72.72,0,0,0,.13.75,2.58,2.58,0,0,0,1,.68.58.58,0,0,0,.85.61,2.18,2.18,0,0,0,.52-.48,1.69,1.69,0,0,0,.84-.49.4.4,0,0,0-.25-.63h-.08s0-.07,0-.11c1.82.22,3.62.5,5.43.9a92.83,92.83,0,0,1,9.63,3.06c.2.07.23-.26.08-.35A41.86,41.86,0,0,0,392.38,97.93Zm15.45,8.66a.57.57,0,0,0-.4-.77l-.13,0,.08-.07a.53.53,0,0,0,.4.15,2,2,0,0,0,1.64-1.26c.27-.47-.27-.88-.69-.84a4,4,0,0,0-3,1.61,44.69,44.69,0,0,0-14.7-5.11c-.22,0-.26.32-.07.39a99.83,99.83,0,0,1,12.88,4.74c.49.24,1,.51,1.44.76l0,.08c-.2.47.27.93.72.94a5.88,5.88,0,0,0,1-.08c2.2,1.28,4.33,2.67,6.47,4,.2.13.31-.19.17-.32A45.48,45.48,0,0,0,407.83,106.59ZM408,129.5c-3.65-4.16-7.73-8-11.63-11.88q-3.11-3.12-6.21-6.21c-2-2-4.67-4-6.19-6.36-.09-.14-.26,0-.2.14,1,2,3,3.64,4.61,5.24l6.21,6.27c4.36,4.37,8.59,9,13.21,13C408,129.89,408.12,129.65,408,129.5Zm-349.93-64a34.72,34.72,0,0,1,4.52-5.85c.13-.12-.07-.37-.22-.23a18.11,18.11,0,0,0-4.44,6C57.89,65.45,58,65.57,58.06,65.48ZM32.72,61.27a5.43,5.43,0,0,0,.8-1.14l.25-.33a1.74,1.74,0,0,0,.82.83c-.21.13-.37.3-.58.45s0,.59.28.47a3.4,3.4,0,0,0,1.53-1,.21.21,0,0,0,0-.16.69.69,0,0,0-.54-.77.77.77,0,0,1-.65-.94s0-.05,0-.07a.51.51,0,0,0-.17-.46s0,0,0,0c.33-.4.67-.79,1-1.18.1-.1,0-.31-.15-.2l-1.11,1.22a.52.52,0,0,0-.47,0,.49.49,0,0,0-.23.18l-.81,1.07a7.61,7.61,0,0,0-1,1.26.6.6,0,0,0,.06.55,21.8,21.8,0,0,0-2.52,4.37c0,.08.06.19.12.1.92-1.4,1.8-2.8,2.72-4.16A.53.53,0,0,0,32.72,61.27Zm33.08-.84c.31-.65-.62-1.2-.93-.64h-.1v0c0-.18-.25-.31-.41-.16C63.6,60.31,65.29,61.48,65.8,60.43Zm-1-2.82a.24.24,0,0,0-.1-.44,5.6,5.6,0,0,1-3.84-1c-.46-.35-.81.38-.4.69A4.23,4.23,0,0,0,64.8,57.61ZM63.3,53.7c.74.2.91-.76.36-1.11l-.07,0a.26.26,0,0,0-.34-.06c-.25.17-.49.23-.46.6A.69.69,0,0,0,63.3,53.7Zm-3.71-4.48-.13,0a.55.55,0,0,0,.08,1.07l.2,0C60.54,50.48,60.4,49.06,59.59,49.22ZM37.33,58l0-.16c-.06-.7-1.09-.87-1.15-.08v0C36.09,58.62,37.4,58.81,37.33,58Zm-19,8.59c-.71,0-.42,1.09.23,1.09S18.93,66.57,18.29,66.57Zm22.25-2.86c-2.29-1.93-9.31-2.8-9.94,1.3a.4.4,0,0,0,.18.38c-1.5,2.16-1.68,6.15-.22,7.84a5.94,5.94,0,0,0,4.74,2c1.66,0,5-.93,6.11-2.27A6.57,6.57,0,0,0,40.54,63.71Zm1,3.23a5.06,5.06,0,0,1,.24.89,3.7,3.7,0,0,0-.48-.08.66.66,0,0,0-.08-.32C41.35,67.26,41.46,67.1,41.57,66.94Zm-.4-.8h0c-.38.39-.81.74-1.23,1.1a.27.27,0,0,0,0-.2A.71.71,0,0,0,40,67a1.33,1.33,0,0,0,.12-.63s0,0,.06,0,.06-.3.09-.47a.4.4,0,0,0-.36-.44,5.44,5.44,0,0,1-.18-.69A4.87,4.87,0,0,1,41.17,66.14Zm-1.69,1.38.19,0a6.21,6.21,0,0,0-.56.59.73.73,0,0,0,.36,1c-.06.13-.12.27-.19.4a1,1,0,0,0,0,1.08.52.52,0,0,0-.27.87c-.21-.28-.08-.18-.36-.16a.71.71,0,0,0-.44.15.31.31,0,0,0-.09.11l-.47,0a2.58,2.58,0,0,0,.85-3.15,3.92,3.92,0,0,0-.79-1.1.54.54,0,0,0,.61-.08,4.27,4.27,0,0,1,.61.29A.6.6,0,0,0,39.48,67.52Zm-.39-2.69a4.77,4.77,0,0,1,0,.54.54.54,0,0,0-.27.76.47.47,0,0,0,.2.24h0L37.78,66c-.37-.13-.56.24-.51.55a.58.58,0,0,0,0,.41,4.08,4.08,0,0,0-1.13-.61,4.18,4.18,0,0,0-1.65-.26,0,0,0,0,0,0,0,3.25,3.25,0,0,1,.37-.52l.54-.09.12,0,.27,0a1.91,1.91,0,0,0,1.34-.12s0,0,.06-.07l.68-.12A5.75,5.75,0,0,0,39.09,64.83Zm-6.53-.18a.26.26,0,0,0,.12-.23,7.66,7.66,0,0,1,4.78-.63c-.5.1-1,.21-1.49.34a.37.37,0,0,0-.39-.15,5.48,5.48,0,0,0-1.81.93,7.44,7.44,0,0,0-1.29.72.42.42,0,0,0-.62,0c-.19.22-.41.46-.61.71A3.51,3.51,0,0,1,32.56,64.65Zm-1.2,6.85a.27.27,0,0,0-.11-.18c-.3-.21-.35-.42-.28-.63h.08a.42.42,0,0,0,.39-.1,2.25,2.25,0,0,1,0,.52A2.22,2.22,0,0,1,31.36,71.5Zm3.2,2.7a3,3,0,0,1-.43,0,1.09,1.09,0,0,0,.8-.4.27.27,0,0,0-.13-.45c-.71-.11-1.58-.25-1.85-1a.46.46,0,0,0-.54-.33,4,4,0,0,0,0-.5,3.88,3.88,0,0,0,3.14.87c0,.36-.07.72-.1,1.07a.66.66,0,0,0,.59.63h.3A10.26,10.26,0,0,1,34.56,74.2Zm1.72-3.47a3.38,3.38,0,0,0-1.57-.32c-.29,0-.24-.33-.18-.53A.78.78,0,0,0,33.41,69a1.58,1.58,0,0,1,.68-.32c.36-.07.4-.67,0-.71a1.94,1.94,0,0,0-.68,0c.15-.3-.19-.8-.51-.52A14.68,14.68,0,0,0,31.46,69H31.4a.42.42,0,0,0-.26,0l-.21.16a2.19,2.19,0,0,1,.45-.85c.42-.68.76-1.39,1.23-2a.47.47,0,0,0,.08-.36l.47-.12s0,0,0,0a.74.74,0,0,0,.12.46,1.56,1.56,0,0,0-.34.23.36.36,0,0,0,.1.6c1.08.3,2.16,0,3.26.31a1.9,1.9,0,0,1,1.17,2.89,2.19,2.19,0,0,1-1,.69A.37.37,0,0,0,36.28,70.73Zm.78,3.14a.87.87,0,0,0,.25-.19.37.37,0,0,0,0-.48,1.46,1.46,0,0,0-.67-.29c0-.13,0-.27,0-.41a13.13,13.13,0,0,1,1.42.22c.54.12,1.3.33,1.65-.25a.26.26,0,0,0,0-.23A1,1,0,0,0,40,71.11a1.11,1.11,0,0,0,1.22-.55.64.64,0,0,0-.74-.88l.37-.77a4.06,4.06,0,0,0,1.07-.51,6.21,6.21,0,0,1-.23,2C41.17,72.26,39.09,73.37,37.06,73.87ZM8.28,68.53A2.63,2.63,0,0,0,7.14,70c-.16.49-.29,1.36.23,1.66a.19.19,0,0,0,.25-.07c.19-.32,0-.7,0-1.06a2,2,0,0,1,.89-1.45C8.84,68.88,8.59,68.34,8.28,68.53ZM207,31.79c6.57-4.8,12.9-9.59,20.39-12.93.09,0,0-.2-.06-.16-7.4,3.2-14.77,7-20.56,12.73C206.64,31.6,206.81,32,207,31.79Zm3.23,5.05c6.18-5.94,12.82-10.07,20.39-14.06.15-.08.05-.39-.12-.32-7.36,3.31-15.95,7.08-20.61,14C209.79,36.69,210.06,37,210.27,36.84ZM227.3,152c.15.1.25-.14.14-.24a42.13,42.13,0,0,1-5.58-7c-2.59-3.67-6-7.4-5.92-12.19,0-.29-.4-.4-.42-.08-.31,3.74,1.37,6.52,3.45,9.5C221.42,145.41,223.73,149.48,227.3,152ZM241.12,130a15.93,15.93,0,0,0-1.37-5.89.35.35,0,1,0-.64.26,17.45,17.45,0,0,1,1.07,4.42c-.13-.18-.27-.35-.4-.52-.87-1.17-1.75-2.34-2.73-3.43-.22-.24-.49.06-.33.31.76,1.26,1.65,2.43,2.51,3.63.35.49.69,1,1.05,1.5a18.5,18.5,0,0,1-.24,3.42c-1.09-1-2.3-1.79-3.31-2.9A13.55,13.55,0,0,1,234,126a.33.33,0,1,0-.62.23c1,3,3.31,7,6.55,8a29.55,29.55,0,0,1-1.82,5.88,26.48,26.48,0,0,1-3.18-1.81,25.21,25.21,0,0,1-5.59-5.61c-.2-.27-.57.06-.41.31a21.2,21.2,0,0,0,8.8,8c-.43,1-.89,1.95-1.37,2.91-1.72-1.44-3.59-2.72-5.27-4.23a57.69,57.69,0,0,1-7.29-8.09c-.22-.28-.61.09-.43.36,3.14,4.55,7.6,9.85,12.67,12.59-.46.92-.94,1.82-1.44,2.71-3.34.73-8-5.27-10.11-7.41s-4.19-4.3-6.39-6.35c-.31-.29-.64.17-.39.46a2.09,2.09,0,0,1,.2.22.25.25,0,0,0-.27.35c1,4,3.87,8.1,6.66,11.13,2.17,2.36,5.06,4.68,8.46,4.46.24,0,.21-.39,0-.45-6.85-1.91-12.06-8.55-14.51-15.12,3.51,4,7.27,7.74,11,11.57,1.24,1.28,3,2.77,4.74,2.28-.65,1.08-1.33,2.14-2.09,3.18s-2.05,2.55-2.15,4c-.22,3.15-1.9,0-3.52-1.36l-.57-.48a13.64,13.64,0,0,0,2.2.92c.16.05.23-.19.11-.27a38.31,38.31,0,0,1-9.55-8c-1.92-2.28-3.29-4.41-3.53-7.46a7.76,7.76,0,0,0-1-3.56c-.18-.33-.56-.08-.44.24a17.13,17.13,0,0,1,.79,4.58c-1.06-3.1-1.79-6.39-2.87-9.22a.21.21,0,0,0-.4.11c1.22,5.14,2.31,11.19,5.27,15.6,1.21,1.8,3.27,3.2,4.89,4.57,3,2.54,6,5.16,9.08,7.54a.37.37,0,0,0,.58-.38c-1.09-3.75,2.83-7.5,4.51-10.48.54-1,1.06-1.95,1.58-2.95.16.08.33.17.5.24s.24-.2.14-.29l-.43-.37c.53-1.06,1-2.14,1.49-3.22a9.47,9.47,0,0,0,1.45.4c.31.06.29-.39.09-.51-.4-.24-.8-.46-1.21-.68,0-.07.07-.14.1-.22a27.39,27.39,0,0,0,2.12-9,10.61,10.61,0,0,0,.86.91c.23.2.45-.14.35-.35A11,11,0,0,0,241.12,130ZM234,145.29c.21.07.26-.27.11-.36-5.31-3.43-9.34-7.3-11.16-13.55a.28.28,0,1,0-.54.15C223.87,137.32,228.13,143.39,234,145.29Zm3.8-7.1c.21.09.37-.18.24-.35-1.06-1.37-2.56-2.44-3.74-3.72a28.47,28.47,0,0,1-3.71-5.14.27.27,0,1,0-.46.27,27.07,27.07,0,0,0,3.22,5C234.55,135.67,236.11,137.47,237.84,138.19Zm54-24.89a31.86,31.86,0,0,0,7,9.13c.11.09.23-.1.15-.19a45.44,45.44,0,0,1-6.86-9.17C292,112.84,291.68,113.09,291.79,113.3Zm-166,11a17.33,17.33,0,0,0,7.74-3.34c.09-.08,0-.28-.13-.22a33,33,0,0,1-7.74,3.11C125.39,123.92,125.53,124.36,125.8,124.31Zm9.74,1.8c2.85-1.39,5.81-2.66,8.55-4.27.11-.07,0-.28-.09-.22-2.94,1.19-5.76,2.77-8.6,4.18C135.24,125.88,135.38,126.19,135.54,126.11Zm10.66-.91a7,7,0,0,0-2,1.71c-.07.11.06.27.18.21a23.74,23.74,0,0,0,2.31-1.71,18.86,18.86,0,0,1,2.52-1.41c.22-.1,0-.49-.19-.38A20.2,20.2,0,0,0,146.2,125.2ZM156,122a22.21,22.21,0,0,0-3.7,2.53,8.8,8.8,0,0,0-2.47,2.76c-.05.12.07.32.21.22a34.78,34.78,0,0,0,2.62-2.54,20.58,20.58,0,0,1,3.6-2.55C156.48,122.24,156.22,121.83,156,122Zm.42,6.21a18.8,18.8,0,0,0,3-2.88l2.91-3c.21-.21-.16-.56-.38-.34L159,124.86a18,18,0,0,0-2.85,3.08C156.11,128.07,156.26,128.25,156.39,128.17Zm5,0a10.59,10.59,0,0,0,2.49-2.05c1-.87,2-1.7,3-2.51.24-.18,0-.61-.29-.42-.94.73-1.87,1.47-2.79,2.23a9.13,9.13,0,0,0-2.6,2.5C161.12,128,161.23,128.24,161.36,128.18Zm11.58-5a19.56,19.56,0,0,0-3,2.57,8.63,8.63,0,0,0-2.06,2.92c0,.13.11.26.21.16.74-.73,1.26-1.69,2-2.48a17.63,17.63,0,0,1,3.08-2.77C173.38,123.47,173.16,123.06,172.94,123.22Zm1.28,6.79a21.1,21.1,0,0,0,2.94-2.4l3.19-2.79c.22-.2-.06-.62-.28-.43l-2.87,2.48a23.38,23.38,0,0,0-3.15,2.89C174,129.88,174.07,130.1,174.22,130Zm48.56-3.12c.55-.33.91-1.1,1.32-1.6a15.88,15.88,0,0,1,1.74-1.74c.2-.17-.1-.51-.31-.33a17.49,17.49,0,0,0-1.82,1.73c-.43.47-1.12,1.09-1.2,1.75A.18.18,0,0,0,222.78,126.89Zm6.47-3.62a18.37,18.37,0,0,0-3,2.73c-.09.12,0,.38.19.29a18.56,18.56,0,0,0,3.16-2.58C229.9,123.48,229.51,123,229.25,123.27Zm8.11,1.2c.75-.66,1.28-1.59,2-2.31a17.18,17.18,0,0,1,2.58-2.16c.19-.14-.06-.47-.27-.33a18.88,18.88,0,0,0-2.56,2.16,8.09,8.09,0,0,0-1.91,2.49C237.13,124.43,237.27,124.56,237.36,124.47Zm31.17-11.21c.26-.21-.11-.65-.37-.44-1.45,1.19-3.13,3-3.49,4.9a.33.33,0,0,0,.46.35,9.18,9.18,0,0,0,2-1.22c.08-.06,0-.25-.09-.19a6.64,6.64,0,0,1-1.5.71c.2-.43.39-.87.62-1.29A9.83,9.83,0,0,1,268.53,113.26Zm8.37-3.59c-1.59,1.83-3.49,3.79-4.52,6-.14.3.29.59.54.41a4.94,4.94,0,0,0,1.55-1.57c.06-.11-.06-.29-.17-.18l-.26.26a52.79,52.79,0,0,1,3.32-4.58C277.58,109.76,277.13,109.41,276.9,109.67Zm3.64,2.76c-.26.49.4,1.22.8.74.06-.07,0-.26-.1-.23-.24-.23-.22-.43.06-.59s.3-.3.46-.44l.91-.89,1.89-1.81c.19-.19-.16-.57-.35-.39l-2.1,2A7.53,7.53,0,0,0,280.54,112.43Zm40.18-16.21c.56-.26,1-.92,1.44-1.34a8.79,8.79,0,0,1,2.37-1.47c.29-.13.07-.62-.21-.5a10.88,10.88,0,0,0-2.15,1.23c-.59.43-1.56,1.11-1.69,1.87C320.46,96.13,320.59,96.28,320.72,96.22Zm7.54-2.52a.19.19,0,0,0,.29.14c.53-.44.76-1.18,1.24-1.7a4.23,4.23,0,0,1,2.39-1.24c.38-.06.18-.63-.17-.57a4.92,4.92,0,0,0-2.41,1.09C329,92,328.1,92.79,328.26,93.7Zm6.31-1.55a.2.2,0,0,0,.27.16.75.75,0,0,0,.51-.36,6.65,6.65,0,0,1,1.14-1.11,6.44,6.44,0,0,1,2.31-1.12c.35-.09.2-.64-.13-.55a8,8,0,0,0-2.55,1.13C335.55,90.68,334.51,91.39,334.57,92.15Zm35.74-1c-.92.36-1.85.7-2.79,1-.4.14-.27.65.1.74a5.5,5.5,0,0,0,2.82,0c.16,0,.11-.31-.05-.32a9.76,9.76,0,0,1-1.44-.13l1.57-.68C370.89,91.62,370.66,91,370.31,91.18Zm5.08,1.26a5.76,5.76,0,0,0-4.12,2.4.44.44,0,0,0,.4.65,21.09,21.09,0,0,0,2.76-.18c.22,0,.18-.36,0-.39-.62-.1-1.25-.17-1.87-.22A5.19,5.19,0,0,1,375.49,93C375.84,92.92,375.71,92.4,375.39,92.44ZM86.06,79.15c-.25-3.66-2.11-7.08-1.69-10.78,0-.24-.32-.32-.36-.07-.38,2.51.2,4.75.81,7.19a22.77,22.77,0,0,1,0,10.67c-1.35,5.92-5.15,10.73-10,14.27-.15.11,0,.42.16.32,5.22-2.81,8.64-8,10.27-13.63A23,23,0,0,0,86.06,79.15ZM30.79,99.74a1,1,0,0,1-.84-1,2.65,2.65,0,0,1,.74-1.47c.18-.23-.17-.57-.37-.34a2.59,2.59,0,0,0-.86,2.24c.13.57.79,1.16,1.37.83A.17.17,0,0,0,30.79,99.74Zm4.15.75a1.59,1.59,0,0,1-1.54-.31,1.2,1.2,0,0,1,.24-1.75c.27-.2-.09-.63-.35-.44a1.79,1.79,0,0,0-.5,2.33,1.58,1.58,0,0,0,2.3.49A.18.18,0,0,0,34.94,100.49Zm4.72,1.07a1.67,1.67,0,0,1-1.92-.73,1.42,1.42,0,0,1,.55-1.75c.27-.18-.07-.6-.34-.43a2,2,0,0,0-.68,2.67,1.78,1.78,0,0,0,2.51.54C39.91,101.76,39.83,101.52,39.66,101.56Zm27.42,7.74a2.21,2.21,0,0,1-2-1,1.79,1.79,0,0,1,.94-2.35c.33-.15,0-.7-.31-.57a2.48,2.48,0,0,0-1.49,2.88,2.25,2.25,0,0,0,3,1.51A.24.24,0,0,0,67.08,109.3Zm9.61.18c.43-.32-.12-.94-.53-.65a3.76,3.76,0,0,0-1.56,3.29.47.47,0,0,0,.33.43,4.31,4.31,0,0,0,3.6-.19c.14-.07,0-.34-.1-.32a6.2,6.2,0,0,1-2.91-.2A2.92,2.92,0,0,1,76.69,109.48Zm5.94,1.14c.4-.13.1-.78-.27-.67a2.25,2.25,0,0,0-1.51,1.58,1.68,1.68,0,0,0,.61,2,.23.23,0,0,0,.33-.23,3.42,3.42,0,0,1-.18-1.55A1.53,1.53,0,0,1,82.63,110.62Zm36.09-7.57a206.05,206.05,0,0,0-35,4.92c-.19,0-.09.36.1.32a349.25,349.25,0,0,1,35-5C118.93,103.31,118.87,103.05,118.72,103.05Zm-31.64,9.09c12.24-1.84,24.57-3.37,36.73-5.73.17,0,.1-.35-.06-.33-12.3,1.44-24.52,3.7-36.75,5.65C86.76,111.77,86.85,112.17,87.08,112.14Zm27.54,6.31c.3-.22,0-.74-.32-.53a5.45,5.45,0,0,0-2.36,3.78.43.43,0,0,0,.46.46,7.11,7.11,0,0,0,1.72-.22c.15,0,.12-.29,0-.32a8.77,8.77,0,0,0-1.25-.19A4.93,4.93,0,0,1,114.62,118.45Zm7.94,3.33c.31-.11.06-.64-.24-.55-.76.22-1.7.56-1.85,1.46a1,1,0,0,0,1,1.25c.2,0,.19-.33,0-.39-.42-.16-.41-.74-.2-1.06A2.35,2.35,0,0,1,122.56,121.78Zm5.32.88c.22-.19,0-.61-.28-.42s-.62.37-.74.71a.18.18,0,0,0,.2.25A1.93,1.93,0,0,0,127.88,122.66ZM112.47,66.53a6.8,6.8,0,0,0-3.1-.27c-.26,0-.16.41.07.4a8.79,8.79,0,0,1,2.66.26,1.09,1.09,0,0,1-1.13.63l-.21,0c-.29,0-.26.43,0,.49h.08a2.19,2.19,0,0,0,.36,0,3.49,3.49,0,0,1,1.32.37c1.1.58,0,1.42-.57,1.73s-1.29.57-1.31,1.31c0,.14.19.23.28.12.73-.91,2.36-1.1,2.54-2.38.11-.8-.61-1.24-1.38-1.46a1.62,1.62,0,0,0,.59-.91A.27.27,0,0,0,112.47,66.53Zm30.82,14.2c0-.06-.09,0-.08,0,.08.39,0,.8.45,1a1.77,1.77,0,0,0,.72.25,1.7,1.7,0,0,1-.3.62c-.23.3-.59.39-.81.67a.24.24,0,0,0,.16.39c.89.06,1.52-1.11,1.6-1.86a.32.32,0,0,0-.36-.38A1.43,1.43,0,0,1,143.29,80.73Zm9.81,7.09c.06,0,0-.16,0-.16a1.52,1.52,0,0,1-1.2-.41c-.26-.24-.56.21-.28.43A1.3,1.3,0,0,0,153.1,87.82Zm.69,3.07.66-.34c.06,0,0-.14,0-.1l-.65.37S153.74,90.92,153.79,90.89Zm20,7.68a.06.06,0,0,0,0-.1,3.29,3.29,0,0,1-.9-.6.22.22,0,0,0-.13-.27h0a.38.38,0,0,0-.29-.47c-.44-.1-1.32.06-1.08.71a.42.42,0,0,0,.44.29,6.48,6.48,0,0,0,1-.17c.12.11.24.22.37.32a4.63,4.63,0,0,0,.43.24c.06,0-.46.57-.51.63s0,.11.07.07A4.91,4.91,0,0,0,173.8,98.57Zm-.06,3.34a3.8,3.8,0,0,0,2.9-1.6c.13-.16-.13-.45-.28-.29a4.84,4.84,0,0,1-1.17.94c-.49.28-1,.4-1.54.65C173.52,101.68,173.6,101.9,173.74,101.91Zm17.59,3.2c-.33.28-.71.25-1.06.45a.25.25,0,0,0,0,.38c.47.39,1.22.07,1.58-.34a2.19,2.19,0,0,0,.41-1.87.21.21,0,0,0-.21-.18,5.61,5.61,0,0,1-.71,0,1.8,1.8,0,0,1-.32-.06.23.23,0,0,0-.24,0,.45.45,0,0,0,0-.11l0,0a.38.38,0,0,0-.57-.12c-.28.22-.12.63.13.8a2.3,2.3,0,0,0,1.6.06A1.25,1.25,0,0,1,191.33,105.11ZM186.67,70a2.75,2.75,0,0,1-.95,0c-.11,0-.11.22,0,.22H186c-.47.21-.94.52-.62,1a.44.44,0,0,0,.73,0,1.29,1.29,0,0,1-.49,1.74c-.45.34-1.18.31-1.54.72a.19.19,0,0,0,.09.29,2.69,2.69,0,0,0,2-1.06,1.58,1.58,0,0,0,.05-2c-.08-.1-.18,0-.21.06a.21.21,0,0,0,0-.06s0,0-.06,0c.28-.2.81-.49.88-.53S186.85,69.92,186.67,70Zm10.54,12.88-1.39-.48c-.4-.14-.46.48-.09.6l1.06.35a5.16,5.16,0,0,0,0,2.56,4.14,4.14,0,0,0-1.51.72c-.17.15,0,.4.21.39a5.24,5.24,0,0,0,1.79-.63.28.28,0,0,0,.13-.33,3.61,3.61,0,0,1,.05-2.74A.33.33,0,0,0,197.21,82.87Zm36.5,24.4a3.22,3.22,0,0,0,1.16.08.24.24,0,0,0,.19-.33,3.88,3.88,0,0,0-2.45-2.35,1.52,1.52,0,0,1,.89-.54c.48-.1.24-.79-.2-.7a12.22,12.22,0,0,0-2.06.62c-.4.16-.12.75.26.62l.3-.09a1.27,1.27,0,0,0-.07.12.37.37,0,0,0,.41.46,2.28,2.28,0,0,1,2.39,1.68,2.71,2.71,0,0,0-.84.12A.17.17,0,0,0,233.71,107.27Zm-16.65,5.41c1,.14,1.06-1.17.58-1.8,0-.16-.12-.33-.3-.27-.43.13-1.23.19-1.44.62a.16.16,0,0,0,.09.23c.46.15,1-.2,1.48-.36.31.43-.21,1-.52,1.28A.19.19,0,0,0,217.06,112.68Zm-53,3c0,.1,0,.26.14.23a3.23,3.23,0,0,0,1.28-.85l1.34-1.19a.29.29,0,0,0-.06-.45,2.82,2.82,0,0,0-2.44-.54c-.32.08-.09.56.21.5a2.2,2.2,0,0,1,1.63.27l-1,.84A3.38,3.38,0,0,0,164.05,115.7Zm-.19,1.41v0s0,0,0,0a.33.33,0,0,0,.27.33,2.49,2.49,0,0,0,2.77-1.22c.12-.21-.18-.46-.34-.25a2.31,2.31,0,0,1-2.25.79A.36.36,0,0,0,163.86,117.11Zm21,4.14a3,3,0,0,0-.94.74.22.22,0,0,0,.22.33,5.28,5.28,0,0,0,1.62-.9,1.12,1.12,0,0,0,.61-.75c.11-.75-.73-1.19-1.33-1.37a3.4,3.4,0,0,0-1.34-.34.6.6,0,0,0-.5.71.57.57,0,0,0,1.08,0c.29.08.56.15.64.16a1.47,1.47,0,0,1,.84.4C186.13,120.68,185.08,121.11,184.84,121.25ZM117.32,86.58a.16.16,0,0,0,.27-.11c.1-.76-.81-1.26-1.44-1.38a.36.36,0,1,0-.16.7C116.59,85.88,116.86,86.26,117.32,86.58Zm1.52,1.86a1.27,1.27,0,0,0,1.48-.86c.1-.26-.29-.52-.43-.24a.85.85,0,0,1-.72.46c-.2,0-.38-.06-.55.08a.18.18,0,0,0-.09.19v.08A.37.37,0,0,0,118.84,88.44Zm6.54-16.36a8.91,8.91,0,0,0-4.22.61c-.35.16,0,.64.3.57a17.63,17.63,0,0,1,3-.45,4.41,4.41,0,0,1-1.83,1c-.47.11-.26.71.17.68s.76-.1,1.15-.15a6.58,6.58,0,0,0-.74,2.81c0,.14.19.25.29.12.6-.81.56-2.08.75-3a.14.14,0,0,0-.11-.18l-.09,0a4.81,4.81,0,0,0,1.62-1.27A.39.39,0,0,0,125.38,72.08Zm3.27,11a.54.54,0,0,0-.37.89,1,1,0,0,0,.59.47.86.86,0,0,0,.39,0s0,.06,0,.09a.75.75,0,0,1,0,.92c-.22.39-.56.33-.92.45a.16.16,0,0,0-.05.27c.4.38,1,0,1.28-.39a1.2,1.2,0,0,0,0-1.45.88.88,0,0,1,.73,0c.1,0,.16-.09.1-.16a.9.9,0,0,0-.71-.27c-.2,0-.39,0-.59,0s-.27-.21-.4-.2C129.15,83.7,129,83.06,128.65,83.11ZM147.1,62.19a.12.12,0,0,0,0-.22,4,4,0,0,1-1.87-.41.21.21,0,0,0-.24.35A1.93,1.93,0,0,0,147.1,62.19Zm2.05,1.05c.15-.13,0-.44-.2-.3a2.68,2.68,0,0,1-.73.47c-.28.13-.59.15-.86.28a.13.13,0,0,0,0,.24A2.17,2.17,0,0,0,149.15,63.24Zm9.6,8.79a2.32,2.32,0,0,0,1.21-.42c.13-.09.08-.28,0-.38a5.37,5.37,0,0,0-1.92-1.84.29.29,0,0,0-.29-.26.58.58,0,0,0-.65.67c0,.33.43.78.75.44a.2.2,0,0,0-.06-.28,0,0,0,0,1,0,0c0-.1,0-.18-.08-.19h.11a4.13,4.13,0,0,1,1.55,1.44,1.66,1.66,0,0,0-.76.44C158.51,71.77,158.56,72,158.75,72Zm111.84,5.63c-.12.22.21.49.35.25a1.18,1.18,0,0,1,1.86-.11l-1,.63a5.32,5.32,0,0,0-.65.45s0-.09-.05-.13-.11,0-.09,0,0,.1,0,.15a1.38,1.38,0,0,0-.22.26c-.05.07,0,.21.1.19a1,1,0,0,0,.24-.07c.15.49.31,1,.5,1.47,0,.06.09,0,.08,0-.13-.49-.3-1-.47-1.46a6.47,6.47,0,0,0,.75-.45l1.14-.76a.22.22,0,0,0,.07-.3A1.57,1.57,0,0,0,270.59,77.66Zm1,11.1a.39.39,0,0,0-.31.38.22.22,0,0,0,.17.23c.38.11.77-.22,1.09-.42s.07-.72,0-.93c-.1-.38-.42-.84-.84-.63-.07,0,0,.14,0,.11.62-.28.5.75.42,1C272.13,88.58,271.64,88.72,271.56,88.76Zm-35.43-8.08h.09c.16-.07.2,0,.13.21a.14.14,0,0,0,0,.26.47.47,0,0,0,.59-.65.63.63,0,0,0-.72-.34,3.56,3.56,0,0,1,.07-1,.24.24,0,0,0-.22-.29c-.67,0-1.35,0-2,0-.31,0-.23.49.06.49.59,0,1.19,0,1.79,0a1.93,1.93,0,0,1,0,1C235.81,80.55,236,80.69,236.13,80.68ZM240,86.76a2.64,2.64,0,0,0,1.48-.49.13.13,0,0,0,0-.24,1.3,1.3,0,0,1-.94-.64h0s0,0,0,0a1.83,1.83,0,0,0-.73-.15c-.32,0-.24.49,0,.49a1.46,1.46,0,0,0,.68-.14h0a1.83,1.83,0,0,0,.6.54,1.69,1.69,0,0,0-1.13.42C239.85,86.57,239.86,86.73,240,86.76Zm12.77,13.65s-.05.08,0,.08S252.79,100.41,252.74,100.41Zm75.7-25.06a.48.48,0,0,1-.3.07c.12-.49-1.19-.66-.81.28.17.43.73.44,1.08.29a7.33,7.33,0,0,0,1.53-1.31.23.23,0,0,0-.15-.38l-2.08-.1c-.31,0-.24.49.05.49l1.44,0-.35.29Zm-2.65,9.73c-.23.19-.51.14-.77.24-.09,0-.08.18,0,.22.84.57,1.66-.7,1.57-1.43a.21.21,0,0,0-.11-.16l-1.31-.47c-.28-.1-.35.34-.1.42s.78.25,1.17.36A1,1,0,0,1,325.79,85.08Zm19.95-3.85a.22.22,0,0,0,0,.43C346,81.66,346,81.23,345.74,81.23Zm10.93-1.6c-.13.06-.06.24,0,.28,1.07.5,2.42-.23,3.17-1,.08-.08,0-.23-.06-.28a3.62,3.62,0,0,1-.61-.46,2,2,0,0,0,.55,0c.07,0,.07-.13,0-.15a3.09,3.09,0,0,1-1.63-.94h0a2.45,2.45,0,0,1-.46-.69c-.17-.38-.79-.21-.61.19a2.68,2.68,0,0,0,2,1.59,3.48,3.48,0,0,1,.46.57,6,6,0,0,1-1.36.57A9.1,9.1,0,0,0,356.67,79.63Zm6.47,6a.2.2,0,0,0,0-.36,3.21,3.21,0,0,0-1.48-.16c-.41,0-.3.67.08.68A2.92,2.92,0,0,0,363.14,85.63Zm1,1.4c.31,0,.24-.51-.06-.5a.88.88,0,0,0-.39.11c-.13.07,0,.26.06.3A.73.73,0,0,0,364.1,87Zm15.75-5.41c-.33-.32-1-.37-1.09.21a.59.59,0,0,0,.75.62.34.34,0,0,0,.22-.48s0,0,0,0C380,82,380,81.72,379.85,81.62Zm1.56,1.08c.31,0,.24-.42,0-.49a1.18,1.18,0,0,0-.59,0,1.08,1.08,0,0,1-.34-.23c-.16-.17-.38.11-.24.26a1.24,1.24,0,0,0,.22.19.31.31,0,0,0-.05.1.55.55,0,0,0,0,.83.3.3,0,0,0,.5-.27.32.32,0,0,0,.12-.4C381.06,82.74,381.35,82.7,381.41,82.7Zm-43.07-.14c.12.08.23-.09.15-.2a2.14,2.14,0,0,0-1.75-.8.22.22,0,0,0,0,.43A2.78,2.78,0,0,1,338.34,82.56ZM282.21,70.87c-.1.11,0,.34.16.28a7.66,7.66,0,0,0,1.44-.89l1.37-.94a.23.23,0,0,0-.11-.42,15.77,15.77,0,0,0-2.38-.05c-.35,0-.22.53.1.53l1.47,0-.68.45A7.28,7.28,0,0,0,282.21,70.87Zm-59.51-6.2c-.09,0-.08.17,0,.21.47.23.88-.32.83-.76,0-.07,0-.16-.13-.16l-1.32,0c-.17,0-.17.27,0,.27h1.19C223.19,64.53,223,64.58,222.7,64.67ZM239,69.46c0,.1.06.22.17.17a2,2,0,0,0,.69-.74l.71-.93a.11.11,0,0,0,0-.16c-.36-.09-.72-.21-1.08-.3s-.45.59-.05.57.58,0,.88-.06l-.64.65A2,2,0,0,0,239,69.46Zm-8.26-.2a13.94,13.94,0,0,0,2.2-1,.26.26,0,0,0,.13-.34,3.17,3.17,0,0,0-2.45-1.67.37.37,0,0,0-.54-.33l-.94.58c-.41.23,0,.87.42.69a2.35,2.35,0,0,1,2.9.7,9.75,9.75,0,0,0-1.84,1C230.52,69.05,230.6,69.3,230.77,69.26ZM184.12,65.4a.22.22,0,0,0,.08-.37c-.52-.47-1.49-.44-2.14-.55-.35,0-.36.5-.05.58s.75.19,1.13.27A1.73,1.73,0,0,0,184.12,65.4Zm-42.86,50.82a.22.22,0,0,0,.11.36,1.4,1.4,0,0,0,1.32-1,.33.33,0,0,0-.16-.42,2.36,2.36,0,0,0-1.56-.43c-.49,0-.24.74.21.71a1.88,1.88,0,0,1,.78.12A3.87,3.87,0,0,1,141.26,116.22ZM41.42,76.12a12.62,12.62,0,0,1-4.69.9c-.3,0-.24.46,0,.47a8.18,8.18,0,0,0,4.74-1.15C41.61,76.27,41.56,76.07,41.42,76.12Zm.44-.73A4.68,4.68,0,0,0,44.3,72.9c0-.11-.09-.24-.19-.15a18.69,18.69,0,0,1-2.53,2.17C41.34,75.06,41.61,75.52,41.86,75.39Zm-4.3,7.88c.52-.48,1-.94,1.59-1.4.19-.17-.09-.5-.29-.33-.61.5-1.2,1-1.79,1.55s-1.24.89-1.33,1.52.84.47.62,0a.11.11,0,0,0-.07-.06C36.62,84.18,37.46,83.36,37.56,83.27Zm1.78,1,2.14-1.41c.18-.12,0-.44-.22-.31L39.1,84a9.09,9.09,0,0,0-1.84,1.29c-.06.07,0,.28.11.24A9.32,9.32,0,0,0,39.34,84.29Zm2.17.4c-.09-.11-.26-.09-.27.06l-1.47.94c-.23.15-.51.43-.37.73s.83.16.57-.23a.12.12,0,0,0-.09,0c.25-.21.77-.51.88-.59l.5-.33a3.62,3.62,0,0,1-.29,1.4c-.23.57-.71.89-1,1.4,0,.08,0,.25.12.21,1.15-.38,1.55-2.09,1.48-3.22h0C41.71,84.92,41.64,84.75,41.51,84.69Zm1.21,4.47c.29,0,.25-.44,0-.45-.62,0-1.16,1.07-.42,1.3.12,0,.18-.08.14-.19S42.35,89.16,42.72,89.16Zm1.43,2.43c.35-.2.68-.43,1-.65.14-.09,0-.35-.15-.23-.32.25-.64.48-.94.75C44,91.52,44.08,91.63,44.15,91.59Zm5.77-11.38a8,8,0,0,0,.66-1.49A4.1,4.1,0,0,1,52,77.07c.27-.19-.08-.6-.35-.43-1.08.67-2.4,2.12-1.94,3.49C49.7,80.22,49.85,80.32,49.92,80.21Zm2.9,1.05a.15.15,0,0,0,.06-.1c0,.14.16,0,.25-.11.26-.16.43-.57.6-.81a6,6,0,0,1,.84-.91c.24-.21-.1-.65-.33-.43a12.51,12.51,0,0,0-1.42,1.49.94.94,0,0,0-.23.77A.17.17,0,0,0,52.82,81.26Zm2,2.29a4.36,4.36,0,0,1,.66-.63.15.15,0,0,0,0-.19,10.51,10.51,0,0,1,1.05-1.06c.23-.2-.07-.63-.3-.43a11.84,11.84,0,0,0-1.84,2C54.24,83.46,54.63,83.79,54.85,83.55Zm2.6.79c.66.08,1.25-1,1.46-1.46.11-.27-.32-.53-.45-.24a3,3,0,0,1-.52.83c-.22.25-.55.33-.65.66A.17.17,0,0,0,57.45,84.34Zm11.3-13.18a8.35,8.35,0,0,0,.82-4.31c0-.3-.45-.45-.49-.11a29.24,29.24,0,0,0-.61,4.34A.15.15,0,0,0,68.75,71.16Zm.52,3c.17.4-.53.87-.73,1.13a1.31,1.31,0,0,0-.24.81c0,.43.5.9.89.57a.14.14,0,0,0-.1-.23c-.23,0-.18-.38-.16-.56s.35-.48.52-.66A1.12,1.12,0,0,0,69.76,74,.28.28,0,1,0,69.27,74.21Zm-.81,5.64c.1.45,1,.92,1,.21,0-.13-.17-.32-.28-.16-.27.4.09-.27.16-.38q.34-.48.72-.93c.43-.52.86-1,1.3-1.57.19-.23-.24-.61-.44-.38l-1.44,1.7C69.21,78.69,68.33,79.29,68.46,79.85Zm1,8.24,1-.2a.11.11,0,0,0,0-.22l-.59-.14a12.19,12.19,0,0,1,1.75-2.88c.22-.26-.17-.7-.39-.44A12.27,12.27,0,0,0,69,87.62.38.38,0,0,0,69.41,88.09Zm1.65.91a11.77,11.77,0,0,1-1.52,3.77c-.66,1.07-1.67,1.86-2.32,2.91-.12.2.14.42.33.33,2.36-1.12,3.58-4.44,4-6.81C71.67,88.87,71.13,88.64,71.06,89Zm9-22.79c-.21-1.24-.68-2.34-.33-3.61.07-.28-.35-.55-.46-.24-.45,1.32-.58,3,.53,4A.15.15,0,0,0,80.06,66.21Zm1.34,4.71c.44-.18.64-.72.89-1.1A7.39,7.39,0,0,1,84,68.07c.27-.22-.12-.66-.39-.44a15.09,15.09,0,0,0-1.54,1.45c-.4.42-1.09,1.06-1,1.68A.23.23,0,0,0,81.4,70.92Zm2.83,3.41c.32-.12.07-.61-.23-.5a1.23,1.23,0,0,0-.58,1.83c.5.56,1.21.27,1.16,1.48a14.55,14.55,0,0,0,0,2.64c0,.18.28.25.32,0a16.76,16.76,0,0,0,.05-3.09,1.33,1.33,0,0,0-.2-.8C84.37,75.48,83.12,74.76,84.23,74.33Z"/></g></g></svg>